<svg fill="none" height="57" viewBox="0 0 70 57" width="70" xmlns="http://www.w3.org/2000/svg"><path d="m2.85981 19.0304c10.02339 48.3335 43.22149 38.9703 64.10569 27.9963 1.7889-.94 2.0745-3.3498.5923-4.7234-28.6858-26.5847-73.03597-62.6947-64.69799-23.2729z" fill="#00d562"/><path clip-rule="evenodd" d="m21.8032 5.03669c13.7552 7.49051 32.0983 23.24761 46.4344 36.53361 1.9724 1.828 1.6119 5.0711-.8069 6.3421-10.4756 5.5046-24.2605 10.7363-36.7789 8.3391-6.2984-1.2061-12.2468-4.3385-17.248-10.2675-4.98716-5.9124-8.99486-14.5597-11.52273-26.7482-1.053102-4.9797-1.298997-8.8697-.79721-11.78337.50645-2.94072 1.79996-4.99002 3.88086-6.04637 2.02611-1.028527 4.58007-.999138 7.37538-.31659 2.8138.68705 6.0178 2.0711 9.4631 3.94722zm-18.74835 2.75518c-.43966 2.55293-.24769 6.15733.78335 11.03213l.00081.0038c2.48387 11.9774 6.38459 20.2841 11.09349 25.8666 4.6952 5.5663 10.231 8.4698 16.0955 9.5928 11.8076 2.2611 25.0638-2.6759 35.4724-8.1452 1.159-.609 1.3696-2.1855.3777-3.1048-14.3497-13.2986-32.5246-28.8889-46.0314-36.24405-3.3703-1.83531-6.4033-3.13134-8.981-3.76076-2.5962-.63393-4.58826-.55741-5.99567.15705-1.35261.68664-2.38011 2.07618-2.81518 4.60243z" fill="#f35034" fill-rule="evenodd"/></svg>