<svg fill="none" height="73" viewBox="0 0 95 73" width="95" xmlns="http://www.w3.org/2000/svg"><path d="m77.0888 54.1017c-25.8618 15.5387-57.1695 18.4256-75.55633 16.8915 17.70963-35.8185 36.65013-55.6404 54.21093-65.53683 32.8799-18.52947 53.6836 29.21533 21.3454 48.64533z" fill="#00d562"/><path clip-rule="evenodd" d="m.636054 70.5502c17.765446-35.9313 36.824846-55.9383 54.616346-65.96479 8.4297-4.750587 16.1969-5.30622 22.5822-3.01889 6.3667 2.28068 11.2275 7.34091 13.9545 13.57728 5.4584 12.4826 2.4392 29.8267-14.1853 39.8153-26.0928 15.6775-57.6271 18.5767-76.15447 17.0309-.32987-.0275-.624748-.2165-.787551-.5047s-.172435-.6383-.025725-.9351zm2.453846-.4419c18.4123 1.2501 48.5309-1.8709 73.4838-16.8635 15.7138-9.4414 18.4619-25.6847 13.383-37.2997-2.5417-5.8124-7.0256-10.42849-12.7966-12.49574-5.7523-2.06058-12.9156-1.63575-20.9258 2.87842-17.1139 9.64452-35.6823 28.91492-53.1444 63.78052z" fill="#f35034" fill-rule="evenodd"/></svg>