<svg fill="none" height="339" viewBox="0 0 563 339" width="563" xmlns="http://www.w3.org/2000/svg"><path d="m166.073 211.796c0-63.71 51.647-115.3575 115.357-115.3575s115.357 51.6475 115.357 115.3565v74.214h-230.714z" fill="#fdc4ed" stroke="#f35534" stroke-linejoin="round" stroke-width="2"/><path d="m353.001 252.001c0 12.303-3.089 23.883-8.533 34m-134.467-34c0 12.303 3.089 23.883 8.532 34" stroke="#f35534" stroke-linejoin="round" stroke-width="2"/><path d="m304 273.475v-74.475h-45v74.475c0 14.397 10.074 20.525 22.5 20.525s22.5-6.128 22.5-20.525z" fill="#fdc4ed"/><path d="m259 242v29.5c0 12.426 10.074 22.5 22.5 22.5s22.5-10.074 22.5-22.5v-29.5" stroke="#f35534" stroke-linejoin="round" stroke-width="2"/><path d="m178.082 160.497h39.293l19.01-19.009v19.009h22.134 126.266c-18.881-37.968-58.069-64.0585-103.351-64.0585s-84.47 26.0905-103.352 64.0585z" fill="#f35534"/><g stroke-linejoin="round" stroke-width="2"><path d="m258.519 160.497h-22.134v-19.009l-19.01 19.009h-39.293c18.882-37.968 58.07-64.0585 103.352-64.0585s84.47 26.0905 103.351 64.0585zm0 0v-19.009" stroke="#f35534"/><path d="m147.327 212.056c0-5.178 4.197-9.375 9.375-9.375 5.177 0 9.374 4.197 9.374 9.375v73.953h-18.749z" fill="#fdc4ed" stroke="#f35534"/><path d="m396.787 212.056c0-5.178 4.197-9.375 9.374-9.375 5.178 0 9.375 4.197 9.375 9.375v73.953h-18.749z" fill="#fdc4ed" stroke="#f35534"/><ellipse cx="234.595" cy="208.709" fill="#fff" rx="30.4668" ry="24.7752" stroke="#f35534" transform="matrix(0 1 -1 0 443.304 -25.886)"/><path d="m213.212 193.309c4.303 9.014 12.267 15.066 21.381 15.066s17.079-6.052 21.382-15.066c-4.303-9.014-12.268-15.066-21.382-15.066s-17.078 6.052-21.381 15.066z" fill="#000" stroke="#000"/><ellipse cx="30.4668" cy="24.7752" fill="#fff" rx="30.4668" ry="24.7752" stroke="#f35534" transform="matrix(.00000004 1 1 -.00000004 303.492 178.243)"/><path d="m349.649 193.309c-4.302 9.014-12.267 15.066-21.381 15.066s-17.078-6.052-21.381-15.066c4.302-9.014 12.267-15.066 21.381-15.066s17.079 6.052 21.381 15.066z" fill="#000" stroke="#000"/><g stroke="#f35534"><path d="m124 276c18.225 0 33 8.092 33 18.075v14.85c0 9.983-14.775 18.075-33 18.075s-33-8.092-33-18.075v-14.85c0-9.983 14.775-18.075 33-18.075z" fill="#fbc641"/><ellipse cx="124" cy="294.229" fill="#fbc641" rx="18.2286" ry="33" transform="matrix(0 1 -1 0 418.229 170.229)"/><path d="m124 262c18.225 0 33 8.092 33 18.075v14.85c0 9.983-14.775 18.075-33 18.075s-33-8.092-33-18.075v-14.85c0-9.983 14.775-18.075 33-18.075z" fill="#fbc641"/><ellipse cx="124" cy="280.229" fill="#fbc641" rx="18.2286" ry="33" transform="matrix(0 1 -1 0 404.229 156.229)"/><path d="m124 248c18.225 0 33 8.092 33 18.075v14.85c0 9.983-14.775 18.075-33 18.075s-33-8.092-33-18.075v-14.85c0-9.983 14.775-18.075 33-18.075z" fill="#fbc641"/><ellipse cx="124" cy="266.229" fill="#fbc641" rx="18.2286" ry="33" transform="matrix(0 1 -1 0 390.229 142.229)"/><path d="m124 234c18.225 0 33 8.092 33 18.075v14.85c0 9.983-14.775 18.075-33 18.075s-33-8.092-33-18.075v-14.85c0-9.983 14.775-18.075 33-18.075z" fill="#fbc641"/><ellipse cx="124" cy="252.229" fill="#fbc641" rx="18.2286" ry="33" transform="matrix(0 1 -1 0 376.229 128.229)"/></g></g><path d="m154.41 337c19.557 0 35.41-8.251 35.41-18.428v-15.144c0-10.177-15.853-18.428-35.41-18.428s-35.41 8.251-35.41 18.428v15.144c0 10.177 15.853 18.428 35.41 18.428z" fill="#fbc641"/><path d="m189.82 303.428v15.144c0 10.177-15.853 18.428-35.41 18.428s-35.41-8.251-35.41-18.428v-15.144m70.82 0c0-10.177-15.853-18.428-35.41-18.428s-35.41 8.251-35.41 18.428m70.82 0c0 10.178-15.853 18.428-35.41 18.428s-35.41-8.25-35.41-18.428" stroke="#f35534" stroke-width="2"/><path d="m189.82 318.572c0 10.177-15.853 18.428-35.41 18.428s-35.41-8.251-35.41-18.428v-15.144c0 10.178 15.853 18.428 35.41 18.428s35.41-8.25 35.41-18.428z" fill="#f35534" stroke="#f35534" stroke-width="2"/><path d="m179.892 303.391h-17.617-15.397l8.627 9.863z" fill="#fff"/><path d="m150.038 313.254-8.627-9.863h-12.121z" fill="#fff"/><path d="m179.892 303.391h-17.617-15.397l8.627-9.862z" fill="#fff"/><path d="m150.038 293.529-8.627 9.862h-12.121z" fill="#fff"/><g stroke="#f35534" stroke-linejoin="round"><path d="m179.892 303.391h-17.617m17.617 0-24.387 9.863m24.387-9.863-24.387-9.862m6.77 9.862h-15.397m15.397 0-6.77 9.863m6.77-9.863-6.77-9.862m-8.627 9.862 8.627 9.863m-8.627-9.863 8.627-9.862m-14.094 9.862 8.627 9.863-20.748-9.863m12.121 0h-12.121m12.121 0 8.627-9.862-20.748 9.862" stroke-width="2.61538"/><path d="m502 250c18.225 0 33 8.092 33 18.075v14.85c0 9.983-14.775 18.075-33 18.075s-33-8.092-33-18.075v-14.85c0-9.983 14.775-18.075 33-18.075z" fill="#fbc641" stroke-width="2"/><ellipse cx="502" cy="268.229" fill="#fbc641" rx="18.2286" ry="33" stroke-width="2" transform="matrix(0 1 -1 0 770.229 -233.771)"/><path d="m502 236c18.225 0 33 8.092 33 18.075v14.85c0 9.983-14.775 18.075-33 18.075s-33-8.092-33-18.075v-14.85c0-9.983 14.775-18.075 33-18.075z" fill="#fbc641" stroke-width="2"/><ellipse cx="502" cy="254.229" fill="#fbc641" rx="18.2286" ry="33" stroke-width="2" transform="matrix(0 1 -1 0 756.229 -247.771)"/></g><path d="m448.305 337.088c32.753 0 59.304-13.818 59.304-30.863v-25.362c0-17.045-26.551-30.863-59.304-30.863-32.752 0-59.304 13.818-59.304 30.863v25.362c0 17.045 26.552 30.863 59.304 30.863z" fill="#fbc641"/><path d="m507.609 280.863v25.362c0 17.045-26.551 30.863-59.304 30.863-32.752 0-59.304-13.818-59.304-30.863v-25.362m118.608 0c0-17.045-26.551-30.863-59.304-30.863-32.752 0-59.304 13.818-59.304 30.863m118.608 0c0 17.045-26.551 30.862-59.304 30.862-32.752 0-59.304-13.817-59.304-30.862" stroke="#f35534" stroke-width="2"/><path d="m507.609 306.225c0 17.045-26.551 30.863-59.304 30.863-32.752 0-59.304-13.818-59.304-30.863v-25.362c0 17.045 26.552 30.863 59.304 30.863 32.753 0 59.304-13.818 59.304-30.863z" fill="#f35534" stroke="#f35534" stroke-width="2"/><path d="m490.98 280.801h-29.504-25.785l14.447 16.518z" fill="#fff"/><path d="m440.982 297.319-14.447-16.518h-20.3z" fill="#fff"/><path d="m490.98 280.801h-29.504-25.785l14.447-16.518z" fill="#fff"/><path d="m440.982 264.283-14.447 16.518h-20.3z" fill="#fff"/><path d="m490.98 280.801h-29.504m29.504 0-40.842 16.518m40.842-16.518-40.842-16.518m11.338 16.518h-25.785m25.785 0-11.338 16.518m11.338-16.518-11.338-16.518m-14.447 16.518 14.447 16.518m-14.447-16.518 14.447-16.518m-23.603 16.518 14.447 16.518-34.747-16.518m20.3 0h-20.3m20.3 0 14.447-16.518-34.747 16.518" stroke="#f35534" stroke-linejoin="round" stroke-width="2.61538"/><path d="m1.23145 128.437c154.75155-153.916 405.65355-153.916 560.40555 0z" fill="#fff" stroke="#f35534" stroke-linejoin="round" stroke-width="2"/><path d="m108.612 128.437c95.446-153.9159 250.194-153.9159 345.64 0z" fill="#fff" stroke="#f35534" stroke-linejoin="round" stroke-width="2"/><path d="m265.001 13c0-6.62742 5.373-12 12-12h10c6.627 0 12 5.37258 12 12z" fill="#f35534" stroke="#f35534" stroke-linejoin="round" stroke-width="2"/><path d="m274.796 74.1844c.147.555.364 1.0808.642 1.5668.276.4845.616.9363 1.016 1.341.403.4085.852.7554 1.335 1.0368.48.2813 1 .5014 1.549.6498.549.149 1.107.2213 1.662.2208.555.0005 1.114-.0718 1.662-.2209.549-.1483 1.068-.3683 1.548-.6494.484-.2815.934-.6287 1.337-1.0377.399-.4045.738-.8558 1.014-1.34.278-.4859.496-1.0117.643-1.5668.149-.5584.22-1.1274.219-1.6925 0-.558-.071-1.1198-.217-1.6713-.146-.5565-.364-1.0836-.642-1.5708-.278-.489-.621-.9447-1.025-1.3524-.4-.4051-.847-.7492-1.326-1.0288-.481-.2816-1.001-.5019-1.55-.6505-.549-.1492-1.108-.2216-1.663-.221-.555-.0005-1.114.0719-1.663.2211-.549.1485-1.069.3689-1.55.6505-.479.2794-.925.6233-1.325 1.028-.404.4078-.748.8636-1.026 1.3527-.278.487-.496 1.0139-.642 1.5702-.146.5522-.217 1.1147-.217 1.6734-.001.5645.07 1.1331.219 1.691z" fill="#f35534"/><path clip-rule="evenodd" d="m287.918 51.9985.77 7.0235 6.394-2.8368 6.918 12.1267-5.625 4.1866 5.625 4.1867-6.918 12.1267-6.394-2.8368-.77 7.0234h-13.836l-.77-7.0234-6.394 2.8368-6.918-12.1267 5.625-4.1867-5.625-4.1866 6.918-12.1267 6.394 2.8368.77-7.0235zm-13.478 9h13.12l6.56 11.5-6.56 11.5h-13.12l-6.56-11.5z" fill="#f35534" fill-rule="evenodd"/><path clip-rule="evenodd" d="m280.767 92.9985v35.4365h2v-35.4365zm0-36h2v-43.3291h-2z" fill="#f35534" fill-rule="evenodd"/></svg>