<svg fill="none" height="373" viewBox="0 0 607 373" width="607" xmlns="http://www.w3.org/2000/svg"><path d="m202.011 213.583c0-55.782 45.221-101.003 101.003-101.003 55.783 0 101.004 45.221 101.004 101.003v64.98h-202.007z" fill="#ffc9f0"/><path clip-rule="evenodd" d="m201.011 213.583c0-56.335 45.669-102.003 102.003-102.003 56.335 0 102.004 45.668 102.004 102.003v64.98c0 .552-.448 1-1 1h-202.007c-.552 0-1-.448-1-1zm102.003-100.003c-55.23 0-100.003 44.773-100.003 100.003v63.98h200.007v-63.98c0-55.23-44.773-100.003-100.004-100.003z" fill="#f35034" fill-rule="evenodd"/><path clip-rule="evenodd" d="m201.011 213.583c0-56.335 45.669-102.003 102.003-102.003 56.335 0 102.004 45.668 102.004 102.003v63.98h201.006v2h-606.01960547v-2h201.00660547zm2 63.98h200.007v-63.98c0-55.23-44.773-100.003-100.004-100.003-55.23 0-100.003 44.773-100.003 100.003z" fill="#f35034" fill-rule="evenodd"/><path clip-rule="evenodd" d="m241.473 248.787c0 10.603 2.662 20.579 7.351 29.296l-1.761.947c-4.843-9.001-7.59-19.302-7.59-30.243zm115.855 29.296c4.689-8.717 7.351-18.693 7.351-29.296h2c0 10.941-2.748 21.242-7.59 30.243z" fill="#f35034" fill-rule="evenodd"/><path d="m322.397 283.031v-81.076h-38.76v81.076c0 15.672 8.677 22.344 19.38 22.344s19.38-6.672 19.38-22.344z" fill="#ffc9f0"/><path clip-rule="evenodd" d="m284.637 248.789v37.205c0 10.151 8.229 18.38 18.38 18.38s18.38-8.229 18.38-18.38v-37.205h2v37.205c0 11.256-9.124 20.38-20.38 20.38-11.255 0-20.38-9.124-20.38-20.38v-37.205z" fill="#f35034" fill-rule="evenodd"/><path d="m212.525 168.668h34.404l16.644-16.644v16.644h19.38 110.555c-16.532-33.244-50.844-56.088-90.491-56.088-30.796 0-58.373 13.782-76.899 35.515-5.325 6.247-9.902 13.151-13.593 20.573z" fill="#f35034"/><path clip-rule="evenodd" d="m303.017 113.58c-30.491 0-57.794 13.645-76.138 35.164-4.925 5.778-9.204 12.123-12.725 18.924h32.361l16.351-16.351c.286-.286.716-.372 1.09-.217.373.155.617.519.617.924v15.644h17.38v-15.644h2v15.644h107.926c-16.636-32.132-50.186-54.088-88.862-54.088zm-77.66 33.867c18.708-21.947 46.559-35.867 77.66-35.867 40.041 0 74.692 23.072 91.387 56.642.154.31.137.678-.046.972-.182.295-.504.474-.85.474h-129.935c-.552 0-1-.448-1-1v-14.23l-14.937 14.937c-.187.187-.442.293-.707.293h-34.404c-.346 0-.668-.179-.85-.474-.183-.294-.2-.662-.046-.972 3.728-7.495 8.351-14.467 13.728-20.775z" fill="#f35034" fill-rule="evenodd"/><path d="m185.597 213.811c0-4.533 3.675-8.207 8.208-8.207s8.208 3.674 8.208 8.207v64.752h-16.416z" fill="#ffc9f0"/><path clip-rule="evenodd" d="m184.597 213.811c0-5.085 4.123-9.207 9.208-9.207 5.086 0 9.208 4.122 9.208 9.207v64.752c0 .552-.448 1-1 1h-16.416c-.552 0-1-.448-1-1zm9.208-7.207c-3.981 0-7.208 3.227-7.208 7.207v63.752h14.416v-63.752c0-3.98-3.227-7.207-7.208-7.207z" fill="#f35034" fill-rule="evenodd"/><path d="m404.017 213.811c0-4.533 3.675-8.207 8.208-8.207 4.534 0 8.208 3.674 8.208 8.207v64.752h-16.416z" fill="#ffc9f0"/><path clip-rule="evenodd" d="m403.017 213.811c0-5.085 4.123-9.207 9.208-9.207 5.086 0 9.208 4.122 9.208 9.207v64.752c0 .552-.447 1-1 1h-16.416c-.552 0-1-.448-1-1zm9.208-7.207c-3.98 0-7.208 3.227-7.208 7.207v63.752h14.416v-63.752c0-3.98-3.227-7.207-7.208-7.207z" fill="#f35034" fill-rule="evenodd"/><path d="m262.006 237.557c-11.981 0-21.693-11.943-21.693-26.676s9.712-26.676 21.693-26.676c11.98 0 21.692 11.943 21.692 26.676s-9.712 26.676-21.692 26.676z" fill="#fff"/><path clip-rule="evenodd" d="m282.698 210.881c0-14.384-9.447-25.676-20.692-25.676s-20.693 11.292-20.693 25.676c0 14.383 9.448 25.676 20.693 25.676s20.692-11.293 20.692-25.676zm-20.692-27.676c12.716 0 22.692 12.594 22.692 27.676s-9.976 27.676-22.692 27.676-22.693-12.594-22.693-27.676 9.977-27.676 22.693-27.676z" fill="#f35034" fill-rule="evenodd"/><path d="m243.283 197.396c3.768 7.893 10.741 13.192 18.721 13.192s14.954-5.299 18.721-13.192c-3.767-7.892-10.741-13.191-18.721-13.191s-14.953 5.299-18.721 13.191z" fill="#48bdff"/><path clip-rule="evenodd" d="m281.628 196.966c.13.272.13.589 0 .861-3.89 8.149-11.167 13.761-19.624 13.761s-15.733-5.612-19.623-13.761c-.13-.272-.13-.589 0-.861 3.89-8.15 11.166-13.761 19.623-13.761s15.734 5.611 19.624 13.761zm-2.016.43c-3.687-7.392-10.247-12.191-17.608-12.191s-13.921 4.799-17.608 12.191c3.687 7.392 10.247 12.192 17.608 12.192s13.921-4.8 17.608-12.192z" fill="#f35034" fill-rule="evenodd"/><path d="m344.023 237.557c11.98 0 21.693-11.943 21.693-26.676s-9.713-26.676-21.693-26.676-21.692 11.943-21.692 26.676 9.712 26.676 21.692 26.676z" fill="#fff"/><path clip-rule="evenodd" d="m323.331 210.881c0-14.384 9.447-25.676 20.692-25.676s20.693 11.292 20.693 25.676c0 14.383-9.448 25.676-20.693 25.676s-20.692-11.293-20.692-25.676zm20.692-27.676c-12.716 0-22.692 12.594-22.692 27.676s9.976 27.676 22.692 27.676 22.693-12.594 22.693-27.676-9.977-27.676-22.693-27.676z" fill="#f35034" fill-rule="evenodd"/><path d="m362.746 197.396c-3.768 7.893-10.741 13.192-18.721 13.192s-14.954-5.299-18.721-13.192c3.767-7.892 10.741-13.191 18.721-13.191s14.953 5.299 18.721 13.191z" fill="#48bdff"/><path clip-rule="evenodd" d="m324.401 196.966c-.13.272-.13.589 0 .861 3.89 8.149 11.167 13.761 19.624 13.761 8.456 0 15.733-5.612 19.623-13.761.13-.272.13-.589 0-.861-3.89-8.15-11.167-13.761-19.623-13.761-8.457 0-15.734 5.611-19.624 13.761zm2.015.43c3.688-7.392 10.248-12.191 17.609-12.191s13.92 4.799 17.608 12.191c-3.688 7.392-10.247 12.192-17.608 12.192s-13.921-4.8-17.609-12.192z" fill="#f35034" fill-rule="evenodd"/><path d="m226.179 130.363h153.215v17.328h-153.215z" fill="#fff"/><path clip-rule="evenodd" d="m225.179 130.363c0-.552.447-1 1-1h153.215c.552 0 1 .448 1 1v17.328c0 .552-.448 1-1 1h-153.215c-.553 0-1-.448-1-1zm2 1v15.328h151.215v-15.328z" fill="#f35034" fill-rule="evenodd"/><path d="m237.859 112.494h6.271v17.882h-6.271z" fill="#fff"/><path clip-rule="evenodd" d="m236.859 112.494c0-.552.448-1 1-1h6.271c.552 0 1 .448 1 1v17.882c0 .552-.448 1-1 1h-6.271c-.552 0-1-.448-1-1zm2 1v15.882h4.271v-15.882z" fill="#f35034" fill-rule="evenodd"/><path d="m361.353 112.494h6.502v17.882h-6.502z" fill="#fff"/><path clip-rule="evenodd" d="m360.353 112.494c0-.552.447-1 1-1h6.502c.553 0 1 .448 1 1v17.882c0 .552-.447 1-1 1h-6.502c-.553 0-1-.448-1-1zm2 1v15.882h4.502v-15.882z" fill="#f35034" fill-rule="evenodd"/><path d="m45.0001 113c142.4899-134.6667 373.5109-134.6667 515.9999 0z" fill="#fff"/><path clip-rule="evenodd" d="m558.473 112h-510.9461c141.6311-132 369.3151-132 510.9461 0zm-514.1597.273c142.8747-135.0307 374.4987-135.0307 517.3737 0 .298.282.394.716.242 1.097-.151.38-.519.63-.929.63h-515.9998c-.4096 0-.7778-.25-.9292-.63-.1514-.381-.0554-.815.2423-1.097z" fill="#f35034" fill-rule="evenodd"/><path d="m144 113c87.813-134.6667 230.187-134.6667 318 0z" fill="#fff"/><g fill="#f35034"><path clip-rule="evenodd" d="m145.852 112h314.296c-43.643-66.0974-100.465-99-157.148-99s-113.505 32.9026-157.148 99zm157.148-101c57.97 0 115.799 33.9176 159.838 101.454.2.307.216.7.041 1.022-.174.323-.512.524-.879.524h-318c-.367 0-.704-.201-.879-.524-.175-.322-.159-.715.041-1.022 44.039-67.5364 101.868-101.454 159.838-101.454z" fill-rule="evenodd"/><path clip-rule="evenodd" d="m302.51 113.073v-100.6902h2v100.6902z" fill-rule="evenodd"/><path d="m288.629 11.5069c0-5.80282 4.704-10.5069 10.507-10.5069h8.755c5.803 0 10.507 4.70408 10.507 10.5069z"/><path clip-rule="evenodd" d="m287.629 11.5069c0-6.35511 5.152-11.5069 11.507-11.5069h8.755c6.355 0 11.507 5.15179 11.507 11.5069 0 .5522-.448 1-1 1h-29.769c-.553 0-1-.4478-1-1zm2.052-1h27.665c-.499-4.7805-4.542-8.5069-9.455-8.5069h-8.755c-4.913 0-8.956 3.7264-9.455 8.5069z" fill-rule="evenodd"/></g><path d="m335.909 62.2887c0 17.8919-14.504 32.3961-32.396 32.3961s-32.396-14.5042-32.396-32.3961 14.504-32.3961 32.396-32.3961 32.396 14.5042 32.396 32.3961z" fill="#fff"/><path clip-rule="evenodd" d="m303.513 30.8926c-17.339 0-31.396 14.0565-31.396 31.3961s14.057 31.3961 31.396 31.3961c17.34 0 31.396-14.0565 31.396-31.3961s-14.056-31.3961-31.396-31.3961zm-33.396 31.3961c0-18.4442 14.952-33.3961 33.396-33.3961s33.396 14.9519 33.396 33.3961-14.952 33.3961-33.396 33.3961-33.396-14.9519-33.396-33.3961z" fill="#f35034" fill-rule="evenodd"/><path d="m297.564 63.872c.141.5216.349 1.0156.616 1.4723.265.4553.591.8797.974 1.26.386.3839.817.7098 1.28.9742.461.2644.959.4712 1.486.6107.525.14 1.061.2079 1.593.2074.532.0005 1.068-.0675 1.594-.2075.526-.1394 1.024-.3461 1.485-.6102.463-.2646.895-.5909 1.281-.9752.383-.38.709-.8041.973-1.259.267-.4566.476-.9507.617-1.4722.142-.5247.211-1.0594.21-1.5904 0-.5243-.068-1.0522-.208-1.5704-.141-.5229-.349-1.0182-.616-1.476-.267-.4595-.596-.8877-.983-1.2708-.384-.3806-.812-.704-1.272-.9667-.461-.2646-.96-.4716-1.486-.6112-.526-.1402-1.063-.2082-1.595-.2077-.532-.0005-1.068.0676-1.594.2078-.527.1395-1.026.3466-1.487.6112-.459.2625-.887.5857-1.271.966-.387.3832-.716.8114-.983 1.271-.267.4576-.476.9527-.616 1.4754-.14.5189-.209 1.0474-.208 1.5724-.001.5305.067 1.0647.21 1.5889z" fill="#f35034"/><path clip-rule="evenodd" d="m310.147 43.0254.738 6.5995 6.133-2.6656 6.633 11.3947-5.394 3.934 5.394 3.9339-6.633 11.3947-6.133-2.6656-.738 6.5995h-13.267l-.739-6.5995-6.132 2.6656-6.634-11.3947 5.394-3.934-5.394-3.9339 6.634-11.3947 6.132 2.6656.739-6.5995zm-12.925 8.4567h12.582l6.291 10.8059-6.291 10.8058h-12.582l-6.291-10.8058z" fill="#f35034" fill-rule="evenodd"/><path d="m87 313c0 11.598 17.461 21 39 21s39-9.402 39-21v-18c0-11.598-17.461-21-39-21s-39 9.402-39 21z" fill="#ffd338"/><path clip-rule="evenodd" d="m154.051 279.27c7.189 3.871 11.949 9.387 11.949 15.73v18c0 6.343-4.76 11.859-11.949 15.73-7.23 3.893-17.149 6.27-28.051 6.27s-20.821-2.377-28.0513-6.27c-7.1892-3.871-11.9487-9.387-11.9487-15.73v-18c0-6.343 4.7595-11.859 11.9487-15.73 7.2303-3.893 17.1493-6.27 28.0513-6.27s20.821 2.377 28.051 6.27zm-.948 1.761c-6.885-3.707-16.466-6.031-27.103-6.031s-20.218 2.324-27.1031 6.031c-6.926 3.73-10.8969 8.714-10.8969 13.969v18c0 5.255 3.9709 10.239 10.8969 13.969 6.8851 3.707 16.4661 6.031 27.1031 6.031s20.218-2.324 27.103-6.031c6.926-3.73 10.897-8.714 10.897-13.969v-18c0-5.255-3.971-10.239-10.897-13.969z" fill="#f35034" fill-rule="evenodd"/><path d="m126 316c-21.539 0-39-9.402-39-21s17.461-21 39-21 39 9.402 39 21-17.461 21-39 21z" fill="#ffd338"/><path clip-rule="evenodd" d="m153.103 281.031c-6.885-3.707-16.466-6.031-27.103-6.031s-20.218 2.324-27.1031 6.031c-6.926 3.73-10.8969 8.714-10.8969 13.969s3.9709 10.239 10.8969 13.969c6.8851 3.707 16.4661 6.031 27.1031 6.031s20.218-2.324 27.103-6.031c6.926-3.73 10.897-8.714 10.897-13.969s-3.971-10.239-10.897-13.969zm.948-1.761c7.189 3.871 11.949 9.387 11.949 15.73s-4.76 11.859-11.949 15.73c-7.23 3.893-17.149 6.27-28.051 6.27s-20.821-2.377-28.0513-6.27c-7.1892-3.871-11.9487-9.387-11.9487-15.73s4.7595-11.859 11.9487-15.73c7.2303-3.893 17.1493-6.27 28.0513-6.27s20.821 2.377 28.051 6.27z" fill="#f35034" fill-rule="evenodd"/><path d="m87 295c0 11.598 17.461 21 39 21s39-9.402 39-21v-18c0-11.598-17.461-21-39-21s-39 9.402-39 21z" fill="#ffd338"/><path clip-rule="evenodd" d="m154.051 261.27c7.189 3.871 11.949 9.387 11.949 15.73v18c0 6.343-4.76 11.859-11.949 15.73-7.23 3.893-17.149 6.27-28.051 6.27s-20.821-2.377-28.0513-6.27c-7.1892-3.871-11.9487-9.387-11.9487-15.73v-18c0-6.343 4.7595-11.859 11.9487-15.73 7.2303-3.893 17.1493-6.27 28.0513-6.27s20.821 2.377 28.051 6.27zm-.948 1.761c-6.885-3.707-16.466-6.031-27.103-6.031s-20.218 2.324-27.1031 6.031c-6.926 3.73-10.8969 8.714-10.8969 13.969v18c0 5.255 3.9709 10.239 10.8969 13.969 6.8851 3.707 16.4661 6.031 27.1031 6.031s20.218-2.324 27.103-6.031c6.926-3.73 10.897-8.714 10.897-13.969v-18c0-5.255-3.971-10.239-10.897-13.969z" fill="#f35034" fill-rule="evenodd"/><path d="m126 298c-21.539 0-39-9.402-39-21s17.461-21 39-21 39 9.402 39 21-17.461 21-39 21z" fill="#ffd338"/><path clip-rule="evenodd" d="m153.103 263.031c-6.885-3.707-16.466-6.031-27.103-6.031s-20.218 2.324-27.1031 6.031c-6.926 3.73-10.8969 8.714-10.8969 13.969s3.9709 10.239 10.8969 13.969c6.8851 3.707 16.4661 6.031 27.1031 6.031s20.218-2.324 27.103-6.031c6.926-3.73 10.897-8.714 10.897-13.969s-3.971-10.239-10.897-13.969zm.948-1.761c7.189 3.871 11.949 9.387 11.949 15.73s-4.76 11.859-11.949 15.73c-7.23 3.893-17.149 6.27-28.051 6.27s-20.821-2.377-28.0513-6.27c-7.1892-3.871-11.9487-9.387-11.9487-15.73s4.7595-11.859 11.9487-15.73c7.2303-3.893 17.1493-6.27 28.0513-6.27s20.821 2.377 28.051 6.27z" fill="#f35034" fill-rule="evenodd"/><path d="m87 277c0 11.598 17.461 21 39 21s39-9.402 39-21v-18c0-11.598-17.461-21-39-21s-39 9.402-39 21z" fill="#ffd338"/><path clip-rule="evenodd" d="m154.051 243.27c7.189 3.871 11.949 9.387 11.949 15.73v18c0 6.343-4.76 11.859-11.949 15.73-7.23 3.893-17.149 6.27-28.051 6.27s-20.821-2.377-28.0513-6.27c-7.1892-3.871-11.9487-9.387-11.9487-15.73v-18c0-6.343 4.7595-11.859 11.9487-15.73 7.2303-3.893 17.1493-6.27 28.0513-6.27s20.821 2.377 28.051 6.27zm-.948 1.761c-6.885-3.707-16.466-6.031-27.103-6.031s-20.218 2.324-27.1031 6.031c-6.926 3.73-10.8969 8.714-10.8969 13.969v18c0 5.255 3.9709 10.239 10.8969 13.969 6.8851 3.707 16.4661 6.031 27.1031 6.031s20.218-2.324 27.103-6.031c6.926-3.73 10.897-8.714 10.897-13.969v-18c0-5.255-3.971-10.239-10.897-13.969z" fill="#f35034" fill-rule="evenodd"/><path d="m126 280c-21.539 0-39-9.402-39-21s17.461-21 39-21 39 9.402 39 21-17.461 21-39 21z" fill="#ffd338"/><path clip-rule="evenodd" d="m153.103 245.031c-6.885-3.707-16.466-6.031-27.103-6.031s-20.218 2.324-27.1031 6.031c-6.926 3.73-10.8969 8.714-10.8969 13.969s3.9709 10.239 10.8969 13.969c6.8851 3.707 16.4661 6.031 27.1031 6.031s20.218-2.324 27.103-6.031c6.926-3.73 10.897-8.714 10.897-13.969s-3.971-10.239-10.897-13.969zm.948-1.761c7.189 3.871 11.949 9.387 11.949 15.73s-4.76 11.859-11.949 15.73c-7.23 3.893-17.149 6.27-28.051 6.27s-20.821-2.377-28.0513-6.27c-7.1892-3.871-11.9487-9.387-11.9487-15.73s4.7595-11.859 11.9487-15.73c7.2303-3.893 17.1493-6.27 28.0513-6.27s20.821 2.377 28.051 6.27z" fill="#f35034" fill-rule="evenodd"/><path d="m87 259c0 11.598 17.461 21 39 21s39-9.402 39-21v-18c0-11.598-17.461-21-39-21s-39 9.402-39 21z" fill="#ffd338"/><path clip-rule="evenodd" d="m154.051 225.27c7.189 3.871 11.949 9.387 11.949 15.73v18c0 6.343-4.76 11.859-11.949 15.73-7.23 3.893-17.149 6.27-28.051 6.27s-20.821-2.377-28.0513-6.27c-7.1892-3.871-11.9487-9.387-11.9487-15.73v-18c0-6.343 4.7595-11.859 11.9487-15.73 7.2303-3.893 17.1493-6.27 28.0513-6.27s20.821 2.377 28.051 6.27zm-.948 1.761c-6.885-3.707-16.466-6.031-27.103-6.031s-20.218 2.324-27.1031 6.031c-6.926 3.73-10.8969 8.714-10.8969 13.969v18c0 5.255 3.9709 10.239 10.8969 13.969 6.8851 3.707 16.4661 6.031 27.1031 6.031s20.218-2.324 27.103-6.031c6.926-3.73 10.897-8.714 10.897-13.969v-18c0-5.255-3.971-10.239-10.897-13.969z" fill="#f35034" fill-rule="evenodd"/><path d="m126 262c-21.539 0-39-9.402-39-21s17.461-21 39-21 39 9.402 39 21-17.461 21-39 21z" fill="#ffd338"/><path clip-rule="evenodd" d="m153.103 227.031c-6.885-3.707-16.466-6.031-27.103-6.031s-20.218 2.324-27.1031 6.031c-6.926 3.73-10.8969 8.714-10.8969 13.969s3.9709 10.239 10.8969 13.969c6.8851 3.707 16.4661 6.031 27.1031 6.031s20.218-2.324 27.103-6.031c6.926-3.73 10.897-8.714 10.897-13.969s-3.971-10.239-10.897-13.969zm.948-1.761c7.189 3.871 11.949 9.387 11.949 15.73s-4.76 11.859-11.949 15.73c-7.23 3.893-17.149 6.27-28.051 6.27s-20.821-2.377-28.0513-6.27c-7.1892-3.871-11.9487-9.387-11.9487-15.73s4.7595-11.859 11.9487-15.73c7.2303-3.893 17.1493-6.27 28.0513-6.27s20.821 2.377 28.051 6.27z" fill="#f35034" fill-rule="evenodd"/><path d="m146.21 238.226-6.995 3.04c.384.556.584 1.139.584 1.736 0 1.602-1.435 3.109-4.043 4.242-2.606 1.133-6.072 1.756-9.757 1.756-3.686 0-7.152-.623-9.758-1.756s-4.042-2.639-4.042-4.242c0-.597.199-1.18.583-1.736l-6.995-3.04c-1.776 1.42-2.787 3.047-2.787 4.776 0 5.522 10.298 9.998 23 9.998s23-4.476 23-9.998c0-1.729-1.011-3.356-2.789-4.775z" fill="#fff"/><path d="m121.4 245.002h9.2v-6.363l15.661-6.81-6.507-2.828-13.75 5.98-13.759-5.981-6.506 2.828 15.661 6.807z" fill="#fff"/><path clip-rule="evenodd" d="m111.846 228.083c.255-.111.543-.111.798 0l13.36 5.807 13.351-5.806c.254-.11.543-.11.797 0l6.507 2.828c.365.159.602.519.602.917s-.236.758-.602.917l-15.059 6.549v5.707c0 .552-.448 1-1 1h-9.2c-.552 0-1-.448-1-1v-5.711l-15.059-6.546c-.365-.159-.602-.519-.602-.917s.237-.759.602-.917zm.399 2.007-3.997 1.738 13.551 5.89c.365.159.601.519.601.917v5.367h7.2v-5.363c0-.398.236-.758.601-.917l13.551-5.893-3.998-1.737-13.351 5.806c-.254.11-.543.11-.797 0zm-7.082 7.355c.29-.231.683-.284 1.023-.136l6.994 3.04c.275.119.481.355.563.643.082.287.032.596-.138.843-.288.416-.406.805-.406 1.167 0 .957.9 2.22 3.44 3.325 2.449 1.064 5.772 1.673 9.36 1.673 3.587 0 6.91-.609 9.359-1.673v-.001c2.541-1.104 3.441-2.367 3.441-3.324 0-.362-.119-.751-.407-1.167-.17-.247-.22-.556-.138-.843.082-.288.288-.524.563-.643l6.994-3.04c.257-.112.549-.11.805.003l.001.001c.078.035.151.079.218.132 1.907 1.521 3.165 3.407 3.165 5.557 0 1.714-.803 3.266-2.091 4.589-1.283 1.319-3.091 2.461-5.247 3.398-4.315 1.876-10.207 3.011-16.662 3.011s-12.347-1.135-16.662-3.011c-2.156-.937-3.964-2.079-5.247-3.398-1.288-1.323-2.091-2.875-2.091-4.589 0-2.15 1.258-4.035 3.163-5.557zm.795 1.946c-1.336 1.198-1.958 2.429-1.958 3.611 0 1.048.484 2.126 1.524 3.195 1.045 1.073 2.605 2.086 4.611 2.958 4.009 1.742 9.618 2.845 15.865 2.845s11.856-1.103 15.865-2.845c2.006-.872 3.566-1.885 4.611-2.958 1.04-1.069 1.524-2.147 1.524-3.195 0-1.182-.623-2.414-1.96-3.612l-5.455 2.371c.139.397.214.812.214 1.241 0 2.247-1.971 3.997-4.644 5.159-2.763 1.201-6.373 1.839-10.156 1.839-3.784 0-7.394-.638-10.157-1.839-2.671-1.162-4.643-2.911-4.643-5.159 0-.429.074-.844.213-1.241z" fill="#f35534" fill-rule="evenodd"/><path d="m144 351c0 11.598 17.461 21 39 21s39-9.402 39-21v-18c0-11.598-17.461-21-39-21s-39 9.402-39 21z" fill="#ffd338"/><path clip-rule="evenodd" d="m211.051 317.27c7.189 3.871 11.949 9.387 11.949 15.73v18c0 6.343-4.76 11.859-11.949 15.73-7.23 3.893-17.149 6.27-28.051 6.27s-20.821-2.377-28.051-6.27c-7.189-3.871-11.949-9.387-11.949-15.73v-18c0-6.343 4.76-11.859 11.949-15.73 7.23-3.893 17.149-6.27 28.051-6.27s20.821 2.377 28.051 6.27zm-.948 1.761c-6.885-3.707-16.466-6.031-27.103-6.031s-20.218 2.324-27.103 6.031c-6.926 3.73-10.897 8.714-10.897 13.969v18c0 5.255 3.971 10.239 10.897 13.969 6.885 3.707 16.466 6.031 27.103 6.031s20.218-2.324 27.103-6.031c6.926-3.73 10.897-8.714 10.897-13.969v-18c0-5.255-3.971-10.239-10.897-13.969z" fill="#f35034" fill-rule="evenodd"/><path d="m183 354c-21.539 0-39-9.402-39-21s17.461-21 39-21 39 9.402 39 21-17.461 21-39 21z" fill="#ffd338"/><path clip-rule="evenodd" d="m210.103 319.031c-6.885-3.707-16.466-6.031-27.103-6.031s-20.218 2.324-27.103 6.031c-6.926 3.73-10.897 8.714-10.897 13.969s3.971 10.239 10.897 13.969c6.885 3.707 16.466 6.031 27.103 6.031s20.218-2.324 27.103-6.031c6.926-3.73 10.897-8.714 10.897-13.969s-3.971-10.239-10.897-13.969zm.948-1.761c7.189 3.871 11.949 9.387 11.949 15.73s-4.76 11.859-11.949 15.73c-7.23 3.893-17.149 6.27-28.051 6.27s-20.821-2.377-28.051-6.27c-7.189-3.871-11.949-9.387-11.949-15.73s4.76-11.859 11.949-15.73c7.23-3.893 17.149-6.27 28.051-6.27s20.821 2.377 28.051 6.27z" fill="#f35034" fill-rule="evenodd"/><path d="m144 333c0 11.598 17.461 21 39 21s39-9.402 39-21v-18c0-11.598-17.461-21-39-21s-39 9.402-39 21z" fill="#ffd338"/><path clip-rule="evenodd" d="m211.051 299.27c7.189 3.871 11.949 9.387 11.949 15.73v18c0 6.343-4.76 11.859-11.949 15.73-7.23 3.893-17.149 6.27-28.051 6.27s-20.821-2.377-28.051-6.27c-7.189-3.871-11.949-9.387-11.949-15.73v-18c0-6.343 4.76-11.859 11.949-15.73 7.23-3.893 17.149-6.27 28.051-6.27s20.821 2.377 28.051 6.27zm-.948 1.761c-6.885-3.707-16.466-6.031-27.103-6.031s-20.218 2.324-27.103 6.031c-6.926 3.73-10.897 8.714-10.897 13.969v18c0 5.255 3.971 10.239 10.897 13.969 6.885 3.707 16.466 6.031 27.103 6.031s20.218-2.324 27.103-6.031c6.926-3.73 10.897-8.714 10.897-13.969v-18c0-5.255-3.971-10.239-10.897-13.969z" fill="#f35034" fill-rule="evenodd"/><path d="m183 336c-21.539 0-39-9.402-39-21s17.461-21 39-21 39 9.402 39 21-17.461 21-39 21z" fill="#ffd338"/><path clip-rule="evenodd" d="m210.103 301.031c-6.885-3.707-16.466-6.031-27.103-6.031s-20.218 2.324-27.103 6.031c-6.926 3.73-10.897 8.714-10.897 13.969s3.971 10.239 10.897 13.969c6.885 3.707 16.466 6.031 27.103 6.031s20.218-2.324 27.103-6.031c6.926-3.73 10.897-8.714 10.897-13.969s-3.971-10.239-10.897-13.969zm.948-1.761c7.189 3.871 11.949 9.387 11.949 15.73s-4.76 11.859-11.949 15.73c-7.23 3.893-17.149 6.27-28.051 6.27s-20.821-2.377-28.051-6.27c-7.189-3.871-11.949-9.387-11.949-15.73s4.76-11.859 11.949-15.73c7.23-3.893 17.149-6.27 28.051-6.27s20.821 2.377 28.051 6.27z" fill="#f35034" fill-rule="evenodd"/><g fill="#fff"><path d="m211.727 315h-19.75-17.26l9.671 13z"/><path d="m178.259 328-9.671-13h-13.588z"/><path d="m211.727 315h-19.75-17.26l9.671-13z"/><path d="m178.259 302-9.671 13h-13.588z"/></g><path clip-rule="evenodd" d="m212.727 315c0-.386-.222-.737-.571-.903l-27.339-13c-.431-.205-.947-.077-1.232.306l-9.671 13c-.263.354-.263.84 0 1.194l9.671 13c.285.383.801.511 1.232.306l27.339-13c.349-.166.571-.517.571-.903zm-25.842 10.705 5.666-9.705h14.744zm20.41-11.705h-14.744l-5.666-9.705zm-23.008-10.189 5.949 10.189h-13.529zm-7.58 12.189h13.529l-5.949 10.189zm2.303 12.66c.311-.355.333-.879.051-1.257l-9.227-12.403 9.227-12.403c.282-.379.26-.902-.051-1.257-.311-.354-.827-.443-1.239-.213l-23.259 13c-.316.177-.512.511-.512.873s.196.696.512.873l23.259 13c.412.23.928.141 1.239-.213zm-10.925-12.66 6.582 8.847-15.828-8.847zm-9.246-2h9.246l6.582-8.847z" fill="#f35534" fill-rule="evenodd"/><path d="m381 304c0 11.598 17.461 21 39 21s39-9.402 39-21v-18c0-11.598-17.461-21-39-21s-39 9.402-39 21z" fill="#ffd338"/><path clip-rule="evenodd" d="m448.051 270.27c7.189 3.871 11.949 9.387 11.949 15.73v18c0 6.343-4.76 11.859-11.949 15.73-7.23 3.893-17.149 6.27-28.051 6.27s-20.821-2.377-28.051-6.27c-7.189-3.871-11.949-9.387-11.949-15.73v-18c0-6.343 4.76-11.859 11.949-15.73 7.23-3.893 17.149-6.27 28.051-6.27s20.821 2.377 28.051 6.27zm-.948 1.761c-6.885-3.707-16.466-6.031-27.103-6.031s-20.218 2.324-27.103 6.031c-6.926 3.73-10.897 8.714-10.897 13.969v18c0 5.255 3.971 10.239 10.897 13.969 6.885 3.707 16.466 6.031 27.103 6.031s20.218-2.324 27.103-6.031c6.926-3.73 10.897-8.714 10.897-13.969v-18c0-5.255-3.971-10.239-10.897-13.969z" fill="#f35034" fill-rule="evenodd"/><path d="m420 307c-21.539 0-39-9.402-39-21s17.461-21 39-21 39 9.402 39 21-17.461 21-39 21z" fill="#ffd338"/><path clip-rule="evenodd" d="m447.103 272.031c-6.885-3.707-16.466-6.031-27.103-6.031s-20.218 2.324-27.103 6.031c-6.926 3.73-10.897 8.714-10.897 13.969s3.971 10.239 10.897 13.969c6.885 3.707 16.466 6.031 27.103 6.031s20.218-2.324 27.103-6.031c6.926-3.73 10.897-8.714 10.897-13.969s-3.971-10.239-10.897-13.969zm.948-1.761c7.189 3.871 11.949 9.387 11.949 15.73s-4.76 11.859-11.949 15.73c-7.23 3.893-17.149 6.27-28.051 6.27s-20.821-2.377-28.051-6.27c-7.189-3.871-11.949-9.387-11.949-15.73s4.76-11.859 11.949-15.73c7.23-3.893 17.149-6.27 28.051-6.27s20.821 2.377 28.051 6.27z" fill="#f35034" fill-rule="evenodd"/><path d="m420.5 297c-11.875 0-21.5-2.887-21.5-6.756 0-2.019 2.622-3.838 6.818-5.119 3.275 1.769 8.77 2.675 15.001 2.675 6.083 0 11.46-1.106 14.764-2.8 3.959 1.269 6.417 3.037 6.417 4.987 0 3.875-9.625 7.013-21.5 7.013z" fill="#fff"/><path clip-rule="evenodd" d="m435.495 283.922.394.126c2.036.653 3.758 1.455 4.993 2.395 1.219.928 2.118 2.117 2.118 3.545 0 1.416-.879 2.597-2.079 3.522-1.213.936-2.906 1.735-4.908 2.388-4.015 1.309-9.5 2.102-15.513 2.102-6.006 0-11.486-.728-15.499-1.972-2.001-.62-3.695-1.385-4.911-2.296-1.204-.901-2.09-2.068-2.09-3.488 0-1.476.957-2.696 2.243-3.642 1.306-.96 3.128-1.775 5.283-2.433l.399-.122.368.198c3.052 1.649 8.344 2.555 14.526 2.555 5.992 0 11.195-1.094 14.308-2.69zm.165 2.156c-3.511 1.682-8.886 2.722-14.841 2.722-6.056 0-11.573-.843-15.096-2.597-1.856.596-3.309 1.286-4.295 2.011-1.074.789-1.428 1.488-1.428 2.03 0 .514.317 1.16 1.289 1.887.96.719 2.414 1.401 4.304 1.987 3.768 1.167 9.038 1.882 14.907 1.882 5.862 0 11.127-.776 14.893-2.004 1.889-.615 3.344-1.327 4.307-2.07.976-.753 1.3-1.416 1.3-1.938s-.33-1.193-1.33-1.954c-.917-.699-2.272-1.369-4.01-1.956z" fill="#f35034" fill-rule="evenodd"/><path d="m420.5 288c-9.111 0-16.5-2.285-16.5-5.104 0-1.563 2.278-2.964 5.848-3.896 2.549 1.064 6.367 1.743 10.652 1.743s8.103-.679 10.652-1.743c3.578.938 5.848 2.333 5.848 3.896.008 2.819-7.382 5.104-16.5 5.104z" fill="#fff"/><path clip-rule="evenodd" d="m431.078 277.947.327.086c1.841.483 3.418 1.1 4.559 1.843 1.101.718 2.036 1.719 2.036 3.02h-1l1-.003v.003c.002 1.176-.765 2.108-1.702 2.794-.959.702-2.284 1.292-3.83 1.771-3.106.961-7.337 1.539-11.968 1.539-4.627 0-8.856-.578-11.962-1.539-1.547-.479-2.872-1.069-3.831-1.771-.939-.686-1.707-1.618-1.707-2.794 0-1.302.938-2.304 2.039-3.022 1.142-.744 2.718-1.362 4.557-1.841l.326-.086.312.131c2.389.997 6.067 1.666 10.266 1.666s7.877-.669 10.266-1.666zm-24.947 3.602c-.93.606-1.131 1.086-1.131 1.347 0 .234.156.645.887 1.18.711.519 1.803 1.029 3.242 1.474 2.866.887 6.887 1.45 11.371 1.45 4.488 0 8.51-.563 11.377-1.45 1.439-.445 2.53-.955 3.24-1.474.73-.534.884-.944.883-1.177v-.003c0-.262-.2-.74-1.128-1.344-.834-.544-2.072-1.061-3.657-1.499-2.694 1.053-6.515 1.691-10.715 1.691s-8.022-.638-10.716-1.691c-1.58.435-2.818.952-3.653 1.496z" fill="#f35034" fill-rule="evenodd"/><path d="m420.5 281c-6.902 0-12.5-1.794-12.5-4s5.598-4 12.5-4 12.5 1.794 12.5 4-5.598 4-12.5 4z" fill="#fff"/><path clip-rule="evenodd" d="m409.586 276.242c-.525.397-.586.663-.586.758s.061.361.586.758c.507.384 1.305.772 2.381 1.117 2.139.685 5.157 1.125 8.533 1.125s6.394-.44 8.533-1.125c1.076-.345 1.874-.733 2.381-1.117.525-.397.586-.663.586-.758s-.061-.361-.586-.758c-.507-.384-1.305-.772-2.381-1.117-2.139-.685-5.157-1.125-8.533-1.125s-6.394.44-8.533 1.125c-1.076.345-1.874.733-2.381 1.117zm1.771-3.022c2.385-.763 5.618-1.22 9.143-1.22s6.758.457 9.143 1.22c1.187.38 2.22.854 2.978 1.427.741.56 1.379 1.345 1.379 2.353s-.638 1.793-1.379 2.353c-.758.573-1.791 1.047-2.978 1.427-2.385.763-5.618 1.22-9.143 1.22s-6.758-.457-9.143-1.22c-1.187-.38-2.22-.854-2.978-1.427-.741-.56-1.379-1.345-1.379-2.353s.638-1.793 1.379-2.353c.758-.573 1.791-1.047 2.978-1.427z" fill="#f35034" fill-rule="evenodd"/></svg>