<svg fill="none" height="323" viewBox="0 0 264 323" width="264" xmlns="http://www.w3.org/2000/svg"><path d="m48.1599 242.441 9.3163 5.784-54.59637 72.912c-.23125.309-.66234.385-.98584.175" fill="#ffd338"/><path clip-rule="evenodd" d="m58.4589 248.039c.0519.276-.0142.56-.1822.785l-54.59641 72.912c-.54683.731-1.56623.912-2.3312.415-.780921-.508-1.021011-1.542-.543603-2.341l46.495813-77.881c.1375-.23.3617-.396.6223-.459.2606-.064.5358-.02.7637.122l9.3163 5.783c.2382.148.4034.389.4553.664zm-9.962-4.211-43.35502 72.62 50.87982-67.949z" fill="#f35034" fill-rule="evenodd"/><path d="m37.8381 259.458 171.7739-24.341-9.849 17.061-171.5549 23.963z" fill="#fff"/><path clip-rule="evenodd" d="m210.441 234.556c.214.317.228.728.037 1.059l-9.849 17.061c-.154.267-.422.448-.728.491l-171.5545 23.962c-.3785.053-.754-.115-.9676-.431-.2136-.317-.2279-.728-.0368-1.059l9.6299-16.682c.1538-.267.4214-.447.7258-.491l171.7742-24.341c.378-.054.755.114.969.431zm-171.9803 25.822-8.3627 14.487 169.043-23.611 8.579-14.861z" fill="#f35034" fill-rule="evenodd"/><path d="m37.8383 259.456-11.9607-166.6474-9.877 17.1054 12.2057 166.223z" fill="#fff"/><path clip-rule="evenodd" d="m26.1017 91.836c-.4282-.0984-.8704.0941-1.0901.4746l-9.877 17.1054c-.1002.174-.146.374-.1313.574l12.2057 166.222c.0321.438.3461.804.774.902.428.098.8698-.095 1.0893-.475l9.632-16.681c.1-.173.1458-.372.1315-.572l-11.9608-166.647c-.0314-.4382-.3452-.8045-.7733-.903zm10.7172 167.387-7.8533 13.601-11.9451-162.674 8.093-14.0163z" fill="#f35034" fill-rule="evenodd"/><path d="m37.8369 259.456 171.7731-24.342-183.7376-142.3074z" fill="#ffef9b"/><path clip-rule="evenodd" d="m25.4003 91.9251c.3478-.1862.7726-.1506 1.0845.0909l183.7372 142.308c.318.246.458.658.355 1.046-.103.389-.429.678-.827.734l-171.7728 24.342c-.2745.039-.5528-.038-.7685-.212s-.3494-.43-.3693-.707l-11.9644-166.6487c-.0282-.3936.1775-.7669.5253-.9532zm1.6299 3.0431 11.7274 163.3468 168.3694-23.859z" fill="#f35034" fill-rule="evenodd"/><path d="m85.285 163.981c-28.1369-14.889-28.4564-17.462-24.259-32.347.695-2.465-2.5948-4.627-5.1013-3.317-33.3726 17.442-22.0037 32.914-3.8497 43.609 22.286 13.13 56.193 4.216 33.21-7.945z" fill="#00d562"/><path clip-rule="evenodd" d="m92.118 167.686c-1.3394-1.506-3.4383-3.042-6.3653-4.591-7.0325-3.721-12.2921-6.655-16.1709-9.194-3.8884-2.546-6.3078-4.646-7.7339-6.672-2.7583-3.919-1.982-7.798.1406-15.325.5011-1.777-.4717-3.338-1.7659-4.183-1.2997-.848-3.1355-1.141-4.7611-.292-16.7181 8.738-22.8046 17.266-21.7761 25.347.507 3.984 2.7381 7.655 5.9179 10.968 3.1838 3.317 7.3824 6.343 11.9641 9.043 11.377 6.702 25.6963 7.788 34.3321 5.619 2.1681-.544 4.039-1.309 5.4299-2.289 1.3884-.978 2.3934-2.245 2.5887-3.794.1961-1.557-.4586-3.128-1.8001-4.637zm-6.7057 8.78c-8.1434 2.046-21.9208 1.024-32.8297-5.403-4.4953-2.648-8.5256-5.567-11.5363-8.704-3.0148-3.141-4.944-6.434-5.3769-9.835-.8513-6.689 4.064-14.618 20.7185-23.322.8809-.461 1.9432-.327 2.7413.194.8036.525 1.1282 1.277.9343 1.965-2.0748 7.358-3.2374 12.208.1489 17.019 1.6462 2.339 4.32 4.605 8.2738 7.194 3.9634 2.595 9.2951 5.566 16.3311 9.289 2.8188 1.492 4.6878 2.895 5.8062 4.152 1.1163 1.256 1.4091 2.274 1.3103 3.058-.0998.791-.6324 1.617-1.7565 2.409-1.1217.791-2.7382 1.475-4.765 1.984z" fill="#f35034" fill-rule="evenodd"/><path d="m87.1326 217.139c13.4454-7.757 30.1814-8.447 40.1024-7.088-8.482 19.067-18.086 29.36-27.234 34.27-17.1298 9.192-29.681-17.483-12.8684-27.182z" fill="#00d562"/><path clip-rule="evenodd" d="m128.149 210.457c-8.537 19.19-18.266 29.695-27.676 34.745-4.5249 2.428-8.8331 2.52-12.4526 1.039-3.5918-1.47-6.4098-4.448-8.0865-8-3.3508-7.1-2.2506-16.806 6.6989-21.969 13.7022-7.904 30.6832-8.589 40.7382-7.212.311.043.585.229.738.504s.168.606.04.893zm-2.383.419c-9.903-1.101-25.526-.144-38.1337 7.129-7.8632 4.536-8.8936 13.017-5.8897 19.382 1.5007 3.18 3.9815 5.753 7.0353 7.003 3.0261 1.238 6.7104 1.217 10.7498-.951 8.6933-4.665 17.9513-14.411 26.2383-32.563z" fill="#f35034" fill-rule="evenodd"/><path d="m182.797 230.62c-13.332-19.564-75.908-27.727-75.908-27.727l9.388 18.447c16.616 32.654 85.996 40.301 66.52 9.28z" fill="#00d562"/><path clip-rule="evenodd" d="m107.018 201.901-.129.992c.129-.992.129-.992.129-.992l.048.006.137.019c.12.016.298.04.531.073.464.065 1.146.162 2.019.294 1.744.262 4.249.658 7.295 1.195 6.092 1.074 14.358 2.711 23.047 4.962 8.683 2.25 17.816 5.121 25.631 8.67 7.78 3.534 14.404 7.806 17.898 12.933.022.032.041.064.059.097 2.463 3.941 3.6 7.39 3.529 10.341-.074 3.016-1.409 5.408-3.641 7.147-2.199 1.712-5.234 2.771-8.738 3.278-3.515.508-7.573.472-11.885-.066-8.623-1.074-18.37-4.162-27.021-9.051-8.645-4.885-16.27-11.612-20.542-20.005l-9.387-18.448c-.168-.331-.14-.727.074-1.03s.578-.463.946-.415zm76.432 29.474c.175-.151.292-.361.333-.587-.035.211-.139.419-.333.587zm-74.799-27.224 8.517 16.736c4.037 7.933 11.315 14.408 19.743 19.171 8.423 4.76 17.92 7.766 26.284 8.808 4.181.52 8.054.547 11.351.07 3.309-.478 5.969-1.454 7.796-2.876 1.792-1.396 2.812-3.242 2.87-5.618.059-2.424-.883-5.502-3.262-9.29-.006-.01-.012-.02-.017-.029-3.184-4.632-9.363-8.698-17.034-12.182-7.668-3.483-16.679-6.32-25.306-8.555-8.622-2.234-16.834-3.86-22.892-4.928-3.028-.534-5.516-.927-7.246-1.188-.289-.043-.558-.083-.804-.119zm73.147 26.415c-.005.133.015.264.056.384-.045-.126-.063-.257-.056-.384z" fill="#f35034" fill-rule="evenodd"/><path d="m62.3545 216.994 158.6405-1.594-5.472 9.477-158.4212 1.215z" fill="#ffd338"/><path clip-rule="evenodd" d="m221.858 214.896c.181.31.182.693.003 1.004l-5.472 9.477c-.177.307-.504.498-.858.5l-158.4215 1.215c-.3587.002-.6913-.187-.8718-.497s-.1812-.693-.0019-1.003l5.2526-9.098c.1769-.307.5024-.497.856-.5l158.6406-1.594c.359-.003.692.186.873.496zm-158.9228 3.092-4.0936 7.09 156.1014-1.196 4.31-7.464z" fill="#f35034" fill-rule="evenodd"/><path d="m62.3546 216.993-20.7164-151.4813-5.4992 9.523 20.9615 151.0573z" fill="#ffd338"/><path clip-rule="evenodd" d="m41.8308 64.5305c-.4194-.0823-.8449.111-1.0586.4812l-5.4991 9.523c-.1113.1927-.1552.4171-.1246.6375l20.9614 151.0578c.0587.423.3797.762.7988.844.4192.082.8441-.112 1.0577-.482l5.2542-9.098c.111-.193.1549-.416.1248-.636l-20.7165-151.4817c-.0579-.4235-.3786-.7634-.7981-.8458zm19.4867 152.2595-3.6268 6.28-20.514-147.8326 3.8665-6.6956z" fill="#f35034" fill-rule="evenodd"/><path d="m62.3545 216.993-20.7163-151.482-.0055-.0032 179.3623 149.8922z" fill="#ffd338"/><path clip-rule="evenodd" d="m40.8129 64.9352c.2972-.4254.8703-.5528 1.3197-.2933l.0056.0032c.0641.037.1232.0806.1767.1298l179.3211 149.8581c.322.268.441.709.301 1.103-.141.395-.513.66-.932.664l-158.6405 1.593c-.5037.005-.9326-.365-1.0008-.864l-20.7032-151.3864c-.065-.2698-.0176-.5642.1524-.8074zm2.1662 3.0012 20.2467 148.0476 155.0452-1.557z" fill="#f35034" fill-rule="evenodd"/><path d="m75.9247 193.488 163.0173-9.177-183.7374-142.3071z" fill="#ffc9f0"/><path clip-rule="evenodd" d="m54.7044 41.1361c.3517-.2032.7914-.1735 1.1126.0753l183.738 142.3076c.329.255.466.689.342 1.087-.124.399-.482.678-.899.702l-163.017 9.176c-.5206.03-.9764-.346-1.047-.863l-20.7202-151.4835c-.055-.4025.1389-.7982.4906-1.0014zm1.8226 3.1549 20.2634 148.145 159.4236-8.975z" fill="#f35034" fill-rule="evenodd"/><path d="m75.9253 193.486 163.0177-9.175-8.536 14.786-162.7997 8.797z" fill="#ffc9f0"/><path clip-rule="evenodd" d="m239.795 183.786c.193.313.198.706.014 1.025l-8.536 14.786c-.169.293-.475.48-.812.498l-162.7997 8.797c-.3664.02-.7142-.162-.9062-.475s-.1973-.706-.0138-1.023l8.3179-14.407c.1687-.293.4731-.48.8099-.499l163.0179-9.176c.367-.021.716.162.908.474zm-163.2739 10.669-7.1251 12.341 160.416-8.669 7.34-12.714z" fill="#f35034" fill-rule="evenodd"/><path d="m75.9237 193.486-20.7164-151.4821-8.5629 14.8313 20.9614 151.0578z" fill="#ffc9f0"/><path clip-rule="evenodd" d="m55.3999 41.0246c-.4195-.0823-.8449.1111-1.0587.4813l-8.5628 14.8313c-.1113.1927-.1551.417-.1245.6375l20.9614 151.0573c.0587.423.3796.762.7989.844.4192.082.8441-.111 1.0576-.481l8.318-14.407c.1109-.192.1548-.416.1247-.636l-20.7165-151.4816c-.0579-.4235-.3786-.7634-.7981-.8458zm19.4867 152.2594-6.6906 11.588-20.5139-147.8321 6.9303-12.0036z" fill="#f35034" fill-rule="evenodd"/><path d="m238.943 184.311-163.0183 9.176-20.7163-151.4821 5.4459-9.4326 183.7607 142.2607z" fill="#ffd338"/><path clip-rule="evenodd" d="m60.4612 31.5911c.2833-.0557.5769.0137.8052.1904l183.7606 142.2615c.395.306.504.857.254 1.29l-5.472 9.478c-.169.292-.473.48-.81.499l-163.0182 9.175c-.5206.03-.9764-.346-1.047-.863l-20.7163-151.4816c-.0301-.2198.0138-.4433.1247-.6355l5.446-9.4326c.1443-.2501.3897-.4255.673-.4812zm-.3972 4.0034-3.8186 6.614 20.274 148.2485 4.0583-7.029zm22.1465 149.0045-4.4948 7.786 160.6313-9.042 4.279-7.412zm159.4675-10.619-179.6961-139.1152 20.4976 147.7172z" fill="#f35034" fill-rule="evenodd"/><path d="m77.4243 70.7679c-32.1642 48.9951 4.1617 68.7531 30.7467 76.8711 1.932.59 3.834-.913 3.759-2.932-1.705-46.019-8.499-113.898-34.5057-73.9391z" fill="#00d562"/><path clip-rule="evenodd" d="m104.751 75.2168c5.201 17.8618 7.326 46.4532 8.178 69.4542.1 2.686-2.441 4.722-5.05 3.925-13.3268-4.069-29.3447-11.118-37.9339-23.493-4.3179-6.221-6.7424-13.765-6.0213-22.874.7194-9.0868 4.5633-19.6683 12.6635-32.0076 3.2799-5.0393 6.313-8.4702 9.1423-10.4545 2.8532-2.0011 5.5897-2.585 8.1389-1.7216 2.4877.8426 4.5614 2.9893 6.3105 5.9103 1.76 2.9381 3.269 6.7889 4.572 11.2612zm-17.873-13.8125c-2.5265 1.7719-5.3943 4.9603-8.6156 9.9097l-.0021.0034c-7.9812 12.1575-11.6578 22.4183-12.3427 31.0696-.6832 8.629 1.6045 15.718 5.6705 21.576 8.1789 11.783 23.6163 18.672 36.8749 22.72 1.256.384 2.518-.586 2.468-1.938-.853-23.019-2.977-51.3761-8.101-68.969-1.279-4.3913-2.73-8.0607-4.3665-10.7928-1.6465-2.7491-3.4036-4.4227-5.2366-5.0436-1.7716-.6-3.846-.2907-6.3489 1.4647z" fill="#f35034" fill-rule="evenodd"/><path d="m158.921 186.175c55.993-19.148 38.637-57.482 22.357-80.209-1.036-1.447-3.164-1.434-4.197.007-26.889 37.486-63.538 95.921-18.16 80.202z" fill="#00d562"/><path clip-rule="evenodd" d="m176.268 105.388c1.428-1.99 4.383-2.016 5.823-.007 8.159 11.391 16.75 26.896 16.11 42.072-.322 7.63-2.977 15.152-9.133 21.975-6.14 6.806-15.72 12.868-29.821 17.691-5.723 1.982-10.254 2.834-13.727 2.657-3.504-.177-6.035-1.413-7.523-3.683-1.451-2.215-1.77-5.211-1.354-8.626.419-3.434 1.6-7.439 3.328-11.811 6.902-17.459 22.858-41.532 36.297-60.268zm4.197 1.158c-.633-.883-1.933-.883-2.572.008-13.449 18.75-29.262 42.638-36.062 59.838-1.697 4.293-2.813 8.121-3.203 11.318-.392 3.216-.032 5.648 1.042 7.287 1.038 1.583 2.878 2.626 5.951 2.782 3.102.157 7.352-.604 12.973-2.551l.004-.001c13.894-4.752 23.141-10.661 28.985-17.138 5.829-6.461 8.316-13.533 8.62-20.72.61-14.46-7.618-29.486-15.738-40.823z" fill="#f35034" fill-rule="evenodd"/><path d="m99.5647 152.54 163.0173-9.176-183.7374-142.30736z" fill="#ffef9b"/><path clip-rule="evenodd" d="m78.3443.190752c.3517-.2031932.7914-.1734373 1.1125.075292l183.7372 142.307956c.33.255.467.689.343 1.087s-.482.678-.899.702l-163.0171 9.176c-.5206.029-.9764-.346-1.047-.863l-20.7202-151.48384c-.055-.402449.1389-.798215.4906-1.001408zm1.8226 3.154988 20.2631 148.14426 159.424-8.974z" fill="#f35034" fill-rule="evenodd"/><path d="m99.5647 152.541 163.0183-9.176-9.849 17.062-162.7993 8.796z" fill="#fff"/><path clip-rule="evenodd" d="m263.434 142.841c.193.313.198.706.015 1.024l-9.849 17.061c-.169.293-.475.481-.812.499l-162.7995 8.797c-.3664.02-.7142-.163-.9061-.475-.192-.313-.1973-.706-.0139-1.024l9.63-16.682c.1686-.292.4731-.479.8098-.498l163.0187-9.176c.366-.021.715.161.907.474zm-163.274 10.668-8.4369 14.616 160.4159-8.668 8.653-14.989z" fill="#f35034" fill-rule="evenodd"/><path d="m99.5649 152.54-20.7165-151.48141-9.877 17.10561 20.9615 151.0578z" fill="#fff"/><path clip-rule="evenodd" d="m79.0409.079338c-.4194-.08235492-.8449.11103-1.0586.481228l-9.877 17.105634c-.1113.1927-.1551.4171-.1245.6375l20.9614 151.0573c.0587.423.3796.762.7988.844s.8442-.111 1.0577-.481l9.6323-16.682c.111-.192.155-.415.125-.635l-20.7169-151.481892c-.058-.423537-.3787-.763415-.7982-.84577zm19.4867 152.259662-8.0046 13.863-20.514-147.8331 8.2444-14.27814z" fill="#f35034" fill-rule="evenodd"/><path d="m179.338 29.8457 14.774 9.6009-50.374 71.5054c-1.716 2.433-4.29 1.908-6.786.286-2.497-1.623-4.022-3.762-2.496-6.318z" fill="#ffd338"/><path clip-rule="evenodd" d="m179.112 28.8716c.265-.0614.543-.0124.771.1356l14.774 9.6009c.228.1481.385.3825.437.6493.051.2668-.008.543-.165.7652l-50.373 71.5054c-1.043 1.479-2.427 2.126-3.944 2.087-1.437-.036-2.89-.684-4.205-1.539-1.315-.854-2.497-1.919-3.115-3.217-.651-1.371-.622-2.898.305-4.451l44.883-75.0754c.139-.2332.367-.3997.632-.461zm.552 2.3783-44.349 74.1831c-.599 1.002-.57 1.823-.216 2.567.387.815 1.216 1.631 2.398 2.399 1.181.768 2.263 1.194 3.166 1.217.824.021 1.585-.286 2.258-1.24l49.776-70.6566z" fill="#f35034" fill-rule="evenodd"/><path d="m194 39.3784c-1.953 3.0061-6.844 3.2938-10.924.6426-4.08-2.6513-5.803-7.2375-3.85-10.2436 1.954-3.0061 6.845-3.2938 10.924-.6425 4.08 2.6512 5.804 7.2374 3.85 10.2435z" fill="#fff"/><path clip-rule="evenodd" d="m183.95 28.3329c-1.744.1026-3.123.8159-3.885 1.9894-.763 1.1736-.855 2.7236-.24 4.3582.614 1.6341 1.916 3.2806 3.796 4.502 1.879 1.2213 3.913 1.7429 5.656 1.6404s3.122-.8159 3.885-1.9894c.762-1.1735.854-2.7236.24-4.3582-.615-1.6341-1.917-3.2806-3.797-4.5019-1.879-1.2214-3.913-1.743-5.655-1.6405zm-.118-1.9965c2.211-.1301 4.663.5301 6.863 1.96 2.201 1.4298 3.8 3.402 4.579 5.4753.779 2.0729.756 4.319-.435 6.1516s-3.234 2.7661-5.445 2.8962c-2.211.13-4.663-.5301-6.863-1.96s-3.799-3.4021-4.578-5.4754c-.78-2.0729-.756-4.319.435-6.1516s3.234-2.7661 5.444-2.8961z" fill="#f35034" fill-rule="evenodd"/></svg>