<svg fill="none" height="281" viewBox="0 0 204 281" width="204" xmlns="http://www.w3.org/2000/svg"><path d="m9.16365 113.615c25.40575 6.998 26.20365 9.366 26.03845 24.61-.0273 2.524 3.0324 3.744 4.737 1.857 22.6955-25.121 10.4263-36.953-6.1963-42.5051-20.4061-6.8157-45.3314 10.3221-24.57915 16.0381z" fill="#00d562"/><path clip-rule="evenodd" d="m.38614 107.853c.338879 2.972 3.27018 5.283 8.51199 6.726 6.34877 1.749 11.11667 3.197 14.70697 4.62 3.596 1.425 5.9234 2.792 7.4579 4.334 3.0081 3.024 3.2229 6.957 3.1392 14.681-.0372 3.434 4.1494 5.117 6.4789 2.538 11.4074-12.626 14.3432-22.249 11.851-29.583-2.4705-7.269-10.1135-11.7486-18.4725-14.5405-10.5188-3.5133-22.1721-.8685-28.59746 3.4375-1.61669 1.084-2.94624 2.301-3.84369 3.596-.898298 1.297-1.398997 2.729-1.23231 4.191zm6.18943-6.125c5.95073-3.9885 16.96313-6.5049 26.85043-3.2025 8.2637 2.7605 15.0666 6.9725 17.2125 13.2875 2.1241 6.25-.1533 15.104-11.4414 27.599-1.0797 1.195-3.0125.439-2.995-1.176.0815-7.52-.0201-12.393-3.7211-16.113-1.8201-1.83-4.4454-3.32-8.1392-4.784-3.6995-1.466-8.5585-2.938-14.91259-4.688-5.1343-1.414-6.86943-3.389-7.05594-5.025-.09601-.842.17586-1.795.8893-2.825.7143-1.031 1.83567-2.083 3.313-3.073z" fill="#f35034" fill-rule="evenodd"/><path d="m27.2029 11.9987 14.074-8.12565 144.0191 264.72195c.221.407.111.915-.26 1.193" fill="#ffd338"/><path clip-rule="evenodd" d="m26.234 11.7487c.0667-.2607.2357-.4835.4688-.618l14.074-8.12563c.2335-.1348.5115-.16962.771-.09654.2595.07307.4785.24784.6074.48467l144.0188 264.7218c.459.843.23 1.895-.538 2.471-.913.685-2.219.433-2.812-.543l-156.4758-257.527c-.1398-.23-.1809-.5066-.1142-.7673zm2.3544.6027 154.4926 254.2626-142.1925-261.36404z" fill="#f35034" fill-rule="evenodd"/><path d="m55.1013 134.934 136.7457 21.705-63.485 105.185z" fill="#ffef9b"/><path clip-rule="evenodd" d="m54.2773 134.365c.2184-.318.6-.481.9808-.421l136.7449 21.706c.329.052.61.264.75.566.141.302.122.653-.05.938l-63.485 105.185c-.183.303-.512.487-.866.483-.354-.003-.68-.193-.856-.5l-73.2607-126.89c-.1928-.334-.1764-.749.042-1.067zm2.7388 1.883 71.3649 123.607 61.842-102.463z" fill="#f35034" fill-rule="evenodd"/><path d="m138.56 279.496 63.485-105.185-10.201-17.668-63.485 105.184z" fill="#fff"/><path clip-rule="evenodd" d="m191.854 155.641c.354.003.679.193.856.5l10.201 17.668c.182.315.178.705-.01 1.017l-63.485 105.184c-.183.303-.512.487-.866.484-.354-.004-.679-.194-.856-.5l-10.201-17.669c-.182-.315-.178-.705.01-1.016l63.485-105.185c.183-.303.512-.487.866-.483zm-62.334 106.196 9.059 15.69 62.305-103.229-9.059-15.69z" fill="#f35034" fill-rule="evenodd"/><path d="m172.81 169.146c-22.794-6.394-75.9439 27.627-75.9439 27.627l19.0569 8.079c33.733 14.3 91.758-24.496 56.887-35.706z" fill="#00d562"/><path clip-rule="evenodd" d="m96.3269 195.93.5392.842c-.5392-.842-.5392-.842-.5392-.842l.0405-.026.1165-.074c.1025-.065.2545-.161.4533-.285.3976-.25.9826-.614 1.7346-1.075 1.5042-.921 3.6762-2.23 6.3542-3.779 5.353-3.099 12.733-7.166 20.832-11.034 8.094-3.866 16.933-7.546 25.198-9.858 8.23-2.303 16.049-3.296 22.022-1.62.038.011.074.023.108.037 4.422 1.431 7.512 3.339 9.356 5.644 1.885 2.356 2.402 5.045 1.812 7.813-.58 2.726-2.223 5.489-4.578 8.132-2.364 2.651-5.492 5.235-9.139 7.599-7.291 4.727-16.739 8.635-26.507 10.461-9.761 1.824-19.926 1.583-28.597-2.093l-19.0572-8.079c-.3416-.145-.5749-.467-.6062-.836-.0312-.37.1449-.727.4573-.927zm77.4691-26.627c.037-.228-.008-.464-.123-.663.11.183.164.41.123.663zm-74.7713 27.298 17.2893 7.33c8.195 3.474 17.933 3.746 27.449 1.968 9.51-1.778 18.713-5.588 25.786-10.173 3.535-2.293 6.517-4.764 8.734-7.252 2.224-2.495 3.633-4.953 4.115-7.218.474-2.222.067-4.291-1.418-6.147-1.515-1.894-4.217-3.643-8.476-5.012-.01-.003-.021-.007-.032-.011-5.417-1.496-12.763-.631-20.877 1.639-8.11 2.268-16.833 5.896-24.875 9.737-8.037 3.838-15.369 7.878-20.692 10.959-2.662 1.541-4.82 2.841-6.3112 3.755-.2496.153-.4806.295-.6921.425zm72.9863-26.854c.082.105.182.193.291.258-.116-.068-.214-.156-.291-.258z" fill="#f35034" fill-rule="evenodd"/><path d="m179.176 134.694-56.53 117.232-5.1-8.834 56.53-117.232z" fill="#ffd338"/><path d="m46.6042 120.217 127.4718 5.643-56.53 117.232z" fill="#ffd338"/><g fill="#f35034"><path clip-rule="evenodd" d="m45.7495 119.698c.1895-.312.5342-.496.899-.48l127.4715 5.643c.341.015.651.204.822.499l5.1 8.834c.166.287.179.637.035.935l-56.53 117.231c-.161.334-.493.551-.863.565-.371.014-.718-.178-.904-.499l-76.0418-131.709c-.1826-.316-.1782-.707.0113-1.019zm2.6328 1.598 69.0847 119.658 55.049-114.162zm125.7727 6.702-55.479 115.052 3.891 6.738 55.479-115.052z" fill-rule="evenodd"/><path d="m36.4232 102.57 129.7908 9.66-56.53 117.231z"/><path clip-rule="evenodd" d="m35.5762 102.037c.1971-.314.5516-.493.9211-.466l129.7907 9.659c.33.025.626.211.791.498.166.286.179.636.035.934l-56.53 117.231c-.161.334-.493.551-.863.565-.371.014-.718-.178-.904-.499l-73.2599-126.891c-.1853-.321-.1779-.718.0191-1.031zm2.6584 1.669 71.3694 123.615 55.071-114.205z" fill-rule="evenodd"/></g><path d="m109.683 229.462 56.53-117.232 4.173 7.228-56.53 117.232z" fill="#ffc9f0"/><path d="m113.856 236.69 56.53-117.232 4.173 7.228-56.53 117.232z" fill="#ffc9f0"/><path clip-rule="evenodd" d="m166.176 111.229c.37-.014.718.179.903.5l8.346 14.455c.166.287.179.637.035.935l-56.53 117.231c-.161.334-.493.551-.863.565-.371.014-.718-.178-.904-.499l-8.346-14.456c-.165-.287-.178-.637-.035-.935l56.53-117.231c.161-.334.494-.551.864-.565zm-55.362 118.189 2.963 5.132 55.479-115.052-2.963-5.132zm59.652-107.824-55.479 115.052 2.963 5.132 55.479-115.052z" fill="#f35034" fill-rule="evenodd"/><path d="m166.174 112.171-56.53 117.231-5.1-8.834 56.53-117.231z" fill="#ffd338"/><path d="m31.2836 93.6777 129.7904 9.6593-56.53 117.231z" fill="#ffd338"/><path clip-rule="evenodd" d="m30.4367 93.144c.1971-.3138.5515-.493.9211-.4655l129.7902 9.6595c.33.024.626.21.792.497l5.1 8.834c.166.286.179.636.035.934l-56.53 117.232c-.161.333-.493.551-.864.565-.37.013-.718-.179-.903-.5l-78.3605-135.7242c-.1852-.3209-.1779-.718.0192-1.0318zm2.6584 1.6694 71.3689 123.6156 55.071-114.206zm128.0579 10.6586-55.479 115.052 3.891 6.739 55.479-115.052z" fill="#f35034" fill-rule="evenodd"/><path d="m125.222 94.616c-13.366 2.7089-26.8916.2538-34.8111-2.6094 11.5391-13.3158 21.9511-20.6384 30.9391-24.0998 20.458-7.8782 25.357 22.355 3.872 26.7092z" fill="#00d562"/><path clip-rule="evenodd" d="m89.4432 92.2586c-.0831-.3188-.0038-.658.212-.907 11.6098-13.3977 22.1498-20.8407 31.3358-24.3781 5.334-2.0544 9.809-1.6734 13.129.3123 3.301 1.9741 5.298 5.4385 5.883 9.2361 1.173 7.6171-3.289 16.7853-14.582 19.0741-13.586 2.7533-27.3006.2612-35.3501-2.6491-.3098-.112-.5446-.3695-.6277-.6883zm2.7003-.7132c7.9245 2.5973 20.4865 4.6021 32.8795 2.0904 10.192-2.0654 14.023-10.191 13.003-16.8095-.511-3.3202-2.232-6.2091-4.932-7.824-2.681-1.6033-6.49-2.0472-11.384-.1625-8.541 3.2889-18.491 10.1805-29.5665 22.7056z" fill="#f35034" fill-rule="evenodd"/><path d="m110.02 147.877c1.727 11.007 1.098 19.318-.841 25.499-4.54 14.475-21.5852 7.046-21.3935-5.006.0779-4.891 2.6247-9.422 3.7784-14.176l11.7251-48.313c12.83.749 20.805 4.31 25.456 9.472 16.747 18.585-1.803 33.029-15.048 29.635-1.758-.451-3.959 1.097-3.677 2.889z" fill="#00d562"/><path clip-rule="evenodd" d="m102.317 105.645c.114-.47.548-.791 1.031-.762 12.973.757 21.246 4.37 26.14 9.8 4.288 4.76 6.392 9.337 6.828 13.514.438 4.189-.811 7.881-3.053 10.822-4.441 5.827-12.8 8.735-19.814 6.937-.527-.135-1.209.023-1.753.433-.543.41-.754.913-.688 1.334 1.743 11.114 1.122 19.587-.875 25.952-1.197 3.818-3.263 6.312-5.781 7.609-2.51 1.294-5.3427 1.332-7.9521.488-5.1783-1.675-9.7178-6.907-9.6142-13.417.0415-2.607.74-5.084 1.5383-7.444.2293-.679.4648-1.343.6973-1.998.5927-1.671 1.1664-3.288 1.5709-4.955zm1.746 1.287-11.5273 47.498c-.4305 1.774-1.0568 3.54-1.6619 5.245-.2251.635-.4472 1.261-.6552 1.876-.783 2.316-1.3968 4.551-1.4332 6.835-.0882 5.541 3.7988 10.05 8.2301 11.483 2.1953.711 4.4635.646 6.4205-.363 1.948-1.003 3.716-3.009 4.789-6.429 1.881-5.997 2.517-14.145.807-25.044-.216-1.373.532-2.54 1.459-3.24.926-.699 2.223-1.09 3.454-.774 6.231 1.597 13.769-1.02 17.728-6.213 1.958-2.569 3.034-5.76 2.654-9.401-.382-3.652-2.24-7.85-6.325-12.383-4.311-4.784-11.747-8.247-23.939-9.09z" fill="#f35034" fill-rule="evenodd"/><path d="m2.29272 43.2212 120.51728-6.4028-47.257 133.2936z" fill="#ffef9b"/><path clip-rule="evenodd" d="m1.41361 42.7444c.16585-.3057.47863-.5033.82594-.5218l120.51645-6.4028c.334-.0178.655.1324.855.4001s.253.6176.141.9326l-47.2566 133.2935c-.1304.368-.4627.626-.8512.662-.3885.035-.7623-.158-.9573-.496l-73.26032-126.8908c-.1739-.3012-.17881-.6711-.01297-.9768zm2.56029 1.3889 71.361 123.6007 46.0311-129.8376z" fill="#f35034" fill-rule="evenodd"/><path d="m85.7552 187.784 47.2568-133.2934-10.201-17.6683-47.2566 133.2937z" fill="#fff"/><path clip-rule="evenodd" d="m122.72 35.8245c.388-.0356.762.158.957.4958l10.201 17.6683c.146.2535.174.5583.076.8342l-47.2562 133.2932c-.1304.368-.4627.626-.8512.662-.3885.035-.7623-.158-.9574-.496l-10.2008-17.668c-.1463-.254-.1743-.559-.0765-.834l47.2561-133.2938c.131-.3677.463-.6261.852-.6617zm-46.0689 134.1885 8.8861 15.391 46.3778-130.8148-8.886-15.3912z" fill="#f35034" fill-rule="evenodd"/><path d="m27.2029 11.9987 14.074-8.12565 34.1772 62.38815c1.7061 3.1142.6122 7.0209-2.463 8.7963" fill="#ffd338"/><path clip-rule="evenodd" d="m26.234 11.7487c.0667-.2607.2357-.4834.4688-.618l14.074-8.12563c.233-.13455.5105-.1695.7696-.09694.2591.07257.4781.24651.6074.48252l34.1772 62.38815c1.9672 3.5909.7059 8.0956-2.84 10.1428-3.546 2.0473-8.078.8872-10.2042-2.6121l-36.9386-60.7935c-.1398-.23-.1809-.5066-.1142-.7673zm2.3544.6027 36.4076 59.9196c1.5617 2.5702 4.8904 3.4223 7.495 1.9186 2.6044-1.5037 3.5309-4.8124 2.086-7.4499l-33.6859-61.49123z" fill="#f35034" fill-rule="evenodd"/><path d="m41.3266 3.9357c1.6564 2.869-.1572 7.0171-4.0509 9.2651-3.8936 2.248-8.3928 1.7446-10.0492-1.1244-1.6565-2.86899.1572-7.01714 4.0508-9.26513 3.8937-2.247999 8.3929-1.74458 10.0493 1.12443z" fill="#fff"/><path clip-rule="evenodd" d="m28.0869 7.60965c-.6393 1.46217-.6261 2.87075.0056 3.96485s1.8449 1.8098 3.4308 1.9873c1.5855.1774 3.4713-.2006 5.2524-1.2289s3.0514-2.47254 3.6905-3.93427c.6393-1.46217.6261-2.87071-.0056-3.96485s-1.845-1.80984-3.4309-1.98729c-1.5854-.1774-3.4713.20057-5.2524 1.22889s-3.0514 2.47253-3.6904 3.93427zm-1.8326-.8012c.8271-1.89159 2.4105-3.64545 4.523-4.86512 2.1125-1.219682 4.4231-1.714003 6.4748-1.484438 2.0512.229512 3.9158 1.200028 4.9405 2.974888s.9329 3.87489.1061 5.76605c-.8271 1.89157-2.4104 3.64547-4.523 4.86507-2.1125 1.2197-4.4231 1.714-6.4748 1.4845-2.0512-.2295-3.9158-1.2-4.9405-2.9749s-.9329-3.8749-.1061-5.76605z" fill="#f35034" fill-rule="evenodd"/></svg>