<svg fill="none" height="280" viewBox="0 0 202 280" width="202" xmlns="http://www.w3.org/2000/svg"><path d="m26.6943 13.2898 13.9618-8.0608 142.8699 262.611c.22.404.11.907-.257 1.183-.437.328-1.063.207-1.347-.26z" fill="#ffde33" stroke="#f35534" stroke-linejoin="round" stroke-width="2"/><path d="m54.3672 135.242 135.6548 21.533-62.979 104.345z" fill="#ffef9b" stroke="#f35534" stroke-linejoin="round" stroke-width="2"/><path d="m137.164 278.653 62.979-104.346-10.119-17.527-62.979 104.346z" fill="#fff" stroke="#f35534" stroke-linejoin="round" stroke-width="2"/><path d="m171.137 169.179c-22.613-6.344-75.3372 27.409-75.3372 27.409l18.9052 8.014c33.464 14.186 91.026-24.3 56.433-35.421 0-.001-.001-.002-.001-.002z" fill="#00d562" stroke="#f35534" stroke-linejoin="round" stroke-width="2"/><path d="m177.454 135.008-56.079 116.296-5.06-8.764 56.079-116.296z" fill="#ffde33"/><path d="m45.9395 120.645 126.4545 5.598-56.078 116.296z" fill="#ffde33"/><path d="m116.316 242.539 56.078-116.296m-56.078 116.296 5.059 8.764 56.08-116.296-5.061-8.764m-56.078 116.296-70.3765-121.894 126.4545 5.598" stroke="#f35534" stroke-linejoin="round" stroke-width="2"/><path d="m35.8418 103.137 128.7552 9.582-56.079 116.296z" fill="#f35534" stroke="#f35534" stroke-linejoin="round" stroke-width="2"/><path d="m108.519 229.015 56.078-116.296 4.141 7.17-56.08 116.296z" fill="#ffc9f0"/><path d="m112.657 236.185 56.08-116.296 4.139 7.17-56.079 116.296z" fill="#ffc9f0"/><path d="m168.738 119.889-56.08 116.296m56.08-116.296-4.141-7.17-56.078 116.296 4.139 7.17m56.08-116.296 4.139 7.171-56.079 116.296-4.14-7.171" stroke="#f35534" stroke-linejoin="round" stroke-width="2"/><path d="m164.56 112.665-56.079 116.296-5.06-8.763 56.079-116.296z" fill="#ffde33"/><path d="m30.7461 94.3193 128.7549 9.5827-56.079 116.296z" fill="#ffde33"/><g stroke="#f35534" stroke-linejoin="round" stroke-width="2"><path d="m103.422 220.198 56.079-116.296m-56.079 116.296 5.06 8.763 56.079-116.296-5.06-8.763m-56.079 116.296-72.6759-125.8787 128.7549 9.5827"/><path d="m128.305 94.165c-14.608 4.303-30.1874 1.6485-38.9114-1.5062 13.3284-15.38 25.1414-22.7006 34.9734-25.2991 18.409-4.8655 22.202 21.4244 3.938 26.8053z" fill="#00d562"/><path d="m108.753 147.467c1.834 11.226 1.223 19.664-.736 25.911-4.617 14.719-22.2661 6.608-21.1756-5.871.3699-4.232 2.4844-8.143 3.4868-12.273l11.8468-48.813c12.727.744 20.638 4.276 25.252 9.397 16.87 18.72-2.363 33.206-15.53 29.23-1.509-.455-3.399.864-3.144 2.419z" fill="#00d562"/><path d="m1.98047 44.2634 119.55553-6.3518-46.8796 132.2304z" fill="#ffef9b"/><path d="m84.7806 187.673 46.8804-132.2301-10.12-17.5274-46.8799 132.2295z" fill="#fff"/><path d="m26.6943 13.2898 13.9618-8.0608 33.9046 61.8905c1.6925 3.0894.6072 6.9646-2.4434 8.7261-3.0508 1.7615-6.9497.7635-8.7789-2.247z" fill="#ffde33"/><path d="m36.6866 14.4827c3.8626-2.2301 5.6618-6.34515 4.0186-9.19127-1.6433-2.84612-6.1066-3.34552-9.9692-1.11546-3.8626 2.23007-5.6617 6.34513-4.0185 9.19123s6.1065 3.3455 9.9691 1.1155z" fill="#fff"/></g></svg>