<svg fill="none" height="298" viewBox="0 0 243 298" width="243" xmlns="http://www.w3.org/2000/svg"><g stroke="#f35534" stroke-linejoin="round" stroke-width="2"><path d="m44.0246 223.868 8.6013 5.339-50.4077 67.32c-.2135.284-.61156.355-.91026.161-.30485-.198-.398621-.602-.2122-.914z" fill="#ffde33"/><path d="m34.4963 239.576 158.5957-22.473-9.093 15.752-158.3935 22.124z" fill="#fff"/><path d="m34.4953 239.576-11.0435-153.8631-9.1188 15.7941 11.2691 153.47z" fill="#fff"/><path d="m34.4952 239.576 158.5958-22.474-169.6418-131.3901z" fill="#ffef9b"/><path d="m78.3038 151.424c-25.978-13.747-26.2731-16.123-22.3976-29.865.6411-2.276-2.3961-4.272-4.7105-3.063-30.8122 16.104-20.3151 30.389-3.5538 40.263 20.5763 12.123 51.8816 3.893 30.6619-7.335z" fill="#00d562"/><path d="m80.0072 200.503c12.4146-7.162 27.8658-7.799 37.0268-6.544-7.831 17.604-16.699 27.108-25.1457 31.641-15.8156 8.486-27.404-16.142-11.8811-25.097z" fill="#00d562"/><path d="m168.332 212.948v-.001c-12.309-18.063-70.0849-25.596-70.0849-25.596l8.6679 17.032c15.342 30.149 79.398 37.209 61.417 8.567z" fill="#00d562"/><path d="m57.1309 200.372 146.4701-1.472-5.052 8.751-146.2678 1.121z" fill="#ffde33"/><path d="m57.1301 200.372-19.1276-139.8603-5.0767 8.7922 19.3531 139.4691z" fill="#ffde33"/><path d="m57.1316 200.373-19.1267-139.861-.0049-.0032 165.602 138.3932z" fill="#ffde33"/><path d="m69.6603 178.668 150.5117-8.472-169.6417-131.3908z" fill="#ffc9f0"/><path d="m69.6613 178.668 150.5117-8.472-7.882 13.652-150.3096 8.122z" fill="#ffc9f0"/><path d="m69.6617 178.668-19.1276-139.8604-7.9062 13.6935 19.3539 139.4689z" fill="#ffc9f0"/></g><path d="m220.175 170.198-150.5123 8.472-19.1275-139.8614 5.0282-8.709 169.6626 131.3474z" fill="#ffde33"/><path d="m69.6627 178.67 150.5123-8.472 5.051-8.751m-155.5633 17.223 5.2538-9.101m-5.2538 9.101-19.1275-139.8614 5.0282-8.709m169.6626 131.3474-150.3095 8.122m150.3095-8.122-169.6626-131.3474m19.3531 139.4694-19.3531-139.4694" stroke="#f35534" stroke-linejoin="round" stroke-width="2"/><path d="m71.0482 65.3644c-29.8769 45.5116 4.253 63.6996 28.8348 71.1086 1.563.472 3.101-.737 3.041-2.369-1.545-42.4941-7.775-105.7705-31.8758-68.7396z" fill="#00d562" stroke="#f35534" stroke-linejoin="round" stroke-width="2"/><path d="m146.29 171.916c51.698-17.679 35.673-53.073 20.641-74.0565-.956-1.3354-2.92-1.3233-3.874.0065-24.826 34.61-58.664 88.564-16.767 74.05z" fill="#00d562" stroke="#f35534" stroke-linejoin="round" stroke-width="2"/><path d="m91.4874 140.862 150.5116-8.472-169.6416-131.39z" fill="#ffef9b" stroke="#f35534" stroke-linejoin="round" stroke-width="2"/><path d="m91.4884 140.863 150.5126-8.472-9.093 15.753-150.3103 8.122z" fill="#fff" stroke="#f35534" stroke-linejoin="round" stroke-width="2"/><path d="m91.4875 140.862-19.1275-139.86054-9.1188 15.79334 19.3531 139.4692z" fill="#fff" stroke="#f35534" stroke-linejoin="round" stroke-width="2"/><path d="m165.141 27.582 13.64 8.8644-46.509 66.0206c-1.585 2.246-3.961 1.76-6.266.263-2.305-1.498-3.713-3.4726-2.304-5.8331z" fill="#ffde33" stroke="#f35534" stroke-linejoin="round" stroke-width="2"/><path d="m168.593 36.9754c3.767 2.4478 8.283 2.1822 10.087-.5933 1.803-2.7755.212-7.0098-3.555-9.4577-3.767-2.4478-8.282-2.1822-10.086.5933s-.212 7.0098 3.554 9.4577z" fill="#fff" stroke="#f35534" stroke-linejoin="round" stroke-width="2"/></svg>