<svg fill="none" height="58" viewBox="0 0 73 58" width="73" xmlns="http://www.w3.org/2000/svg"><path d="m23.7354 49.0321c-15.6973-10.8247-19.64728-32.3251-8.8225-48.02233l56.8448 39.19983c-10.8247 15.6973-32.325 19.6472-48.0223 8.8225z" fill="#ffc9f0"/><path d="m28.941 41.4832c-11.5277-7.9494-14.4284-23.7387-6.479-35.2664l41.7454 28.7874c-7.9494 11.5277-23.7387 14.4284-35.2664 6.479z" fill="#fff"/><path clip-rule="evenodd" d="m62.7999 35.2484c-7.8045 10.3935-22.4939 12.8574-33.2912 5.4117-10.7973-7.4458-13.7155-22.0518-6.7746-33.04083zm-34.4266 7.0581c11.9823 8.263 28.3944 5.2478 36.6573-6.7345.3136-.4547.1992-1.0774-.2555-1.391l-41.7455-28.78735c-.4546-.31353-1.0774-.19912-1.3909.25554-8.2629 11.98231-5.2478 28.39441 6.7346 36.65731z" fill="#f35034" fill-rule="evenodd"/><path d="m38.0021 28.3388c-4.1552-2.8654-5.2008-8.5567-2.3354-12.7118l15.0472 10.3764c-2.8654 4.1551-8.5567 5.2007-12.7118 2.3354z" fill="#fff"/><g fill="#f35034"><g clip-rule="evenodd" fill-rule="evenodd"><path d="m49.2728 26.2264c-2.6898 3.0323-7.2813 3.6508-10.7031 1.2912-3.4217-2.3597-4.4757-6.8712-2.5974-10.4631zm-11.8385 2.9376c4.6099 3.1789 10.9239 2.0189 14.1028-2.5909.3135-.4546.1991-1.0774-.2556-1.3909l-15.0471-10.3764c-.4547-.3136-1.0774-.1992-1.391.2555-3.1789 4.6098-2.0189 10.9238 2.5909 14.1027z"/><path d="m32.0009 37.0494c.4546.3135 1.0774.1991 1.3909-.2555l2.2085-3.2027c.3135-.4546.1991-1.0774-.2555-1.3909-.4547-.3135-1.0774-.1991-1.391.2555l-2.2085 3.2027c-.3135.4546-.1991 1.0774.2556 1.3909z"/><path d="m41.6196 40.4665c.5505.0441 1.0326-.3663 1.0768-.9168l.3113-3.8778c.0442-.5505-.3662-1.0326-.9167-1.0768s-1.0326.3662-1.0768.9167l-.3114 3.8778c-.0442.5505.3663 1.0327.9168 1.0769z"/><path d="m25.3803 29.2686c.237.4988.8335.7111 1.3324.4741l3.5139-1.6693c.4988-.237.7111-.8335.4742-1.3323-.237-.4989-.8335-.7112-1.3324-.4742l-3.5139 1.6693c-.4989.237-.7112.8335-.4742 1.3324z"/><path d="m23.5356 19.2325c-.0442.5505.3663 1.0326.9168 1.0768l3.8778.3114c.5505.0442 1.0326-.3663 1.0768-.9168s-.3663-1.0326-.9168-1.0768l-3.8778-.3113c-.5505-.0442-1.0326.3662-1.0768.9167z"/><path d="m49.1328 33.2981c.4988-.2369 1.0954-.0246 1.3323.4742l1.6693 3.5139c.237.4989.0247 1.0954-.4741 1.3324-.4989.237-1.0954.0247-1.3324-.4742l-1.6693-3.5139c-.237-.4989-.0247-1.0954.4742-1.3324z"/></g><path d="m23.7345 49.0282c-15.69729-10.8247-19.64727-32.3251-8.8225-48.02234l-6.86597 1.83972c-10.82473 15.69732-6.87475 37.19762 8.82257 48.02232 8.6796 5.9854 19.1334 7.4536 28.5757 4.9164l6.8182-1.827c-9.4297 2.5195-19.863 1.0462-28.528-4.9291z"/><path clip-rule="evenodd" d="m52.0252 55.0563-6.3221 1.694c-9.7133 2.6098-20.4712 1.0997-29.4023-5.0591-16.15191-11.1382-20.2163-33.2613-9.07803-49.41326.13486-.19557.33495-.33674.56442-.39823l6.86591-1.8397173c.3136-.0840368.6421-.0096516.8865.1873723l56.7858 39.159035c.4547.3136.5691.9363.2555 1.391-5.0946 7.3878-12.4873 12.2468-20.5557 14.2789zm-.0198-2.0611c7.1314-1.9056 13.6716-6.1629 18.3493-12.5383l-55.1743-38.0478c-5.0815 7.8512-6.46755 17.0846-4.5446 25.5966 1.7913 7.9245 6.4507 15.2234 13.6664 20.1993 8.4134 5.8019 18.5424 7.2333 27.701 4.7866l.0012-.0003z" fill-rule="evenodd"/></g></svg>