<svg fill="none" height="100" viewBox="0 0 66 100" width="66" xmlns="http://www.w3.org/2000/svg"><g stroke="#f35534" stroke-linejoin="round" stroke-width="2"><path d="m55.1871 39.1412c4.6449 25.2816-12.0849 49.5418-37.3671 54.1867l-16.82-91.55362c25.2819-4.64469 49.5423 12.08502 54.1871 37.36692z" fill="#ffc9f0"/><path d="m43.0339 41.3791c3.4111 18.5661-8.8751 36.3826-27.4414 39.7937l-12.35227-67.235c18.56637-3.411 36.38257 8.8749 39.79367 27.4413z" fill="#fff"/><path d="m21.8641 45.2686c1.2295 6.6926-3.199 13.1139-9.8912 14.3432l-4.45239-24.2345c6.69229-1.2295 13.11419 3.199 14.34359 9.8913z" fill="#fff"/><path d="m29.3955 43.8778 5.1581-.9476" stroke-linecap="round"/><path d="m24.9521 34.5331 3.9933-3.3998" stroke-linecap="round"/><path d="m28.5703 54.2017 4.9409 1.7585" stroke-linecap="round"/><path d="m22.6934 62.7163 3.3997 3.9932" stroke-linecap="round"/><path d="m18.189 23.7202-1.7583 4.9409" stroke-linecap="round"/></g><path d="m55.1753 39.1477c4.6448 25.2821-12.085 49.5424-37.3667 54.1872l8.2986 4.7911c25.2816-4.6448 42.0114-28.905 37.3666-54.1871-2.5676-13.9794-11.1333-25.3439-22.5525-31.9261l-8.2413-4.75792c11.3904 6.58722 19.9314 17.93702 22.4953 31.89282z" fill="#f35534"/><path d="m17.8086 93.3349c25.2817-4.6448 42.0115-28.9051 37.3667-54.1872-2.5684-13.9793-11.1333-25.3439-22.5529-31.92602l8.2989 4.79112c11.4192 6.5822 19.9849 17.9468 22.5525 31.9261 4.6448 25.2821-12.085 49.5423-37.3666 54.1872z" stroke="#f35534" stroke-linejoin="round" stroke-width="2"/></svg>