<svg fill="none" height="126" viewBox="0 0 78 126" width="78" xmlns="http://www.w3.org/2000/svg"><path d="m65.5832 55.2497c5.4486 29.6571-14.1764 58.1163-43.8335 63.5643l-19.7309-107.3979c29.6571-5.44853 58.1159 14.1764 63.5644 43.8336z" fill="#ffc9f0"/><path clip-rule="evenodd" d="m3.18465 12.2282c28.75645-4.74093 56.12665 14.4171 61.41505 43.2025 5.2883 28.7854-13.4851 56.4203-42.0489 62.2103zm63.38215 42.8411c-5.5484-30.2004-34.5284-50.18478-64.72873-44.6365-.54319.0998-.902637.6211-.80284 1.1643l19.73087 107.3979c.0998.543.621.903 1.1642.803 30.2004-5.548 50.1848-34.5284 44.6365-64.7287z" fill="#f35034" fill-rule="evenodd"/><path d="m51.3267 57.8749c4.0013 21.7795-10.4108 42.6791-32.1902 46.6801l-14.48989-78.8704c21.77949-4.0013 42.67889 10.4108 46.68009 32.1903z" fill="#fff"/><path clip-rule="evenodd" d="m5.81304 26.498c20.87756-3.2962 40.68906 10.6484 44.53006 31.5558 3.8411 20.9075-9.7202 40.9832-30.4061 45.3232zm46.49716 31.1944c-4.101-22.3226-25.5217-37.0942-47.84436-32.9931-.54319.0998-.90264.621-.80284 1.1642l14.4898 78.8705c.0998.543.6211.903 1.1643.803 22.3226-4.101 37.0942-25.5219 32.9931-47.8446z" fill="#f35034" fill-rule="evenodd"/><path d="m26.4961 62.4372c1.4422 7.8504-3.7526 15.3836-11.6031 16.8259l-5.22283-28.4289c7.85043-1.4423 15.38363 3.7526 16.82593 11.603z" fill="#fff"/><g fill="#f35034"><g clip-rule="evenodd" fill-rule="evenodd"><path d="m10.8411 51.6731c6.9403-.7549 13.3898 3.9685 14.6715 10.9449 1.2816 6.9764-3.0678 13.6836-9.8233 15.4449zm16.6385 10.5835c-1.542-8.3936-9.5965-13.9479-17.99009-12.4059-.54319.0998-.90264.6211-.80284 1.1643l5.22283 28.4288c.0998.5432.6211.9027 1.1643.8029 8.3936-1.5421 13.9479-9.5965 12.4058-17.9901z"/><path d="m42.3647 59.5128c-.0998-.5432-.6211-.9026-1.1643-.8028l-6.0508 1.1116c-.5432.0998-.9026.6211-.8028 1.1643.0998.5431.621.9026 1.1642.8028l6.0508-1.1116c.5432-.0998.9026-.6211.8029-1.1643z"/><path d="m35.5578 45.2067c-.358-.4205-.9892-.4712-1.4097-.1131l-4.6843 3.9881c-.4205.358-.4712.9891-.1132 1.4096.3581.4206.9892.4712 1.4097.1132l4.6843-3.9881c.4206-.358.4712-.9891.1132-1.4097z"/><path d="m41.0967 75.3152c.1852-.5204-.0865-1.0923-.6068-1.2774l-5.796-2.0627c-.5203-.1852-1.0922.0865-1.2774.6068-.1851.5203.0866 1.0922.6069 1.2774l5.7959 2.0627c.5203.1852 1.0922-.0865 1.2774-.6068z"/><path d="m32.1056 88.352c.4205-.358.4712-.9891.1132-1.4097l-3.9881-4.6843c-.358-.4205-.9892-.4712-1.4097-.1132-.4205.3581-.4712.9892-.1132 1.4097l3.9881 4.6843c.358.4206.9892.4712 1.4097.1132z"/><path d="m19.7842 43.8958c-.5204-.1851-.792-.7571-.6069-1.2774l2.0627-5.7959c.1852-.5203.7571-.792 1.2774-.6068.5203.1851.792.757.6068 1.2774l-2.0626 5.7959c-.1852.5203-.7571.792-1.2774.6068z"/></g><path d="m65.5689 55.2578c5.4486 29.6571-14.1764 58.1162-43.8335 63.5642l9.7347 5.621c29.6571-5.449 49.2821-33.9077 43.8336-63.5649-3.0127-16.3985-13.0606-29.7298-26.4562-37.4511l-9.6672-5.5814c13.3619 7.7272 23.381 21.0412 26.3886 37.4122z"/><path clip-rule="evenodd" d="m38.6796 18.7141-.0669-.0387 1-1.732 9.7341 5.62c13.6389 7.8615 23.8724 21.4376 26.9403 38.1368 5.5484 30.2003-14.436 59.1808-44.6364 64.7288-.2336.043-.4749.001-.6807-.118l-9.7347-5.62c-.363-.21-.5567-.623-.4854-1.036.0712-.413.3925-.738.8047-.814 29.1139-5.348 48.3795-33.2858 43.0307-62.3998-2.9525-16.0709-12.7865-29.1404-25.9057-36.7271zm13.2148 7.8141c7.3435 7.601 12.6051 17.3771 14.658 28.5516 5.3881 29.3284-13.3034 57.5062-42.0465 64.1902l7.1438 4.124c28.9123-5.512 47.997-33.3387 42.6704-62.3324-2.6852-14.6158-11.0622-26.7492-22.4257-34.5334z" fill-rule="evenodd"/></g></svg>