<svg fill="none" height="66" viewBox="0 0 82 66" width="82" xmlns="http://www.w3.org/2000/svg"><g stroke="#f35534" stroke-linejoin="round" stroke-width="2"><path d="m25.8948 55.8489c-17.92814-12.363-22.43943-36.918-10.0763-54.84597l64.9228 44.76997c-12.3627 17.928-36.9185 22.44-54.8465 10.076z" fill="#ffc9f0"/><path d="m31.8375 47.2253c-13.1659-9.079-16.4789-27.112-7.3998-40.27803l47.678 32.87803c-9.0791 13.166-27.1123 16.479-40.2782 7.4z" fill="#fff"/><path d="m42.1852 32.2153c-4.7457-3.272-5.9399-9.772-2.6673-14.518l17.1856 11.851c-3.2726 4.746-9.7727 5.94-14.5183 2.667z" fill="#fff"/><path d="m38.5037 37.5649-2.5223 3.658" stroke-linecap="round"/><path d="m46.7666 40.4971-.3555 4.429" stroke-linecap="round"/><path d="m32.8151 30.8789-4.0133 1.907" stroke-linecap="round"/><path d="m31.2307 22.2622-4.4289-.355" stroke-linecap="round"/><path d="m57.2942 42.9241-1.9065-4.013" stroke-linecap="round"/></g><path d="m25.8917 55.846c-17.92809-12.363-22.43939-36.918-10.0763-54.846l-7.84169 2.10101c-12.3631 17.92799-7.851699 42.48399 10.07629 54.84699 9.9131 6.836 21.8526 8.512 32.6367 5.615l7.7872-2.087c-10.7698 2.878-22.6858 1.195-32.5822-5.63z" fill="#f35534"/><path d="m15.8154 1c-12.36313 17.928-7.85183 42.483 10.0763 54.846 9.9131 6.836 21.8525 8.513 32.6367 5.615l-7.8417 2.102c-10.7841 2.897-22.7236 1.221-32.6367-5.615-17.928033-12.363-22.43933-36.919-10.07633-54.84699z" stroke="#f35534" stroke-linejoin="round" stroke-width="2"/></svg>