<svg width="1070" height="420" viewBox="0 0 1070 420" fill="none" xmlns="http://www.w3.org/2000/svg">
<path d="M470 116H510V276H550V76H510C488 76 470 94 470 116Z" fill="black"/>
<path d="M590 276H630V196C630 174 612 156 590 156V276Z" fill="black"/>
<path d="M670 156V276H710V196H750V236C750 258 768 276 790 276V196C790 174 772 156 750 156H670Z" fill="black"/>
<path d="M1030 156H990V116C990 94 972 76 950 76V236H870V196H910V156H870C848 156 830 174 830 196V236C830 258 848 276 870 276H990V196H1030V236C1030 258 1048 276 1070 276V196C1070 174 1052 156 1030 156Z" fill="black"/>
<path d="M590 116H630C630 94 612 76 590 76V116Z" fill="black"/>
<path fill-rule="evenodd" clip-rule="evenodd" d="M532.363 316V342.177H528.698L514.301 324.04V342.177H510V316H513.665L528.062 334.212V316H532.363ZM613.729 342.177H598.21V316H613.356V320.301H602.81V326.807H612.234V331.108H602.81V337.877H613.729V342.177ZM679.577 320.301H688.066V342.177H692.665V320.301H701.154V316H679.577V320.301ZM799.05 316H803.463L795.983 342.177H791.683L785.363 323.255L779.155 342.177H774.817L767.001 316H772.162L777.435 334.661L783.269 316H787.831L793.814 334.698L799.05 316ZM873.124 319.889C870.581 322.482 869.31 325.686 869.31 329.5C869.31 333.514 870.594 336.767 873.162 339.26C875.729 341.753 878.983 343 882.922 343C886.836 343 890.09 341.729 892.682 339.186C895.275 336.643 896.572 333.414 896.572 329.5C896.572 325.511 895.275 322.258 892.682 319.74C890.115 317.247 886.861 316 882.922 316C878.983 316 875.717 317.296 873.124 319.889ZM876.677 336.082C875.007 334.337 874.171 332.143 874.171 329.5C874.171 326.807 874.994 324.601 876.639 322.881C878.31 321.161 880.404 320.301 882.922 320.301C885.39 320.301 887.472 321.161 889.167 322.881C890.862 324.626 891.71 326.832 891.71 329.5C891.71 332.143 890.912 334.337 889.317 336.082C887.746 337.827 885.615 338.699 882.922 338.699C880.429 338.699 878.347 337.827 876.677 336.082ZM967.018 332.454V342.252H962.419V316.075C963.715 316.075 965.124 316.062 966.644 316.037C968.165 316.012 969.412 316 970.384 316C976.716 316 979.883 318.693 979.883 324.078C979.883 326.072 979.372 327.717 978.349 329.014C977.327 330.26 976.156 331.108 974.834 331.557L983.024 342.252H977.452L970.234 332.454H967.018ZM970.16 320.301C970.035 320.301 969.836 320.313 969.561 320.338C969.287 320.338 968.901 320.35 968.402 320.375H967.018V328.154H970.01C971.481 328.154 972.678 327.792 973.6 327.069C974.548 326.346 975.021 325.361 975.021 324.115C975.021 321.572 973.401 320.301 970.16 320.301ZM1048.87 342.177H1053.47V328.677L1064.17 342.177H1070L1058.56 328.191L1069.33 316H1063.79L1053.47 328.416V316H1048.87V342.177Z" fill="black" fill-opacity="0.5"/>
<path d="M250.136 86.0848C232.746 82.4754 213.715 83.4598 213.715 83.4598C213.715 83.4598 207.48 112.335 168.761 119.882C169.09 119.882 219.949 137.272 250.136 86.0848Z" fill="black" fill-opacity="0.3"/>
<path d="M265.886 347.929C286.886 331.523 302.636 308.882 309.855 283.288C310.183 282.304 313.136 280.663 315.105 279.351C318.386 277.382 321.667 275.741 322.324 273.116C323.636 265.569 324.292 257.694 324.292 249.819C324.292 246.866 321.339 243.913 318.386 240.96C316.089 238.991 313.792 236.694 313.792 235.054C310.511 205.194 296.73 177.304 274.746 156.96L272.449 159.257C293.777 179.273 307.558 206.507 310.511 235.382C310.839 238.007 313.464 240.632 316.089 243.257C318.386 245.226 321.011 248.179 321.011 249.491C321.011 257.038 320.355 264.585 319.042 272.132C318.714 273.444 315.761 274.757 313.464 276.069C310.183 277.71 307.23 279.351 306.574 281.976C298.699 309.866 280.652 334.148 256.699 349.898C260.964 340.71 274.417 310.851 281.636 295.757L280.324 247.194L238.652 206.835L215.027 210.116L189.105 252.116C189.105 252.116 201.246 267.538 184.183 285.585C167.449 303.304 154.324 307.241 154.324 307.241L142.183 300.679C145.792 296.085 153.011 289.194 158.589 284.601C168.105 276.726 177.621 276.069 177.621 267.538C177.949 249.819 158.917 254.741 158.917 254.741L152.027 261.304L149.074 285.585L134.636 303.632L132.996 303.304L109.371 298.054C109.371 298.054 123.808 290.507 126.105 281.976C128.402 273.773 121.511 246.538 121.183 244.898C121.511 245.226 128.074 250.804 131.027 259.991C136.277 245.554 143.167 231.773 145.136 230.46C147.105 229.148 173.683 215.038 173.683 215.038L164.824 238.335L171.386 234.726L187.136 196.007C187.136 196.007 202.558 188.46 214.042 188.46C234.714 188.132 265.23 162.866 251.449 117.585C255.386 119.226 323.636 153.351 335.449 220.288C344.308 271.804 315.105 320.038 265.886 347.929Z" fill="black" fill-opacity="0.3"/>
<path fill-rule="evenodd" clip-rule="evenodd" d="M308.871 62.1324C308.871 62.1324 325.277 62.7886 342.339 64.7574C303.949 34.5699 267.527 25.7105 237.996 25.7105C197.598 25.7105 170.14 42.2069 168.144 43.4058L168.105 43.4292L180.902 23.0855C180.902 23.0855 129.714 18.1636 111.667 72.3042C107.074 60.8199 102.808 44.0855 102.808 44.0855C102.808 44.0855 76.23 67.3824 88.6987 106.101C58.1831 94.9449 14.5425 79.523 12.9019 79.1949C10.605 78.8667 9.94875 79.8511 9.94875 79.8511C9.94875 79.8511 9.2925 80.8355 11.2613 82.4761C14.8706 85.4292 83.7769 136.289 98.8706 146.132C95.5894 157.945 95.5894 163.523 98.8706 169.101C103.464 176.648 103.792 180.585 103.136 186.164C102.48 191.742 96.5737 239.976 95.2612 245.882C94.7315 248.266 92.1704 253.109 89.3472 258.448L89.347 258.448C85.1757 266.336 80.4324 275.305 80.8238 279.023C81.48 285.257 90.0113 311.835 97.5581 314.789C103.136 316.757 116.918 321.023 126.105 321.023C129.386 321.023 132.339 320.367 133.652 319.054C139.23 314.132 140.871 313.148 144.808 313.148H145.793C146.544 313.148 147.363 313.217 148.252 313.291H148.252H148.252H148.253H148.253H148.253C149.306 313.38 150.454 313.476 151.699 313.476C156.949 313.476 163.839 312.492 168.761 307.898C172.164 304.495 176.733 300.509 181.026 296.765C185.839 292.566 190.305 288.67 192.386 286.242C197.308 280.007 199.933 271.476 198.621 262.945C197.636 255.07 201.902 248.179 206.824 241.289C213.058 233.085 224.542 218.32 224.542 218.32C247.183 235.382 261.292 261.304 261.292 290.179C261.292 341.367 216.668 382.71 161.543 382.71C153.011 382.71 144.808 381.726 136.605 379.757C161.871 388.617 183.199 391.57 200.589 391.57C237.667 391.57 257.355 378.117 257.355 378.117C257.355 378.117 250.464 386.976 239.308 397.148H239.636C300.996 388.617 330.855 338.085 330.855 338.085C330.855 338.085 328.558 354.492 325.605 365.648C405.229 305.85 394.167 231.406 393.248 225.225L393.222 225.049C393.212 224.977 393.204 224.922 393.199 224.882C393.605 225.491 396.9 229.492 400.364 233.698L400.365 233.699L400.366 233.7L400.367 233.701L400.379 233.716C402.509 236.302 404.701 238.964 406.324 240.96C419.449 105.773 308.871 62.1324 308.871 62.1324ZM183.199 278.039C182.188 279.302 178.647 282.512 175.273 285.57C174.267 286.482 173.275 287.381 172.371 288.21C171.003 289.465 169.595 290.719 168.203 291.959L168.202 291.96L168.201 291.96C165.587 294.289 163.027 296.57 160.886 298.71C159.574 300.023 156.949 300.679 153.011 300.679H149.402H147.433H146.121H143.167C148.089 294.117 162.527 279.023 167.449 275.742C173.355 271.804 176.308 267.867 172.699 260.976C169.089 254.085 159.574 255.726 159.574 255.726C159.574 255.726 165.152 253.429 170.074 253.429C163.839 251.789 155.964 253.429 152.355 257.039C149.73 259.445 149.147 265.934 148.563 272.424C148.272 275.669 147.98 278.914 147.433 281.648C145.964 289.288 141.337 293.507 134.259 299.961L134.253 299.967L134.249 299.97L134.228 299.989L134.223 299.994C133.408 300.737 132.561 301.509 131.683 302.32C127.089 306.585 123.808 307.898 121.183 307.898C115.605 306.914 109.042 305.273 104.449 303.632C101.167 299.367 96.2456 285.257 94.9331 279.351C95.6415 276.99 97.8793 272.759 99.8122 269.105L99.8128 269.104L99.8144 269.101C100.566 267.679 101.272 266.345 101.824 265.242L102.371 264.194C105.975 257.293 108.089 253.243 108.714 249.492C110.027 243.914 114.293 209.46 115.933 195.023C120.199 200.601 126.105 209.789 124.793 215.695C134.308 202.242 127.418 189.117 124.136 183.867C121.183 178.617 117.246 168.117 120.527 156.96C123.808 145.804 135.621 114.96 135.621 114.96C135.621 114.96 139.558 121.851 145.136 120.539C150.714 119.226 195.667 51.6324 195.667 51.6324C195.667 51.6324 207.808 78.2105 195.011 97.5699C181.886 116.929 169.089 120.539 169.089 120.539C169.089 120.539 187.136 123.82 203.871 111.679C210.761 127.757 217.324 144.492 217.652 146.789C217.486 147.176 216.974 148.396 216.231 150.166L216.227 150.175L216.225 150.179L216.224 150.182L216.223 150.185C212.56 158.911 203.32 180.919 202.23 182.554C201.574 183.21 196.98 184.523 193.699 185.179C188.121 186.82 184.839 187.804 183.527 188.789C181.23 190.757 170.73 219.632 165.808 233.742C159.902 235.382 153.996 238.664 149.73 245.226C152.027 243.585 159.246 242.601 164.496 241.945C169.089 241.617 183.199 249.164 186.808 263.273V263.929C187.464 269.179 185.824 274.101 183.199 278.039ZM152.355 281.976C154.679 278.619 154.971 273.434 155.15 270.257C155.198 269.397 155.238 268.684 155.308 268.195C155.636 265.898 156.293 261.632 158.918 260.976C161.543 260.32 167.777 261.304 167.777 265.898C167.777 268.835 165.599 270.217 163.171 271.757C162.073 272.453 160.924 273.182 159.902 274.101C158.405 275.598 155.934 278.208 154.212 280.028L154.211 280.029C153.29 281.001 152.584 281.747 152.355 281.976ZM283.277 219.304C286.558 202.57 286.886 188.132 285.902 176.32C298.699 193.382 306.574 214.054 308.871 235.382C309.199 238.007 311.824 240.632 314.449 243.257C316.746 245.226 319.371 247.851 319.371 249.492C319.371 257.039 318.714 264.585 317.402 272.132C317.091 273.065 314.421 274.588 312.188 275.862L311.824 276.07C308.542 277.71 305.589 279.351 304.933 281.976C297.714 307.242 282.292 329.554 261.621 345.304C292.136 313.476 306.902 260.976 283.277 219.304ZM262.605 348.257C283.933 331.851 300.339 308.882 307.558 282.96C307.812 282.199 309.635 281.046 311.359 279.955L311.36 279.954L311.368 279.949L311.371 279.948L311.378 279.943C311.877 279.627 312.367 279.317 312.808 279.023C316.089 277.382 319.371 275.414 320.027 272.789C321.339 265.242 321.996 257.367 321.996 249.492C321.996 246.539 319.043 243.585 316.089 240.632C315.675 240.135 315.198 239.618 314.717 239.095L314.717 239.094C313.291 237.546 311.824 235.953 311.824 234.726C309.199 210.773 299.683 188.132 284.918 169.429C278.461 130.69 252.948 118.313 251.5 117.611C251.477 117.599 251.459 117.591 251.449 117.585L251.489 117.646C252.61 119.308 268.991 143.612 257.355 172.054C246.504 198.155 220.451 197.258 213.164 197.007C212.297 196.978 211.696 196.957 211.418 196.992C208.793 196.992 198.621 210.117 185.824 234.398C184.183 233.742 177.292 232.101 169.417 233.414C175.324 217.007 184.183 193.71 185.824 191.742C186.347 191.219 189.578 190.279 192.529 189.421C193.282 189.202 194.016 188.989 194.683 188.789C200.917 187.148 203.871 186.164 204.855 184.851C205.511 183.867 208.792 176.32 212.074 168.445C215.027 168.445 222.574 167.789 223.23 167.46C223.886 166.804 230.121 150.726 230.121 148.757C230.121 147.117 217.324 115.289 212.402 103.148C214.699 100.523 216.996 97.2417 219.292 93.6324C286.558 100.851 339.058 157.945 339.058 227.179C339.058 280.335 307.886 326.601 262.605 348.257ZM192.386 71.3195C192.386 71.3195 195.34 84.4445 187.793 93.3039C178.277 104.132 170.074 103.804 170.402 103.804L192.386 71.3195ZM116.589 257.695L113.964 270.82C113.964 270.82 119.214 270.164 119.214 276.07C119.214 280.664 113.964 286.898 109.699 287.226C105.433 287.555 103.793 282.305 104.777 279.351C105.761 276.726 116.589 257.695 116.589 257.695ZM166.793 148.101C178.277 150.398 181.558 163.851 175.324 171.07C169.089 177.96 153.339 187.804 144.152 190.101C142.183 197.648 125.449 194.367 131.683 170.413C131.683 170.413 134.636 181.898 137.589 180.913C140.543 179.929 174.011 127.429 174.011 127.429C174.011 127.429 169.746 141.21 166.793 148.101ZM163.839 154.664L146.777 183.867C146.777 183.867 162.527 176.648 168.761 167.461C173.683 159.586 163.839 154.664 163.839 154.664ZM161.543 34.5701C132.011 52.2888 137.918 94.6169 137.918 94.6169C110.979 53.5823 154.911 37.0684 160.95 34.7983L160.95 34.7982L160.951 34.7981L160.951 34.7979C161.237 34.6903 161.439 34.6147 161.543 34.5701ZM304.605 51.9612C255.714 42.7737 224.214 47.3674 201.574 55.8987C200.918 53.2737 198.621 48.0237 196.652 43.7581C190.016 51.6578 183.076 61.079 178.469 67.333L177.949 68.0393C165.48 76.5705 160.23 84.7737 160.23 84.7737C167.449 60.1643 188.449 41.7893 214.043 37.1955C221.261 35.883 229.136 35.2268 237.668 35.2268C260.308 35.5549 282.949 41.1331 304.605 51.9612ZM315.105 110.367C361.371 140.882 382.371 174.679 397.136 214.382C396.48 172.382 382.371 136.288 355.136 107.413L354.48 106.757C330.527 81.4916 295.418 69.6791 260.636 74.601C247.511 76.2416 234.386 78.8666 224.214 82.1478C222.574 82.476 220.933 82.8041 219.293 83.4603H219.949C222.574 83.1322 270.48 80.8353 315.105 110.367ZM340.699 339.07C347.261 332.507 352.839 325.617 357.761 319.054C385.98 279.679 382.043 225.539 349.558 189.445C346.933 186.492 343.98 183.21 341.027 180.257C342.668 183.21 383.027 257.695 340.699 339.07ZM98.7895 66.7122C97.5441 71.4655 86.4824 113.685 123.808 114.961C101.496 101.508 98.8708 66.7268 98.8708 66.3987C98.8526 66.4715 98.8251 66.5766 98.7895 66.7122ZM114.621 135.632C116.917 131.367 114.949 128.414 112.98 126.773L112.324 126.117C108.386 124.148 83.7769 114.96 59.4956 106.429C80.8237 120.539 104.449 134.32 108.386 136.289C111.339 137.601 113.308 137.929 114.621 135.632Z" fill="black"/>
</svg>
