<svg width="362" height="171" viewBox="0 0 362 171" fill="none" xmlns="http://www.w3.org/2000/svg">
<path fill-rule="evenodd" clip-rule="evenodd" d="M167.471 112.612L163.72 105.494H146.751L143.001 112.612H134.616C140.326 102.007 146.034 91.4021 151.749 80.8008H158.891L176.07 112.612H167.47H167.471ZM155.234 89.4402L150.142 99.0416H160.292L155.233 89.4402H155.234ZM180.347 112.612V80.8008H188.063L201.663 99.8243L215.14 80.8008H222.813V112.612H215.381V92.1694L204.648 107.54H198.559L187.779 92.3446V112.612H180.347ZM254.913 112.612H232.231V80.8008H254.275C257.554 80.8008 260.23 81.5835 262.106 83.028C264.041 84.5196 265.109 86.6751 265.109 89.3757C265.109 91.1582 264.594 92.8107 263.564 94.1845C263.032 94.8935 262.364 95.5235 261.563 96.0501C262.753 96.6095 263.741 97.3389 264.511 98.2159C265.768 99.6471 266.429 101.446 266.429 103.526C266.429 106.398 265.346 108.698 263.283 110.285C261.323 111.792 258.5 112.612 254.913 112.612ZM256.432 87.9096C255.737 87.3636 254.65 87.0818 253.209 87.0818H239.919V93.3732H253.251C254.578 93.3732 255.656 93.0576 256.372 92.4665C257.011 91.9389 257.376 91.1531 257.376 90.142C257.376 89.1462 257.05 88.3963 256.431 87.9096H256.432ZM257.362 100.628C256.565 100.012 255.337 99.6973 253.763 99.6973H239.919V106.33H253.891C255.515 106.33 256.685 106.03 257.426 105.465C258.109 104.946 258.443 104.143 258.443 103.1C258.443 101.995 258.061 101.17 257.362 100.628ZM273.631 112.612V80.8008H281.446V112.612H273.631ZM290.864 112.612V80.8008H311.5C315.226 80.8008 318.144 81.7546 320.163 83.4972C322.261 85.3075 323.357 87.9229 323.357 91.1664C323.357 94.1026 322.376 96.5306 320.525 98.2906C319.103 99.643 317.18 100.579 314.808 101.024L325.569 112.613H315.588L305.487 101.66H298.68V112.613H290.864V112.612ZM314.381 88.3204C313.557 87.6433 312.267 87.2949 310.52 87.2949H298.679V95.1639H310.52C312.234 95.1639 313.529 94.8115 314.365 94.1292C315.136 93.5002 315.541 92.5341 315.541 91.2515C315.541 89.9371 315.149 88.9536 314.38 88.3215L314.381 88.3204ZM330.942 112.612V80.8008H361.389V87.296H338.63V93.1611H358.705V99.6132H338.63V106.119H361.389V112.613H330.942V112.612Z" fill="black"/>
<path d="M147.837 145.934H143.342L134.616 123.23H140.571L146.074 138.476L152.139 123.23H157.163L163.286 138.427L168.792 123.23H174.689L165.931 145.934H160.87L154.59 130.46L148.31 145.934H147.837ZM200.171 145.934H195.216L192.539 140.854H180.426L177.749 145.934H171.767C175.842 138.366 179.915 130.796 183.994 123.23H189.091C193.172 130.801 197.263 138.367 201.351 145.934H200.171ZM186.48 129.393L182.844 136.25H190.094L186.48 129.393ZM223.637 145.934H204.407V123.23H209.983V141.209H224.342V145.934H223.637ZM247.801 145.934H228.571V123.23H234.147V141.209H248.506V145.934H247.801ZM273.761 145.934H252.734V123.23H274.251V127.864H258.219V132.052H272.548V136.655H258.219V141.3H274.464V145.934H273.76H273.761ZM291.414 145.934H286.542V127.955H276.868V123.23H301.853V127.955H292.118V145.934H291.413H291.414Z" fill="black"/>
<path d="M90.9212 64.2736L113.272 111.851C113.492 112.346 113.383 112.951 112.997 113.335L54.2019 170.143C53.7603 170.527 53.1006 170.253 53.1006 169.648V117.455L90.1498 81.6897C90.4253 81.4705 90.535 81.0853 90.535 80.7554L90.6446 64.2736C90.6446 64.164 90.8648 64.164 90.9202 64.2736H90.9212Z" fill="black"/>
<path fill-rule="evenodd" clip-rule="evenodd" d="M53.1016 117.457V169.649C53.1016 170.253 53.7623 170.528 54.2029 170.143L112.998 113.336C113.384 112.951 113.493 112.347 113.273 111.853L90.3187 81.5117L53.1016 117.457Z" fill="black"/>
<path fill-rule="evenodd" clip-rule="evenodd" d="M90.7682 64.1328H90.7651H90.762H90.7589C90.6913 64.1338 90.6268 64.1758 90.6268 64.265L90.5335 80.7437C90.5335 80.9629 90.4833 81.2907 90.3174 81.511L113.362 112.612C113.417 112.336 113.362 112.062 113.251 111.787L90.9003 64.2096C90.8757 64.1615 90.8214 64.1349 90.7661 64.1328H90.7682Z" fill="black"/>
<path fill-rule="evenodd" clip-rule="evenodd" d="M113.363 112.614C113.419 112.338 113.363 112.064 113.253 111.789L112.096 109.318L91.29 82.8242L113.362 112.614H113.363Z" fill="black"/>
<path d="M38.0721 24.333L27.5579 54.1105C27.4483 54.4403 27.4483 54.8245 27.6132 55.1544L37.4123 74.4381L10.4368 89.712C10.107 89.876 9.66643 89.7663 9.50149 89.4375L3.66607 77.2954C3.44581 76.8559 3.50113 76.4164 3.77671 76.0322L37.7975 24.1691C37.9082 24.0595 38.1284 24.1691 38.0731 24.3341L38.0721 24.333Z" fill="black"/>
<path fill-rule="evenodd" clip-rule="evenodd" d="M37.9111 24.127H37.9008C37.8629 24.1281 37.8261 24.1414 37.7974 24.1711L5.22926 73.8172L5.19238 73.8828L27.5577 54.1125L27.6284 53.9117C27.6284 53.9106 27.6284 53.9106 27.6294 53.9106L27.6335 53.8963L38.073 24.334C38.1119 24.2172 38.0125 24.1281 37.9121 24.125L37.9111 24.127Z" fill="black"/>
<path fill-rule="evenodd" clip-rule="evenodd" d="M3.77479 76.034C3.50023 76.4182 3.44491 76.8577 3.66517 77.2972L9.50059 89.4393C9.66655 89.7692 10.1061 89.8788 10.437 89.7128L37.4114 74.4399L27.6123 55.1572C27.4463 54.8273 27.4463 54.4421 27.557 54.1133L3.77479 76.034Z" fill="black"/>
<path fill-rule="evenodd" clip-rule="evenodd" d="M53.1014 0.269437V46.584C53.1014 46.8585 52.9907 47.1331 52.8268 47.3534L0.252707 118.61C-0.132496 119.105 -0.0771741 119.873 0.417648 120.314L37.3019 155.914C37.6318 156.243 38.1829 156.133 38.3479 155.694L78.4244 61.9122C78.535 61.6366 78.535 61.2524 78.4244 60.9225L53.5962 0.159818C53.5521 0.0481504 53.462 0 53.3718 0C53.2386 0 53.1003 0.105521 53.1003 0.268413L53.1014 0.269437Z" fill="black"/>
<path fill-rule="evenodd" clip-rule="evenodd" d="M53.3591 0H53.355C53.2208 0 53.0835 0.105521 53.0835 0.268413L53.0999 46.583C53.0999 46.6936 53.0743 46.8411 53.0312 46.9682L78.0961 60.1644L53.5783 0.160843C53.5343 0.0512238 53.4472 0.00204895 53.3581 0.00102448L53.3591 0Z" fill="black"/>
<path fill-rule="evenodd" clip-rule="evenodd" d="M78.5119 61.4374V61.4303C78.5109 61.2674 78.4884 61.1116 78.4341 60.9498L78.1155 60.165L53.0332 46.9688L57.837 49.7154L78.5119 61.4374Z" fill="black"/>
<path d="M5.17708 73.893L3.79199 76.0045L27.5568 54.1094L5.17708 73.893Z" fill="black"/>
</svg>
