<svg fill="none" height="170" viewBox="0 0 910 170" width="910" xmlns="http://www.w3.org/2000/svg" xmlns:xlink="http://www.w3.org/1999/xlink"><mask id="a" height="170" maskUnits="userSpaceOnUse" width="170" x="0" y="0"><path d="m170 0h-170v170h170z" fill="#fff"/></mask><g fill="#000"><path d="m625.74 55.9258-85.264-3.7944c-.322-.0122-.641.0564-.93.1994-.289.1431-.539.3562-.726.6202-.187.2641-.306.5709-.347.8928-.04.3219-.001.6489.115.9517l7.278 18.6257c.153.3912.427.7225.782.945.354.2218.77.3234 1.186.2888l71.36-6.0662c.429-.0385.858.0684 1.219.3048.361.2365.633.5884.772.9988l2.541 7.2887c.096.2776.129.5738.096.866-.033.2928-.132.5737-.288.8221-.156.249-.367.4582-.615.6136-.248.1547-.528.251-.818.2815l-100.071 10.8874c-.355.0351-.692.1686-.976.3864-.283.2172-.501.5094-.629.8447-.129.3347-.162.6986-.097 1.0519.065.3526.227.68.466.9463l21.353 24.311c.272.31.635.524 1.036.613.4.089.819.049 1.195-.117l52.422-23.2617c.267-.1176.558-.1734.85-.1621.291.0107.577.0877.835.2251.259.1375.483.3314.657.5685.173.2364.292.5093.347.7988l3.81 21.1394h7.541c.333 0 .66-.087.95-.25.291-.163.535-.399.71-.684l21.398-35.2676c.14-.2304.231-.4888.267-.7564.035-.2683.015-.5412-.061-.8008l-6.591-22.9044c-.112-.3922-.344-.7389-.662-.9914-.318-.2524-.707-.3978-1.111-.4156z"/><path d="m325.168 55.925-85.253-3.7943c-.319-.0092-.636.0617-.922.2064s-.532.3587-.716.6227c-.183.2641-.299.5699-.337.8901-.037.3203.004.6449.122.9449l7.277 18.6256c.148.3765.408.6979.744.9191.336.2211.732.3313 1.134.3154l71.371-6.0669c.428-.0365.856.0717 1.217.3075.36.2364.633.5863.774.9961l2.529 7.2887c.096.2696.132.5565.105.842-.026.2849-.114.5605-.259.8069-.144.247-.34.4582-.575.6196-.235.162-.501.2689-.782.3147l-100.128 10.8873c-.355.0359-.694.17-.978.3878-.284.2185-.503.5114-.632.8467-.13.336-.164.7006-.1 1.0552.065.354.225.6833.463.951l21.353 24.2995c.277.321.65.542 1.062.631.413.09.843.043 1.227-.134l52.375-23.2626c.268-.1202.559-.1773.852-.1673.292.01.579.0863.838.2244.259.1375.483.3327.656.5705.174.2377.291.5126.344.8028l3.821 21.1402h7.541c.331-.002.656-.089.945-.252.288-.163.53-.399.703-.683l21.411-35.2674c.137-.2318.227-.4895.262-.7571s.016-.5399-.056-.8002l-6.614-22.9043c-.111-.393-.342-.7407-.661-.9934-.318-.2528-.708-.3975-1.113-.4136z"/><path d="m429.785 52.1775-52.501 12.7439c-.407.0975-.835.0591-1.219-.1094-.383-.1684-.703-.4578-.909-.8247l-6.328-11.1986c-.169-.3006-.413-.5508-.709-.7251-.295-.1742-.631-.2662-.974-.2667h-17.519c-.334-.0012-.663.0848-.954.2495-.291.1649-.535.4029-.708.6909-.172.288-.269.6162-.278.9526-.01.3364.067.6697.223.9672l6.305 12.0978c.157.2988.235.6335.225.9708-.011.3381-.107.6668-.282.9556l-28.127 46.3397c-.182.295-.282.634-.289.982-.008.347.076.691.244.994.168.304.414.556.711.732.298.176.637.268.982.268h23.516c.331 0 .656-.086.945-.249.289-.164.531-.4.702-.686l26.32-43.4334c.179-.2942.432-.5352.733-.6993.302-.164.641-.245.983-.2344l57.216 1.9836c.328.0199.656-.0452.952-.1879.296-.1435.551-.36.741-.6302.191-.2697.309-.5844.345-.9131.036-.3294-.011-.6621-.138-.9676l-8.01-18.6489c-.177-.4196-.492-.7642-.893-.9747-.402-.2104-.862-.2736-1.305-.1786z"/><path d="m525.042 52.1775-52.478 12.744c-.409.0963-.838.0574-1.223-.1108s-.707-.4569-.917-.8234l-6.271-11.1986c-.168-.3006-.412-.5508-.708-.7251-.295-.1742-.631-.2662-.974-.2667h-16.375c-.334-.0012-.663.0848-.954.2495-.291.1649-.535.4029-.708.6909s-.269.6162-.279.9526c-.009.3364.068.6697.224.9672l5.722 11.014c.158.2985.236.634.224.9722-.012.3387-.113.6674-.293.9536l-28.757 47.4241c-.179.299-.276.64-.281.989-.004.349.084.693.255.996.172.304.421.556.721.73s.641.263.987.261h23.516c.331-.002.656-.089.944-.253.288-.163.531-.398.704-.682l26.32-43.4334c.18-.2948.435-.5366.739-.7006.303-.164.645-.2444.989-.2331l57.215 1.9836c.325.0113.646-.0591.936-.2059.29-.1461.539-.3639.724-.6328.184-.2683.299-.5797.333-.9051.034-.3248-.014-.6535-.139-.955l-8.01-18.6489c-.176-.4173-.49-.7602-.888-.9705-.399-.2103-.857-.2749-1.298-.1828z"/><path d="m773.617 52.7313-37.765 62.2787c-.173.296-.273.636-.279.983-.007.347.079.689.252.992.166.302.412.555.711.73.298.176.63.269.976.27h23.521c.325 0 .651-.084.943-.245.285-.162.531-.395.704-.678l38.529-62.2778c.179-.2965.278-.636.285-.9838s-.08-.6914-.246-.9954c-.166-.3041-.411-.5577-.71-.7348-.292-.1771-.631-.2714-.976-.2731h-24.252c-.338-.0051-.671.0782-.969.2419-.299.1638-.545.4023-.724.6923z"/><path d="m846.737 59.2933 47.467 15.1893c.405.1295.843.1215 1.242-.0219.398-.1441.737-.4157.969-.7743l12.325-18.8679c.193-.2937.299-.6344.319-.9858.013-.3515-.066-.7006-.232-1.0104s-.412-.5687-.711-.7492-.644-.276-.989-.2762h-88.334c-.325.0026-.651.0884-.936.2495-.292.1613-.531.3927-.711.6731l-14.304 23.4119c-.159.2677-.259.5711-.279.8839-.02.3134.034.6269.153.9151.126.2882.312.5425.558.7411.239.1985.525.336.83.4011l58.67 12.317c.286.0604.551.1859.784.3659.232.1806.418.4117.551.676s.199.5552.199.85c.007.2949-.06.5864-.186.8527l-1.142 2.3069c-.153.3414-.399.6316-.711.8361-.312.2039-.67.3141-1.042.3174h-70.285c-.325.0007-.644.085-.936.2444-.285.1594-.525.3885-.697.6667l-10.3 16.5033c-.186.295-.285.634-.299.983-.006.348.073.692.239.997s.412.559.711.737c.299.177.637.27.983.271h35.076c.199-.002.398-.034.591-.093l46.922-14.993c.432-.135.897-.111 1.315.066.418.176.764.497.97.903l6.773 13.078c.166.318.412.585.717.772.299.187.644.287 1.003.289h3.798c.332-.001.658-.088.943-.252.293-.163.532-.398.704-.682l16.642-27.2526c.166-.273.265-.5831.285-.9038.02-.3208-.04-.6415-.172-.9337-.133-.2922-.333-.5472-.591-.7411-.253-.1945-.552-.3227-.864-.3738l-57.647-9.5493c-.312-.0538-.611-.1832-.857-.3778-.252-.1939-.451-.4469-.584-.7365-.133-.2902-.193-.6076-.173-.9257.014-.318.107-.6275.273-.9004l8.686-14.3128c.239-.3716.591-.6514 1.009-.7938.412-.1424.863-.139 1.275.0096z"/><path d="m747.037 71.4837 10.147-16.7112c.186-.2955.285-.6346.292-.9821s-.073-.6908-.246-.9943c-.166-.3036-.411-.5562-.71-.7319s-.638-.2679-.983-.2673h-26.317c-.186-.0014-.365.0258-.538.0808l-50.741 14.7623c-.418.1195-.863.095-1.261-.0704-.405-.1648-.744-.4609-.957-.8408l-7.311-12.94c-.173-.3006-.412-.5509-.711-.7251-.292-.1743-.63-.2664-.976-.2668h-15.903c-.334-.0012-.662.0848-.953.2496-.292.1648-.535.4027-.708.6907s-.269.6163-.278.9527c-.01.3364.067.6696.223.9672l5.824 11.164c.166.2935.253.6256.253.963 0 .3373-.087.6694-.253.9629l-28.699 47.285c-.181.296-.282.635-.289.982-.008.348.076.691.244.994.168.304.414.557.712.732.297.176.636.269.981.268h22.886c.333-.001.66-.087.95-.25.29-.164.534-.4.71-.684l22.953-37.8288c.199-.3234.485-.5824.824-.7451.345-.162.723-.2204 1.095-.168.372.0532.724.2145 1.01.4649.278.2503.484.5784.584.9443l10.22 36.8357c.113.411.358.773.697 1.03.332.259.744.4 1.169.401h32.512c.326-.002.651-.088.943-.252.286-.163.532-.398.704-.682l1.083-1.788c.239-.394.332-.859.265-1.315-.073-.456-.299-.872-.637-1.176l-41.657-36.9059c-.305-.2604-.524-.6103-.631-1.0015-.099-.3911-.079-.8048.06-1.1833.146-.3792.399-.7052.731-.933.325-.2285.723-.348 1.122-.342h59.951c.326-.004.644-.0936.93-.259.286-.166.518-.4024.684-.6866z"/></g><g mask="url(#a)"><path clip-rule="evenodd" d="m85 170c46.944 0 85-38.056 85-85 0-46.9442-38.056-85-85-85-46.9442 0-85 38.0558-85 85 0 46.944 38.0558 85 85 85zm-15.9275-79.6822 67.5005 47.6162c.187.139.418.206.651.188.232-.017.451-.117.616-.282s.265-.384.282-.616c.018-.233-.049-.464-.188-.651l-47.6281-67.5264 15.7641-35.2827c.141-.2394.198-.5187.163-.7941-.035-.2753-.162-.5312-.358-.7275s-.452-.3219-.727-.3571c-.276-.0353-.556.0219-.795.1624l-35.2646 15.7073-35.3239-15.7073c-.2395-.1405-.5188-.1977-.7943-.1624-.2754.0352-.5313.1608-.7277.3571s-.322.4522-.3573.7275c-.0352.2754.0219.5547.1625.7941l15.7378 35.2827-15.7378 35.3144c-.1406.24-.1977.519-.1625.795.0353.275.1609.531.3573.727s.4523.322.7277.358c.2755.035.5548-.022.7943-.163z" fill="#000" fill-rule="evenodd"/></g></svg>