<svg fill="none" height="170" viewBox="0 0 1011 170" width="1011" xmlns="http://www.w3.org/2000/svg"><g fill="#000"><path d="m254.711 72.4874c-2.611-.5583-5.331-1.0969-8.155-1.6127-.806-6.4963-2.216-12.7955-4.17-18.8344 36.699 5.9064 60.429 15.2969 60.429 25.8725 0 .1183-.004.2358-.009.3541-.875 17.7138-68.323 32.0151-151.399 32.0151-83.6198 0-151.407-14.4897-151.407-32.3645 0-.1096.00252256-.22.00764833-.3296.48615967-10.5654 24.65805167-19.9203 61.70985167-25.7526-1.966 6.0318-3.3885 12.3231-4.2087 18.8131-3.2726.5851-6.4103 1.1986-9.4054 1.839-3.9232.8382-7.5136 1.7049-10.7705 2.5833-3.4745.9377-6.5695 1.895-9.285 2.8445 5.2608 1.8397 11.9467 3.6905 20.0555 5.4238 2.7474.5875 5.6147 1.1521 8.5963 1.6931 25.0564 4.5462 58.1233 7.3937 94.7073 7.3937 37.183 0 70.734-2.9367 95.933-7.6137 2.544-.4724 5.002-.9668 7.371-1.4731 8.112-1.7341 14.8-3.5857 20.063-5.4262-5.263-1.8398-11.951-3.6913-20.063-5.4254z"/><path d="m265.48 22.0905c.004-.0836.005-.168.005-.2524 0-9.5434-25.345-17.80925-62.31-21.8381 8.797 5.82997 16.613 13.1204 23.133 21.5424.478.0978.953.1964 1.423.2957-.341.0718-.685.1436-1.031.2145-18.834 3.8727-45.111 6.3867-74.598 6.3867-29.558 0-55.8948-2.5226-74.738-6.4111-.2996-.0615-.5937-.1278-.8895-.1901.4077-.0867.8186-.1719 1.2334-.2562 6.5176-8.4284 14.3332-15.72512 23.1301-21.5613992-36.8601 4.0367392-62.1175 12.2907992-62.1175 21.8175992 0 11.921 54.893 21.3997 91.8915 24.0194 8.279.5859 21.242.6269 21.242.6269 4.575.1987 12.909-.0347 21.155-.6032 37.199-2.5653 91.924-11.936 92.471-23.7907z"/><path d="m38.7205 145.541c0-6.234 10.8193-11.924 28.6294-16.244 2.842 5.7 6.1998 11.074 10.0086 16.06-.2965.061-.5906.123-.884.184.4038.086.8107.171 1.2215.254.0269.035.0537.07.0805.104h.4061c18.784 3.793 44.7874 6.244 73.9194 6.244 29.134 0 55.137-2.451 73.921-6.244h.246c.017-.021.033-.043.05-.064.475-.097.946-.195 1.412-.294-.338-.071-.68-.142-1.023-.212 3.808-4.987 7.165-10.366 10.004-16.066 17.896 4.324 28.773 10.027 28.773 16.278 0 .12-.004.239-.012.358-.874 13.342-51.297 24.101-113.371 24.101-62.0726 0-112.495-10.759-113.3702-24.101-.0078-.119-.0113-.238-.0113-.358z"/><path d="m376.234 122h-16.807l25.608-74.1818h20.212l25.573 74.1818h-16.807l-18.582-57.23h-.58zm-1.051-29.1583h39.699v12.2433h-39.699z"/><path d="m475.137 98.3111v-31.9474h15.43v55.6363h-14.815v-10.106h-.579c-1.256 3.26-3.345 5.88-6.266 7.86-2.898 1.98-6.436 2.971-10.613 2.971-3.719 0-6.991-.846-9.816-2.536-2.826-1.69-5.035-4.093-6.629-7.208-1.57-3.115-2.366-6.846-2.391-11.193v-35.4243h15.431v32.6719c.024 3.2844.905 5.8804 2.644 7.7874 1.739 1.908 4.069 2.862 6.991 2.862 1.859 0 3.598-.423 5.216-1.268 1.618-.869 2.921-2.149 3.912-3.84 1.014-1.69 1.509-3.779 1.485-6.2659z"/><path d="m502.91 122v-55.6363h14.959v9.7074h.58c1.014-3.4531 2.716-6.0611 5.107-7.8239 2.39-1.7869 5.143-2.6804 8.258-2.6804.773 0 1.606.0483 2.5.1449.893.0966 1.678.2294 2.354.3985v13.6917c-.724-.2173-1.726-.4105-3.006-.5795-1.28-.1691-2.451-.2536-3.514-.2536-2.27 0-4.298.495-6.085 1.4851-1.763.9659-3.163 2.3182-4.202 4.0568-1.014 1.7387-1.521 3.7429-1.521 6.0128v31.4765z"/><path d="m558.917 123.05c-3.55 0-6.713-.615-9.49-1.847-2.777-1.255-4.974-3.103-6.592-5.542-1.594-2.463-2.391-5.53-2.391-9.2 0-3.091.568-5.687 1.703-7.7876 1.135-2.1009 2.68-3.7912 4.636-5.0711 1.956-1.2798 4.177-2.2457 6.665-2.8977 2.511-.652 5.143-1.1108 7.896-1.3764 3.236-.3381 5.844-.652 7.824-.9418 1.98-.3139 3.417-.7727 4.31-1.3764.894-.6037 1.34-1.4971 1.34-2.6804v-.2173c0-2.294-.724-4.0689-2.173-5.3246-1.425-1.2557-3.453-1.8835-6.085-1.8835-2.777 0-4.987.6158-6.629 1.8473-1.642 1.2074-2.728 2.7287-3.26 4.5639l-14.271-1.1591c.725-3.3807 2.149-6.3025 4.274-8.7656 2.125-2.4872 4.866-4.3949 8.223-5.723 3.38-1.3523 7.292-2.0284 11.735-2.0284 3.091 0 6.049.3622 8.875 1.0866 2.849.7245 5.373 1.8473 7.57 3.3686 2.222 1.5213 3.972 3.4773 5.252 5.8679 1.28 2.3665 1.92 5.2039 1.92 8.5121v37.5255h-14.634v-7.715h-.434c-.894 1.739-2.089 3.272-3.586 4.6-1.497 1.304-3.296 2.33-5.397 3.079-2.101.724-4.528 1.086-7.281 1.086zm4.419-10.649c2.27 0 4.274-.446 6.013-1.34 1.739-.917 3.103-2.149 4.093-3.694.99-1.546 1.485-3.297 1.485-5.253v-5.9037c-.483.3139-1.147.6037-1.992.8693-.821.2415-1.751.4709-2.789.6882-1.038.1932-2.077.3743-3.115.5433-1.039.1449-1.98.2777-2.825.3985-1.812.2656-3.393.6882-4.745 1.2677-1.353.5797-2.403 1.3647-3.152 2.3547-.748.966-1.123 2.173-1.123 3.622 0 2.101.761 3.707 2.282 4.817 1.546 1.087 3.502 1.63 5.868 1.63z"/><path d="m626.117 122v-74.1818h49.117v12.9312h-33.433v17.6761h30.173v12.9311h-30.173v30.6434z"/><path d="m685.494 122v-55.6363h15.43v55.6363zm7.751-62.8082c-2.294 0-4.262-.7606-5.904-2.2819-1.618-1.5455-2.427-3.3928-2.427-5.5419 0-2.125.809-3.9482 2.427-5.4695 1.642-1.5455 3.61-2.3182 5.904-2.3182s4.25.7727 5.868 2.3182c1.642 1.5213 2.463 3.3445 2.463 5.4695 0 2.1491-.821 3.9964-2.463 5.5419-1.618 1.5213-3.574 2.2819-5.868 2.2819z"/><path d="m728.715 89.8353v32.1647h-15.43v-55.6363h14.705v9.8161h.652c1.232-3.2358 3.297-5.7955 6.194-7.679 2.898-1.9077 6.412-2.8615 10.541-2.8615 3.863 0 7.232.8451 10.106 2.5355 2.873 1.6903 5.107 4.1051 6.701 7.2443 1.593 3.1151 2.39 6.8338 2.39 11.1562v35.4247h-15.43v-32.6718c.024-3.4048-.845-6.0611-2.608-7.9688-1.763-1.9318-4.19-2.8977-7.281-2.8977-2.076 0-3.911.4467-5.505 1.3402-1.57.8935-2.801 2.1975-3.695 3.912-.869 1.6903-1.316 3.7308-1.34 6.1214z"/><path d="m792.601 123.05c-3.55 0-6.713-.615-9.49-1.847-2.777-1.255-4.975-3.103-6.593-5.542-1.593-2.463-2.39-5.53-2.39-9.2 0-3.091.567-5.687 1.702-7.7876 1.135-2.1009 2.681-3.7912 4.637-5.0711 1.956-1.2798 4.177-2.2457 6.664-2.8977 2.512-.652 5.144-1.1108 7.897-1.3764 3.235-.3381 5.843-.652 7.823-.9418 1.981-.3139 3.417-.7727 4.311-1.3764.893-.6037 1.34-1.4971 1.34-2.6804v-.2173c0-2.294-.724-4.0689-2.173-5.3246-1.425-1.2557-3.453-1.8835-6.085-1.8835-2.777 0-4.987.6158-6.629 1.8473-1.642 1.2074-2.729 2.7287-3.26 4.5639l-14.271-1.1591c.724-3.3807 2.149-6.3025 4.274-8.7656 2.125-2.4872 4.866-4.3949 8.222-5.723 3.381-1.3523 7.293-2.0284 11.736-2.0284 3.091 0 6.049.3622 8.874 1.0866 2.85.7245 5.373 1.8473 7.571 3.3686 2.221 1.5213 3.972 3.4773 5.252 5.8679 1.28 2.3665 1.919 5.2039 1.919 8.5121v37.5255h-14.633v-7.715h-.435c-.893 1.739-2.089 3.272-3.586 4.6-1.497 1.304-3.296 2.33-5.397 3.079-2.101.724-4.527 1.086-7.28 1.086zm4.419-10.649c2.27 0 4.274-.446 6.013-1.34 1.738-.917 3.103-2.149 4.093-3.694.99-1.546 1.485-3.297 1.485-5.253v-5.9037c-.483.3139-1.147.6037-1.992.8693-.821.2415-1.751.4709-2.79.6882-1.038.1932-2.076.3743-3.115.5433-1.038.1449-1.98.2777-2.825.3985-1.811.2656-3.393.6882-4.745 1.2677-1.352.5797-2.403 1.3647-3.151 2.3547-.749.966-1.123 2.173-1.123 3.622 0 2.101.761 3.707 2.282 4.817 1.545 1.087 3.501 1.63 5.868 1.63z"/><path d="m851.334 89.8353v32.1647h-15.43v-55.6363h14.706v9.8161h.652c1.231-3.2358 3.296-5.7955 6.194-7.679 2.897-1.9077 6.411-2.8615 10.54-2.8615 3.864 0 7.232.8451 10.106 2.5355 2.873 1.6903 5.107 4.1051 6.701 7.2443 1.594 3.1151 2.39 6.8338 2.39 11.1562v35.4247h-15.43v-32.6718c.024-3.4048-.845-6.0611-2.608-7.9688-1.763-1.9318-4.19-2.8977-7.28-2.8977-2.077 0-3.912.4467-5.506 1.3402-1.57.8935-2.801 2.1975-3.695 3.912-.869 1.6903-1.316 3.7308-1.34 6.1214z"/><path d="m924.493 123.087c-5.699 0-10.601-1.208-14.706-3.622-4.081-2.439-7.22-5.82-9.418-10.142-2.173-4.323-3.26-9.297-3.26-14.9238 0-5.6988 1.099-10.6974 3.296-14.9957 2.222-4.3225 5.373-7.6911 9.454-10.1058 4.081-2.439 8.935-3.6584 14.561-3.6584 4.854 0 9.104.8814 12.75 2.6441 3.646 1.7628 6.532 4.238 8.657 7.4255s3.296 6.9304 3.514 11.2287h-14.561c-.411-2.777-1.498-5.0107-3.26-6.701-1.739-1.7145-4.021-2.5718-6.846-2.5718-2.391 0-4.48.652-6.267 1.956-1.762 1.2798-3.139 3.1513-4.129 5.6144-.99 2.463-1.485 5.4453-1.485 8.9467 0 3.5497.483 6.5681 1.449 9.0551.99 2.488 2.378 4.383 4.165 5.687s3.876 1.956 6.267 1.956c1.763 0 3.344-.362 4.745-1.087 1.424-.724 2.596-1.774 3.513-3.151.942-1.4 1.558-3.079 1.848-5.035h14.561c-.242 4.25-1.401 7.993-3.478 11.229-2.052 3.212-4.89 5.723-8.512 7.534s-7.908 2.717-12.858 2.717z"/><path d="m984.575 123.087c-5.723 0-10.649-1.159-14.778-3.478-4.105-2.342-7.269-5.65-9.49-9.924-2.222-4.299-3.333-9.382-3.333-15.2496 0-5.723 1.111-10.7457 3.333-15.0681 2.221-4.3225 5.348-7.6911 9.381-10.1059 4.057-2.4147 8.814-3.6221 14.271-3.6221 3.671 0 7.088.5916 10.251 1.7748 3.188 1.1591 5.96 2.9098 8.33 5.2522 2.39 2.3423 4.25 5.2883 5.58 8.838 1.33 3.5256 1.99 7.6549 1.99 12.3878v4.2379h-46.978v-9.5625h32.455c0-2.2216-.483-4.1896-1.449-5.9041s-2.306-3.0547-4.021-4.0206c-1.69-.99-3.658-1.4851-5.904-1.4851-2.342 0-4.419.5434-6.23 1.63-1.787 1.0625-3.188 2.4993-4.202 4.3104-1.014 1.7869-1.533 3.7791-1.557 5.9765v9.0917c0 2.7527.507 5.1317 1.521 7.1357 1.038 2.004 2.499 3.55 4.383 4.636 1.883 1.087 4.117 1.63 6.701 1.63 1.714 0 3.284-.241 4.709-.724 1.424-.483 2.644-1.208 3.658-2.173 1.014-.966 1.787-2.15 2.318-3.55l14.276.942c-.73 3.429-2.21 6.423-4.46 8.983-2.22 2.535-5.1 4.515-8.621 5.94-3.501 1.4-7.546 2.101-12.134 2.101z"/></g></svg>