<svg fill="none" height="170" viewBox="0 0 895 170" width="895" xmlns="http://www.w3.org/2000/svg"><path d="m150.059 103.845c32.104 5.924 53.941 17.586 53.941 31.007 0 19.423-45.671 35.148-102 35.148-56.3295 0-102-15.734-102-35.148 0-13.421 21.845-25.083 53.941-31.007 13.9485 3.621 30.4215 5.703 48.059 5.703 17.638 0 34.11-2.082 48.059-5.695zm-12.291-56.925c27.268 4.539 46.053 14.0845 46.053 25.143 0 15.4275-36.635 27.94-81.821 27.94s-81.821-12.5125-81.821-27.94c0-11.05 18.785-20.604 46.053-25.143 10.4805 2.6605 22.7035 4.182 35.768 4.182 13.064 0 25.288-1.53 35.768-4.182zm-35.394-46.92c33.838 0 61.277 9.469 61.277 21.1565 0 11.679-27.439 21.148-61.277 21.148-33.8385 0-61.2765-9.469-61.2765-21.148 0-11.6875 27.438-21.1565 61.2765-21.1565zm231.667 140.165c8.509 0 15.572-1.317 21.191-3.961 5.61-2.635 9.818-6.256 12.606-10.838 2.815-4.678 4.263-10.052 4.181-15.512 0-5.653-1.155-10.4635-3.476-14.45-2.141-3.8011-5.219-6.9907-8.942-9.265-3.437-2.1268-7.347-3.368-11.382-3.6125v-1.0965c3.512-.8211 6.845-2.2757 9.835-4.2925 2.933-1.989 5.27-4.59 7.013-7.7945 1.734-3.2045 2.609-7.072 2.609-11.6025 0-5.508-1.335-10.4295-3.995-14.773-2.661-4.352-6.664-7.786-12.01-10.302-5.338-2.516-12.036-3.774-20.077-3.774h-42.594v111.2655zm-4.947-63.9455h-19.941v-30.6935h20.375c5.95 0 10.429 1.394 13.447 4.182 3.026 2.788 4.539 6.341 4.539 10.6505 0 3.264-.808 6.0775-2.414 8.449-1.615 2.38-3.816 4.199-6.604 5.491-2.957 1.3182-6.165 1.9738-9.402 1.921zm1.743 47.1065h-21.675v-32.597h22.219c4.165 0 7.752.765 10.752 2.312 3.009 1.53 5.33 3.638 6.962 6.2985 1.623 2.6605 2.439 5.6445 2.439 8.9425 0 4.42-1.615 8.032-4.862 10.837-3.238 2.805-8.516 4.207-15.835 4.207zm77.631 18.53c4.343 0 8.134-.603 11.381-1.818 3.239-1.216 5.942-2.822 8.092-4.837 2.159-2.006 3.825-4.173 5.032-6.494h.646v11.466h18.912v-55.853c0-5.542-1.011-10.1575-3.017-13.855-1.877-3.5459-4.616-6.5625-7.965-8.772-3.338-2.1751-7.032-3.7487-10.914-4.6495-3.935-.9355-7.965-1.409-12.01-1.411-5.831 0-11.161.8585-15.98 2.584-4.612 1.593-8.792 4.2317-12.215 7.7095-3.422 3.581-5.889 7.9655-7.173 12.75l18.36 2.601c.977-2.8645 2.872-5.3465 5.677-7.446s6.622-3.145 11.442-3.145c4.564 0 8.057 1.122 10.48 3.366 2.431 2.244 3.646 5.4145 3.646 9.503v.3315c0 1.8785-.696 3.264-2.09 4.1565-1.394.884-3.613 1.53-6.656 1.955-3.043.4165-7.013.8755-11.9 1.3855-3.966.4181-7.897 1.1168-11.764 2.091-3.591.8773-7.027 2.2961-10.192 4.2075-2.969 1.8107-5.419 4.358-7.114 7.395-1.742 3.077-2.609 6.97-2.609 11.679 0 5.466 1.224 10.072 3.672 13.804 2.439 3.723 5.779 6.545 9.995 8.441 4.216 1.904 8.977 2.855 14.264 2.855zm5.099-14.449c-4.088 0-7.454-.927-10.098-2.771-2.643-1.853-3.969-4.591-3.969-8.203 0-2.542.671-4.616 2.014-6.222 1.335-1.615 3.162-2.873 5.483-3.783 2.54-.96 5.185-1.617 7.879-1.954l4.616-.646c1.785-.255 3.57-.544 5.381-.876 1.81-.323 3.45-.706 4.921-1.139 1.462-.434 2.507-.901 3.119-1.411v9.834c0 3.077-.79 5.925-2.363 8.526-1.629 2.662-3.95 4.833-6.715 6.282-2.89 1.572-6.324 2.363-10.268 2.363zm74.205 12.766v-111.273h-19.66v111.265h19.669zm39.985 1.683c4.343 0 8.143-.603 11.381-1.818 3.239-1.216 5.941-2.822 8.092-4.837 2.159-2.006 3.834-4.173 5.032-6.494h.646v11.466h18.913v-55.853c0-5.542-1.012-10.1575-3.018-13.855-1.874-3.5449-4.61-6.5614-7.956-8.772-3.341-2.176-7.038-3.7496-10.923-4.6495-3.935-.9355-7.965-1.409-12.01-1.411-5.831 0-11.152.8585-15.98 2.584-4.612 1.593-8.792 4.2317-12.215 7.7095-3.422 3.581-5.889 7.9655-7.173 12.75l18.36 2.601c.977-2.8645 2.873-5.3465 5.678-7.446s6.63-3.145 11.441-3.145c4.564 0 8.057 1.122 10.488 3.366 2.423 2.244 3.638 5.4145 3.638 9.503v.3315c0 1.8785-.697 3.264-2.091 4.1565-1.394.884-3.612 1.53-6.655 1.955-3.043.4165-7.013.8755-11.9 1.3855-3.966.4181-7.897 1.1168-11.764 2.091-3.591.8773-7.027 2.2961-10.192 4.2075-2.969 1.8107-5.419 4.358-7.114 7.395-1.734 3.077-2.609 6.97-2.609 11.679 0 5.466 1.224 10.072 3.672 13.804 2.439 3.723 5.779 6.545 9.995 8.441 4.216 1.904 8.977 2.855 14.264 2.855zm5.099-14.449c-4.08 0-7.454-.927-10.098-2.771-2.643-1.853-3.969-4.591-3.969-8.203 0-2.542.671-4.616 2.014-6.222 1.335-1.615 3.163-2.873 5.483-3.783 2.54-.96 5.185-1.617 7.879-1.954l4.616-.646c1.785-.255 3.57-.544 5.38-.876 1.811-.323 3.451-.706 4.922-1.139 1.462-.434 2.507-.901 3.119-1.411v9.834c0 3.077-.782 5.925-2.363 8.526-1.629 2.662-3.95 4.833-6.715 6.282-2.89 1.572-6.324 2.363-10.268 2.363zm74.205 12.766v-48.9c0-4.0205.765-7.446 2.261-10.268 1.505-2.822 3.587-4.9895 6.248-6.494 2.802-1.5378 5.959-2.3144 9.155-2.2525 5.074 0 9.044 1.5725 11.925 4.726 2.882 3.145 4.318 7.514 4.318 13.09v50.0985h19.669v-53.1415c.043-6.664-1.131-12.325-3.502-17-2.38-4.675-5.703-8.245-9.996-10.71-4.292-2.465-9.316-3.689-15.079-3.689-6.23 0-11.458 1.377-15.674 4.131-4.148 2.6682-7.365 6.5591-9.206 11.135h-.985v-14.178h-18.794v83.4525zm105.783 1.633c6.987 0 13.073-1.275 18.25-3.834 4.979-2.378 9.223-6.058 12.282-10.65 3.009-4.548 4.743-9.775 5.219-15.674h-18.802c-.477 2.761-1.572 5.38-3.204 7.658-1.556 2.108-3.485 3.706-5.78 4.811-2.312 1.105-4.905 1.657-7.803 1.657-4.097 0-7.651-1.096-10.677-3.289s-5.371-5.321-7.037-9.401c-1.666-4.072-2.5-8.951-2.5-14.637 0-5.61.842-10.4295 2.525-14.45s4.046-7.1145 7.089-9.265c3.043-2.159 6.579-3.23 10.6-3.23 4.743 0 8.534 1.343 11.381 4.046 2.839 2.6945 4.641 6.052 5.406 10.0725h18.802c-.442-6.0095-2.21-11.271-5.329-15.7845-3.164-4.5482-7.487-8.1669-12.521-10.4805-5.236-2.482-11.237-3.723-18.02-3.723-8.143 0-15.198 1.819-21.156 5.457-5.968 3.6483-10.766 8.9277-13.83 15.215-3.255 6.5025-4.888 13.991-4.888 22.4655 0 8.44 1.607 15.895 4.811 22.355 3.205 6.468 7.787 11.535 13.745 15.19 5.959 3.655 13.107 5.491 21.437 5.491zm84.634 0c6.486 0 12.24-.987 17.281-2.967 5.032-1.972 9.172-4.76 12.41-8.364 3.247-3.604 5.44-7.837 6.605-12.69l-18.361-2.066c-.875 2.355-2.159 4.335-3.859 5.924-1.7 1.598-3.714 2.806-6.035 3.613-2.501.845-5.128 1.259-7.769 1.224-4.275 0-8.006-.909-11.194-2.745-3.207-1.853-5.794-4.612-7.437-7.931-1.785-3.46-2.669-7.616-2.669-12.47l.008.494h58.131v-6.0355c0-7.31-1.019-13.6255-3.042-18.938-2.032-5.304-4.812-9.673-8.339-13.1155-3.458-3.3943-7.611-5.9984-12.172-7.633-4.681-1.6655-9.617-2.5025-14.586-2.4735-7.973 0-14.909 1.819-20.817 5.457-5.932 3.6726-10.705 8.947-13.77 15.215-3.281 6.5025-4.912 14.042-4.912 22.627 0 8.7295 1.623 16.3115 4.887 22.7375 3.255 6.435 7.922 11.39 13.991 14.892 6.069 3.493 13.285 5.245 21.649 5.245zm-20.935-51.8845c.255-3.026 1.088-5.848 2.491-8.4575 1.683-3.128 4.046-5.6695 7.089-7.6075 3.176-1.9761 6.859-2.9861 10.599-2.907 3.766 0 7.072.85 9.911 2.55 2.848 1.7085 5.066 4.0375 6.655 6.987 1.598 2.958 2.406 6.3155 2.449 10.081h-39.237zm90.092 50.2515v-49.0615c0-3.553.816-6.681 2.439-9.401 1.632-2.72 3.867-4.845 6.715-6.3835 2.967-1.5704 6.283-2.3657 9.639-2.312 1.666 0 3.4.119 5.185.357 1.802.238 3.111.493 3.944.7905v-18.0965c-1.124-.2081-2.259-.3444-3.4-.408-1.216-.0854-2.435-.1307-3.655-.136-4.785 0-9.035 1.3175-12.75 3.944-3.714 2.618-6.324 6.341-7.846 11.1605h-.875v-13.906h-19.066v83.4525z" fill="#000"/></svg>