<svg width="1748" height="568" viewBox="0 0 1748 568" fill="none" xmlns="http://www.w3.org/2000/svg">
<path d="M774.49 207.548C777.197 210.293 780.436 212.453 784.007 213.895C787.579 215.336 791.408 216.03 795.257 215.93C799.103 216.028 802.929 215.334 806.497 213.893C810.066 212.451 813.303 210.292 816.007 207.548C818.716 204.808 820.853 201.555 822.295 197.977C823.736 194.399 824.452 190.571 824.402 186.713C824.498 182.854 823.801 179.018 822.357 175.44C820.912 171.861 818.752 168.619 816.007 165.913C813.358 163.07 810.14 160.82 806.565 159.307C802.989 157.795 799.137 157.055 795.257 157.135C791.374 157.052 787.518 157.791 783.939 159.303C780.362 160.816 777.141 163.068 774.49 165.913C771.748 168.62 769.588 171.863 768.147 175.441C766.706 179.019 766.013 182.856 766.111 186.713C766.058 190.57 766.771 194.398 768.21 197.975C769.649 201.553 771.784 204.807 774.49 207.548Z" fill="black"/>
<path d="M769.324 235.928C768.828 236.467 768.444 237.1 768.197 237.791C767.95 238.481 767.843 239.215 767.884 239.947V407.935C767.842 408.667 767.948 409.4 768.196 410.09C768.443 410.781 768.827 411.415 769.324 411.953C769.858 412.456 770.489 412.845 771.179 413.097C771.868 413.347 772.601 413.456 773.333 413.414H817.043C817.775 413.456 818.508 413.347 819.197 413.097C819.886 412.845 820.518 412.456 821.052 411.953C821.556 411.419 821.944 410.786 822.195 410.095C822.446 409.404 822.552 408.669 822.509 407.935V239.947C822.551 239.214 822.443 238.479 822.192 237.788C821.942 237.097 821.554 236.464 821.052 235.928C820.515 235.43 819.883 235.046 819.194 234.799C818.505 234.551 817.773 234.444 817.043 234.485H773.367C772.637 234.444 771.905 234.551 771.217 234.799C770.528 235.046 769.896 235.43 769.358 235.928" fill="black"/>
<path fill-rule="evenodd" clip-rule="evenodd" d="M1232.84 285.433C1239.81 280.015 1248.43 277.175 1257.24 277.395C1265.84 277.177 1274.23 280.025 1280.93 285.433C1287.48 290.541 1291.61 298.081 1293.31 308.055H1219.72C1221.68 298.093 1226.05 290.552 1232.84 285.433ZM1339.22 337.65C1340.92 333.997 1341.76 328.157 1341.75 320.13C1341.91 304.605 1338.28 289.276 1331.2 275.471C1324.39 262.106 1314.06 250.865 1301.33 242.972C1287.96 234.817 1272.54 230.646 1256.89 230.949C1240.62 230.752 1224.61 235.048 1210.62 243.367C1196.91 251.275 1185.57 262.753 1177.82 276.587C1170.01 290.914 1165.99 307.014 1166.17 323.342C1165.99 339.709 1170.12 355.834 1178.17 370.08C1186.09 384.115 1197.67 395.729 1211.66 403.677C1226.7 412.083 1243.68 416.372 1260.89 416.113C1273.22 416.229 1285.45 413.895 1296.88 409.242C1308.18 404.447 1318.45 397.5 1327.12 388.785C1327.76 388.238 1328.28 387.568 1328.66 386.816C1329.03 386.064 1329.26 385.244 1329.31 384.404C1329.33 383.728 1329.2 383.055 1328.96 382.426C1328.7 381.798 1328.33 381.226 1327.85 380.746L1309.01 362.504C1308 361.277 1306.57 360.488 1305 360.306C1303.53 360.304 1302.1 360.821 1300.98 361.766C1295.55 365.349 1289.68 368.174 1283.5 370.166C1277.91 371.66 1272.14 372.399 1266.36 372.364C1254.23 372.364 1244.15 369.93 1236.13 365.064C1228.3 359.856 1222.72 351.885 1220.48 342.734H1328.66C1334 342.734 1337.54 341.017 1339.24 337.582" fill="black"/>
<path fill-rule="evenodd" clip-rule="evenodd" d="M1446.58 277.4C1437.76 277.185 1429.15 280.024 1422.18 285.439C1415.33 290.546 1410.95 298.087 1409.07 308.061H1482.65C1480.95 298.098 1476.82 290.557 1470.26 285.439C1463.56 280.031 1455.18 277.182 1446.58 277.4ZM1531.1 320.136C1531.1 328.151 1530.25 333.991 1528.55 337.656C1526.83 341.091 1523.33 342.809 1518 342.809H1409.81C1412.04 351.959 1417.62 359.931 1425.45 365.139C1433.45 369.993 1443.53 372.427 1455.69 372.438C1461.48 372.476 1467.24 371.736 1472.83 370.24C1479.01 368.245 1484.9 365.419 1490.32 361.841C1491.44 360.893 1492.87 360.375 1494.33 360.381C1495.9 360.56 1497.35 361.348 1498.34 362.579L1517.19 380.821C1517.67 381.299 1518.05 381.869 1518.29 382.499C1518.55 383.128 1518.67 383.802 1518.65 384.48C1518.59 385.32 1518.38 386.141 1518 386.893C1517.62 387.646 1517.09 388.315 1516.45 388.859C1507.81 397.543 1497.56 404.466 1486.29 409.248C1474.87 413.898 1462.64 416.233 1450.31 416.119C1433.12 416.374 1416.15 412.092 1401.12 403.7C1387.13 395.742 1375.55 384.131 1367.62 370.102C1359.59 355.853 1355.45 339.731 1355.63 323.365C1355.45 307.037 1359.47 290.937 1367.28 276.61C1374.99 262.817 1386.26 251.359 1399.9 243.443C1413.89 235.123 1429.9 230.827 1446.16 231.023C1461.82 230.719 1477.23 234.889 1490.61 243.048C1503.35 250.94 1513.67 262.18 1520.48 275.546C1527.58 289.347 1531.21 304.677 1531.05 320.204" fill="black"/>
<path fill-rule="evenodd" clip-rule="evenodd" d="M1668.25 354.497C1660.71 362.296 1651.11 366.189 1639.46 366.177C1627.57 366.177 1617.87 362.284 1610.34 354.497C1603.06 346.699 1599.42 336.594 1599.41 324.18C1599.41 312.02 1603.04 301.799 1610.34 293.52C1614 289.457 1618.51 286.241 1623.54 284.098C1628.57 281.953 1634 280.931 1639.46 281.101C1644.84 280.94 1650.19 281.929 1655.15 284.002C1660.11 286.075 1664.58 289.185 1668.25 293.126C1676 301.14 1679.89 311.487 1679.9 324.163C1679.9 336.588 1676.01 346.694 1668.25 354.48V354.497ZM1690.1 243.468C1676.9 235.166 1661.6 230.853 1646.03 231.049C1625.14 231.049 1608.01 239.569 1594.63 256.608L1592.79 240.187C1592.31 236.534 1590.49 234.707 1587.32 234.707H1550.21C1549.48 234.666 1548.74 234.774 1548.05 235.025C1547.36 235.276 1546.74 235.664 1546.2 236.168C1545.7 236.705 1545.32 237.338 1545.07 238.029C1544.82 238.72 1544.72 239.455 1544.77 240.187V477.55C1544.72 478.285 1544.83 479.02 1545.08 479.714C1545.32 480.407 1545.71 481.044 1546.2 481.587C1546.74 482.086 1547.37 482.473 1548.06 482.724C1548.74 482.974 1549.48 483.085 1550.21 483.047H1593.92C1594.66 483.087 1595.38 482.979 1596.07 482.728C1596.76 482.477 1597.4 482.089 1597.93 481.587C1598.43 481.048 1598.82 480.412 1599.07 479.718C1599.32 479.024 1599.43 478.286 1599.39 477.55V397.593C1611.3 409.971 1626.85 416.161 1646.03 416.161C1661.55 416.375 1676.82 412.208 1690.1 404.138C1703.24 396.086 1713.95 384.595 1721.08 370.901C1728.63 356.626 1732.52 340.684 1732.37 324.524C1732.56 308.128 1728.69 291.94 1721.08 277.425C1714.11 263.429 1703.38 251.666 1690.1 243.468Z" fill="black"/>
<path d="M954.68 234.486C955.417 234.444 956.144 234.551 956.834 234.799C957.523 235.047 958.156 235.431 958.695 235.928C959.195 236.464 959.583 237.097 959.828 237.788C960.083 238.479 960.187 239.214 960.15 239.947V273.184C960.187 273.915 960.083 274.648 959.838 275.337C959.583 276.025 959.195 276.655 958.695 277.187C958.156 277.695 957.533 278.088 956.843 278.342C956.153 278.596 955.417 278.706 954.68 278.663H925.554V407.935C925.595 408.67 925.484 409.406 925.231 410.097C924.978 410.788 924.586 411.42 924.081 411.954C923.546 412.456 922.915 412.846 922.225 413.096C921.536 413.347 920.803 413.455 920.071 413.414H876.361C875.629 413.455 874.896 413.347 874.207 413.096C873.518 412.846 872.887 412.456 872.352 411.954C871.848 411.419 871.46 410.786 871.209 410.096C870.958 409.404 870.852 408.669 870.895 407.935V278.749H841.767C841.033 278.792 840.299 278.682 839.609 278.428C838.919 278.174 838.289 277.781 837.757 277.272C837.258 276.738 836.871 276.108 836.621 275.42C836.371 274.732 836.262 274.001 836.301 273.27V240.033C836.263 239.3 836.372 238.566 836.623 237.876C836.873 237.186 837.259 236.553 837.757 236.014C838.295 235.517 838.927 235.133 839.616 234.885C840.304 234.637 841.035 234.53 841.767 234.571H870.895V185.257C870.853 184.524 870.961 183.789 871.212 183.098C871.462 182.407 871.85 181.774 872.352 181.238C872.887 180.737 873.519 180.351 874.208 180.103C874.898 179.855 875.63 179.75 876.361 179.795H920.14C920.871 179.75 921.603 179.855 922.293 180.103C922.982 180.351 923.614 180.737 924.149 181.238C924.654 181.773 925.045 182.405 925.298 183.095C925.551 183.787 925.662 184.522 925.623 185.257V234.571L954.68 234.486Z" fill="black"/>
<path fill-rule="evenodd" clip-rule="evenodd" d="M661.106 363.35C672.278 363.35 681.142 360.796 687.698 355.688C694.255 350.581 697.534 342.909 697.534 332.672C697.534 322.687 694.255 315.387 687.698 310.772C681.13 305.894 672.265 303.461 661.106 303.472H620.274V363.35H661.106ZM682.232 231.09C682.232 215.517 672.637 207.724 653.447 207.712H620.274V256.648H653.412C662.39 256.648 669.45 254.587 674.539 250.447C679.646 246.051 682.198 239.598 682.198 231.09H682.232ZM704.045 276.745C717.699 280.442 729.901 288.233 739.016 299.075C748.953 310.193 754.296 324.687 753.958 339.611C753.958 364.209 746.065 382.714 730.277 395.126C714.731 407.288 690.937 413.374 658.895 413.385H569.299C568.567 413.426 567.834 413.319 567.144 413.067C566.456 412.816 565.825 412.428 565.29 411.925C564.789 411.389 564.404 410.756 564.156 410.064C563.909 409.373 563.805 408.639 563.85 407.905V163.242C563.806 162.51 563.91 161.775 564.157 161.084C564.405 160.394 564.79 159.76 565.29 159.223C565.825 158.72 566.456 158.331 567.144 158.08C567.834 157.83 568.567 157.721 569.299 157.763H658.553C674.545 157.763 688.253 160.683 699.675 166.523C710.569 171.661 719.698 179.922 725.908 190.261C732.046 200.377 735.222 212.019 735.076 223.858C735.338 235.592 732.17 247.146 725.96 257.095C720.134 266.576 712.847 273.15 704.096 276.814" fill="black"/>
<path d="M1186.17 411.516C1186.19 410.33 1185.8 409.175 1185.07 408.235L1083.66 271.166L1181.55 165.53C1182.54 164.704 1183.19 163.533 1183.36 162.249C1183.36 161.776 1183.23 161.312 1182.98 160.918C1182.71 160.523 1182.34 160.215 1181.91 160.033C1181.46 159.644 1180.94 159.348 1180.37 159.163C1179.8 158.977 1179.21 158.905 1178.61 158.951H1129.15C1127.97 158.945 1126.79 159.204 1125.73 159.709C1124.66 160.214 1123.72 160.953 1122.96 161.871L1029.1 263.866V164.448C1029.14 163.712 1029.03 162.977 1028.78 162.286C1028.53 161.595 1028.13 160.963 1027.63 160.428C1027.1 159.922 1026.47 159.53 1025.79 159.276C1025.1 159.022 1024.37 158.911 1023.63 158.951H979.854C979.127 158.909 978.39 159.018 977.7 159.272C977.011 159.526 976.378 159.92 975.849 160.428C975.348 160.963 974.951 161.596 974.706 162.287C974.451 162.978 974.347 163.714 974.394 164.448V409.266C974.347 410 974.451 410.736 974.706 411.427C974.951 412.118 975.339 412.751 975.849 413.285C976.378 413.791 977.011 414.181 977.7 414.432C978.39 414.683 979.127 414.789 979.854 414.745H1023.57C1024.29 414.788 1025.03 414.681 1025.71 414.429C1026.4 414.179 1027.02 413.789 1027.56 413.285C1028.06 412.752 1028.46 412.12 1028.71 411.429C1028.97 410.737 1029.07 410.002 1029.04 409.266V330.254L1050.52 306.893L1128.26 411.447C1128.97 412.522 1129.94 413.391 1131.09 413.966C1132.25 414.543 1133.52 414.805 1134.81 414.728H1181.81C1184.72 414.728 1186.17 413.645 1186.17 411.447" fill="black"/>
<path fill-rule="evenodd" clip-rule="evenodd" d="M454.545 175.977V200.97C454.545 203.382 453.912 205.753 452.709 207.841C451.506 209.931 449.775 211.667 447.691 212.873L367.365 259.353L439.106 300.748C443.798 303.463 447.694 307.37 450.4 312.073C453.108 316.777 454.53 322.113 454.528 327.544V394.138C454.534 399.571 453.112 404.91 450.405 409.617C447.697 414.324 443.8 418.234 439.106 420.95L250.37 529.489C245.681 532.203 240.363 533.631 234.949 533.631C229.535 533.631 224.216 532.203 219.528 529.489L157.843 493.745C156.801 493.142 155.935 492.275 155.333 491.23C154.731 490.185 154.414 488.999 154.414 487.793C154.414 486.587 154.731 485.401 155.333 484.356C155.935 483.311 156.801 482.444 157.843 481.841L361.744 364.199C362.267 363.898 362.703 363.464 363.005 362.941C363.307 362.417 363.467 361.823 363.467 361.218C363.467 360.614 363.307 360.02 363.005 359.496C362.703 358.973 362.267 358.539 361.744 358.239L286.044 314.404C283.96 313.198 281.596 312.563 279.19 312.563C276.784 312.563 274.42 313.198 272.336 314.404L65.1117 433.987C63.5488 434.892 61.776 435.368 59.9714 435.368C58.1667 435.368 56.3939 434.892 54.831 433.987L31.391 420.521C26.6728 417.814 22.7521 413.906 20.0259 409.191C17.2998 404.476 15.865 399.123 15.8672 393.674V366.414C15.8661 364.604 16.3405 362.825 17.2429 361.258C18.1453 359.69 19.4437 358.388 21.0076 357.483L318.017 186.455C318.54 186.155 318.975 185.72 319.278 185.197C319.58 184.674 319.739 184.08 319.739 183.475C319.739 182.87 319.58 182.277 319.278 181.753C318.975 181.23 318.54 180.796 318.017 180.495L242.197 136.523C240.113 135.317 237.749 134.682 235.343 134.682C232.937 134.682 230.573 135.317 228.489 136.523L26.3021 253.152C25.2594 253.755 24.0766 254.073 22.8726 254.073C21.6687 254.072 20.4861 253.754 19.4439 253.149C18.4017 252.545 17.5367 251.676 16.9358 250.63C16.335 249.585 16.0196 248.399 16.0214 247.192V175.651C16.0235 170.209 17.4586 164.865 20.1813 160.156C22.9041 155.449 26.8181 151.544 31.5281 148.838L220.161 40.3168C224.841 37.619 230.143 36.1992 235.54 36.1992C240.938 36.1992 246.24 37.619 250.918 40.3168L439.192 149.164C443.873 151.89 447.757 155.803 450.451 160.509C453.146 165.216 454.558 170.551 454.545 175.977Z" fill="black"/>
</svg>
