<svg width="900" height="720" viewBox="0 0 900 720" fill="none" xmlns="http://www.w3.org/2000/svg">
<path d="M294.863 105.819C325.1 45.3845 384.765 5.38169 451.815 0.588247C453.746 0.450262 501.603 0.317465 558.163 0.293654L661 0.25V6.19678V12.1439L556.484 12.2467C443.61 12.3579 451.062 12.255 440.058 13.8555C413.974 17.6495 389.076 27.1354 367.225 41.6036C326.762 68.3959 298.463 110.879 289.844 157.773C287.432 170.897 286.91 178.125 286.91 198.398V214.554H280.955H275L275.003 198.298C275.004 189.357 275.14 180.119 275.305 177.768C277.094 152.256 283.597 128.335 294.863 105.819Z" fill="black"/>
<path d="M392.419 40.8557C412.008 31.2682 432.05 25.9185 454.563 24.2688C455.319 24.2136 458.102 24.1443 460.747 24.115L465.557 24.0615V29.9674V35.8733L459.373 36.0635C417.844 37.342 377.282 56.662 349.333 88.4779C329.688 110.84 316.701 138.538 312.408 167.231C310.877 177.46 310.285 192.124 311.016 201.673C313.556 234.825 325.646 264.529 347.08 290.27C351.152 295.161 361.099 305.106 365.989 309.174C386.544 326.277 410.324 337.652 435.861 342.597C445.521 344.467 452.974 345.219 463.267 345.361C471.851 345.48 476.7 345.235 484.376 344.295C507.965 341.407 530.423 333.138 550.411 319.981C588.469 294.929 613.69 254.417 619.159 209.555C620.118 201.69 620.381 195.479 620.383 180.745L620.385 166.931H626.372H632.359L632.208 184.255C632.027 204.924 631.513 211.134 628.93 223.893C623.414 251.142 611.428 275.893 593.023 298.047C588.857 303.061 578.045 313.887 573.067 318.026C556.077 332.157 537.868 342.349 517.741 348.994C487.338 359.03 454.843 360.081 423.415 352.044C417.324 350.486 406.578 346.808 400.342 344.147C352.029 323.532 316.043 281.336 303.571 230.674C299.928 215.876 298.629 203.822 298.907 187.421C299.127 174.498 300.224 165.181 302.92 153.346C308.787 127.596 320.89 103.534 338.468 82.6746C342.599 77.7715 352.548 67.8263 357.453 63.6962C368.592 54.3156 379.572 47.1435 392.419 40.8557Z" fill="black"/>
<path d="M465.557 59.6848V53.7326V47.7803L471.436 47.9653C502.323 48.937 532.931 60.8031 557.474 81.3198C563.859 86.6572 572.685 95.7773 577.84 102.365C596.789 126.577 607.063 154.616 608.35 185.629L608.562 190.742H602.609H596.656L596.445 186.087C595.867 173.339 593.705 161.209 590.01 149.988C578.233 114.22 551.336 84.926 516.708 70.1518C502.41 64.0515 486.044 60.3589 471.13 59.8683L465.557 59.6848Z" fill="black"/>
<path d="M358.669 138.002C377.004 100.847 413.791 75.6169 454.869 72.0226C459.142 71.6486 471.592 71.6385 475.634 72.0058C498.265 74.0618 518.563 81.7859 536.605 95.2077C560.685 113.12 577.267 139.726 582.641 169.068C584.047 176.741 584.465 181.703 584.468 190.742C584.472 201.974 583.572 209.494 580.996 219.744C572.461 253.71 549.281 282.232 517.624 297.722C502.839 304.956 487.212 308.885 470.061 309.68L465.557 309.889V303.934V297.98L469.603 297.772C497.632 296.326 521.719 285.734 541.15 266.31C552.077 255.386 559.797 243.635 565.373 229.44C570.332 216.815 572.552 204.871 572.565 190.742C572.575 181.363 571.81 174.454 569.846 166.168C565.932 149.649 557.408 133.045 546.416 120.529C528.728 100.387 505.643 87.9946 478.994 84.3356C474.124 83.667 462.054 83.4192 456.628 83.8765C431.997 85.9523 409.121 96.3387 391.145 113.609C378.801 125.467 369.149 140.74 363.715 157.009C360.537 166.525 358.373 178.979 358.37 187.766L358.369 190.742H352.414H346.459L346.462 187.461C346.472 177.263 348.845 163.711 352.519 152.874C354.565 146.838 355.892 143.629 358.669 138.002Z" fill="black"/>
<path d="M620.385 131.213V125.261V119.308H626.339H632.294V125.261V131.213H626.339H620.385Z" fill="black"/>
<path d="M416.085 147.139C416.085 138.604 416.187 131.519 416.311 131.395C416.435 131.272 431.31 131.228 449.368 131.297C484.952 131.435 484.839 131.43 492.247 133.186C512.781 138.056 524.078 152.086 522.358 170.579C521.971 174.736 521.503 176.897 520.245 180.345C517.236 188.587 510.869 195.184 501.369 199.905C499.625 200.771 498.576 201.451 498.843 201.539C508.162 204.615 511.072 205.885 515.607 208.855C523.557 214.062 528.311 220.825 530.022 229.36C530.655 232.518 530.568 240.573 529.866 243.86C526.303 260.536 512.886 271.224 491.056 274.779C487.206 275.406 486.02 275.429 451.586 275.532L416.085 275.638V270.76V265.882L450.67 265.757C487.639 265.624 487.706 265.621 494.304 264.051C510.3 260.245 519.609 249.95 519.609 236.069C519.609 222.545 510.644 213.227 494.174 209.634C486.789 208.023 487.258 208.044 456.014 207.92L426.774 207.804V219.116V230.428H421.427H416.08L416.159 214.172L416.238 197.916L449.372 197.745C481.591 197.579 482.587 197.556 485.438 196.931C487.051 196.578 489.624 195.869 491.155 195.356C501.527 191.882 508.493 184.781 510.802 175.326C511.741 171.483 511.743 164.799 510.807 161.348C507.821 150.347 497.799 143.359 482.493 141.606C480.829 141.415 469.382 141.292 453.265 141.29L426.774 141.288V151.972V162.657H421.43H416.085V147.139Z" fill="black"/>
<path d="M620.385 155.025V149.072V143.119H626.339H632.294V149.072V155.025H626.339H620.385Z" fill="black"/>
<path d="M644.204 178.837V172.884V166.931H650.159H656.114V172.884V178.837H650.159H644.204Z" fill="black"/>
<path d="M416.085 185.858V180.21V174.563H421.43H426.774V180.21V185.858H421.43H416.085Z" fill="black"/>
<path d="M640.83 225.013C642.699 215.599 644.144 201.823 644.192 192.956L644.204 190.742H650.206H656.208L655.999 196.466C655.417 212.34 653.305 226.512 649.385 240.847C629.349 314.112 567.044 368.946 491.972 379.381C479.273 381.146 486.065 381.041 378.6 381.15L279.886 381.25V375.289V369.329L375.088 369.327C467.248 369.326 474.943 369.26 483.422 368.399C533.087 363.358 578.079 337.874 608.443 297.589C615.322 288.462 620.313 280.31 625.732 269.351C632.923 254.807 637.7 240.779 640.83 225.013Z" fill="black"/>
<path d="M346.764 211.196V205.243V199.29H352.719H358.674V205.243V211.196H352.719H346.764Z" fill="black"/>
<path d="M369.668 211.196V205.243V199.29H375.623H381.578V205.243V211.196H375.623H369.668Z" fill="black"/>
<path d="M393.182 211.196V205.243V199.29H399.137H405.092V205.243V211.196H399.137H393.182Z" fill="black"/>
<path d="M275 238.365V232.413V226.46H280.88H286.761V232.413V238.365H280.88H275Z" fill="black"/>
<path d="M416.238 253.782L416.155 248.058L416.072 242.334H421.423H426.774V248.142V253.949L421.506 253.866L416.238 253.782Z" fill="black"/>
<path d="M275 262.177V256.224V250.271H280.88H286.761V256.224V262.177H280.88H275Z" fill="black"/>
<path d="M275 286.904V280.951V274.999H280.88H286.761V280.951V286.904H280.88H275Z" fill="black"/>
<path fill-rule="evenodd" clip-rule="evenodd" d="M226.927 461.708C214.63 463.398 203.829 469.011 196.554 477.491C187.358 488.209 182.843 501.075 182.838 516.569C182.836 522.73 183.337 527.417 184.51 532.209C189.038 550.718 200.917 564.232 217.369 569.592C224.143 571.799 232.434 572.728 239.979 572.127C247.851 571.498 253.518 570.03 259.764 567C274.506 559.849 284.228 546.367 287.409 528.669C288.218 524.169 288.519 514.203 287.997 509.21C285.511 485.423 270.559 467.544 249.04 462.626C242.983 461.242 233.259 460.838 226.927 461.708ZM543.577 461.421C543.153 461.493 541.765 461.7 540.493 461.88C525.74 463.972 513.108 472.487 505.429 485.516C499.218 496.054 496.393 509.651 497.647 522.973C499.769 545.519 512.644 563.138 531.606 569.446C543.088 573.266 556.782 573.269 568.443 569.455C585.549 563.86 597.884 549.371 601.684 530.407C604.58 515.954 602.807 500.684 596.856 488.828C591.934 479.021 584.476 471.479 575.028 466.756C570.121 464.302 566.495 463.113 560.38 461.951C558.026 461.503 545.432 461.107 543.577 461.421ZM0 516.524V569.959L29.8304 569.839C58.701 569.723 59.77 569.698 63.0524 569.065C73.0995 567.129 81.049 562.375 85.5422 555.615C92.1268 545.709 92.2283 530.858 85.776 521.37C83.4672 517.975 78.8316 514.02 75.588 512.679C75.0527 512.458 74.6146 512.189 74.6149 512.083C74.6152 511.976 75.3435 511.485 76.2336 510.991C78.6629 509.642 82.5959 505.538 83.9282 502.961C86.0695 498.818 86.8498 494.107 86.3195 488.52C85.7279 482.284 83.6867 477.581 79.7312 473.34C76.1812 469.534 71.5572 466.716 66.2803 465.143C59.7799 463.205 57.5661 463.09 26.7472 463.09L0 463.09V516.524ZM102.98 516.507V569.925H140.754H178.527L178.446 557.379L178.366 544.833L155.164 544.754L131.963 544.675V503.882V463.09H117.472H102.98V516.507ZM287.05 463.215C287.05 463.284 294.332 474.731 303.232 488.653C312.158 502.615 319.32 514.122 319.204 514.313C319.088 514.504 311.124 527.096 301.506 542.295L284.018 569.93L300.66 569.851L317.302 569.771L326.677 553.48C331.833 544.52 336.175 537.065 336.326 536.915C336.487 536.754 340.422 543.537 345.819 553.281L355.036 569.922L372.229 569.924L389.422 569.925L388.693 568.771C386.653 565.54 356.918 518.313 355.578 516.175L354.018 513.687L369.861 488.465L385.704 463.244L369.922 463.164C357.545 463.101 354.062 463.168 353.783 463.472C353.587 463.685 349.86 469.907 345.501 477.298C341.142 484.689 337.411 490.949 337.21 491.208C336.908 491.597 335.412 489.209 328.55 477.384L320.254 463.09H303.652C294.521 463.09 287.05 463.146 287.05 463.215ZM398.047 516.488V569.925H412.693H427.338V551.6V533.274L433.414 533.358L439.489 533.441L449.957 551.683L460.426 569.925H476.752C490.572 569.925 493.052 569.859 492.913 569.497C492.822 569.261 487.377 560.082 480.813 549.099C474.248 538.117 468.828 529.042 468.768 528.934C468.708 528.825 469.115 528.52 469.672 528.257C471.627 527.33 475.302 524.76 477.257 522.952C485.974 514.891 489.231 501.835 485.779 488.798C484.841 485.258 483.532 482.365 481.461 479.259C475.917 470.944 468.131 466.052 457.091 463.948C453.837 463.328 452.571 463.296 425.874 463.176L398.047 463.051V516.488ZM614.884 501.19C614.988 538.525 615.003 539.35 615.635 542.227C619.333 559.029 629.853 568.144 648.909 571.058C653.691 571.789 665.807 571.789 670.439 571.058C681.152 569.367 688.443 566.027 694.366 560.098C699.744 554.715 702.771 548.402 704.056 539.895C704.447 537.298 704.519 531.175 704.52 499.959L704.522 463.09H690.037H675.552L675.469 499.959L675.385 536.828L674.689 538.675C673.18 542.677 670.55 545.322 666.643 546.769C663.942 547.769 658.014 548.056 654.679 547.347C648.843 546.108 645.386 542.795 644.226 537.33C643.868 535.643 643.792 529.01 643.787 499.189L643.782 463.09H629.28H614.779L614.884 501.19ZM715.93 475.713V488.336H731.038H746.146V529.131V569.925H760.637H775.128V529.131V488.336H790.236H805.344V475.713V463.09H760.637H715.93V475.713ZM817.369 516.507V569.925H858.684H900V557.302V544.679H873.176H846.351V535.442V526.206H869.013H891.675V514.506V502.807H869.013H846.351V495.263V487.72H872.713H899.075V475.405V463.09H858.222H817.369V516.507ZM242.772 486.302C245.976 487.392 247.59 488.369 250.121 490.754C256.209 496.488 259.453 506.99 258.886 519.124C258.376 530.042 255.458 537.653 249.764 542.917C247.51 545 243.678 546.971 240.647 547.604C237.838 548.191 233.403 548.187 230.583 547.594C218.66 545.09 211.473 532.124 212.242 514.506C212.839 500.852 217.877 491.072 226.355 487.11C229.495 485.643 231.735 485.253 236.331 485.371C239.696 485.458 240.73 485.608 242.772 486.302ZM555.447 485.719C559.035 486.468 562.477 488.375 565.158 491.098C567.984 493.968 569.807 497.079 571.37 501.696C572.889 506.182 573.484 510.424 573.484 516.756C573.484 524.896 572.438 530.25 569.803 535.589C565.52 544.268 558.644 548.4 549.16 547.993C541.678 547.671 536.233 544.494 532.09 538.033C528.514 532.455 526.925 525.895 526.929 516.716C526.933 505.043 529.945 496.294 535.909 490.627C538.765 487.915 541.785 486.37 545.758 485.592C547.949 485.163 553.108 485.23 555.447 485.719ZM51.6046 487.15C55.7627 487.983 58.2314 490.606 58.5096 494.484C58.734 497.618 58.1935 499.23 56.2862 501.113C53.5486 503.817 53.3941 503.844 40.1593 503.97L28.6742 504.078V495.438V486.797H39.2599C45.9854 486.797 50.4873 486.925 51.6046 487.15ZM449.274 488.472C454.205 489.516 456.696 491.864 457.568 496.287C458.632 501.69 456.436 506.626 452.119 508.533C449.524 509.679 447.236 509.883 436.973 509.885L427.338 509.888V498.958V488.028L437.282 488.033C444.639 488.037 447.758 488.152 449.274 488.472ZM52.2361 524.987C56.3294 525.577 59.6633 527.776 60.8815 530.687C61.6918 532.624 62.0069 535.454 61.6366 537.473C60.9725 541.094 58.862 543.713 55.5228 545.06C53.8514 545.734 53.4472 545.756 41.2384 545.848L28.6742 545.942V535.509C28.6742 529.772 28.7667 524.984 28.8799 524.872C29.2073 524.545 49.8792 524.646 52.2361 524.987ZM560.969 623.183C553.321 624.265 547.674 628.776 546.389 634.827C544.968 641.523 548.279 647.703 555.088 651.06C557.922 652.457 560.207 653.095 566.428 654.226C570.589 654.983 573.22 656.238 575.342 658.479C577.637 660.902 578.246 662.446 578.242 665.831C578.238 669.272 577.485 671.181 575.344 673.18C572.649 675.699 569.579 676.761 564.997 676.761C561.316 676.761 559.019 676.314 556.325 675.073C553.785 673.904 551.624 672.051 550.177 669.802C548.924 667.856 547.759 667.282 546.078 667.785C544.915 668.133 544.193 669.077 544.193 670.251C544.193 671.106 546.247 674.307 547.835 675.927C550.835 678.988 555.414 681.22 560.307 682.004C563.226 682.473 568.893 682.243 571.427 681.555C575.458 680.459 578.865 678.259 581.052 675.339C583.126 672.571 583.719 670.744 583.891 666.593C584.13 660.831 582.9 657.489 579.318 654.164C576.258 651.325 572.179 649.775 563.862 648.294C558.428 647.327 554.804 645.379 552.99 642.451C552.129 641.06 552.055 640.721 552.055 638.146C552.055 634.97 552.472 633.817 554.295 631.943C557.111 629.047 563.403 627.692 568.48 628.887C572.088 629.737 574.962 631.65 576.938 634.517C578.506 636.793 580.798 637.264 582.122 635.582C583.043 634.413 582.877 633.326 581.454 631.197C579.208 627.84 574.771 624.769 570.555 623.656C568.296 623.06 563.51 622.824 560.969 623.183ZM307.89 624.752L307.091 625.699V652.477C307.091 681.557 307.031 680.524 308.779 681.319C309.88 681.82 341.693 681.845 343.126 681.347C344.315 680.933 344.707 680.265 344.707 678.65C344.707 677.689 344.53 677.282 343.895 676.783C343.098 676.157 342.791 676.145 328.016 676.145H312.95V651.032C312.95 632.53 312.855 625.743 312.591 625.247C312.029 624.192 311.357 623.825 309.971 623.815C308.911 623.807 308.55 623.969 307.89 624.752ZM400.728 624.498C400.345 624.885 395.111 636.898 388.836 651.792C377.811 677.959 377.634 678.412 377.983 679.576C378.589 681.595 381.38 682.338 382.709 680.834C382.967 680.541 384.333 677.496 385.744 674.067L388.308 667.832H402.667H417.026L419.628 674.156C421.058 677.634 422.451 680.68 422.722 680.926C424.464 682.499 427.649 681.162 427.645 678.859C427.643 677.712 405.237 624.96 404.49 624.344C403.535 623.556 401.577 623.636 400.728 624.498ZM466.691 624.443L465.879 625.081V652.56V680.04L466.674 680.787L467.469 681.533L478.265 681.621C490.75 681.724 492.957 681.492 496.588 679.701C501.734 677.161 504.848 672.775 505.648 666.942C506.621 659.842 503.778 654.246 497.696 651.29L495.169 650.063L496.825 648.964C505.179 643.426 504.162 630.613 494.981 625.739C491.537 623.909 490.644 623.805 478.497 623.805C467.842 623.805 467.479 623.824 466.691 624.443ZM491.78 630.296C495.171 631.885 496.817 634.431 496.839 638.121C496.864 642.275 495.096 645.174 491.517 646.85L489.774 647.666L480.601 647.76L471.429 647.854V638.583V629.313L480.755 629.407C490.049 629.5 490.088 629.503 491.78 630.296ZM408.813 662.835C405.435 662.881 399.92 662.881 396.556 662.835L390.439 662.752L396.242 648.743C399.434 641.039 402.196 634.394 402.381 633.978C402.681 633.302 403.362 634.779 408.835 647.987L414.953 662.752L408.813 662.835ZM490.661 653.689C493.305 654.177 495.009 655.022 496.846 656.758C499.276 659.052 499.95 660.757 499.945 664.599C499.941 667.271 499.834 667.907 499.132 669.408C497.483 672.938 494.322 675.226 490.224 675.856C489.129 676.024 484.486 676.124 479.907 676.077L471.583 675.991L471.502 665.063C471.457 659.052 471.487 653.961 471.569 653.748C471.76 653.252 488.02 653.201 490.661 653.689Z" fill="black"/>
</svg>
