<svg width="404" height="388" viewBox="0 0 404 388" fill="none" xmlns="http://www.w3.org/2000/svg">
<path d="M19.1 321.3C19.1 307.1 27.2 297.5 38.9 297.5C48.3 297.5 54.9 303.2 56.4 311.3H71.3C69.5 294.6 55.8 285.4 38.9 285.4C17.5 285.4 4.1 299.7 4.1 321.3C4.1 342.9 17.5 357.2 38.9 357.2C55.8 357.2 69.6 348 71.4 331.3H56.4C54.9 339.4 48.3 345.1 38.9 345.1C27.2 345.1 19.1 335.5 19.1 321.3ZM130.64 356H145.44L119.54 286.6H101.24L75.3398 356H90.1398L95.6398 341.2H125.14L130.64 356ZM110.44 298.6L121.34 329.4H99.5398L110.44 298.6ZM180.591 357.2C198.391 357.2 209.491 348.7 209.491 335.8C209.491 325.1 202.691 318.9 191.891 316.6L175.091 312.9C168.691 311.5 166.391 308.9 166.391 305.1C166.391 300.3 171.491 296.7 179.291 296.7C187.291 296.7 192.791 300.1 193.391 307.5H208.091C208.091 292.5 195.291 285.4 179.191 285.4C163.591 285.4 152.191 293.5 152.191 306.1C152.191 316.8 158.991 322.9 169.691 325.3L186.491 329C192.991 330.4 195.291 332.9 195.291 336.8C195.291 342.2 189.591 345.7 180.991 345.7C171.891 345.7 165.691 341.2 165.191 333.5H150.491C150.891 348.4 161.791 357.2 180.591 357.2ZM215.093 299.4H238.093V356H252.393V299.4H275.393V286.6H215.093V299.4ZM285.534 356H334.834V343.2H299.834V286.6H285.534V356ZM345.886 356H398.386V343.5H360.186V326.7H394.186V314.6H360.186V299.1H397.686V286.6H345.886V356Z" fill="black"/>
<path d="M229.778 72.2224L302 100H202L229.778 72.2224Z" fill="black"/>
<path d="M174.222 72.2222L202 -4.76837e-06V100L174.222 72.2222Z" fill="black"/>
<path d="M229.778 127.778L202 200V100L229.778 127.778Z" fill="black"/>
<path d="M174.222 127.778L102 100L202 100L174.222 127.778Z" fill="black"/>
<path d="M203.811 100.75L229.963 126.903L297.961 100.75H203.811Z" stroke="black" stroke-width="1.5"/>
<path d="M202.75 98.1893L228.903 72.0365L202.75 4.03925V98.1893Z" stroke="black" stroke-width="1.5"/>
<path d="M201.25 101.811L175.097 127.963L201.25 195.961V101.811Z" stroke="black" stroke-width="1.5"/>
<path d="M200.189 99.2502L174.037 73.0974L106.039 99.2502L200.189 99.2502Z" stroke="black" stroke-width="1.5"/>
</svg>
