<svg fill="none" height="230" viewBox="0 0 718 230" width="718" xmlns="http://www.w3.org/2000/svg"><g fill="#000"><path clip-rule="evenodd" d="m179.768 17.1641c13.63-2.5045 64.613-11.86634 66.887 4.0889 2.326 16.3385-18.685 38.87-40.667 48.9986-1.159.5324-2.185 1.265-3.216 2.0018-.856.6133-1.712 1.2267-2.649 1.725-3.459 1.8528-5.52 6.4741-5.013 10.6439v58.3777c-17.335-11.994-42.814-19.457-71.692-19.457-28.8779 0-54.3568 7.463-71.692 19.457v-58.3777c.5068-4.1698-1.5589-8.7911-5.0175-10.6439-.9164-.516-1.7985-1.0908-2.6407-1.7207-1.0307-.7369-2.0615-1.4737-3.2243-2.0061-21.982-10.1286-42.9887-32.6601-40.667405-48.9986 2.274445-15.95524 53.270605-6.5934 66.891705-4.0889 1.0819.1959 1.9295.3535 2.5002.4472.3919.0681.7624-.2641.6815-.6517-.7837-3.8589-1.3502-14.29406 6.1674-16.551469 4.8044-1.448151 7.9733 1.218149 9.8517 3.910009.8433 1.20963 3.3648 6.42726 4.9279 10.05186.8434 1.955 2.8111 4.813 4.9663 4.7619 8.8272-2.7376 18.0132-4.1402 27.2552-4.1613 9.098 0 18.195 1.3885 27.251 4.1613 2.159.0511 4.123-2.8112 4.97-4.7662 1.563-3.6203 4.085-8.83793 4.924-10.04756 1.882-2.69186 5.051-5.35816 9.856-3.910009 7.513 2.257409 6.947 12.692569 6.163 16.551469-.077.3834.29.7198.681.6517.571-.0937 1.423-.2513 2.505-.4515zm-67.177 64.6215c.255-1.4779-2.164-5.2218-9.703-10.3074-5.3228-3.5368-11.154-6.2413-17.2924-8.0202-1.4361-.447-2.9342-.6627-4.4381-.6389-2.7388.1023-5.3667 1.0223-7.6667 2.6493-3.071 2.0956-5.1963 4.8982-5.8395 8.5185-.6602 3.6204.3663 6.9724 2.5258 9.9795 1.5929 2.3 3.7396 4.0505 6.2781 5.0685 1.3928.5537 2.8963.8008 4.3956.8945 6.3846.3875 12.8331-.1832 19.0389-1.7165 8.8503-2.2447 12.4243-4.9536 12.7013-6.4273zm57.785 7.2493c2.549-1.0316 4.735-2.7954 6.283-5.0685 2.155-3.0071 3.181-6.3548 2.525-9.9752-.639-3.6204-2.768-6.4272-5.843-8.5228-2.241-1.6146-4.907-2.5358-7.667-2.6493-1.504-.0238-3.002.1919-4.438.6389-6.138 1.7773-11.97 4.4803-17.293 8.016-7.539 5.0898-9.949 8.8337-9.702 10.3116.281 1.4737 3.85 4.1826 12.705 6.4273 6.202 1.5333 12.65 2.104 19.039 1.7165 1.495-.0937 3.003-.3408 4.391-.8945z" fill-rule="evenodd"/><path clip-rule="evenodd" d="m38.0049 181.628c0-26.715 38.2354-48.373 85.4071-48.373 47.167 0 85.406 21.658 85.406 48.373 0 26.714-38.235 48.372-85.406 48.372-47.1717 0-85.4071-21.654-85.4071-48.372zm29.5593-3.012c1.3076 7.957 8.1139 11.462 15.4185 7.957 3.479-1.591 6.4572-4.103 8.6131-7.263 2.1558-3.16 3.4074-6.849 3.6195-10.669-.0341-4.102-2.2404-2.526-4.9663-.583-3.6417 2.598-8.2118 5.86-9.7537-2.901-2.6833-15.316-14.3622 4.941-12.9311 13.459zm96.2678 7.957c7.309 3.505 14.115 0 15.419-7.957 1.431-8.518-10.244-28.775-12.932-13.459-1.533 8.761-6.107 5.499-9.753 2.896-2.722-1.942-4.928-3.514-4.958.588.21 3.819 1.46 7.508 3.614 10.669 2.155 3.16 5.132 5.671 8.61 7.263z" fill-rule="evenodd"/><path d="m301.1 50.749c2.76-2.3511 7.488-3.5267 14.187-3.5267h58.182c1.593.0028 3.171-.3082 4.643-.9153 1.473-.6071 2.811-1.4983 3.939-2.6228s2.024-2.4602 2.635-3.9308c.612-1.4706.928-3.0474.93-4.6402-.002-1.5929-.318-3.1699-.929-4.6408-.612-1.4708-1.508-2.8068-2.636-3.9317-1.128-1.1248-2.466-2.0164-3.939-2.624-1.472-.6075-3.05-.919-4.643-.9168h-57.185c-31.795 0-47.691 12.8843-47.691 38.6485v.8817c0 12.6245 3.876 22.1482 11.645 28.5711 7.765 6.423 19.78 9.6348 36.046 9.6348h57.189c1.593.002 3.171-.309 4.643-.9156 1.473-.6071 2.811-1.4983 3.939-2.6228s2.024-2.4602 2.636-3.9308c.611-1.4707.927-3.0474.93-4.6402-.003-1.593-.319-3.1699-.93-4.6408-.612-1.4709-1.507-2.8068-2.635-3.9317-1.128-1.1248-2.467-2.0164-3.939-2.624-1.473-.6075-3.051-.9191-4.644-.9168h-58.181c-6.623 0-11.334-1.1756-14.133-3.5224-2.798-2.3512-4.195-5.8736-4.195-10.5715v-.8817c0-4.847 1.376-8.4419 4.136-10.7887zm191.645-27.4211-13.834 23.8944h6.947c6.696 0 11.428 1.1798 14.188 3.5267 2.76 2.3511 4.14 5.9459 4.14 10.7887v.8817c0 4.6979-1.402 8.2203-4.196 10.5715-2.798 2.3511-7.509 3.5224-14.132 3.5224h-23.903l-14.021 24.2267h36.932c16.262 0 28.277-3.2115 36.046-9.6388 7.765-6.4229 11.649-15.9466 11.649-28.5711v-.8817c0-23.5281-13.302-36.2761-39.816-38.3205zm-24.725 23.8944 14.026-24.2224h-35.705c-31.796 0-47.696 12.8843-47.696 38.6485v.8817c0 12.6245 3.881 22.1482 11.65 28.5711 6.235 5.1623 15.265 8.2119 26.986 9.2258l13.788-23.8137h-5.721c-6.623 0-11.338-1.1756-14.132-3.5224-2.798-2.3512-4.195-5.8736-4.195-10.5715v-.8817c0-4.847 1.38-8.4419 4.14-10.7887 2.76-2.3511 7.487-3.5267 14.187-3.5267m257.784-24.2224c-4.639 0-8.97 2.3-11.56 6.1333l-13.727 20.3338c-5.235 7.7518-16.497 8.2459-22.391.9796l-14.652-18.0678c-1.309-1.611-2.961-2.9099-4.835-3.802s-3.923-1.355-5.999-1.355c-2.075 0-4.125.4629-5.999 1.355s-3.525 2.191-4.834 3.802l-14.652 18.0678c-5.895 7.2663-17.156 6.7722-22.391-.9796l-13.728-20.3338c-1.278-1.8899-3-3.4374-5.015-4.5068-2.016-1.0693-4.263-1.6278-6.544-1.6265-11.206 0-17.825 12.5222-11.496 21.7435l34.287 49.9484c5.282 7.6922 16.513 8.1182 22.365.8433l17.14-21.3005c1.308-1.6232 2.963-2.9327 4.844-3.8324 1.88-.8997 3.939-1.3667 6.023-1.3667 2.085 0 4.143.467 6.024 1.3667 1.88.8997 3.536 2.2092 4.844 3.8324l17.139 21.3048c5.852 7.2706 17.084 6.8446 22.365-.8519l34.288-49.9441c6.329-9.2213-.29-21.7435-11.496-21.7435zm-407.556 184.6821c13.156 0 25.47-7.441 25.47-21.488 0-14.256-10.793-17.817-23.584-22.796-9.536-3.672-16.351-6.24-16.296-13.574.052-7.13 6.445-11.062 13.519-11.062 5.767 0 12.476 2.467 18.554 7.446l5.609-7.233c-7.232-5.767-15.674-8.961-24.107-8.91-13.051.051-23.273 8.753-23.273 20.176 0 13.157 11.479 18.03 22.745 22.221 10.171 3.829 17.088 6.133 17.088 14.728 0 7.284-6.291 11.637-15.619 11.637-4.055-.03-8.054-.951-11.713-2.699-3.66-1.749-6.889-4.281-9.46-7.417l-5.92 7.181c3.439 3.723 7.613 6.693 12.258 8.723 4.645 2.029 9.66 3.073 14.729 3.067zm99.317-52.879-13.314 39.044h-.209l-12.054-39.044h-7.543l-11.896 38.989h-.213l-13.306-38.989h-8.859l18.127 52.197h8.02l11.794-38.048h.209l11.739 38.048h8.228l18.132-52.197h-8.859zm57.385 0v7.705h-.209c-4.348-5.452-10.797-8.336-17.923-8.336-14.779 0-25.576 11.637-25.576 27.047 0 16.036 11.218 26.463 25.628 26.463 7.705 0 14.098-3.353 18.344-8.962h.107v8.28h8.331v-52.253zm-17.241 44.914c-10.64 0-17.608-7.914-17.608-18.447 0-11.636 7.752-19.184 17.714-19.184 10.009 0 17.45 8.438 17.45 19.184 0 11.057-8.173 18.447-17.556 18.447zm68.761-45.545c-7.074 0-13.416 2.884-17.765 8.332h-.213v-7.701h-8.698v73.425h8.647v-28.937h.208c4.196 5.294 10.38 8.437 17.77 8.437 14.409 0 25.628-10.477 25.628-26.462 0-15.462-10.797-27.094-25.577-27.094zm-.89 45.596c-9.226 0-17.399-7.39-17.399-18.447 0-10.746 7.441-19.184 17.293-19.184 9.907 0 17.663 7.548 17.663 19.184 0 10.533-6.973 18.447-17.612 18.447z"/></g></svg>