<?xml version="1.0" standalone="no"?>
<!DOCTYPE svg PUBLIC "-//W3C//DTD SVG 20010904//EN"
 "http://www.w3.org/TR/2001/REC-SVG-20010904/DTD/svg10.dtd">
<svg version="1.0" xmlns="http://www.w3.org/2000/svg"
 width="300.000000pt" height="605.000000pt" viewBox="0 0 300.000000 605.000000"
 preserveAspectRatio="xMidYMid meet">
<metadata>
Created by potrace 1.10, written by Peter Selinger 2001-2011
</metadata>
<g transform="translate(0.000000,605.000000) scale(0.100000,-0.100000)"
fill="#000000" stroke="none">
<path d="M0 4580 c0 -20 7 -20 1500 -20 1493 0 1500 0 1500 20 0 20 -7 20
-1500 20 -1493 0 -1500 0 -1500 -20z"/>
<path d="M1492 4317 c-28 -29 -53 -103 -52 -147 3 -55 2 -56 -27 -22 -59 68
-133 45 -133 -40 0 -25 11 -66 25 -97 14 -30 24 -55 23 -56 -2 -1 -32 -8 -67
-14 -194 -37 -387 -171 -508 -351 -99 -147 -180 -392 -198 -600 -3 -41 -8 -87
-11 -102 l-6 -28 135 0 136 0 5 58 c34 348 161 576 380 682 113 55 215 73 361
66 263 -12 463 -131 582 -343 58 -103 103 -283 103 -409 l0 -54 133 0 132 0
-3 102 c-5 176 -52 368 -125 513 -119 239 -350 421 -593 470 l-31 6 20 41 c25
51 33 134 15 168 -19 35 -58 37 -96 6 -16 -15 -31 -26 -33 -26 -2 0 -4 21 -5
48 -1 46 -21 100 -52 135 -23 25 -83 23 -110 -6z m84 -25 c7 -4 20 -32 29 -62
29 -96 53 -126 79 -100 5 5 23 10 38 10 35 0 45 -32 29 -95 -6 -24 -11 -59
-11 -78 0 -39 2 -41 140 -92 141 -53 286 -157 365 -261 40 -53 75 -104 75
-110 0 -3 8 -18 18 -32 10 -15 29 -56 42 -92 13 -36 28 -71 33 -77 5 -7 7 -13
4 -13 -3 0 0 -21 7 -47 27 -97 37 -170 34 -253 l-3 -85 -78 -3 c-44 -2 -84 2
-91 7 -7 6 -14 34 -15 63 -2 59 -33 218 -52 263 -7 17 -13 32 -14 35 -41 122
-184 281 -308 343 -104 52 -136 64 -190 71 -26 4 -59 11 -73 16 -60 23 -248 8
-371 -30 -54 -16 -143 -61 -143 -71 0 -5 -7 -9 -17 -9 -23 0 -173 -156 -173
-180 0 -11 -4 -20 -9 -20 -11 0 -41 -56 -41 -77 0 -7 -5 -13 -11 -13 -5 0 -8
-4 -4 -9 3 -5 1 -12 -4 -15 -20 -12 -81 -259 -81 -328 0 -38 -28 -49 -113 -46
l-72 3 -3 34 c-6 64 43 316 77 396 5 11 19 46 31 78 12 31 26 60 31 63 5 3 9
14 9 25 0 10 5 19 10 19 6 0 10 7 10 15 0 8 4 15 9 15 5 0 14 13 20 28 18 44
189 204 256 241 57 31 221 91 248 91 7 0 26 13 42 30 28 30 29 30 12 64 -9 19
-19 57 -23 84 -7 59 7 71 52 41 45 -29 73 -25 89 14 8 19 16 45 18 58 12 75
55 116 93 91z"/>
<path d="M1296 3294 c-12 -12 -16 -37 -16 -104 0 -93 11 -120 49 -120 38 0 51
32 51 122 0 70 -3 88 -18 101 -23 21 -46 22 -66 1z m38 -104 c-1 -67 -13 -95
-15 -37 -2 91 -2 97 9 97 5 0 7 -27 6 -60z"/>
<path d="M1706 3294 c-12 -12 -16 -37 -16 -104 0 -94 11 -120 50 -120 39 0 50
26 50 119 0 72 -3 91 -18 104 -23 21 -46 22 -66 1z"/>
<path d="M410 2458 l0 -273 147 5 c162 6 187 13 251 74 57 53 76 100 76 191 1
95 -25 157 -88 212 -58 48 -118 63 -263 63 l-123 0 0 -272z m271 221 c125 -25
197 -158 159 -296 -18 -64 -96 -139 -154 -149 -76 -13 -216 -11 -227 2 -11 14
-15 427 -4 445 8 12 159 11 226 -2z"/>
<path d="M555 2649 c-51 -15 -55 -29 -55 -191 0 -143 1 -150 24 -172 20 -21
31 -24 85 -20 71 4 114 23 138 62 10 15 22 30 28 34 5 4 10 47 10 96 0 72 -3
92 -18 107 -10 10 -25 28 -34 41 -8 13 -19 21 -24 18 -5 -3 -9 -1 -9 4 0 23
-93 36 -145 21z m144 -64 c44 -40 67 -104 56 -156 -20 -91 -67 -129 -160 -129
l-60 0 0 160 0 160 62 0 c58 0 66 -3 102 -35z"/>
<path d="M1140 2721 c-200 -65 -258 -323 -103 -462 58 -53 118 -73 201 -67 73
5 113 22 167 70 100 87 112 265 25 371 -51 61 -110 90 -194 93 -39 2 -82 0
-96 -5z m216 -73 c87 -64 118 -185 74 -285 -12 -26 -21 -50 -20 -52 1 -2 -14
-12 -32 -23 -18 -11 -35 -24 -38 -28 -10 -15 -81 -31 -133 -31 -73 0 -131 33
-180 102 -37 53 -38 55 -34 135 3 65 8 87 27 115 61 87 112 111 223 104 59 -3
75 -9 113 -37z"/>
<path d="M1186 2652 c-36 -7 -97 -52 -109 -80 -6 -15 -16 -30 -22 -34 -15 -11
-12 -131 5 -164 36 -71 112 -119 174 -109 69 11 116 50 146 119 18 42 20 112
4 138 -5 7 -9 18 -9 25 0 17 -55 83 -69 83 -7 0 -17 5 -24 12 -11 11 -62 17
-96 10z m112 -61 c34 -24 62 -86 62 -134 -1 -49 -35 -114 -72 -137 -62 -37
-143 -17 -185 47 -27 40 -25 152 3 190 46 63 130 78 192 34z"/>
<path d="M1570 2461 l0 -271 138 0 c123 0 142 3 187 24 167 79 209 301 82 434
-63 66 -96 76 -259 80 l-148 4 0 -271z m291 217 c84 -26 147 -115 150 -213 4
-97 -69 -202 -156 -226 -42 -12 -218 -14 -235 -4 -6 4 -10 96 -10 231 l0 224
105 0 c58 0 124 -6 146 -12z"/>
<path d="M1687 2638 l-28 -20 2 -159 2 -158 26 -18 c36 -24 126 -24 172 1 102
55 124 222 41 313 -58 63 -160 83 -215 41z m161 -38 c47 -29 76 -98 69 -163
-12 -93 -63 -137 -162 -137 l-60 0 0 160 0 160 60 0 c43 0 70 -6 93 -20z"/>
<path d="M2280 2715 c-178 -57 -237 -302 -107 -443 45 -49 105 -75 183 -80 68
-4 79 -2 139 27 75 37 107 74 136 157 44 124 -15 265 -135 326 -52 27 -155 33
-216 13z m172 -38 c43 -14 118 -72 118 -92 0 -8 8 -21 17 -31 14 -13 17 -34
16 -94 -1 -66 -5 -83 -28 -118 -33 -49 -77 -85 -127 -101 -40 -13 -146 -13
-154 1 -3 4 -13 8 -23 8 -22 0 -84 62 -109 110 -57 109 8 274 124 315 47 17
116 18 166 2z"/>
<path d="M2370 2652 c-74 -6 -133 -46 -146 -97 -3 -14 -10 -25 -14 -25 -14 0
-19 -75 -7 -116 46 -154 189 -197 293 -89 35 36 42 51 48 98 9 84 -9 141 -62
187 -46 41 -60 47 -112 42z m68 -52 c48 -30 72 -75 72 -140 0 -165 -189 -221
-259 -76 -24 49 -27 93 -7 140 35 85 123 119 194 76z"/>
<path d="M0 1540 c0 -20 7 -20 1500 -20 1493 0 1500 0 1500 20 0 20 -7 20
-1500 20 -1493 0 -1500 0 -1500 -20z"/>
</g>
</svg>
