<svg width="485" height="115" viewBox="0 0 485 115" fill="none" xmlns="http://www.w3.org/2000/svg">
<path fill-rule="evenodd" clip-rule="evenodd" d="M78.5 0.599609C83.3 0.599609 87.2 7.3996 87.2 15.8996C87.2 16.0996 87.2 16.2996 87.2 16.4996C89.8 13.4996 92.8 11.8996 95.1 12.8996C97.4 13.8996 98.4 17.1996 98 21.1996C97.8 23.2996 97.4 25.3996 96.5 27.2996C96 28.4996 95.4 29.5996 94.7 30.6996C128.9 38.2996 153.2 66.1996 152.8 114.8H132C132.3 73.5996 108.3 53.1996 76.8 52.5996C42.5 51.8996 23.6 74.5996 21.4 114.8H0.5C3.2 65.9996 24.4 36.1996 61.6 30.3996C60.8 29.1996 60.1 27.9996 59.4 26.7996C56.5 20.7996 56.9 14.5996 60.3 12.8996C63 11.5996 66.9 13.5996 69.8 17.5996C69.8 16.9996 69.7 16.3996 69.7 15.7996C69.8 7.49961 73.7 0.599609 78.5 0.599609ZM286.1 38.6996C291.2 38.6996 296.3 39.6996 301.1 41.6996C305.6 43.5996 309.7 46.2996 313.2 49.7996C316.6 53.2996 319.4 57.3996 321.3 61.8996C323.3 66.5996 324.3 71.6996 324.2 76.7996C324.2 82.0996 323.2 87.0996 321.3 91.6996C319.4 96.1996 316.7 100.4 313.2 103.8C309.7 107.3 305.6 110 301.1 111.9C296.4 113.9 291.3 114.9 286.1 114.9C275.9 115 266.2 111 259 103.9C255.5 100.4 252.8 96.2996 250.9 91.7996C248.9 87.0996 247.9 81.9996 248 76.8996C248 71.5996 249 66.5996 250.9 61.9996C252.8 57.4996 255.5 53.2996 259 49.8996C266.2 42.5996 275.9 38.5996 286.1 38.6996ZM202.5 38.6996C207.7 38.6996 212.7 39.6996 217.3 41.6996C221.8 43.5996 225.9 46.2996 229.3 49.7996C232.8 53.2996 235.5 57.3996 237.4 61.8996C239.4 66.6996 240.4 71.7996 240.4 76.9996C240.4 82.0996 239.4 87.0996 237.4 91.7996C235.5 96.2996 232.8 100.4 229.3 103.9C225.8 107.3 221.7 110.1 217.3 112C212.6 114 207.6 115 202.5 114.9H171.8V38.6996H202.5ZM446 38.6996C451.3 38.6996 456.3 39.6996 461 41.6996C465.5 43.5996 469.6 46.2996 473 49.7996C476.5 53.2996 479.2 57.3996 481.1 61.8996C483.1 66.5996 484.1 71.6996 484.1 76.7996C484.1 82.0996 483.1 87.0996 481.1 91.6996C479.2 96.1996 476.5 100.4 473 103.8C469.5 107.3 465.4 110 461 111.9C456.3 113.9 451.2 114.9 446 114.9C435.9 115 426.1 111 418.9 103.9C415.4 100.4 412.7 96.2996 410.8 91.7996C408.8 87.0996 407.8 81.9996 407.8 76.8996C407.8 71.5996 408.8 66.5996 410.8 61.9996C412.7 57.4996 415.4 53.2996 418.9 49.8996C426.1 42.5996 435.8 38.5996 446 38.6996ZM362.4 38.6996C367.6 38.6996 372.6 39.6996 377.2 41.6996C381.7 43.5996 385.8 46.2996 389.3 49.7996C392.8 53.2996 395.5 57.3996 397.4 61.8996C399.4 66.6996 400.4 71.7996 400.4 76.9996C400.4 82.0996 399.4 87.0996 397.4 91.7996C395.5 96.2996 392.8 100.4 389.3 103.9C385.8 107.3 381.7 110.1 377.2 112C372.5 114 367.5 115 362.4 114.9H331.7V38.6996H362.4ZM59.5 72.9996C62.6 72.9996 65.2 75.6996 65.2 78.9996V93.6996C65.2 96.9996 62.6 99.6996 59.5 99.6996C56.3 99.6996 53.8 96.9996 53.8 93.6996V78.9996C53.8 75.6996 56.4 72.9996 59.5 72.9996ZM93.8 72.9996C97 72.9996 99.5 75.6996 99.5 78.9996V93.6996C99.5 96.9996 96.9 99.6996 93.8 99.6996C90.7 99.6996 88.1 96.9996 88.1 93.6996V78.9996C88.1 75.6996 90.6 72.9996 93.8 72.9996ZM362.2 55.1996H350.2V99.4996H362.2C364.7 99.4996 367.2 98.8996 369.4 97.7996C371.7 96.6996 373.7 95.0996 375.3 93.1996C376.9 91.1996 378.3 88.8996 379.2 86.1996C380.2 83.3996 380.7 80.4996 380.6 77.5996C380.6 74.4996 380.1 71.5996 379.2 68.7996C378.3 66.1996 377 63.7996 375.3 61.6996C373.7 59.6996 371.7 58.0996 369.4 56.9996C367.2 55.7996 364.7 55.1996 362.2 55.1996ZM285.5 55.1996C282.8 55.1996 280.2 55.7996 277.8 56.8996C275.5 57.9996 273.4 59.5996 271.6 61.4996C269.8 63.4996 268.5 65.8996 267.6 68.3996C266.6 71.1996 266.1 74.0996 266.1 77.0996C266.1 80.1996 266.6 83.0996 267.6 85.7996C268.6 88.4996 269.9 90.7996 271.6 92.6996C273.3 94.5996 275.4 96.1996 277.8 97.2996C280.2 98.3996 282.8 98.9996 285.5 98.9996C288.2 98.9996 290.8 98.3996 293.1 97.2996C295.5 96.1996 297.5 94.5996 299.3 92.6996C301 90.7996 302.3 88.4996 303.3 85.7996C304.3 82.9996 304.8 80.0996 304.8 77.0996C304.8 73.9996 304.3 71.0996 303.3 68.3996C302.4 65.8996 301 63.4996 299.3 61.4996C297.6 59.5996 295.5 57.9996 293.1 56.8996C290.7 55.7996 288.1 55.1996 285.5 55.1996ZM445.4 55.1996C442.7 55.1996 440.1 55.7996 437.7 56.8996C435.4 57.9996 433.3 59.5996 431.6 61.4996C429.8 63.4996 428.4 65.8996 427.5 68.3996C426.5 71.1996 426 74.0996 426 77.0996C426 80.1996 426.5 83.0996 427.5 85.7996C428.5 88.4996 429.8 90.7996 431.6 92.6996C433.3 94.5996 435.4 96.1996 437.7 97.2996C440.1 98.3996 442.7 98.9996 445.4 98.9996C448.1 98.9996 450.7 98.3996 453.1 97.2996C455.4 96.1996 457.5 94.5996 459.2 92.6996C460.9 90.7996 462.3 88.4996 463.2 85.7996C464.2 82.9996 464.7 80.0996 464.7 77.0996C464.7 74.0996 464.2 71.1996 463.2 68.3996C462.3 65.8996 460.9 63.4996 459.2 61.4996C457.5 59.5996 455.4 57.9996 453.1 56.8996C450.6 55.7996 448 55.1996 445.4 55.1996ZM202.5 54.6996H190.3V98.8996H202.5C205.1 98.8996 207.5 98.2996 209.8 97.1996C212.1 96.0996 214.1 94.4996 215.8 92.5996C217.5 90.6996 218.8 88.2996 219.8 85.5996C220.8 82.8996 221.2 80.0996 221.2 76.9996C221.2 73.8996 220.7 70.9996 219.8 68.1996C218.9 65.5996 217.6 63.1996 215.8 61.0996C214.2 59.0996 212.1 57.4996 209.8 56.3996C207.5 55.2996 205 54.6996 202.5 54.6996Z" fill="black"/>
</svg>
