<svg fill="none" height="170" viewBox="0 0 842 170" width="842" xmlns="http://www.w3.org/2000/svg"><g fill="#040404"><path d="m58.1802 164.108c-4.7657-.726-9.4171-2.068-13.8372-3.992-16.6144-9.093-29.7295-23.458-37.27741-40.83-7.547903-17.371-9.09923-36.7605-4.40937-55.111 4.68986-18.3504 15.35408-34.618 30.31128-46.2376 14.9572-11.6197 33.3564-17.93050267 52.2967-17.9374h1.4248c-6.6608 4.25709-12.2432 10.0015-16.308 16.7814-2.9877 4.9833-5.0957 10.4261-6.2478 16.0902-12.2436 4.9156-22.3967 13.9367-28.7186 25.5176-6.3268 11.5898-8.422 25.0205-5.9259 37.9867 2.496 12.9661 9.4277 24.6591 19.6051 33.0721 10.1773 8.412 22.9657 13.02 36.17 13.032 2.3604 0 4.7184-.15 7.0598-.45.3997-1.508.7125-3.038.937-4.582-.8433 7.02-3.9314 13.58-8.8051 18.702-7.2651 7.496-16.3274 9.486-26.2753 7.958z"/><path d="m85.2646 121.172c2.3625.001 4.719-.236 7.0342-.706-.8373-3.343-1.9634-6.607-3.3639-9.755-2.9523-6.868-6.4951-13.5424-9.9865-20.1914-4.5182-8.6258-9.2162-17.1617-12.2198-26.4807-.7959-2.4302-1.4753-4.8779-2.0401-7.3424-6.1345 4.3669-10.723 10.57-13.1034 17.714-2.3803 7.144-2.4293 14.8596-.1399 22.0333 2.2893 7.1732 6.7986 13.4342 12.8772 17.8792 6.0786 4.444 13.4121 6.843 20.9422 6.849z"/><path d="m115.108 9.65273c8.127.62967 15.919 3.50977 22.502 8.31777 13.385 10.4416 23.35 24.6405 28.618 40.7789s5.599 33.4819.952 49.8096c-4.647 16.328-14.062 30.898-27.038 41.843-12.977 10.946-28.925 17.77-45.8025 19.598 11.7575-10.461 16.5585-24.324 16.2245-40.459-.285-9.221-2.47-18.284-6.418-26.622 5.061 10.488 7.211 22.143 6.226 33.746 11.484-5.686 20.711-15.085 26.184-26.672 5.473-11.5868 6.873-24.6829 3.97-37.1646-2.902-12.4818-9.935-23.6174-19.958-31.6014-10.024-7.9839-22.4504-12.348-35.2651-12.3846l-.0385-.0642h-2.1243c2.6418-5.9339 7.0109-10.9438 12.5473-14.3689 5.8096-3.5943 12.6076-5.25916 19.4206-4.75657z"/><path d="m80.0345 43.2643c-.0011 4.3936.7685 8.8039 2.0979 13.2142-1.3287-4.4082-2.0983-8.8166-2.0979-13.2142z"/><path d="m85.2643 50.0605c-1.541.005-3.0801.1079-4.6081.308.3711 2.064.864 4.1042 1.4762 6.11 2.4132 8.1637 6.418 15.6342 10.2688 23.1048 4.0177 7.7016 8.1248 15.4032 11.7448 23.3357 1.514 3.253 2.801 6.607 3.851 10.038 5.636-4.667 9.694-10.96 11.619-18.02 1.925-7.0598 1.623-14.5417-.864-21.4235-2.488-6.8818-7.039-12.8278-13.033-17.0256-5.9935-4.1977-13.1372-6.4424-20.4547-6.4274z"/><path d="m277.779 42.1278h-43.643v30.0747h25.236c1.63.0232 3.187.6812 4.34 1.834 1.153 1.1529 1.811 2.7099 1.834 4.3401.017.8291-.134 1.6531-.443 2.4228s-.769 1.4692-1.354 2.057c-.564.5965-1.245 1.0698-2 1.3901-.756.3204-1.57.4808-2.39.4711h-25.236v30.2544h43.81c.809-.004 1.611.157 2.357.473.746.315 1.42.779 1.981 1.363.588.566 1.055 1.245 1.374 1.996s.483 1.558.483 2.374-.164 1.624-.483 2.375-.786 1.43-1.374 1.996c-.585.581-1.281 1.039-2.046 1.347-.765.309-1.583.462-2.408.45h-56.042v-97.7077h56.004c1.666.0231 3.259.6937 4.44 1.87s1.858 2.7659 1.888 4.4325c.005.8135-.16 1.6191-.482 2.3659-.323.7468-.797 1.4185-1.392 1.9727-.579.5935-1.272 1.0634-2.038 1.3811-.765.3178-1.588.4767-2.416.4673z"/><path d="m348.595 127.179h-37.635c-1.22.003-2.412-.356-3.428-1.031-1.015-.675-1.807-1.636-2.275-2.762-.469-1.125-.593-2.365-.357-3.561s.821-2.295 1.683-3.159c.562-.592 1.242-1.061 1.996-1.377.753-.315 1.564-.472 2.381-.458h12.643v-46.0942h-12.502c-.811.0097-1.615-.1483-2.361-.4642-.747-.3159-1.42-.7828-1.978-1.3714-.575-.5654-1.031-1.241-1.34-1.9864s-.464-1.5453-.457-2.3521c-.009-.8224.145-1.6385.453-2.4009.309-.7623.766-1.4559 1.344-2.0404.558-.601 1.236-1.0783 1.99-1.4011s1.567-.4839 2.387-.4729h18.728c.82-.011 1.633.1501 2.387.4729s1.432.8001 1.99 1.4011c.579.5845 1.035 1.2781 1.344 2.0404.308.7624.463 1.5785.453 2.4009v52.2683h12.348c.825-.009 1.642.145 2.407.454.764.308 1.46.764 2.047 1.343.59.566 1.059 1.246 1.379 1.998s.485 1.561.485 2.379c0 .817-.165 1.627-.485 2.379s-.789 1.432-1.379 1.998c-.554.565-1.215 1.015-1.944 1.324-.729.308-1.512.469-2.304.473zm-25.146-102.9831h6.418c.812-.0052 1.617.1511 2.369.4595.751.3085 1.434.7631 2.008 1.3374.575.5744 1.029 1.257 1.338 2.0084.308.7514.464 1.5566.459 2.3688v5.3012c.01.8224-.145 1.6385-.453 2.4009-.309.7624-.765 1.4559-1.344 2.0404-.558.601-1.236 1.0783-1.99 1.4011s-1.567.4839-2.387.473h-6.61c-.836.0153-1.665-.1473-2.433-.477-.768-.3298-1.457-.8191-2.022-1.4356-.561-.5558-1.004-1.2204-1.3-1.9532-.295-.7328-.438-1.5183-.42-2.3084l.142-5.4424c-.006-.8166.152-1.626.464-2.3808s.771-1.4398 1.351-2.0149c.579-.575 1.268-1.0285 2.025-1.3339.758-.3054 1.569-.4565 2.385-.4445z"/><path d="m413.301 153.788h-26.802c-.809.016-1.613-.133-2.363-.438-.751-.304-1.431-.758-2.001-1.333-.592-.567-1.059-1.252-1.37-2.01-.312-.758-.462-1.573-.44-2.393-.016-.809.137-1.613.448-2.36.312-.747.776-1.421 1.362-1.979.571-.573 1.252-1.025 2.002-1.327s1.554-.449 2.362-.431h26.802c1.695-.031 3.319-.69 4.557-1.848l4.184-3.595c.673-.485 1.219-1.126 1.59-1.868s.557-1.563.541-2.393v-18.856c-5.776 5.827-11.411 8.741-16.905 8.741h-9.486c-4.891-.015-9.602-1.844-13.221-5.134l-4.634-4.018c-1.71-1.544-3.052-3.452-3.927-5.584-1.06-2.254-1.624-4.71-1.656-7.2006v-20.4349c-.013-2.8266.551-5.6262 1.656-8.2279.84-2.217 2.184-4.2078 3.927-5.8147l5.071-4.3386c3.545-3.1075 8.122-4.7825 12.836-4.6979h8.895c4.895.0139 9.61 1.8434 13.234 5.1344l4.262 3.594-.142-2.426c.03-1.6282.69-3.1814 1.841-4.3329 1.152-1.1515 2.705-1.8115 4.333-1.8412.824-.0098 1.641.1453 2.404.4561s1.456.7711 2.038 1.3538c.603.5536 1.082 1.2288 1.405 1.9811s.483 1.5645.469 2.3831v69.3142c.008 2.57-.554 5.11-1.646 7.436s-2.687 4.381-4.67 6.016l-5.006 4.326c-1.595 1.314-3.424 2.315-5.391 2.952-2.103.767-4.321 1.171-6.559 1.194zm-7.06-85.1924h-8.343c-1.943.0496-3.801.8073-5.224 2.1308l-3.851 3.1576c-.728.6087-1.306 1.3769-1.689 2.2451s-.56 1.813-.519 2.761v20.5376c.046.9123.286 1.8053.704 2.6173.419.813 1.006 1.526 1.722 2.093l4.043 3.595c1.106 1.013 2.544 1.588 4.044 1.617h10.063c1.826-.147 3.542-.928 4.852-2.208l9.82-8.3048c.717-.5874 1.294-1.3282 1.687-2.1679s.593-1.7569.585-2.6841v-9.2676c.026-1.0537-.192-2.0992-.638-3.0546-.445-.9553-1.106-1.7946-1.93-2.452l-10.076-8.613c-1.431-1.3358-3.331-2.0551-5.288-2.0024z"/><path d="m520.032 79.5832v14.9539c-.023 1.6303-.681 3.1872-1.834 4.3401-1.153 1.1528-2.709 1.8108-4.34 1.8338h-43.642v3.607c.003 1.045.251 2.074.723 3.006.473.932 1.157 1.74 1.998 2.36l3.607 3.016c1.558 1.356 3.522 2.155 5.584 2.272h31.756c.805 0 1.603.162 2.344.478.741.315 1.411.777 1.969 1.358.843.868 1.414 1.965 1.643 3.153.228 1.189.104 2.419-.356 3.539-.461 1.119-1.239 2.08-2.239 2.763-.999.683-2.176 1.06-3.387 1.083h-32.526c-2.332-.033-4.638-.494-6.803-1.361-1.896-.639-3.671-1.594-5.25-2.824l-5.507-4.852c-1.859-1.553-3.331-3.517-4.3-5.737-1.068-2.095-1.66-4.401-1.733-6.752v-28.3291c.182-2.2852.819-4.511 1.874-6.5463 1.045-2.486 2.669-4.6864 4.737-6.418l5.134-4.0434c3.145-2.6572 7.128-4.1168 11.245-4.1203h17.29c4.355 0 8.471 1.8141 12.348 5.4424l4.634 4.4156c3.354 3.0122 5.031 7.4663 5.031 13.3623zm-49.688-.9499v9.55h37.481v-8.6001c.062-.9765-.096-1.9544-.46-2.8625s-.926-1.7237-1.645-2.3874l-3.594-3.1705c-1.364-1.3011-3.128-2.1019-5.006-2.272h-15.531c-1.921.001-3.774.704-5.212 1.9768l-3.607 3.0164c-.763.5406-1.383 1.2592-1.806 2.0935-.422.8343-.635 1.7592-.62 2.6944z"/><path d="m570.465 70.7264-16.866 10.9491v39.4705c0 1.638-.651 3.208-1.809 4.366s-2.728 1.808-4.366 1.808c-1.637 0-3.207-.65-4.365-1.808s-1.809-2.728-1.809-4.366v-58.5833c-.012-.8228.141-1.6397.449-2.4025.309-.7628.767-1.456 1.348-2.0388.56-.5912 1.235-1.062 1.983-1.3838s1.554-.4877 2.369-.4877c.814 0 1.62.1659 2.368.4877s1.423.7926 1.983 1.3838c.593.5767 1.062 1.2677 1.38 2.0311s.477 1.5833.469 2.4102v4.1845l11.27-6.8287c3.837-2.4237 8.297-3.6771 12.836-3.607h5.75c2.364-.0279 4.71.4203 6.898 1.3178 2.187.8975 4.172 2.226 5.835 3.9065 1.744 1.66 3.143 3.6489 4.114 5.852.972 2.2031 1.497 4.5767 1.547 6.984l.411 46.8132c.032.806-.108 1.611-.411 2.359s-.763 1.423-1.348 1.979c-.571.592-1.258 1.06-2.017 1.375-.76.316-1.576.473-2.398.461-1.578.014-3.102-.573-4.262-1.643-.62-.578-1.111-1.28-1.441-2.061s-.49-1.623-.471-2.47l-.552-46.0816c-.154-4.2786-2.414-6.418-6.778-6.418h-6.046c-2.18.0699-4.291.7797-6.071 2.041z"/><path d="m624.646 121.146v-91.5077h43.809c2.435-.0258 4.85.4498 7.093 1.3972 2.244.9473 4.269 2.3461 5.948 4.1095 1.763 1.7033 3.159 3.7492 4.101 6.0118.943 2.2626 1.412 4.6942 1.38 7.1451v23.1048c.004 4.9182-1.945 9.6367-5.418 13.1192s-8.186 5.4443-13.104 5.4545h-31.32v31.1656c.005.812-.151 1.618-.459 2.369-.309.751-.763 1.434-1.338 2.008-.574.575-1.257 1.029-2.008 1.338-.752.308-1.557.464-2.369.459-.829.02-1.654-.129-2.424-.438s-1.47-.771-2.056-1.359c-.592-.563-1.061-1.242-1.377-1.996-.316-.753-.472-1.564-.458-2.381zm12.489-43.5139h31.32c.807.0079 1.607-.1472 2.353-.456.745-.3087 1.421-.7649 1.986-1.341.592-.5629 1.061-1.2426 1.377-1.996s.472-1.5642.458-2.3811v-23.1048c.013-.8148-.144-1.6234-.46-2.3746s-.784-1.4287-1.375-1.9896c-.565-.5779-1.24-1.036-1.985-1.347-.746-.3109-1.546-.4684-2.354-.4629h-31.32z"/><path d="m707.9 121.146v-85.3336c-.015-.7964.137-1.5872.447-2.3212.309-.734.769-1.395 1.35-1.9403.572-.5762 1.255-1.0303 2.007-1.3348s1.559-.453 2.37-.4366c1.635 0 3.204.6487 4.361 1.8038 1.158 1.1551 1.81 2.7223 1.813 4.3575v31.1786l9.923-6.418c4.501-2.8495 8.518-4.2743 12.053-4.2743h7.701c2.423-.0288 4.826.4355 7.063 1.3645 2.238.929 4.263 2.3033 5.953 4.0394 3.551 3.4497 5.587 8.1682 5.661 13.1184l.256 46.2096c.04.813-.097 1.625-.4 2.381-.304.755-.767 1.436-1.358 1.996-.576.583-1.265 1.042-2.024 1.351s-1.573.461-2.392.446c-.815.016-1.624-.143-2.373-.466-.748-.323-1.418-.803-1.965-1.408-1.131-1.152-1.787-2.687-1.836-4.3l-.257-46.3765c-.043-1.6412-.73-3.1996-1.912-4.3385-.573-.5902-1.26-1.0573-2.019-1.3729s-1.575-.4731-2.397-.4627h-6.906c-1.852.1028-3.636.7404-5.134 1.8356l-17.637 11.4497v39.2523c0 1.638-.65 3.208-1.808 4.366s-2.728 1.808-4.366 1.808c-1.637 0-3.208-.65-4.366-1.808-1.157-1.158-1.808-2.728-1.808-4.366z"/><path d="m834.861 127.179h-37.635c-1.219.003-2.412-.356-3.427-1.031-1.016-.675-1.808-1.636-2.276-2.762-.469-1.125-.593-2.365-.357-3.561s.822-2.295 1.683-3.159c.563-.591 1.243-1.06 1.996-1.375.754-.316 1.564-.473 2.381-.46h12.707v-46.0942h-12.502c-.815.0148-1.624-.1407-2.376-.4568-.751-.3161-1.429-.7857-1.988-1.3788-.58-.563-1.039-1.2378-1.35-1.9836-.311-.7457-.468-1.5469-.46-2.3549-.01-.8236.145-1.6408.456-2.4036.311-.7627.771-1.4555 1.354-2.0377.556-.6006 1.231-1.0778 1.983-1.4007.752-.3228 1.563-.4841 2.381-.4733h18.818c.82-.011 1.633.1501 2.387.4729s1.432.8001 1.99 1.4011c.578.5845 1.035 1.2781 1.344 2.0404.308.7624.462 1.5785.453 2.4009v52.2683h12.348c.824-.009 1.642.145 2.407.454.764.308 1.46.764 2.047 1.343.601.558 1.079 1.236 1.401 1.99.323.754.484 1.567.473 2.387.013.817-.143 1.627-.459 2.381-.316.753-.785 1.433-1.376 1.996-.574.583-1.26 1.043-2.017 1.352s-1.569.46-2.386.445zm-18.728-102.9831c.813-.0052 1.618.1511 2.369.4595.751.3085 1.434.7631 2.008 1.3374.575.5744 1.029 1.257 1.338 2.0084.308.7514.465 1.5566.459 2.3688v5.3012c.01.8224-.144 1.6385-.453 2.4009-.308.7624-.765 1.4559-1.344 2.0404-.558.601-1.236 1.0783-1.989 1.4011-.754.3228-1.568.4839-2.388.473h-6.61c-.836.0153-1.665-.1473-2.433-.477-.768-.3298-1.457-.8191-2.021-1.4356-.562-.5558-1.005-1.2204-1.3-1.9532-.296-.7328-.439-1.5183-.42-2.3084l.141-5.4424c-.002-.8113.157-1.6149.466-2.3648.31-.7498.765-1.4311 1.338-2.0048.574-.5736 1.255-1.0283 2.005-1.338s1.554-.4682 2.365-.4665z"/></g></svg>