<svg width="240" height="68" viewBox="0 0 240 68" fill="none" xmlns="http://www.w3.org/2000/svg">
<path fill-rule="evenodd" clip-rule="evenodd" d="M10.909 16.7416C11.0254 16.7416 11.389 17.0471 11.709 17.4107C12.0436 17.7889 12.6108 18.2252 13.0181 18.4289C13.4254 18.6034 13.8763 18.7634 14.0363 18.7489C14.1963 18.7489 14.4145 18.8507 14.5163 18.9816C14.6618 19.1707 14.4727 19.418 13.2218 20.698C12.4072 21.5125 11.3018 22.778 10.7636 23.4907C10.2254 24.2034 9.46903 25.3234 9.09085 25.9634C8.69812 26.6034 8.31994 27.3161 8.24721 27.5634C8.15994 27.8107 7.98539 28.1889 7.83994 28.4361C7.70903 28.6834 7.38903 29.5852 7.1563 30.4725C6.90903 31.3598 6.64721 32.6252 6.55994 33.3089C6.47267 33.9925 6.39994 35.0107 6.39994 35.5634C6.39994 36.1307 6.47267 37.178 6.55994 37.8907C6.64721 38.6034 6.89448 39.8252 7.12721 40.5816C7.34539 41.338 7.7963 42.5161 8.13085 43.1998C8.46539 43.8834 8.93085 44.7707 9.17812 45.1634C9.42539 45.5707 9.93449 46.2543 10.3127 46.6907C10.6763 47.1271 11.389 47.8834 11.869 48.3634C12.3636 48.8434 13.309 49.6143 13.9781 50.0652C14.6472 50.5161 15.7527 51.1561 16.4363 51.4761C17.1199 51.8107 17.7454 52.0725 17.8181 52.0725C17.8908 52.0725 18.2545 52.1889 18.6181 52.3489C18.9818 52.5089 20.0145 52.7416 20.9163 52.858C21.8036 52.9889 23.1563 53.0907 23.8836 53.0907C24.6254 53.0907 25.9199 52.9889 26.7636 52.8725C27.6654 52.7561 28.8581 52.4652 29.6727 52.1743C30.429 51.898 31.4181 51.4907 31.8545 51.258C32.2908 51.0398 33.1199 50.5452 33.6727 50.1816C34.2254 49.8034 35.0836 49.1343 35.549 48.7125C36.029 48.2761 36.6545 47.6798 36.9308 47.3598C37.2218 47.0543 37.7745 46.3707 38.1527 45.8325C38.5454 45.3089 39.1999 44.1598 39.6363 43.2725C40.1163 42.2689 40.5963 40.9889 40.8872 39.8543C41.3527 38.1234 41.3672 37.9198 41.3672 35.5634C41.3527 33.2652 41.3236 32.9598 40.9018 31.3452C40.6545 30.3852 40.2472 29.1489 40.029 28.5816C39.7963 28.0289 39.389 27.1707 39.1272 26.6907C38.8654 26.2107 38.4145 25.4543 38.1381 25.018C37.8472 24.5816 37.3236 23.8252 36.9599 23.3452C36.5963 22.8652 35.5781 21.7307 34.6908 20.8434C33.2654 19.3743 33.1199 19.1707 33.309 18.9816C33.4254 18.8507 33.6581 18.7489 33.8181 18.7489C33.9781 18.7634 34.4436 18.6034 34.8363 18.4289C35.2581 18.2252 35.8108 17.8034 36.1454 17.4107C36.4654 17.0325 36.8145 16.7271 36.9163 16.7271C37.0036 16.7271 37.3381 16.9016 37.6436 17.1198C37.9345 17.338 38.8072 18.0507 39.5636 18.7052C40.3199 19.3598 41.2799 20.2761 41.6872 20.7416C42.0945 21.2216 42.6618 21.8907 42.9381 22.2543C43.2145 22.618 43.5199 23.0543 43.6072 23.2434C43.7672 23.5343 43.709 23.6361 43.0254 24.3343C42.6036 24.7561 42.1236 25.3671 41.9636 25.6871C41.7454 26.1234 41.6872 26.5452 41.6872 27.4907C41.6872 28.4071 41.7454 28.858 41.949 29.2361C42.0945 29.5125 42.3563 29.9489 42.5308 30.1816C42.7199 30.4289 43.2436 30.8507 43.7236 31.1271C44.4945 31.5634 44.7127 31.6216 45.8181 31.6652C46.8072 31.6943 47.0836 31.7525 47.229 31.9561C47.3309 32.1016 47.4618 32.7707 47.5199 33.4543C47.5927 34.138 47.6218 35.738 47.6072 37.018C47.6072 38.298 47.5199 39.7671 47.4327 40.2907C47.3309 40.9016 47.1854 41.2943 47.0254 41.4107C46.8799 41.5125 46.5745 41.5561 46.3272 41.498C46.0945 41.4543 45.5272 41.4689 45.0909 41.5125C44.5575 41.5707 44.0436 41.7598 43.549 42.0798C43.1418 42.3271 42.6036 42.8361 42.3563 43.1998C42.109 43.5634 41.8327 44.1889 41.7454 44.5816C41.6581 44.9889 41.6145 45.7016 41.6581 46.1816C41.7163 46.7634 41.8763 47.2725 42.1527 47.7089C42.3708 48.0725 42.8363 48.5961 43.1708 48.8725C43.5199 49.1489 43.7963 49.4398 43.7963 49.5271C43.7963 49.6143 43.3163 50.298 42.7345 51.0543C42.1527 51.8107 41.1781 52.9016 40.5818 53.498C39.9854 54.0943 38.9818 54.9525 38.3708 55.4325C37.7454 55.898 37.1199 56.2907 36.989 56.2907C36.8436 56.3052 36.4508 55.9998 36.1163 55.6361C35.7672 55.2725 35.1272 54.8071 34.6618 54.6034C34.0799 54.3271 33.5708 54.2107 33.0181 54.2107C32.4654 54.2107 31.9563 54.3271 31.3454 54.5889C30.8654 54.8071 30.269 55.1998 30.0072 55.4471C29.7454 55.7089 29.3672 56.3198 29.149 56.7998C28.8145 57.5271 28.7563 57.8471 28.7999 59.7816L28.2618 59.9125C27.9563 59.9852 27.2436 60.1307 26.6908 60.218C26.0654 60.3198 24.7854 60.3634 23.4181 60.3198C22.1818 60.2761 20.7418 60.1743 20.2181 60.0871C19.6945 59.9998 19.2145 59.8543 19.1272 59.7671C19.0399 59.6943 18.9818 59.1125 18.9672 58.5016C18.9672 57.6725 18.8799 57.1925 18.6327 56.6543C18.4581 56.2616 18.109 55.7089 17.8472 55.4471C17.5854 55.1998 16.989 54.8071 16.509 54.6034C15.869 54.3125 15.4036 54.2252 14.7636 54.2252C14.0945 54.2398 13.6727 54.3416 12.989 54.6761C12.4363 54.9525 11.8836 55.3598 11.6072 55.7089C11.3454 56.0289 11.0108 56.2907 10.8799 56.2907C10.7345 56.2907 10.3999 56.1452 10.1527 55.9707C9.89085 55.7816 9.20721 55.258 8.65449 54.778C8.10176 54.298 7.21449 53.4834 6.71994 52.9598C6.21085 52.4361 5.3963 51.4761 4.93085 50.8361C4.45085 50.1961 4.05812 49.6143 4.05812 49.5271C4.07267 49.4398 4.34903 49.1489 4.68358 48.858C5.03267 48.5671 5.49812 47.9852 5.74539 47.5489C6.12358 46.8652 6.18176 46.618 6.16721 45.5998C6.16721 44.7416 6.09448 44.2907 5.89085 43.8543C5.73085 43.5489 5.30903 42.9961 4.94539 42.6471C4.58176 42.2834 4.10176 41.8907 3.85448 41.7743C3.57812 41.6289 2.92358 41.5271 2.0363 41.498C1.27994 41.4834 0.639939 41.4398 0.625393 41.4252C0.610848 41.3961 0.50903 40.9889 0.407211 40.5089C0.305393 39.9852 0.232666 38.4289 0.232666 36.5816C0.232666 34.6761 0.290848 33.1925 0.407211 32.6543C0.50903 32.1743 0.610848 31.7671 0.625393 31.738C0.639939 31.7234 1.25085 31.6798 1.96358 31.6652C3.17085 31.6216 3.34539 31.578 4.14539 31.098C4.72721 30.7489 5.17812 30.3561 5.48358 29.8761C5.74539 29.4834 6.0363 28.7998 6.12358 28.3634C6.25448 27.7525 6.25448 27.3598 6.12358 26.6907C6.0363 26.2107 5.78903 25.5561 5.57085 25.2361C5.36721 24.9161 4.97448 24.4798 4.71267 24.2616C4.42176 24.0143 4.21812 23.7234 4.21812 23.5343C4.21812 23.3452 4.55267 22.7343 4.95994 22.1816C5.38176 21.6289 6.3563 20.538 7.11267 19.7816C7.88358 19.0107 9.00358 18.0216 9.59994 17.5707C10.1963 17.1052 10.7927 16.7416 10.909 16.7416ZM11.0981 49.4107C11.5927 49.8616 12.4945 50.6034 13.0908 51.0398C13.7018 51.4907 14.7781 52.1452 15.4908 52.4798C16.2181 52.8289 16.989 53.2216 17.2363 53.338C17.4836 53.4543 18.4872 53.7598 19.4908 54.0071C21.2072 54.4434 21.4545 54.4725 23.9272 54.4725C26.3854 54.458 26.6472 54.4434 28.2908 54.0071C29.2508 53.7598 30.5018 53.3525 31.0545 53.1198C31.6072 52.8871 32.4654 52.4652 32.9454 52.1889C33.4254 51.9125 34.1818 51.4325 34.6327 51.1125C35.0836 50.8071 35.7381 50.298 36.0872 50.0071C36.4363 49.7016 36.6981 49.4252 36.6545 49.3961C36.6108 49.3525 36.0872 49.7016 35.4908 50.1671C34.8945 50.618 34.0072 51.2289 33.5272 51.5198C33.0472 51.7961 32.2908 52.218 31.8545 52.4361C31.4181 52.6543 30.3999 53.0471 29.5999 53.3089C28.7999 53.5707 27.7236 53.8761 27.1999 53.978C26.6763 54.0798 25.2072 54.1525 23.9272 54.1525C22.6472 54.1525 21.1781 54.0798 20.6545 53.978C20.1308 53.8761 18.9963 53.5561 18.109 53.2507C17.2363 52.9452 16.0436 52.4507 15.4908 52.1598C14.9381 51.8689 14.2399 51.4761 13.9636 51.3016C13.6727 51.1271 13.1781 50.7925 12.8727 50.5452C12.5527 50.3125 11.8254 49.7016 11.2581 49.1925C10.6908 48.6834 10.2254 48.3343 10.2108 48.4216C10.1963 48.5089 10.589 48.9598 11.0981 49.4107ZM218.196 26.0361C219.956 26.0361 221.498 26.0943 221.644 26.1671C221.775 26.2398 222.836 27.6216 224 29.2216C225.164 30.8216 226.138 32.1452 226.182 32.1452C226.225 32.1452 227.069 31.0252 228.073 29.6434C229.062 28.2616 230.109 26.8798 230.909 26.0216L234.007 26.0361C236.553 26.0361 237.135 26.0798 237.309 26.2543C237.425 26.3707 237.571 26.618 237.615 26.7925C237.658 26.9816 237.615 27.2871 237.513 27.4907C237.411 27.6943 235.854 29.8761 234.065 32.3634C232.262 34.8507 230.778 36.9307 230.749 37.018C230.72 37.1052 232.436 39.4907 234.545 42.3271C236.669 45.1634 238.4 47.5925 238.4 47.7089C238.4 47.8252 238.24 48.1016 237.673 48.7271H231.055L230.604 48.2616C230.356 47.9998 229.498 46.8943 228.698 45.818C227.913 44.7416 226.982 43.4761 226.036 42.1816L223.68 45.3525C222.371 47.0834 221.193 48.5671 221.062 48.6252C220.916 48.6834 219.375 48.7271 217.644 48.7271C214.778 48.7416 214.444 48.7125 214.24 48.4798C214.109 48.3343 213.964 48.1016 213.92 47.9561C213.862 47.8252 213.876 47.5634 213.949 47.3743C214.007 47.1998 215.68 44.8434 217.658 42.138C219.622 39.4471 221.236 37.178 221.236 37.0907C221.236 37.0034 219.724 34.8071 217.891 32.1743C215.52 28.8143 214.531 27.2871 214.516 26.9961C214.502 26.7489 214.604 26.458 214.764 26.298C214.996 26.0652 215.316 26.0361 218.196 26.0361Z" fill="black"/>
<path d="M24.0727 0.727051C24.1891 0.727051 24.3345 0.828869 24.4072 0.959778C24.4751 1.10523 24.3878 1.29432 24.1454 1.52705C23.9418 1.73069 23.7091 1.83251 23.6072 1.77432C23.4909 1.7016 23.4909 1.55614 23.6363 1.19251C23.7527 0.945233 23.9418 0.727051 24.0727 0.727051ZM29.0327 5.3816C29.1491 5.3816 29.2509 5.43978 29.28 5.51251C29.3091 5.59978 29.2072 6.05069 29.0618 6.53069C28.9163 7.02523 28.8 7.69432 28.8 8.02887C28.8 8.37796 28.96 9.10523 29.1491 9.67251C29.3236 10.2252 29.7891 11.2434 30.1818 11.9271C30.56 12.6107 31.0982 13.5561 31.36 14.0361C31.6363 14.5161 31.9709 15.3016 32.1309 15.7816C32.2909 16.2616 32.4509 16.9307 32.4945 17.2652C32.5527 17.7307 32.5236 17.9343 32.3636 18.0361C32.2036 18.1525 31.9709 18.0507 31.4472 17.6143C31.0691 17.3089 30.1091 16.378 29.3091 15.5489C28.4945 14.7198 27.5782 13.6725 27.2582 13.2361C26.9382 12.7998 26.56 12.1598 26.4291 11.8107C26.2982 11.4761 26.1818 10.8943 26.1818 10.5161C26.1818 10.1234 26.2836 9.49796 26.4145 9.09069C26.56 8.69796 26.8945 7.99978 27.1709 7.56341C27.4472 7.12705 27.9418 6.45796 28.2618 6.07978C28.5818 5.68705 28.9309 5.3816 29.0327 5.3816ZM16.7127 12.7998C16.7563 12.7998 16.8727 12.858 16.96 12.9161C17.0472 12.9743 17.1636 13.6434 17.2072 14.3998C17.2654 15.3743 17.4109 16.1452 17.7163 17.018C17.9491 17.7016 18.4291 18.807 18.7782 19.4761C19.1272 20.1452 19.5054 20.8725 19.6218 21.0761C19.7382 21.2798 20.0291 21.7889 20.2909 22.1816C20.5382 22.5889 21.1782 23.5925 21.7018 24.4361C22.2109 25.2798 22.8509 26.3125 23.0982 26.7343C23.36 27.1416 23.5636 27.5198 23.5636 27.5634C23.5636 27.607 23.7818 28.1161 24.0582 28.698C24.3345 29.2652 24.6982 30.3998 24.8582 31.1998C25.0327 31.9998 25.1636 32.8725 25.1636 33.1343C25.1636 33.3816 25.0909 33.9052 25.0036 34.298C24.9163 34.6761 24.7418 35.3161 24.6254 35.7089C24.4945 36.1161 24.1454 36.858 23.84 37.3816C23.5345 37.9052 22.7782 38.8507 22.1527 39.4907C21.5272 40.1307 20.5672 41.047 20.0145 41.527C19.4618 42.007 18.7636 42.6616 18.4582 42.9816C18.1527 43.3016 17.7309 43.7961 17.5272 44.0725C17.3236 44.3489 16.96 45.0616 16.7272 45.6434C16.3782 46.487 16.2909 46.8943 16.2909 47.7525C16.3054 48.5234 16.2472 48.8434 16.0727 48.9889C15.9563 49.0761 15.7527 49.1343 15.6363 49.0907C15.52 49.047 15.04 48.7271 14.5891 48.378C14.1236 48.0289 13.2218 47.1998 12.5818 46.5307C11.9418 45.8616 11.1127 44.858 10.7491 44.2907C10.3854 43.7234 9.87634 42.8507 9.64361 42.327C9.39634 41.8034 9.00361 40.6689 8.74179 39.7816C8.42179 38.6325 8.26179 37.7307 8.20361 36.5816C8.15997 35.6943 8.18906 34.3561 8.26179 33.5998C8.34906 32.8434 8.62543 31.5052 8.8727 30.618C9.13452 29.7307 9.49815 28.698 9.70179 28.2907C9.90543 27.898 10.3418 27.098 10.6763 26.5161C10.9963 25.9489 11.3745 25.4543 11.5054 25.4252C11.68 25.3961 11.7236 25.4834 11.6945 25.7452C11.68 25.9489 11.5491 26.5743 11.4182 27.127C11.2727 27.767 11.2 28.5816 11.2291 29.3234C11.2727 30.3561 11.3309 30.5743 11.7091 31.1125C11.9563 31.447 12.2763 31.767 12.4363 31.8107C12.5963 31.8689 13.0618 31.898 13.4545 31.898C13.8618 31.898 14.4 31.7816 14.6618 31.6507C14.9091 31.5198 15.4618 31.0689 15.8545 30.6616C16.3491 30.1477 16.7369 29.5513 17.0182 28.8725C17.2509 28.3198 17.4982 27.3161 17.5854 26.6616C17.7018 25.8034 17.7018 25.1052 17.5854 24.247C17.4982 23.5925 17.1054 21.9052 16.6982 20.5089C16 18.1525 15.9418 17.8471 15.9418 16.3634C15.9272 15.0252 15.9854 14.6034 16.2763 13.7743C16.4654 13.2361 16.6691 12.7998 16.7127 12.7998Z" fill="black"/>
<path fill-rule="evenodd" clip-rule="evenodd" d="M166.313 17.7454C169.411 17.7309 169.542 17.7454 169.818 18.0509C170.095 18.3418 170.109 18.589 170.182 27.9272L170.865 27.3745C171.258 27.0836 171.927 26.6472 172.364 26.4436C172.8 26.2254 173.556 25.949 174.036 25.8181C174.545 25.6872 175.549 25.5999 176.436 25.5999C177.498 25.5999 178.313 25.6872 179.127 25.8909C179.767 26.0654 180.684 26.4145 181.164 26.6763C181.644 26.9527 182.4 27.5345 182.836 27.9854C183.273 28.4363 183.884 29.2072 184.189 29.7163C184.495 30.2109 184.902 31.1272 185.091 31.7381C185.295 32.3636 185.527 33.3527 185.629 33.9199C185.731 34.5018 185.804 36.1599 185.789 37.5999C185.789 39.6654 185.716 40.5236 185.484 41.6727C185.265 42.6763 184.96 43.549 184.48 44.509C183.985 45.5272 183.564 46.1236 182.924 46.7636C182.429 47.2436 181.585 47.8836 181.018 48.1745C180.451 48.4799 179.535 48.8145 178.982 48.9309C178.415 49.0618 177.28 49.1636 176.436 49.1636C175.593 49.1636 174.502 49.0618 173.993 48.9454C173.498 48.829 172.713 48.5381 172.247 48.3054C171.796 48.0727 171.04 47.5927 169.745 46.5454V47.229C169.76 47.709 169.658 48.0581 169.164 48.7272H166.138C163.244 48.7418 163.113 48.7272 162.836 48.4218C162.545 48.1163 162.545 47.9127 162.545 33.2363C162.545 18.8363 162.56 18.3418 162.822 18.0509C163.084 17.7599 163.229 17.7454 166.313 17.7454ZM171.287 32.7418C170.967 33.0909 170.618 33.6145 170.502 33.8909C170.385 34.1672 170.24 35.0254 170.182 35.7818C170.124 36.5381 170.124 37.8181 170.196 38.6181C170.255 39.4327 170.429 40.4218 170.604 40.8727C170.793 41.4109 171.113 41.8763 171.549 42.2981C171.913 42.6327 172.465 42.9672 172.756 43.0545C173.062 43.1272 173.731 43.1999 174.255 43.1999C174.865 43.1999 175.404 43.0981 175.782 42.9236C176.102 42.7781 176.538 42.4727 176.756 42.2399C176.975 42.0072 177.28 41.5272 177.44 41.1636C177.6 40.7999 177.789 40.0872 177.876 39.5636C177.964 39.0399 178.036 38.0654 178.036 37.3818C178.036 36.6981 177.964 35.7236 177.876 35.1999C177.789 34.6763 177.6 33.9636 177.44 33.5999C177.28 33.2363 176.975 32.7563 176.756 32.5236C176.538 32.2909 176.102 31.9854 175.782 31.8399C175.375 31.6509 174.865 31.5636 174.109 31.5636C173.367 31.5636 172.829 31.6509 172.436 31.8399C172.116 31.9854 171.593 32.3927 171.287 32.7418ZM73.1636 17.949C75.0982 17.9927 76.3491 18.0799 77.0909 18.2545C77.6872 18.3854 78.7636 18.7345 79.4909 19.0109C80.2036 19.3018 81.1927 19.7672 81.6727 20.0581C82.1527 20.3345 83.04 21.0472 83.6363 21.6145C84.2327 22.1963 84.96 23.0399 85.2363 23.5054C85.5127 23.9709 85.8909 24.7854 86.0654 25.309C86.24 25.8327 86.4 26.5018 86.4 26.8072C86.4 27.1563 86.2982 27.4472 86.1091 27.6363C85.8327 27.9127 85.6291 27.9272 78.2545 27.9272L77.9927 27.549C77.8618 27.3454 77.4545 26.7781 77.0909 26.2836C76.5963 25.629 76.2036 25.2654 75.4909 24.8872C74.5454 24.3636 74.5309 24.3636 72.7272 24.3636C71.0836 24.3636 70.8363 24.3927 70.1091 24.7418C69.6727 24.9454 69.0909 25.3381 68.8145 25.6145C68.5527 25.8909 68.1745 26.3999 68 26.7636C67.8254 27.1272 67.5927 27.7818 67.4763 28.2181C67.3309 28.8145 67.2727 30.1672 67.2872 33.4545C67.2872 36.5381 67.3454 38.1527 67.4763 38.7636C67.5782 39.2436 67.8691 40.0145 68.1309 40.4945C68.3782 40.9599 68.8145 41.5272 69.0909 41.7599C69.3672 41.9781 69.92 42.3127 70.3272 42.5018C70.9672 42.7927 71.2872 42.8363 72.8 42.8363C74.2982 42.8363 74.6618 42.7781 75.4182 42.4872C75.9854 42.2545 76.5382 41.8763 77.0327 41.3963C77.4982 40.9163 77.8618 40.3927 78.0218 39.9272C78.1672 39.5345 78.3272 38.6618 78.4727 36.7999H76.2472C75.04 36.7999 73.9054 36.7418 73.7454 36.6545C73.5854 36.5672 73.3818 36.2909 73.3091 36.0436C73.2218 35.7818 73.1636 34.8799 73.1636 34.0363C73.1636 33.1927 73.2218 32.2909 73.3091 32.0436C73.3818 31.7818 73.5854 31.5054 73.7454 31.4181C73.92 31.3309 76.32 31.2727 85.9636 31.2727L86.2545 31.6799C86.5309 32.0436 86.56 32.2763 86.5454 35.1272C86.5454 37.0036 86.4582 38.7054 86.3418 39.5636C86.2254 40.3199 85.9345 41.3963 85.7163 41.9636C85.4836 42.5309 85.12 43.3163 84.8872 43.709C84.6545 44.1163 83.9272 44.9599 83.2872 45.5999C82.6327 46.2399 81.7454 46.9818 81.3091 47.229C80.8727 47.4909 80.0436 47.8981 79.4909 48.1163C78.9236 48.349 77.8472 48.6981 77.0909 48.8872C75.84 49.1927 75.4036 49.2363 72.5818 49.2218C69.6582 49.2218 69.3527 49.1927 68 48.829C67.2 48.6109 65.9491 48.1454 65.2363 47.7963C64.5091 47.4472 63.5345 46.8363 63.0545 46.4436C62.5745 46.0509 61.9345 45.4109 61.6291 45.0181C61.3236 44.6109 60.8582 43.8981 60.5818 43.4181C60.32 42.9381 59.9418 42.0218 59.7382 41.3818C59.5345 40.7418 59.2872 39.7236 59.1854 39.1272C59.0545 38.3854 58.9963 36.5963 58.9963 33.4545C58.9963 30.6327 59.0691 28.509 59.1709 27.9272C59.2727 27.4036 59.52 26.429 59.7236 25.7454C59.9272 25.0618 60.3491 24.0872 60.6545 23.5636C60.96 23.0399 61.5272 22.269 61.9054 21.8327C62.2982 21.3963 62.9382 20.7999 63.3454 20.509C63.7382 20.2181 64.5236 19.7381 65.0909 19.4618C65.6436 19.1709 66.56 18.8072 67.1272 18.6327C67.68 18.4581 68.64 18.2254 69.2363 18.109C70.0218 17.9636 71.1127 17.9199 73.1636 17.949ZM201.236 25.6581C203.578 25.7018 203.985 25.7454 205.164 26.0945C205.876 26.3127 206.938 26.7345 207.491 27.0254C208.16 27.3745 208.887 27.9418 209.6 28.6545C210.4 29.4399 210.851 30.0509 211.229 30.8363C211.535 31.4327 211.869 32.3199 212 32.7999C212.116 33.2799 212.291 34.2254 212.364 34.909C212.436 35.5927 212.509 36.6981 212.509 37.3818C212.509 38.0654 212.436 39.1709 212.364 39.8545C212.291 40.5381 212.116 41.4836 212 41.9636C211.869 42.4436 211.549 43.2872 211.287 43.8545C211.011 44.4218 210.531 45.2072 210.225 45.5999C209.92 46.0072 209.178 46.6763 208.582 47.0981C207.985 47.5199 206.982 48.0581 206.356 48.3054C205.745 48.5381 204.625 48.829 203.884 48.9599C202.865 49.1345 201.978 49.1781 200.145 49.1199C198.342 49.0618 197.455 48.9599 196.582 48.7272C195.942 48.5527 194.938 48.1745 194.342 47.8836C193.687 47.5636 192.858 46.9672 192.247 46.3999C191.695 45.8763 191.025 45.0909 190.749 44.6545C190.487 44.2181 190.109 43.4036 189.905 42.8363C189.716 42.269 189.484 41.3236 189.382 40.7272C189.265 40.0145 189.236 38.6181 189.28 36.7272C189.324 34.6472 189.411 33.5709 189.585 32.9454C189.716 32.4654 190.08 31.5345 190.4 30.8799C190.807 30.0218 191.244 29.3963 191.884 28.7563C192.393 28.2472 193.265 27.5636 193.818 27.229C194.371 26.909 195.331 26.4727 195.927 26.269C196.524 26.0654 197.382 25.8327 197.818 25.7599C198.255 25.6872 199.796 25.6436 201.236 25.6581ZM198.851 31.4618C198.604 31.6072 198.24 31.9272 198.036 32.189C197.833 32.4363 197.542 33.0618 197.382 33.5709C197.193 34.1818 197.062 35.0836 197.004 36.3345C196.945 37.3672 196.989 38.7927 197.076 39.5636C197.149 40.3199 197.338 41.2072 197.469 41.5272C197.6 41.8472 197.862 42.3272 198.051 42.589C198.24 42.8363 198.676 43.1999 199.011 43.3599C199.36 43.5345 199.956 43.709 200.364 43.7527C200.756 43.7818 201.411 43.7527 201.818 43.6509C202.255 43.5636 202.778 43.2872 203.127 43.0109C203.476 42.7199 203.84 42.2109 204.029 41.7745C204.218 41.3527 204.422 40.5818 204.509 40.0436C204.582 39.4909 204.655 38.269 204.64 37.309C204.64 36.349 204.553 35.069 204.451 34.4727C204.349 33.8763 204.131 33.1199 203.971 32.7999C203.811 32.4799 203.418 31.9999 203.113 31.7527C202.807 31.4909 202.269 31.2145 201.92 31.1272C201.585 31.0545 201.033 30.9818 200.684 30.9963C200.349 30.9963 199.898 31.0545 199.68 31.1127C199.462 31.1854 199.084 31.3309 198.851 31.4618ZM101.818 25.8036C103.447 25.8327 104.495 25.9345 105.091 26.0945C105.571 26.2254 106.516 26.6036 107.2 26.9381C108.175 27.4036 108.684 27.7818 109.615 28.7127C110.313 29.4109 110.996 30.2836 111.316 30.8363C111.593 31.3599 111.971 32.2036 112.145 32.7272C112.32 33.2509 112.553 34.1963 112.669 34.8363C112.785 35.4763 112.873 36.6545 112.873 37.4545C112.873 38.7636 112.829 38.9381 112.218 39.5781L97.8909 39.5636V40.1163C97.8909 40.4072 97.9782 40.989 98.0945 41.3818C98.1963 41.789 98.3854 42.3127 98.5018 42.5454C98.6327 42.7781 98.9963 43.229 99.3309 43.5345C99.6654 43.8254 100.204 44.1454 100.538 44.2327C100.887 44.3199 101.455 44.3636 101.818 44.3199C102.182 44.2763 102.705 44.1309 102.982 43.9999C103.258 43.8545 103.869 43.3745 105.193 42.109L108.131 42.0654C109.92 42.0363 111.273 42.0799 111.593 42.1672C112.015 42.2981 112.16 42.4145 112.233 42.7345C112.291 42.9527 112.291 43.3309 112.247 43.5636C112.189 43.7963 111.869 44.4218 111.535 44.9454C111.185 45.4545 110.487 46.2254 109.964 46.6618C109.44 47.0836 108.495 47.6945 107.855 48.0145C107.215 48.3199 106.167 48.7272 105.527 48.9018C104.524 49.1781 103.971 49.2218 101.6 49.2218C99.3454 49.2363 98.6472 49.1927 97.8182 48.9599C97.2509 48.8145 96.3345 48.4799 95.7818 48.2181C95.2145 47.9709 94.3418 47.4327 93.8327 47.0399C93.3091 46.6472 92.5963 45.9345 92.2472 45.4545C91.8836 44.9745 91.4036 44.189 91.1854 43.709C90.9527 43.229 90.6182 42.2836 90.4436 41.5999C90.1527 40.5236 90.1236 40.0145 90.1236 37.5999C90.1382 35.229 90.1818 34.6763 90.4582 33.6727C90.6327 33.0327 90.9818 32.0581 91.2582 31.4909C91.52 30.9381 92.0436 30.0799 92.4072 29.5999C92.7709 29.1199 93.3527 28.4945 93.7018 28.2036C94.0509 27.9127 94.7491 27.4472 95.2727 27.1709C95.7963 26.8799 96.5091 26.5454 96.8727 26.4145C97.2363 26.2836 97.9491 26.0799 98.4727 25.9636C99.1563 25.8181 100.087 25.7599 101.818 25.8036ZM99.4472 31.2436C99.1418 31.4618 98.7491 31.869 98.5891 32.1454C98.4291 32.4218 98.1963 32.9454 98.0945 33.309C97.9782 33.6727 97.8909 34.2399 97.8909 34.589V35.1999H105.091C104.96 33.789 104.771 33.0618 104.596 32.6545C104.422 32.2618 104.131 31.7672 103.956 31.5927C103.782 31.4036 103.375 31.1127 103.055 30.9527C102.735 30.7927 102.109 30.6327 101.673 30.6036C101.236 30.5745 100.669 30.6181 100.436 30.6909C100.189 30.7781 99.7527 31.0109 99.4472 31.2436ZM127.127 25.7599C128.858 25.7599 129.702 25.8181 130.764 26.0363C131.651 26.2109 132.582 26.5309 133.382 26.9236C134.255 27.3599 134.88 27.8109 135.505 28.4218C136.044 28.9599 136.567 29.6727 136.844 30.2545C137.105 30.7781 137.411 31.6654 137.527 32.2181C137.702 33.0472 137.745 34.6763 137.745 48.2181L137.411 48.5527C137.091 48.8727 137.018 48.8872 134.065 48.8727C131.258 48.8727 131.04 48.8581 130.764 48.5818C130.531 48.349 130.473 48.1018 130.473 46.4727L129.702 47.1999C129.28 47.6072 128.509 48.1309 127.985 48.3927C127.476 48.6399 126.662 48.9454 126.182 49.0763C125.673 49.2072 124.684 49.309 123.782 49.309C122.705 49.309 121.92 49.2218 121.091 49.0181C120.451 48.8436 119.535 48.509 119.055 48.2472C118.575 47.9854 117.789 47.389 117.309 46.909C116.815 46.4145 116.262 45.6872 116.044 45.2363C115.825 44.7999 115.593 43.9999 115.505 43.4618C115.389 42.7927 115.389 42.1818 115.491 41.5709C115.564 41.0618 115.825 40.2618 116.058 39.7818C116.32 39.2581 116.785 38.6181 117.265 38.1818C117.716 37.7599 118.633 37.1636 119.418 36.7563C120.175 36.3781 121.324 35.9127 121.964 35.7236C122.604 35.5345 123.942 35.2436 124.945 35.0836C125.949 34.909 127.505 34.6618 130.08 34.2545L130.007 33.2363C129.964 32.5381 129.847 32.0436 129.629 31.6799C129.455 31.3745 129.105 31.0254 128.873 30.909C128.625 30.7927 128.058 30.6472 127.593 30.6036C127.025 30.5309 126.502 30.5745 125.92 30.749C125.207 30.9527 124.975 31.1127 123.418 32.8872H120.436C117.6 32.8872 117.44 32.8727 117.164 32.5818C116.931 32.3345 116.887 32.1454 116.96 31.6654C117.004 31.3309 117.193 30.7345 117.382 30.3272C117.571 29.9345 118.153 29.1781 118.676 28.6545C119.316 28.0145 120.024 27.4957 120.8 27.0981C121.44 26.7636 122.458 26.3563 123.055 26.1963C123.651 26.0363 124.305 25.8763 124.509 25.8472C124.713 25.8181 125.891 25.7745 127.127 25.7599ZM125.164 39.6363C124.756 39.7527 124.16 40.029 123.825 40.2472C123.491 40.4654 123.098 40.8581 122.967 41.0909C122.836 41.3236 122.735 41.7745 122.735 42.0799C122.749 42.3709 122.88 42.7927 123.025 43.0254C123.185 43.2436 123.549 43.5781 123.869 43.7672C124.291 44.0436 124.698 44.1454 125.455 44.189C126.007 44.2181 126.735 44.1745 127.055 44.1018C127.375 44.0145 127.913 43.7527 128.262 43.5345C128.596 43.3163 129.076 42.8363 129.324 42.4727C129.556 42.109 129.818 41.5854 129.905 41.309C129.978 41.0327 130.08 40.3199 130.109 39.7527C130.167 38.8072 130.153 38.6909 129.92 38.7054C129.789 38.7054 128.815 38.8799 127.782 39.069C126.735 39.2581 125.556 39.5054 125.164 39.6363ZM149.382 26.1818L149.673 26.589C149.905 26.8945 149.978 27.1999 149.949 28.8727L150.647 28.2036C151.025 27.8399 151.738 27.3309 152.218 27.0981C152.698 26.8509 153.484 26.5454 153.964 26.4145C154.56 26.2545 155.476 26.1818 156.8 26.1818C158.633 26.1818 158.778 26.2109 159.098 26.5163C159.418 26.8218 159.433 26.9236 159.433 29.4545C159.433 31.8545 159.404 32.1018 158.836 32.8727L155.884 32.9163C153.28 32.9599 152.873 32.989 152.291 33.2654C151.927 33.4254 151.462 33.7454 151.244 33.9781C151.025 34.2109 150.749 34.6909 150.618 35.0545C150.429 35.6072 150.4 36.6254 150.4 41.6727C150.4 45.3236 150.342 47.8254 150.255 48.1163C150.182 48.3636 149.978 48.6545 149.818 48.7272C149.658 48.8145 148.175 48.8727 146.356 48.8727C143.316 48.8872 143.185 48.8727 142.909 48.5672C142.618 48.2618 142.618 48.0581 142.618 37.5272C142.618 27.1854 142.633 26.7781 142.895 26.4872C143.156 26.1963 143.302 26.1818 149.382 26.1818Z" fill="black"/>
<path d="M23.6071 1.74512C23.6799 1.74512 23.738 1.89057 23.7526 2.07966C23.7671 2.25421 23.6362 2.9233 23.4471 3.5633C23.2144 4.3633 23.0835 5.27966 23.0253 6.47239C22.9526 8.07239 22.9817 8.31966 23.3162 9.45421C23.5344 10.1378 23.898 11.0688 24.1453 11.5342C24.378 11.9851 24.9017 12.8433 25.2944 13.4106C25.6871 13.9924 26.3417 14.8651 26.7635 15.3451C27.1853 15.8251 28.9162 17.5851 30.6035 19.2724C32.3053 20.9597 34.0217 22.7342 34.4144 23.2142C34.8071 23.7088 35.4908 24.6106 35.9271 25.2215C36.3635 25.8324 37.018 26.9088 37.3817 27.6069C37.7453 28.3051 38.2544 29.396 38.5017 30.036C38.749 30.676 39.1126 31.8542 39.2871 32.6542C39.5199 33.716 39.6071 34.5742 39.6071 35.8542C39.6071 36.8142 39.5344 37.9633 39.418 38.3997C39.3162 38.836 39.1126 39.6506 38.9526 40.2178C38.7926 40.7851 38.429 41.7597 38.1235 42.3997C37.8326 43.0397 37.2944 43.9851 36.9453 44.5088C36.6108 45.0324 35.6944 46.0797 34.9235 46.836C34.1526 47.5924 33.1635 48.4506 32.7271 48.7415C32.2908 49.0324 31.6653 49.4106 31.3453 49.5706C31.0253 49.7451 30.298 50.0797 29.7453 50.3124C29.178 50.5451 28.1308 50.8942 27.418 51.0688C26.3708 51.3306 25.658 51.3888 23.9271 51.4033C22.3126 51.4033 21.469 51.3451 20.6544 51.156C20.058 51.0106 19.418 50.7924 19.229 50.676C19.0108 50.5306 18.8653 50.2251 18.7344 49.6288C18.6035 48.9888 18.6035 48.596 18.7344 47.9269C18.8362 47.4469 19.0835 46.7197 19.2871 46.3269C19.5053 45.9197 19.8835 45.2942 20.1308 44.916C20.378 44.5378 21.338 43.4324 22.2544 42.4578C23.1708 41.4833 24.2471 40.2906 24.6399 39.796C25.0326 39.316 25.5853 38.4142 25.8908 37.8178C26.1962 37.2215 26.5744 36.1306 26.749 35.4178C26.909 34.7051 27.0544 33.716 27.0544 33.236C27.0544 32.756 26.9235 31.7378 26.7635 30.9815C26.618 30.2251 26.3853 29.3378 26.269 29.0178C26.1526 28.6978 25.9053 28.0724 25.7017 27.636C25.5126 27.1997 25.149 26.5015 24.9162 26.1088C24.6835 25.7015 24.2035 24.8869 23.8544 24.2906C23.5053 23.6942 23.1126 23.0833 22.9962 22.9233C22.8653 22.7778 22.6326 22.4433 22.4726 22.1669C22.3126 21.9051 21.8908 21.2797 21.5271 20.7706C21.149 20.2615 20.6108 19.4469 20.3199 18.9378C19.9999 18.3997 19.6071 17.3815 19.3308 16.3924C18.909 14.8797 18.8799 14.6324 18.9526 13.0906C18.9962 11.956 19.1417 10.9233 19.418 9.89057C19.6217 9.04694 20.029 7.73784 20.3199 6.98148C20.5962 6.22512 21.0908 5.10512 21.4253 4.50875C21.7453 3.91239 22.1817 3.18512 22.3708 2.90875C22.5744 2.63239 22.909 2.25421 23.1126 2.07966C23.3162 1.89057 23.549 1.74512 23.6071 1.74512Z" fill="black"/>
</svg>
