<svg width="432" height="163" viewBox="0 0 432 163" fill="none" xmlns="http://www.w3.org/2000/svg">
<path d="M86.2984 61.9563C86.2907 63.2908 85.086 64.2347 83.7836 64.0951C80.5552 63.7491 77.5973 63.7778 74.8321 64.0712C68.8131 64.7098 63.811 66.6005 59.1994 68.3436L59.1893 68.3474C58.9102 68.4529 58.6326 68.5578 58.3563 68.6619C53.4596 70.5061 48.9475 72.0927 43.5941 72.2186C41.4586 72.2688 39.1579 72.086 36.6245 71.5669C34.4517 71.1218 32.7157 69.4326 32.2852 67.2169C31.944 65.4612 31.7651 63.6461 31.7651 61.7883C31.7651 46.4413 43.9729 34 59.032 34C74.0911 34 86.2989 46.4413 86.2989 61.7883C86.2989 61.8444 86.2988 61.9004 86.2984 61.9563Z" fill="url(#paint0_radial_2752_13774)"/>
<path d="M34.1895 75.7649C32.1419 75.2636 30.2734 77.5058 31.2818 79.3899L58.0463 129.397C58.4769 130.201 59.6105 130.201 60.0411 129.397L89.5821 74.2024C90.6299 72.2448 89.6217 69.7926 87.4761 69.3557C82.8081 68.4053 78.8309 68.3031 75.291 68.6787C69.8596 69.2549 65.3486 70.9579 60.6658 72.7257C60.4177 72.8194 60.1691 72.9132 59.9199 73.0071C55.0176 74.8535 49.8727 76.7043 43.6873 76.8497C40.7474 76.9189 37.616 76.6037 34.1895 75.7649Z" fill="url(#paint1_linear_2752_13774)"/>
<path d="M59.0314 74.3063C59.0314 73.7263 59.3868 73.2081 59.9206 73.0071C60.1699 72.9132 60.4184 72.8194 60.6665 72.7257C65.3493 70.9579 69.8603 69.2549 75.2917 68.6787C78.8316 68.3031 82.8088 68.4053 87.4768 69.3557C89.6225 69.7926 90.6306 72.2448 89.5828 74.2024L60.0418 129.397C59.8241 129.803 59.4268 130.004 59.0314 130V74.3063Z" fill="url(#paint2_linear_2752_13774)"/>
<path fill-rule="evenodd" clip-rule="evenodd" d="M156.64 50.5115C153.086 49.5038 149.787 49 146.487 49C140.396 49 134.813 50.5115 129.737 53.0306C124.66 55.8015 120.853 59.5801 118.061 64.6183C115.269 69.6564 114 75.1984 114 81.748C114 88.2975 115.523 93.8395 118.315 98.8776C121.106 103.916 125.167 107.695 129.99 110.465C134.813 113.236 140.142 114.748 146.234 114.748C151.817 114.748 156.894 113.74 161.463 111.221C166.031 108.954 169.584 105.427 172.376 100.641C175.168 95.8547 176.437 90.3129 176.437 83.7632V80.9923C176.437 80.6405 176.438 80.2341 176.438 79.7986L176.438 79.2763C176.439 78.6937 175.963 78.2213 175.376 78.2213H149.069C148.482 78.2213 148.006 78.6937 148.006 79.2763V88.5022C148.006 89.0849 148.482 89.5572 149.069 89.5572H161.076C161.509 89.5572 161.841 89.9395 161.763 90.3621C161.512 91.7226 161.158 92.9581 160.701 94.0915C159.686 96.8624 157.909 98.6258 155.37 100.137C153.086 101.397 150.041 102.153 146.234 102.153C143.188 102.153 140.142 101.145 137.604 99.6335C134.813 97.8701 132.782 95.6029 131.259 92.5799C129.737 89.5572 128.975 86.0304 128.975 82C128.975 77.9693 129.737 74.4427 131.259 71.4198C132.782 68.3969 134.813 65.8778 137.604 64.3664C140.396 62.6031 143.442 61.8474 146.741 61.8474C149.787 61.8474 152.832 62.6031 155.37 63.8626C157.626 64.9821 159.683 66.8977 161.359 69.2555C161.705 69.7423 162.38 69.8824 162.876 69.5467L172.319 63.1568C172.78 62.8449 172.922 62.2306 172.618 61.766C170.883 59.1122 168.561 56.8721 166.031 55.0458C162.985 53.0306 160.194 51.5191 156.64 50.5115ZM237.933 52.551L249.259 49.5902C249.933 49.414 250.593 49.9186 250.593 50.6103V112.685C250.593 113.268 250.117 113.74 249.53 113.74H238.204C237.617 113.74 237.141 113.268 237.141 112.685V53.5711C237.141 53.092 237.466 52.673 237.933 52.551ZM371.543 78.7249C373.32 77.7173 375.096 77.2134 377.127 77.2134C379.411 77.2134 381.188 77.9692 382.71 78.7249C384.233 79.4806 385.502 80.992 386.518 83.0073C387.533 85.0225 388.04 87.2897 388.04 90.0607C388.04 92.8317 387.533 95.0988 386.518 97.1141C385.756 99.1294 384.487 100.641 382.71 101.648C381.188 102.656 379.157 103.16 377.127 103.16C375.096 103.16 373.066 102.656 371.543 101.648C370.02 100.641 368.751 99.1294 367.736 97.1141C366.72 95.0988 366.213 92.8317 366.213 90.0607C366.213 87.2897 366.72 85.0225 367.736 83.0073C368.497 81.2439 369.766 79.7325 371.543 78.7249ZM389.817 68.3967C386.264 66.3814 381.949 65.3738 377.127 65.3738C372.558 65.3738 368.243 66.3814 364.436 68.3967C360.629 70.4119 357.837 73.4348 355.553 77.2134C353.269 80.992 352.253 85.2745 352.253 90.0607C352.253 94.847 353.522 99.1294 355.553 102.908C357.583 106.687 360.629 109.71 364.436 111.725C368.243 113.74 372.558 114.748 377.127 114.748C381.695 114.748 386.01 113.74 389.817 111.725C393.624 109.71 396.416 106.687 398.7 102.908C400.985 99.1294 402 94.847 402 90.0607C402 85.2745 400.731 80.992 398.7 77.2134C396.67 73.4348 393.624 70.4119 389.817 68.3967ZM293.75 108.938C293.851 108.779 294.142 108.852 294.142 109.04V112.686C294.142 113.268 294.618 113.74 295.205 113.74H306.531C307.118 113.74 307.593 113.268 307.593 112.686V67.9407C307.593 67.3581 307.118 66.8858 306.531 66.8858H295.205C294.618 66.8858 294.142 67.3581 294.142 67.9407V71.9953C294.142 72.3416 293.68 72.4868 293.467 72.2122C292.755 71.2926 291.962 70.4383 291.096 69.6567C288.304 66.8858 284.497 65.6262 279.928 65.6262C275.868 65.6262 272.314 66.6339 269.015 68.9011C265.969 70.9164 263.431 73.9393 261.654 77.7179C259.878 81.4965 259.116 85.7788 259.116 90.3133C259.116 94.8476 259.878 99.13 261.654 102.909C263.431 106.687 265.716 109.458 269.015 111.725C272.061 113.992 275.868 115 279.928 115C284.751 115 288.304 113.489 291.35 111.473C292.512 110.704 293.313 109.633 293.75 108.938ZM289.066 101.397C287.289 102.405 285.512 102.909 283.482 102.909C281.452 102.909 279.675 102.405 277.898 101.397C276.375 100.389 275.106 98.878 274.091 96.8628C273.33 94.8474 272.822 92.5803 272.822 90.0613C272.822 87.5422 273.076 85.527 274.091 83.5116C275.106 81.7484 276.375 80.2368 277.898 79.2293C279.675 78.2216 281.452 77.7179 283.482 77.7179C285.512 77.7179 287.543 78.2216 289.066 79.2293C290.588 80.2368 291.857 81.4964 292.873 83.5116C293.635 85.275 294.142 87.5422 294.142 90.0613C294.142 92.5803 293.888 94.8474 292.873 96.8628C291.857 98.878 290.588 100.389 289.066 101.397ZM337.13 77.2137C336.934 77.2137 336.776 77.3711 336.776 77.5653V95.6027C336.776 99.8852 338.552 102.152 342.106 102.152H346.119C346.706 102.152 347.182 102.625 347.182 103.207V112.685C347.182 113.268 346.706 113.74 346.119 113.74H340.329C334.999 113.74 330.684 112.229 327.892 109.206C324.847 106.183 323.324 101.901 323.324 96.3586V77.5653C323.324 77.3711 323.165 77.2137 322.969 77.2137H315.116C314.388 77.2137 313.875 76.503 314.11 75.8187L316.929 67.6003C317.076 67.1728 317.48 66.8854 317.935 66.8854H322.969C323.165 66.8854 323.324 66.7279 323.324 66.5337V53.9229C323.324 53.4438 323.649 53.0248 324.116 52.9027L335.886 49.8258C336.336 49.7083 336.776 50.0447 336.776 50.5059V66.5337C336.776 66.7279 336.934 66.8854 337.13 66.8854H346.406C347.134 66.8854 347.647 67.596 347.412 68.2803L344.593 76.4987C344.446 76.9262 344.042 77.2137 343.587 77.2137H337.13ZM206.279 65.3738C210.848 65.3738 214.655 66.3814 217.954 68.3967C221.254 70.4119 224.045 73.4348 225.822 77.2134C227.853 80.992 228.614 85.2745 228.614 90.0606V92.2806C228.614 92.8633 228.138 93.3356 227.551 93.3356H197.429C197 93.3356 196.668 93.7125 196.742 94.1327C196.963 95.3935 197.276 96.501 197.649 97.366C198.665 99.3812 199.934 100.893 201.456 101.648C202.979 102.404 205.01 103.16 207.548 103.16C209.833 103.16 212.117 102.656 213.64 101.9C215.108 101.276 216.403 100.135 217.524 98.7626C217.91 98.2904 218.61 98.1932 219.085 98.5761L226.804 104.787C227.248 105.144 227.33 105.788 226.968 106.227C224.805 108.853 222.202 110.853 218.969 112.229C215.416 113.74 211.608 114.496 207.548 114.496C202.725 114.496 198.411 113.488 194.604 111.473C190.797 109.458 188.005 106.435 185.975 102.656C183.943 98.8774 182.928 94.5951 182.928 89.8088C182.928 85.0225 183.943 80.7402 185.975 76.9616C188.005 73.183 190.797 70.4119 194.35 68.1448C197.903 66.3814 201.71 65.3738 206.279 65.3738ZM197.728 84.5188C197.281 84.5188 196.945 84.1126 197.051 83.6816C197.496 81.8695 198.142 80.3852 198.918 79.2287C200.441 76.9614 202.979 75.7021 206.279 75.7021C209.324 75.7021 211.863 76.9614 213.386 79.2287C214.144 80.3582 214.777 81.8629 215.221 83.6805C215.326 84.112 214.99 84.5188 214.543 84.5188H197.728Z" fill="black"/>
<defs>
<radialGradient id="paint0_radial_2752_13774" cx="0" cy="0" r="1" gradientUnits="userSpaceOnUse" gradientTransform="translate(75.5638 42.1049) rotate(149.369) scale(47.6839 57.6636)">
<stop offset="0.116813" stop-color="#7E7E7E"/>
<stop offset="0.78125" stop-color="#292929"/>
</radialGradient>
<linearGradient id="paint1_linear_2752_13774" x1="60.4996" y1="69.9415" x2="60.4996" y2="130" gradientUnits="userSpaceOnUse">
<stop stop-color="#454545"/>
<stop offset="0.807292"/>
</linearGradient>
<linearGradient id="paint2_linear_2752_13774" x1="74.5157" y1="68.4758" x2="74.5157" y2="134" gradientUnits="userSpaceOnUse">
<stop stop-color="#8E8E8E"/>
<stop offset="1"/>
</linearGradient>
</defs>
</svg>
