<svg width="518" height="162" viewBox="0 0 518 162" fill="none" xmlns="http://www.w3.org/2000/svg">
<path d="M245.304 38.8354L245.813 38.914C256.898 39.4832 266.457 43.6447 274.532 51.2806L275.06 51.791L268.843 58.0332L267.943 57.2088C264.194 53.7036 259.732 51.0581 254.864 49.4551C252.756 48.7681 250.59 48.2753 248.393 47.9829C246.097 47.7048 243.781 47.6325 241.472 47.7669C238.969 47.9225 236.49 48.357 234.083 49.0625C232.028 49.6476 230.032 50.4231 228.12 51.3788C225.486 52.6562 223.034 54.2802 220.828 56.2077C219.967 56.9536 219.127 57.7192 218.325 58.5436C215.221 61.7431 212.753 65.5071 211.052 69.6343C209.984 72.1692 209.229 74.8259 208.804 77.5451C208.615 78.7024 208.484 79.8686 208.413 81.0392C208.335 82.4263 208.315 83.82 208.355 85.2203C208.475 87.6268 208.842 90.0145 209.449 92.3458C211.313 99.5135 215.352 105.921 221.006 110.68C226.66 115.439 233.649 118.314 241.003 118.905C242.708 119.036 244.419 119.049 246.125 118.944C248.893 118.784 251.631 118.283 254.278 117.452C256.096 116.885 257.868 116.177 259.576 115.332C263.954 113.144 267.838 110.076 270.986 106.317C274.134 102.559 276.479 98.1908 277.875 93.4843C277.953 93.1703 278.051 92.8562 278.148 92.4832C276.975 92.4636 275.881 92.4832 274.786 92.4832H234.923L243.955 83.3947H288.099V84.0229C287.865 94.878 284.248 104.438 277.171 112.623C270.856 119.945 262.919 124.617 253.554 126.796C251.085 127.348 248.574 127.696 246.047 127.836C243.942 127.957 241.831 127.911 239.732 127.699C230.055 126.737 221.531 123.047 214.278 116.53C207.025 110.012 202.705 102.337 200.593 93.0721C199.984 90.4369 199.637 87.7476 199.557 85.0436C199.225 73.2462 202.861 62.8425 210.583 53.9699C216.82 46.7854 224.659 42.1725 233.887 39.9936C236.143 39.4607 238.437 39.1127 240.749 38.9532L241.766 38.914L242.294 38.8354H245.304Z" fill="black"/>
<path d="M517.99 127.895H509.153V92.5029H482.546V127.817C482.213 127.915 474.335 127.934 473.748 127.856V74.6792H482.526V83.2966C482.898 83.3948 508.293 83.434 509.153 83.3359V56.934L509.525 56.8948H517.99V127.895Z" fill="black"/>
<path d="M429.33 92.4441H394.081L385.069 83.3949H419.144C417.927 79.8739 415.974 76.6548 413.416 73.953C409.33 69.6345 404.345 66.9256 398.5 65.9245C392.707 64.9427 386.753 65.9091 381.563 68.6736C376.374 71.4382 372.238 75.8461 369.8 81.2127C367.362 86.5793 366.757 92.6042 368.079 98.3516C369.401 104.099 372.576 109.247 377.112 112.996C382.39 117.315 388.47 119.356 395.274 119.042C402.077 118.728 407.864 116.098 412.732 111.406L418.851 117.57C410.112 126.796 393.534 131.821 378.167 124.087C360.748 115.273 353.71 93.936 362.488 76.4067C366.095 69.1911 372.047 63.4284 379.361 60.0729C386.674 56.7173 394.909 55.9701 402.703 57.9549C420.611 62.5286 429.643 78.7427 429.33 92.4441Z" fill="black"/>
<path d="M323.662 109.914L354.121 56.9144H364.209V56.9537C364.209 56.9733 364.228 56.9929 364.209 56.9929L364.15 57.1696L323.545 127.876H314.747V56.9929L314.786 56.9537C314.786 56.934 314.806 56.934 314.825 56.934L315.001 56.8948H323.33L323.545 56.934V109.895L323.662 109.914Z" fill="black"/>
<path d="M447.101 127.876H438.264V65.5516C437.658 65.5123 437.091 65.532 436.524 65.532H427.805L422.8 56.9146H482.506V65.532H447.101V127.876Z" fill="black"/>
<path d="M305.812 127.875H297.015V74.6792H305.793C305.793 74.6988 305.812 74.6988 305.812 74.7185C305.812 92.3459 305.819 109.973 305.832 127.601C305.832 127.699 305.812 127.758 305.812 127.875Z" fill="black"/>
<path d="M301.414 56.8948C301.99 56.8928 302.561 57.0083 303.092 57.2344C303.623 57.4604 304.103 57.7923 304.502 58.21C305.206 58.9313 305.639 59.8744 305.729 60.8797C305.819 61.885 305.561 62.8906 304.997 63.7264C304.433 64.5622 303.599 65.1767 302.636 65.4659C301.673 65.7552 300.64 65.7013 299.712 65.3135C298.784 64.9257 298.018 64.2278 297.543 63.3379C297.069 62.448 296.915 61.4209 297.109 60.4304C297.302 59.4399 297.83 58.5468 298.604 57.9025C299.378 57.2582 300.35 56.9022 301.355 56.8948H301.414Z" fill="black"/>
<path d="M160.496 83.0415C160.34 85.2989 160.301 87.5563 160.008 89.8137C157.095 113.585 146.049 132.646 126.655 146.602C112.188 157.026 95.8245 161.894 78.0339 161.266C57.4281 160.559 39.6766 152.864 24.7989 138.554C24.6621 138.417 24.6621 137.887 24.7989 137.749C43.3585 119.088 61.9442 100.433 80.5559 81.7852C80.9967 81.385 81.5649 81.1554 82.159 81.1374C108.278 81.0982 134.397 81.0851 160.516 81.0982L160.496 83.0415Z" fill="black"/>
<path d="M82.5109 0.793213C84.7005 0.95025 86.9096 1.0484 89.0993 1.30358C101.748 2.63631 113.892 7.00587 124.505 14.0432C124.579 14.0909 124.645 14.1506 124.7 14.2199L117.897 21.051C116.411 22.5428 114.925 24.0347 113.42 25.5069C113.328 25.5709 113.219 25.6052 113.107 25.6051C112.994 25.6198 112.88 25.6063 112.774 25.5658C101.931 19.2843 90.2397 16.3988 77.7015 16.9091C49.6862 18.028 25.2681 37.9521 18.5624 65.2766C14.3983 82.1973 16.7052 98.274 25.2681 113.467C25.3463 113.605 25.3659 113.919 25.2681 114.017L14.0659 125.265L13.9095 125.402C13.5576 124.852 13.2057 124.322 12.8734 123.773C3.62615 108.795 -0.440274 92.5028 0.869584 74.9147C3.62615 38.3643 30.7226 8.42914 66.773 2.06914C70.4093 1.42136 74.1434 1.26433 77.8384 0.871733L78.5813 0.793213H82.5109Z" fill="black"/>
<path d="M123.038 49.2392C123.041 45.893 124.2 42.6513 126.316 40.0664C128.433 37.4815 131.376 35.7131 134.645 35.0625C137.914 34.4119 141.307 34.9192 144.245 36.4982C147.184 38.0771 149.486 40.63 150.76 43.7219C152.034 46.8139 152.202 50.2538 151.234 53.4558C150.266 56.6578 148.222 59.4238 145.451 61.2827C142.68 63.1417 139.352 63.9786 136.036 63.651C132.719 63.3233 129.618 61.8514 127.261 59.4859C125.918 58.1465 124.854 56.5515 124.133 54.7944C123.41 53.0321 123.039 51.1449 123.038 49.2392Z" fill="black"/>
</svg>
