<svg fill="none" height="170" viewBox="0 0 1009 170" width="1009" xmlns="http://www.w3.org/2000/svg"><g fill="#000"><path d="m49.968 96.7738c4.8871.0023 9.6359-1.6229 13.4969-4.619l-30.9795-30.9961c-2.5291 3.2679-4.0909 7.1797-4.5082 11.2908s.3268 8.2569 2.1477 11.9663c1.8209 3.7095 4.6456 6.8339 8.1532 9.0184 3.5077 2.1845 7.5576 3.3415 11.6899 3.3396z"/><path d="m142.101 74.6721c.006-4.8928-1.619-9.648-4.619-13.5134l-30.975 30.9961c3.268 2.523 7.178 4.0797 11.285 4.4937 4.108.414 8.25-.3313 11.956-2.1515 3.706-1.8201 6.827-4.6423 9.011-8.1463 2.183-3.5041 3.341-7.5499 3.342-11.6786z"/><path d="m157.687 40.9623-13.708 13.7079c5.002 5.9837 7.582 13.6225 7.234 21.4132-.347 7.7908-3.598 15.1693-9.113 20.6836-5.514 5.514-12.892 8.765-20.683 9.113s-15.43-2.233-21.413-7.2342l-15.0203 15.0202-15.0158-15.0202c-5.9837 5.0012-13.6225 7.5822-21.4132 7.2342-7.7908-.348-15.1693-3.599-20.6836-9.113-5.5144-5.5143-8.7653-12.8928-9.113-20.6836-.3477-7.7907 2.233-15.4295 7.2342-21.4132l-7.0361-7.036-6.6636-6.6636c-8.06237 13.2709-12.3152716 28.5055-12.29250911 44.0335 0 46.9389 38.05290911 84.9959 84.99190911 84.9959s84.996-38.057 84.996-84.9959c.022-15.5316-4.234-30.7693-12.301-44.0418z"/><path d="m146.483 26.3348c-7.935-8.3223-17.476-14.9474-28.046-19.47411-10.57-4.52667-21.9492-6.86069-33.4477-6.86069-11.4986 0-22.8775 2.33402-33.4476 6.86069-10.5701 4.52671-20.1113 11.15181-28.0459 19.47411-2.1129 2.2099-4.1066 4.531-5.9724 6.9533l67.4638 67.4639 67.4638-67.4639c-1.865-2.4222-3.857-4.7433-5.968-6.9533zm-61.4958-15.2145c9.7121-.0498 19.3368 1.8387 28.3098 5.5549s17.115 9.1854 23.948 16.0873l-52.2578 52.2575-52.2534-52.2575c13.8942-13.9729 32.3868-21.6422 52.2534-21.6422z"/><path d="m188.038 105.649c0-32.9746 21.29-58.586 57.626-58.586 16.489 0 34.419 6.8829 46.103 20.3302l-18.882 16.005c-6.084-5.9227-15.045-11.2039-27.213-11.2039-16.166 0-29.614 12.3255-29.614 33.4547 0 18.41 11.366 33.459 30.736 33.459 6.883.085 13.669-1.627 19.688-4.967v-13.46h-22.105v-22.0765h47.7v51.0485c-10.405 8.005-27.693 13.928-45.3 13.928-32.817.016-58.739-20.964-58.739-57.932z"/><path d="m308.568 84.0392h24.974v9.1056h.319c6.076-7.0237 14.407-10.5418 23.534-10.5418 16.166 0 28.012 8.0046 28.012 32.813v46.902h-24.97v-40.81c0-12.967-4.325-16.646-12.487-16.646-8.646 0-14.408 5.923-14.408 18.087v39.369h-24.974z"/><path d="m397.881 123.259c0-23.8521 17.127-40.6601 42.419-40.6601 24.651 0 42.262 16.4851 42.262 40.6601 0 24.006-17.611 40.499-42.262 40.499-25.28 0-42.419-16.808-42.419-40.499zm59.389 0c0-10.885-7.206-18.41-16.97-18.41-10.086 0-17.126 7.682-17.126 18.41 0 10.405 7.201 18.406 17.126 18.406 9.458 0 16.982-7.682 16.982-18.406z"/><path d="m489.937 152.231 11.684-16.166c6.564 5.923 13.285 8.803 20.491 8.803 4.967 0 7.521-1.759 7.521-4.643 0-2.558-2.401-4.16-12.165-7.202-13.124-4.002-24.651-10.405-24.651-25.454 0-15.848 12.967-24.9701 29.295-24.9701 11.846 0 20.488 3.0421 29.614 9.7636l-11.846 17.4495c-5.442-5.443-12.168-8.166-17.449-8.166-2.897 0-6.242 1.283-6.242 4.325 0 2.401 2.898 4.16 10.724 6.883 17.288 5.923 26.733 10.405 26.733 25.773 0 14.565-10.405 25.131-31.869 25.131-12.313 0-23.198-3.841-31.84-11.527z"/><path d="m564.857 59.8686c0-7.6859 6.242-14.0722 14.9-14.0722 8.659 0 15.045 6.2456 15.045 14.0722 0 8.1619-6.403 14.4074-15.045 14.4074s-14.9-6.2455-14.9-14.4074zm2.401 24.171h24.974v78.2784h-24.974z"/><path d="m604.232 152.231 11.684-16.166c6.565 5.923 13.29 8.803 20.492 8.803 4.967 0 7.525-1.759 7.525-4.643 0-2.558-2.401-4.16-12.169-7.202-13.124-4.002-24.651-10.405-24.651-25.454 0-15.848 12.967-24.9701 29.295-24.9701 11.846 0 20.492 3.0421 29.614 9.7636l-11.846 17.4495c-5.442-5.443-12.164-8.166-17.449-8.166-2.897 0-6.242 1.283-6.242 4.325 0 2.401 2.898 4.16 10.724 6.883 17.288 5.923 26.733 10.405 26.733 25.773 0 14.565-10.405 25.131-31.869 25.131-12.309 0-23.194-3.841-31.841-11.527z"/><path d="m682.349 48.6646h39.377c36.008 0 59.07 23.3722 59.07 56.9884 0 33.459-21.771 56.669-58.59 56.669h-39.857zm38.077 89.8134c19.528 0 32.337-14.407 32.337-32.817 0-19.0388-12.967-33.1358-30.416-33.1358h-13.928v65.9528z"/><path d="m823.221 48.6646h25.612l41.62 113.6534h-27.854l-6.722-20.491h-39.7l-6.721 20.491h-28.017zm25.612 70.7744-12.64-38.4415h-.323l-12.508 38.4175z"/><path d="m891.236 105.492c0-34.258 24.006-58.429 58.59-58.429 33.939 0 58.424 23.5295 58.424 58.429 0 34.733-24.489 58.267-58.424 58.267-34.563 0-58.59-24.014-58.59-58.267zm88.986 0c0-18.8903-12.805-33.4592-30.412-33.4592-17.93 0-30.574 14.9-30.574 33.4592 0 18.558 12.644 33.454 30.574 33.454 17.636 0 30.441-14.569 30.441-33.454z"/></g></svg>