<svg fill="none" height="170" viewBox="0 0 957 170" width="957" xmlns="http://www.w3.org/2000/svg"><path d="m0 0h23.1488v78.4893h1.0852l13.5638-14.8298 22.9681-23.149h26.9468l-37.0745 36.7129 41.0532 56.6066h-27.6703l-29.8402-43.4046-11.0321 10.4896v32.915h-23.1488zm183.132 133.83c-5.668 0-10.068-1.387-13.203-4.16-3.013-2.894-4.823-6.872-5.426-11.936h-.904c-1.687 5.787-5.004 10.308-9.946 13.564-4.944 3.134-11.032 4.702-18.266 4.702-9.405 0-16.88-2.472-22.426-7.415s-8.319-11.816-8.319-20.617c0-18.8085 13.805-28.2128 41.415-28.2128h16.457v-6.1489c0-5.9078-1.447-10.3688-4.34-13.383-2.894-3.0141-7.596-4.5213-14.107-4.5213-5.907 0-10.67 1.1455-14.287 3.4362-3.617 2.2908-6.691 5.2448-9.223 8.8616l-13.202-11.2126c2.893-5.1845 7.535-9.5249 13.925-13.0213 6.511-3.617 14.89-5.4256 25.139-5.4256 12.297 0 21.883 2.8937 28.755 8.681 6.992 5.6666 10.489 14.1666 10.489 25.4998v43.9469h11.033v17.362zm-39.969-13.745c5.546 0 10.128-1.266 13.744-3.798 3.738-2.652 5.607-6.209 5.607-10.67v-12.4788h-15.915c-12.659 0-18.989 3.9787-18.989 11.9358v3.617c0 3.738 1.387 6.571 4.16 8.5s6.571 2.894 11.393 2.894zm73.355-4.521h23.148v-56.7875h-23.148v-18.266h46.298v25.5001h1.446c.844-3.2554 1.99-6.3902 3.437-9.4043 1.567-3.1348 3.497-5.8475 5.787-8.1383 2.412-2.4113 5.305-4.3404 8.681-5.7873 3.375-1.4467 7.414-2.1702 12.118-2.1702h10.126v21.7021h-19.169c-6.993 0-12.479 2.0498-16.458 6.1491-3.978 4.0991-5.968 9.3439-5.968 15.7339v31.4684h32.372v18.266h-78.67zm107.355-75.0535h23.149v16.4575h1.265c2.532-5.6667 5.968-10.188 10.309-13.5638 4.461-3.376 10.308-5.0639 17.543-5.0639 5.305 0 10.128 1.0249 14.467 3.0745 4.462 1.9291 8.259 4.9433 11.394 9.0426 3.136 3.9787 5.546 9.0426 7.235 15.1915 1.688 6.1489 2.531 13.3227 2.531 21.5212 0 8.1986-.843 15.3719-2.531 21.5209-1.689 6.149-4.099 11.273-7.235 15.373-3.135 3.978-6.932 6.993-11.394 9.042-4.339 1.929-9.162 2.894-14.467 2.894-7.235 0-13.082-1.688-17.543-5.064-4.341-3.376-7.777-7.897-10.309-13.564h-1.265v52.628h-23.149zm42.5 77.0425c6.751 0 11.936-2.05 15.553-6.149 3.738-4.099 5.607-9.706 5.607-16.8191v-14.8297c0-7.1134-1.869-12.7198-5.607-16.8191-3.617-4.0993-8.802-6.1489-15.553-6.1489-5.305 0-9.886 1.3262-13.745 3.9787-3.738 2.5319-5.606 6.4503-5.606 11.7552v29.2979c0 5.305 1.868 9.284 5.606 11.936 3.859 2.532 8.44 3.798 13.745 3.798zm142.077 16.277c-5.666 0-10.066-1.387-13.201-4.16-3.015-2.894-4.823-6.872-5.426-11.936h-.904c-1.688 5.787-5.004 10.308-9.947 13.564-4.943 3.134-11.031 4.702-18.266 4.702-9.404 0-16.879-2.472-22.426-7.415-5.545-4.943-8.319-11.816-8.319-20.617 0-18.8085 13.806-28.2128 41.416-28.2128h16.457v-6.1489c0-5.9078-1.447-10.3688-4.341-13.383-2.893-3.0141-7.595-4.5213-14.106-4.5213-5.908 0-10.671 1.1455-14.288 3.4362-3.616 2.2908-6.691 5.2448-9.223 8.8616l-13.201-11.2126c2.893-5.1845 7.535-9.5249 13.925-13.0213 6.511-3.617 14.889-5.4256 25.138-5.4256 12.298 0 21.883 2.8937 28.755 8.681 6.993 5.6666 10.489 14.1666 10.489 25.4998v43.9469h11.032v17.362zm-39.967-13.745c5.546 0 10.127-1.266 13.744-3.798 3.738-2.652 5.607-6.209 5.607-10.67v-12.4788h-15.915c-12.66 0-18.99 3.9787-18.99 11.9358v3.617c0 3.738 1.387 6.571 4.16 8.5s6.571 2.894 11.394 2.894zm120.376 13.745c-8.922 0-15.493-2.352-19.713-7.054-4.219-4.702-6.33-10.79-6.33-18.266v-49.7335h-27.128v-18.266h18.448c3.736 0 6.389-.7233 7.958-2.1702 1.567-1.5673 2.35-4.28 2.35-8.1381v-22.60647h21.522v32.91477h37.978v18.266h-37.978v56.7875h37.978v18.266zm61.781-133.83h23.148v78.4893h1.085l13.564-14.8298 22.968-23.149h26.947l-37.075 36.7129 41.053 56.6066h-27.67l-29.84-43.4046-11.032 10.4896v32.915h-23.148zm150.94 136c-7.476 0-14.108-1.146-19.895-3.436-5.787-2.291-10.669-5.546-14.649-9.766-3.858-4.22-6.812-9.284-8.862-15.192-2.049-6.028-3.073-12.7799-3.073-20.255 0-7.5958 1.024-14.4079 3.073-20.4362 2.17-6.0284 5.186-11.1525 9.043-15.3724 3.858-4.2198 8.5-7.4751 13.926-9.7659 5.546-2.2907 11.755-3.4362 18.627-3.4362 6.752 0 12.84 1.1455 18.266 3.4362 5.426 2.1703 10.007 5.3051 13.745 9.4042 3.858 4.0994 6.812 9.0426 8.862 14.8299 2.049 5.7872 3.075 12.1772 3.075 19.1702v7.5957h-65.469v2.351c0 6.7515 2.111 12.2375 6.331 16.4575 4.219 4.099 10.127 6.149 17.722 6.149 5.787 0 10.731-1.145 14.83-3.436 4.219-2.412 7.717-5.546 10.489-9.405l13.202 13.203c-3.376 4.943-8.318 9.163-14.829 12.659-6.39 3.497-14.529 5.245-24.414 5.245zm-1.629-80.6596c-6.511 0-11.755 2.0495-15.734 6.1489-3.978 4.0993-5.968 9.5248-5.968 16.2765v1.2661h42.319v-1.6278c0-6.7518-1.869-12.117-5.607-16.0957-3.616-3.9788-8.62-5.968-15.01-5.968zm133.398-14.8299h23.509l-44.669 109.9575c-2.532 6.391-5.908 11.213-10.128 14.467-4.22 3.377-10.187 5.065-17.904 5.065h-17.001v-18.266h22.246l7.053-18.809-37.617-92.4145h24.596l14.286 39.0638 9.947 29.6597h1.266l9.947-29.6597z" fill="#151515"/></svg>