<svg width="1109" height="398" viewBox="0 0 1109 398" fill="none" xmlns="http://www.w3.org/2000/svg">
<path fill-rule="evenodd" clip-rule="evenodd" d="M641.735 146C663.942 146 680.214 156.377 684.614 174.039L684.922 175.377L659.664 180.374C657.793 170.834 649.686 166.14 641.423 166.14C632.848 166.14 627.391 170.683 627.391 176.437C627.391 180.299 629.06 183.215 634.762 184.675L635.81 184.917L657.482 189.611C675.567 193.549 686.169 203.089 686.169 219.14C686.169 240.794 666.369 252 643.138 252C620.119 252 601.124 241.576 597.668 222.569L597.456 221.26L623.961 216.263C626.611 226.711 634.095 231.254 644.541 231.254C654.207 231.254 659.976 227.014 659.976 220.806C659.976 216.502 658.017 213.693 651.448 212.122L650.31 211.871L628.482 207.329C627.673 207.148 626.87 206.956 626.073 206.75L623.708 206.091C610.836 202.233 600.418 194.428 600.418 177.951C600.418 158.266 617.257 146 641.735 146ZM345.185 148.789L345.184 193.862L382.761 148.789H411.709L373.605 194.487L411.685 249.209H384.617L358.851 212.183L345.184 228.574L345.185 249.211H323V148.789H345.185ZM492.109 148.789V165.526H442.208V190.632H492.109V207.368H442.208V232.474H492.109V249.211H420.03V148.789H492.109ZM523.991 148.789L548.941 191.273L573.892 148.789H598.842L560.03 216.479V249.211H537.852V216.479L499.04 148.789H523.991ZM1067 149.312V166.059H1016.96V191.179H1067V207.925H1016.96V233.045H1067V249.792H994.718V149.312H1067ZM775.091 149.312V171.641H744.51V249.792H722.269V171.641H691.688V149.312H775.091ZM826.523 149.312C854.16 149.312 876.564 171.806 876.564 199.552C876.564 227.299 854.16 249.792 826.523 249.792C798.885 249.792 776.481 227.299 776.481 199.552C776.481 171.806 798.885 149.312 826.523 149.312ZM826.523 173.316C812.09 173.316 800.39 185.062 800.39 199.552C800.39 214.042 812.09 225.788 826.523 225.788C840.955 225.788 852.655 214.042 852.655 199.552C852.655 185.062 840.955 173.316 826.523 173.316ZM907.145 149.312L957.187 214.205V149.312H979.427V249.792H957.187L907.145 184.899V249.792H884.904V149.312H907.145Z" fill="black"/>
<path fill-rule="evenodd" clip-rule="evenodd" d="M128.19 233.73C129.394 234.426 130.502 235.276 131.485 236.258L176.169 280.871C185.55 290.237 185.658 305.375 176.483 314.873L176.11 315.251L168.757 322.543C162.783 328.467 153.739 330.018 146.132 326.425L95.0712 302.304C85.0839 297.586 80.8122 285.665 85.5302 275.677C85.7665 275.177 86.0235 274.687 86.3004 274.208L106.33 239.572C110.754 231.922 120.541 229.307 128.19 233.73ZM147.562 70.4195C149.399 71.4738 150.923 72.9952 151.981 74.8293L162.107 92.3789C165.679 98.5704 165.675 106.198 162.097 112.386L67.2612 276.385C65.3989 279.605 61.2785 280.706 58.0581 278.844C57.0449 278.258 56.2019 277.418 55.6121 276.407C51.734 269.761 48.7757 262.619 46.8183 255.177L45.2818 249.335C42.4072 238.405 43.9502 226.783 49.5773 216.982L131.181 74.8513C134.481 69.1038 141.815 67.1196 147.562 70.4195ZM184.754 135.914C187.183 137.319 189.201 139.338 190.603 141.769L211.987 178.831C216.403 186.485 213.778 196.27 206.124 200.686C203.693 202.089 200.935 202.827 198.128 202.827H151.847C144.115 202.827 137.847 196.559 137.847 188.827C137.847 186.366 138.495 183.949 139.727 181.819L162.894 141.756C167.317 134.106 177.104 131.491 184.754 135.914Z" fill="black"/>
<path fill-rule="evenodd" clip-rule="evenodd" d="M241.851 230.589C246.064 237.89 244.828 247.114 238.842 253.049L217.061 274.645C210.027 281.62 198.68 281.6 191.67 274.601L152.282 235.276C148.374 231.374 148.369 225.042 152.271 221.134C154.147 219.255 156.693 218.199 159.348 218.199H220.399C229.25 218.199 237.428 222.922 241.851 230.589Z" fill="black"/>
</svg>
