<svg width="462" height="84" viewBox="0 0 462 84" fill="none" xmlns="http://www.w3.org/2000/svg">
<g clip-path="url(#clip0_48_261)">
<path d="M158.092 62.3522H191.613V72.9994H144.774V9.6814H158.069V62.3522H158.092Z" fill="black"/>
<path d="M204.151 18.1379C201.383 18.1379 199.325 17.549 197.976 16.3712C196.628 15.1934 195.966 13.4503 195.966 11.1418C195.966 8.78622 196.628 6.99598 197.976 5.81819C199.325 4.6404 201.383 4.05151 204.151 4.05151C206.918 4.05151 208.976 4.6404 210.325 5.81819C211.673 6.99598 212.359 8.78622 212.359 11.1418C212.359 13.4503 211.673 15.1934 210.325 16.3712C208.976 17.549 206.918 18.1379 204.151 18.1379ZM210.703 25.0397V73.0229H197.503V25.0397H210.703Z" fill="black"/>
<path d="M220.828 73.0231V25.0399H232.68L233.153 33.6849C234.761 30.4813 236.961 28.0786 239.753 26.5004C242.544 24.8986 245.643 24.0977 249.049 24.0977C252.527 24.0977 255.649 24.8986 258.441 26.5004C261.232 28.1022 263.338 30.4578 264.757 33.5907C265.774 31.4707 267.17 29.7275 268.897 28.3142C270.624 26.9008 272.563 25.8644 274.669 25.1577C276.774 24.451 278.95 24.0977 281.127 24.0977C284.273 24.0977 287.159 24.7337 289.761 26.0057C292.363 27.2777 294.445 29.2093 295.983 31.7533C297.52 34.2974 298.301 37.5716 298.301 41.529V72.9995H285.101V44.1201C285.101 40.6103 284.32 38.1134 282.783 36.6294C281.245 35.1689 279.258 34.4151 276.798 34.4151C274.882 34.4151 273.084 34.8863 271.452 35.852C269.819 36.8178 268.518 38.2312 267.596 40.1156C266.673 42.0001 266.2 44.3557 266.2 47.1588V72.976H253V44.1201C253 40.6103 252.219 38.1134 250.634 36.6294C249.049 35.1689 247.062 34.4151 244.602 34.4151C242.923 34.4151 241.267 34.8627 239.634 35.7578C238.002 36.6529 236.654 38.0663 235.589 39.9743C234.525 41.8823 234.004 44.4264 234.004 47.5593V72.976H220.828V73.0231Z" fill="black"/>
<path d="M314.671 18.1379C311.903 18.1379 309.845 17.549 308.497 16.3712C307.148 15.1934 306.486 13.4503 306.486 11.1418C306.486 8.78622 307.148 6.99598 308.497 5.81819C309.845 4.6404 311.903 4.05151 314.671 4.05151C317.439 4.05151 319.497 4.6404 320.845 5.81819C322.194 6.99598 322.88 8.78622 322.88 11.1418C322.88 13.4503 322.194 15.1934 320.845 16.3712C319.497 17.549 317.439 18.1379 314.671 18.1379ZM321.224 25.0397V73.0229H308.024V25.0397H321.224Z" fill="black"/>
<path d="M331.348 73.0231V25.0399H343.2L343.981 39.4325L342.348 37.9014C343.129 34.7685 344.335 32.2009 346.015 30.1751C347.695 28.1493 349.729 26.6417 352.142 25.6288C354.555 24.6159 357.204 24.0977 360.09 24.0977C363.426 24.0977 366.406 24.7337 369.009 26.0057C371.611 27.2777 373.669 29.2093 375.183 31.8004C376.697 34.3916 377.454 37.6423 377.454 41.529V72.9995H364.254V45.2744C364.254 41.1757 363.45 38.349 361.841 36.7707C360.232 35.1925 358.151 34.4151 355.572 34.4151C353.774 34.4151 352.024 34.8391 350.32 35.7107C348.617 36.5823 347.245 37.9721 346.181 39.8801C345.116 41.7881 344.596 44.3557 344.596 47.5593V72.976H331.348V73.0231Z" fill="black"/>
<path d="M414.594 42.4004C414.594 39.6444 413.813 37.5008 412.228 35.9697C410.643 34.4386 408.585 33.6612 406.006 33.6612C403.641 33.6612 401.535 34.2737 399.738 35.475C397.94 36.6999 396.615 38.7022 395.787 41.5289L384.503 38.0662C385.591 33.8497 387.981 30.4577 391.671 27.8901C395.361 25.3225 400.329 24.0505 406.551 24.0505C410.785 24.0505 414.475 24.71 417.621 26.0056C420.768 27.3012 423.228 29.2799 425.002 31.8946C426.776 34.5093 427.652 37.8071 427.652 41.788V61.2686C427.652 63.6949 428.811 64.9198 431.129 64.9198C432.217 64.9198 433.258 64.7549 434.204 64.4487L433.424 72.599C431.744 73.4234 429.662 73.8474 427.155 73.8474C424.908 73.8474 422.873 73.4705 421.075 72.6932C419.277 71.9159 417.858 70.7616 416.841 69.1834C415.8 67.6051 415.303 65.65 415.303 63.2944V62.9175L417.621 62.5406C417.243 64.9669 416.178 67.0398 414.452 68.7358C412.725 70.4318 410.619 71.7274 408.135 72.6225C405.652 73.5177 403.12 73.9652 400.471 73.9652C397.206 73.9652 394.368 73.4705 392.002 72.4812C389.637 71.4919 387.791 70.0314 386.514 68.1234C385.237 66.2154 384.598 63.8362 384.598 61.0331C384.598 57.4526 385.757 54.5317 388.075 52.2468C390.394 49.9854 393.705 48.4307 398.011 47.5827L416.131 43.9316L416.037 52.0819L404.469 54.3903C402.292 54.8379 400.637 55.4268 399.501 56.157C398.366 56.8873 397.821 58.0886 397.821 59.7611C397.821 61.3629 398.413 62.5878 399.596 63.4122C400.778 64.2367 402.221 64.6607 403.877 64.6607C405.226 64.6607 406.55 64.4958 407.828 64.1896C409.105 63.8598 410.264 63.3651 411.305 62.6584C412.323 61.9518 413.127 60.986 413.718 59.7846C414.286 58.5597 414.594 57.0993 414.594 55.3797V42.4004Z" fill="black"/>
<path d="M451.591 4.02808V58.2299C451.591 60.4677 451.97 62.046 452.75 62.9411C453.531 63.8362 454.809 64.2838 456.606 64.2838C457.695 64.2838 458.594 64.2131 459.303 64.0482C460.013 63.8833 460.912 63.6478 462 63.318L460.841 71.963C459.753 72.599 458.381 73.0937 456.748 73.447C455.116 73.8003 453.484 73.9652 451.875 73.9652C447.191 73.9652 443.761 72.8345 441.609 70.5496C439.456 68.2883 438.391 64.6607 438.391 59.6669V4.02808H451.591Z" fill="black"/>
<path d="M42.1785 84C18.9247 84 0 65.1554 0 42C0 18.8446 18.9247 0 42.1785 0C65.4323 0 84.357 18.8446 84.357 42H72.529C72.529 25.346 58.9032 11.7779 42.1785 11.7779C25.4538 11.7779 11.828 25.346 11.828 42C11.828 58.654 25.4538 72.2221 42.1785 72.2221C47.5011 72.2221 52.729 70.8323 57.2946 68.2176L63.2086 78.4173C56.8215 82.0684 49.5591 84 42.1785 84Z" fill="black"/>
<path d="M78.3015 84C70.495 84 62.8778 81.8564 56.2778 77.8284C43.6692 70.1256 36.123 56.7224 36.123 42C36.123 27.0185 44.2369 13.0735 57.2713 5.58273C63.6348 1.93158 70.8971 0 78.3015 0C101.555 0 120.48 18.8446 120.48 42C120.48 65.1554 101.555 84 78.3015 84ZM78.3015 11.7779C72.9789 11.7779 67.7509 13.1677 63.1853 15.7824C53.7939 21.1767 47.9509 31.2114 47.9509 42C47.9509 52.6001 53.3681 62.2344 62.452 67.7936C67.2068 70.691 72.695 72.2221 78.3015 72.2221C95.0262 72.2221 108.652 58.654 108.652 42C108.652 25.346 95.0498 11.7779 78.3015 11.7779Z" fill="black"/>
<path d="M158.092 62.3522H191.613V72.9994H144.774V9.6814H158.069V62.3522H158.092Z" fill="black"/>
<path d="M204.151 18.1379C201.383 18.1379 199.325 17.549 197.976 16.3712C196.628 15.1934 195.966 13.4503 195.966 11.1418C195.966 8.78622 196.628 6.99598 197.976 5.81819C199.325 4.6404 201.383 4.05151 204.151 4.05151C206.918 4.05151 208.976 4.6404 210.325 5.81819C211.673 6.99598 212.359 8.78622 212.359 11.1418C212.359 13.4503 211.673 15.1934 210.325 16.3712C208.976 17.549 206.918 18.1379 204.151 18.1379ZM210.703 25.0397V73.0229H197.503V25.0397H210.703Z" fill="black"/>
<path d="M220.828 73.0231V25.0399H232.68L233.153 33.6849C234.761 30.4813 236.961 28.0786 239.753 26.5004C242.544 24.8986 245.643 24.0977 249.049 24.0977C252.527 24.0977 255.649 24.8986 258.441 26.5004C261.232 28.1022 263.338 30.4578 264.757 33.5907C265.774 31.4707 267.17 29.7275 268.897 28.3142C270.624 26.9008 272.563 25.8644 274.669 25.1577C276.774 24.451 278.95 24.0977 281.127 24.0977C284.273 24.0977 287.159 24.7337 289.761 26.0057C292.363 27.2777 294.445 29.2093 295.983 31.7533C297.52 34.2974 298.301 37.5716 298.301 41.529V72.9995H285.101V44.1201C285.101 40.6103 284.32 38.1134 282.783 36.6294C281.245 35.1689 279.258 34.4151 276.798 34.4151C274.882 34.4151 273.084 34.8863 271.452 35.852C269.819 36.8178 268.518 38.2312 267.596 40.1156C266.673 42.0001 266.2 44.3557 266.2 47.1588V72.976H253V44.1201C253 40.6103 252.219 38.1134 250.634 36.6294C249.049 35.1689 247.062 34.4151 244.602 34.4151C242.923 34.4151 241.267 34.8627 239.634 35.7578C238.002 36.6529 236.654 38.0663 235.589 39.9743C234.525 41.8823 234.004 44.4264 234.004 47.5593V72.976H220.828V73.0231Z" fill="black"/>
<path d="M314.671 18.1379C311.903 18.1379 309.845 17.549 308.497 16.3712C307.148 15.1934 306.486 13.4503 306.486 11.1418C306.486 8.78622 307.148 6.99598 308.497 5.81819C309.845 4.6404 311.903 4.05151 314.671 4.05151C317.439 4.05151 319.497 4.6404 320.845 5.81819C322.194 6.99598 322.88 8.78622 322.88 11.1418C322.88 13.4503 322.194 15.1934 320.845 16.3712C319.497 17.549 317.439 18.1379 314.671 18.1379ZM321.224 25.0397V73.0229H308.024V25.0397H321.224Z" fill="black"/>
<path d="M331.348 73.0231V25.0399H343.2L343.981 39.4325L342.348 37.9014C343.129 34.7685 344.335 32.2009 346.015 30.1751C347.695 28.1493 349.729 26.6417 352.142 25.6288C354.555 24.6159 357.204 24.0977 360.09 24.0977C363.426 24.0977 366.406 24.7337 369.009 26.0057C371.611 27.2777 373.669 29.2093 375.183 31.8004C376.697 34.3916 377.454 37.6423 377.454 41.529V72.9995H364.254V45.2744C364.254 41.1757 363.45 38.349 361.841 36.7707C360.232 35.1925 358.151 34.4151 355.572 34.4151C353.774 34.4151 352.024 34.8391 350.32 35.7107C348.617 36.5823 347.245 37.9721 346.181 39.8801C345.116 41.7881 344.596 44.3557 344.596 47.5593V72.976H331.348V73.0231Z" fill="black"/>
<path d="M414.594 42.4004C414.594 39.6444 413.813 37.5008 412.228 35.9697C410.643 34.4386 408.585 33.6612 406.006 33.6612C403.641 33.6612 401.535 34.2737 399.738 35.475C397.94 36.6999 396.615 38.7022 395.787 41.5289L384.503 38.0662C385.591 33.8497 387.981 30.4577 391.671 27.8901C395.361 25.3225 400.329 24.0505 406.551 24.0505C410.785 24.0505 414.475 24.71 417.621 26.0056C420.768 27.3012 423.228 29.2799 425.002 31.8946C426.776 34.5093 427.652 37.8071 427.652 41.788V61.2686C427.652 63.6949 428.811 64.9198 431.129 64.9198C432.217 64.9198 433.258 64.7549 434.204 64.4487L433.424 72.599C431.744 73.4234 429.662 73.8474 427.155 73.8474C424.908 73.8474 422.873 73.4705 421.075 72.6932C419.277 71.9159 417.858 70.7616 416.841 69.1834C415.8 67.6051 415.303 65.65 415.303 63.2944V62.9175L417.621 62.5406C417.243 64.9669 416.178 67.0398 414.452 68.7358C412.725 70.4318 410.619 71.7274 408.135 72.6225C405.652 73.5177 403.12 73.9652 400.471 73.9652C397.206 73.9652 394.368 73.4705 392.002 72.4812C389.637 71.4919 387.791 70.0314 386.514 68.1234C385.237 66.2154 384.598 63.8362 384.598 61.0331C384.598 57.4526 385.757 54.5317 388.075 52.2468C390.394 49.9854 393.705 48.4307 398.011 47.5827L416.131 43.9316L416.037 52.0819L404.469 54.3903C402.292 54.8379 400.637 55.4268 399.501 56.157C398.366 56.8873 397.821 58.0886 397.821 59.7611C397.821 61.3629 398.413 62.5878 399.596 63.4122C400.778 64.2367 402.221 64.6607 403.877 64.6607C405.226 64.6607 406.55 64.4958 407.828 64.1896C409.105 63.8598 410.264 63.3651 411.305 62.6584C412.323 61.9518 413.127 60.986 413.718 59.7846C414.286 58.5597 414.594 57.0993 414.594 55.3797V42.4004Z" fill="black"/>
<path d="M451.591 4.02808V58.2299C451.591 60.4677 451.97 62.046 452.75 62.9411C453.531 63.8362 454.809 64.2838 456.606 64.2838C457.695 64.2838 458.594 64.2131 459.303 64.0482C460.013 63.8833 460.912 63.6478 462 63.318L460.841 71.963C459.753 72.599 458.381 73.0937 456.748 73.447C455.116 73.8003 453.484 73.9652 451.875 73.9652C447.191 73.9652 443.761 72.8345 441.609 70.5496C439.456 68.2883 438.391 64.6607 438.391 59.6669V4.02808H451.591Z" fill="black"/>
<path d="M42.1785 84C18.9247 84 0 65.1554 0 42C0 18.8446 18.9247 0 42.1785 0C65.4323 0 84.357 18.8446 84.357 42H72.529C72.529 25.346 58.9032 11.7779 42.1785 11.7779C25.4538 11.7779 11.828 25.346 11.828 42C11.828 58.654 25.4538 72.2221 42.1785 72.2221C47.5011 72.2221 52.729 70.8323 57.2946 68.2176L63.2086 78.4173C56.8215 82.0684 49.5591 84 42.1785 84Z" fill="black"/>
<path d="M78.3015 84C70.495 84 62.8778 81.8564 56.2778 77.8284C43.6692 70.1256 36.123 56.7224 36.123 42C36.123 27.0185 44.2369 13.0735 57.2713 5.58273C63.6348 1.93158 70.8971 0 78.3015 0C101.555 0 120.48 18.8446 120.48 42C120.48 65.1554 101.555 84 78.3015 84ZM78.3015 11.7779C72.9789 11.7779 67.7509 13.1677 63.1853 15.7824C53.7939 21.1767 47.9509 31.2114 47.9509 42C47.9509 52.6001 53.3681 62.2344 62.452 67.7936C67.2068 70.691 72.695 72.2221 78.3015 72.2221C95.0262 72.2221 108.652 58.654 108.652 42C108.652 25.346 95.0498 11.7779 78.3015 11.7779Z" fill="black"/>
</g>
<defs>
<clipPath id="clip0_48_261">
<rect width="462" height="84" fill="white"/>
</clipPath>
</defs>
</svg>
