<svg width="208" height="49" viewBox="0 0 208 49" fill="none" xmlns="http://www.w3.org/2000/svg">
<g clip-path="url(#clip0_1_1728)">
<path fill-rule="evenodd" clip-rule="evenodd" d="M39.3708 28.4301C38.0288 28.8192 36.612 29.0275 35.1474 29.0275C26.6475 29.0275 19.757 22.011 19.757 13.3556C19.757 11.8111 19.9764 10.3188 20.3852 8.90918H4.43817C1.98704 8.90918 0 10.9326 0 13.4285V44.4808C0 46.9767 1.98704 49.0001 4.43817 49.0001H34.9327C37.3838 49.0001 39.3708 46.9767 39.3708 44.4808V28.4301Z" fill="black"/>
<path d="M48.1198 11.1364C48.1198 17.2868 43.2234 22.2727 37.1834 22.2727C31.1434 22.2727 26.2471 17.2868 26.2471 11.1364C26.2471 4.98592 31.1434 0 37.1834 0C43.2234 0 48.1198 4.98592 48.1198 11.1364Z" fill="black"/>
<path d="M94.7955 31.7562V48.6632H101.691V31.7562C101.691 21.3648 96.3951 14.5684 88.0108 14.5684C83.9289 14.5684 80.2883 17.0398 79.0748 20.4661V14.9615H72.1797V48.6632H79.0748V31.8124C79.0748 25.8584 82.3292 21.5895 86.7972 21.5895C91.6513 21.5895 94.7955 25.5776 94.7955 31.7562Z" fill="black"/>
<path d="M106.299 31.7562C106.299 41.5297 113.415 49.0002 122.571 49.0002C131.728 49.0002 138.788 41.5297 138.788 31.7562C138.788 22.0389 131.728 14.5684 122.571 14.5684C113.415 14.5684 106.299 22.0389 106.299 31.7562ZM122.571 21.5895C127.867 21.5895 131.893 25.9707 131.893 31.7562C131.893 37.5978 127.867 41.979 122.571 41.979C117.276 41.979 113.194 37.5978 113.194 31.7562C113.194 25.9707 117.276 21.5895 122.571 21.5895Z" fill="black"/>
<path d="M148.575 7.82788L146.92 14.9614H142.011V21.5894H146.92V37.0922C146.92 45.3491 150.23 48.6631 158.118 48.6631H160.986V41.6981H158.779C155.359 41.6981 153.815 40.1815 153.815 36.699V21.5894H160.986V14.9614H153.815V7.82788H148.575Z" fill="black"/>
<path d="M172.676 48.6631V14.9614H165.781V48.6631H172.676Z" fill="black"/>
<path d="M208 48.6631V14.9614H189.025V12.49C189.025 9.00749 190.569 7.43471 193.989 7.43471H196.195V0.525879H193.327C185.439 0.525879 182.129 3.78373 182.129 12.0968V14.9614H177.275V21.5894H182.129V48.6631H189.025V21.5894H201.105V48.6631H208Z" fill="black"/>
<path fill-rule="evenodd" clip-rule="evenodd" d="M168.431 0C166.482 0 165.781 1.08892 165.781 2.63757V8.26733H171.187C173.064 8.26733 173.9 7.59807 173.9 5.71066V2.63757C173.9 0.871146 172.755 0 170.997 0H168.431Z" fill="black"/>
</g>
<defs>
<clipPath id="clip0_1_1728">
<rect width="208" height="49" fill="white"/>
</clipPath>
</defs>
</svg>
