<svg fill="none" height="170" viewBox="0 0 904 170" width="904" xmlns="http://www.w3.org/2000/svg"><g fill="#000"><path d="m212.5 170-98.279-170-98.2835 170zm-167.3445-90.3125 45.157-79.6875h-90.3125zm127.2065 67.8105h-116.284l58.143-100.5755z"/><path d="m775.535 118.645c3.575 0 7.06-.124 10.46-.371 3.405-.244 6.495-.565 9.29-.957 2.785-.395 5.235-.763 7.36-1.107 2.11-.344 3.73-.665 4.855-.96v-48.108c0-4.0305-.555-7.7665-1.68-11.2115-1.115-3.4425-2.905-6.4195-5.345-8.928-2.465-2.5125-5.675-4.479-9.625-5.904-3.96-1.425-8.79-2.141-14.47-2.141-5.58 0-10.35.348-14.31 1.0335-3.96.6895-6.89 1.425-8.78 2.211l1.505 8.4125c1.45-.4915 3.74-1.127 6.855-1.9165 3.13-.786 7.865-1.1805 14.225-1.1805 4.455 0 8.055.612 10.79 1.8435 2.735 1.234 4.855 2.8565 6.365 4.873 1.495 2.014 2.475 4.275 2.92 6.7875.38 2.144.565 4.355.625 6.6095h.04v1.034c0 .0365.01.0665.01.1035v4.7225h-.01v8.41h.01v26.857c-2.235.394-4.94.715-8.12.959-3.175.248-6.89.369-11.13.369-3.45 0-6.55-.272-9.285-.814-2.725-.538-5.075-1.397-7.025-2.578s-3.46-2.753-4.515-4.727c-1.065-1.967-1.59-4.3715-1.59-7.2285 0-3.248.78-5.85 2.34-7.8205 1.56-1.967 3.57-3.5185 6.03-4.65 2.445-1.13 5.125-1.866 8.025-2.2145 2.905-.3405 5.695-.511 8.37-.511 2.1 0 3.975.06 5.67.1705v-8.1685c-.14-.01-.27-.0335-.405-.047-1.73-.151-3.375-.2245-4.935-.2245-5.235 0-10.09.4455-14.555 1.3315-4.46.8865-8.31 2.288-11.545 4.2045-3.23 1.921-5.745 4.352-7.53 7.306-1.78 2.95-2.675 6.4895-2.675 10.6235 0 4.3315.81 7.9945 2.425 10.9915 1.61 3.004 3.85 5.463 6.695 7.383 2.845 1.916 6.185 3.318 10.035 4.204 3.85.883 8.065 1.328 12.63 1.328zm-276.24 0c3.56 0 7.05-.124 10.45-.371 3.405-.244 6.5-.565 9.29-.957 2.785-.395 5.24-.763 7.36-1.107s3.74-.665 4.855-.96v-48.108c0-4.0305-.555-7.7665-1.67-11.2115-1.115-3.4425-2.905-6.4195-5.355-8.928-2.455-2.5125-5.665-4.479-9.625-5.904s-8.78-2.141-14.47-2.141c-5.58 0-10.35.348-14.31 1.0335-3.96.6895-6.885 1.425-8.78 2.211l1.5 8.4125c1.45-.4915 3.74-1.127 6.865-1.9165 3.12-.786 7.86-1.1805 14.215-1.1805 4.47 0 8.055.612 10.8 1.8435 2.73 1.234 4.845 2.8565 6.36 4.873 1.5 2.014 2.47 4.275 2.93 6.7875.38 2.144.555 4.355.615 6.6095h.05v41.127c-2.235.394-4.93.715-8.115.959-3.18.248-6.89.369-11.125.369-3.465 0-6.56-.272-9.29-.814-2.735-.538-5.08-1.397-7.03-2.578-1.955-1.181-3.455-2.753-4.515-4.727-1.06-1.967-1.585-4.3715-1.585-7.2285 0-3.248.775-5.85 2.34-7.8205 1.555-1.967 3.565-3.5185 6.02-4.65 2.46-1.13 5.135-1.866 8.03-2.2145 2.905-.3405 5.69-.511 8.365-.511 2.105 0 3.97.06 5.675.1705v-8.1685c-.14-.01-.26-.0335-.405-.047-1.73-.151-3.37-.2245-4.93-.2245-5.245 0-10.1.4455-14.555 1.3315-4.465.8865-8.31 2.288-11.545 4.2045-3.24 1.921-5.75 4.352-7.535 7.306-1.785 2.95-2.675 6.4895-2.675 10.6235 0 4.3315.81 7.9945 2.425 10.9915 1.62 3.004 3.85 5.463 6.69 7.383 2.845 1.916 6.2 3.318 10.04 4.204 3.85.883 8.06 1.328 12.64 1.328zm-132.812 0c3.565 0 7.049-.124 10.454-.371 3.4-.244 6.498-.565 9.288-.957 2.783-.395 5.245-.763 7.36-1.107 2.118-.344 3.737-.665 4.853-.96v-48.108c0-4.0305-.558-7.7665-1.668-11.2115-1.12-3.4425-2.907-6.4195-5.357-8.928-2.453-2.5125-5.663-4.479-9.623-5.904-3.962-1.425-8.785-2.141-14.475-2.141-5.58 0-10.345.348-14.305 1.0335-3.963.6895-6.887 1.425-8.785 2.211l1.507 8.4125c1.448-.4915 3.733-1.127 6.861-1.9165 3.12-.786 7.862-1.1805 14.222-1.1805 4.46 0 8.057.612 10.792 1.8435 2.73 1.234 4.855 2.8565 6.358 4.873 1.507 2.014 2.48 4.275 2.93 6.7875.377 2.144.56 4.355.623 6.6095h.042l.002 1.0855.003.052v4.7225h-.005v8.41h.005v26.857c-2.235.394-4.935.715-8.117.959-3.178.248-6.888.369-11.126.369-3.46 0-6.557-.272-9.287-.814-2.735-.538-5.08-1.397-7.03-2.578-1.952-1.181-3.457-2.753-4.515-4.727-1.06-1.967-1.59-4.3715-1.59-7.2285 0-3.248.78-5.85 2.342-7.8205 1.558-1.967 3.565-3.5185 6.023-4.65 2.455-1.13 5.128-1.866 8.033-2.2145 2.897-.3405 5.692-.511 8.367-.511 2.095 0 3.968.06 5.668.1705v-8.1685c-.138-.01-.261-.0335-.398-.047-1.733-.151-3.375-.2245-4.937-.2245-5.245 0-10.098.4455-14.556 1.3315-4.462.8865-8.312 2.288-11.547 4.2045-3.24 1.921-5.747 4.352-7.532 7.306-1.783 2.95-2.675 6.4895-2.675 10.6235 0 4.3315.81 7.9945 2.425 10.9915 1.617 3.004 3.847 5.463 6.689 7.383 2.85 1.916 6.198 3.318 10.048 4.204 3.847.883 8.055 1.328 12.633 1.328zm473.202 26.563v-32.082c1.91 1.296 4.965 2.663 9.17 4.108 4.21 1.437 9.18 2.161 14.89 2.161 6.285 0 11.865-.995 16.745-2.984s9-4.749 12.37-8.284c3.36-3.531 5.92-7.756 7.65-12.685 1.74-4.9255 2.615-10.3205 2.615-16.19 0-6.268-1.045-11.8865-3.115-16.862-2.08-4.9735-4.995-9.201-8.745-12.6855-3.76-3.4805-8.255-6.14-13.465-7.9835-5.215-1.8405-11.02-2.7635-17.415-2.7635-7.745 0-14.135.4495-19.18 1.3465-5.05.893-9.205 1.8405-12.455 2.8345v102.0695zm-414.05-26.563v-68.497c.925-.401 2.86-.9045 5.805-1.5115 2.943-.603 6.84-.908 11.695-.908 4.617 0 8.34.2295 11.175.6815 2.827.4565 4.703.881 5.628 1.282l2.247-8.4655c-1.27-.5035-3.545-1.0045-6.837-1.5115-3.293-.504-6.785-.7575-10.485-.7575-7.273 0-13.455.5825-18.54 1.741-5.08 1.159-9.066 2.297-11.948 3.4035v74.543zm-170.32 26.563v-32.082c1.902 1.296 4.96 2.663 9.167 4.108 4.208 1.437 9.171 2.161 14.891 2.161 6.282 0 11.865-.995 16.745-2.984 4.882-1.989 9.004-4.749 12.367-8.284 3.365-3.531 5.917-7.756 7.655-12.685 1.742-4.9255 2.61-10.3205 2.61-16.19 0-6.268-1.038-11.8865-3.11-16.862-2.08-4.9735-4.995-9.201-8.75-12.6855-3.763-3.4805-8.247-6.14-13.462-7.9835-5.223-1.8405-11.023-2.7635-17.418-2.7635-7.74 0-14.135.4495-19.185 1.3465-5.047.893-9.198 1.8405-12.45 2.8345v102.0695zm317.4-26.563c10.185 0 18.22-1.798 24.1-5.397 5.87-3.599 8.81-8.894 8.81-15.8955 0-3.694-.73-6.7665-2.18-9.221-1.465-2.45-3.36-4.543-5.71-6.2935-2.355-1.7505-5.075-3.249-8.14-4.493-3.085-1.241-6.305-2.4605-9.66-3.6535-3.245-1.196-6.125-2.2875-8.65-3.287-2.515-.992-4.645-2.0665-6.38-3.215-1.74-1.155-3.05-2.481-3.94-3.9865-.905-1.5025-1.35-3.3035-1.35-5.4105 0-.1175.015-13.9765.025-17.844l.005-.991h-11.045c-.02.389-.06 16.002-.065 19.167v.5485c0 3.2965.67 6.097 2.015 8.394 1.35 2.3015 3.13 4.2755 5.375 5.924 2.235 1.649 4.81 3.0965 7.715 4.347 2.915 1.251 5.99 2.4745 9.245 3.674 4.025 1.4985 7.415 2.7975 10.16 3.898 2.735 1.098 4.95 2.25 6.625 3.4495 1.685 1.2 2.88 2.546 3.62 4.0475.72 1.499 1.085 3.3 1.085 5.398 0 4.397-2.045 7.521-6.13 9.37-4.08 1.852-9.26 2.773-15.53 2.773-3.475 0-6.525-.197-9.15-.598-2.635-.398-4.895-.877-6.805-1.424-1.905-.548-3.415-1.054-4.53-1.499-1.12-.452-1.85-.775-2.185-.975l-2.86 8.843c1.35.605 4.035 1.478 8.07 2.623 4.025 1.153 9.845 1.727 17.46 1.727zm79.195 0c1.735-3.339 3.57-7.092 5.5-11.266 1.92-4.17 3.91-8.628 5.95-13.372 2.045-4.748 4.025-9.7365 5.93-14.974 1.92-5.23 3.745-10.585 5.48-16.0625 1.745 5.465 3.58 10.806 5.5 16.03 1.92 5.2205 3.905 10.2035 5.96 14.944 2.05 4.7445 4.045 9.1995 5.98 13.3665s3.79 7.947 5.555 11.334h10.525c5.955-10.828 11.43-22.277 16.39-34.352 4.97-12.0715 9.555-25.4145 13.755-40.023h-11.19c-1.28 5.093-2.88 10.5905-4.81 16.496-1.925 5.906-4.005 11.7615-6.215 17.5565-2.23 5.7975-4.44 11.3055-6.665 16.525-2.22 5.2245-4.325 9.6525-6.31 13.2945-2.345-4.796-4.65-9.9285-6.915-15.4005-2.285-5.4685-4.435-11.008-6.46-16.6135-2.03-5.612-3.89-11.123-5.57-16.539-1.685-5.4195-3.04-10.5225-4.08-15.319h-9.785c-1.385 4.79-2.945 9.893-4.68 15.3155-1.745 5.4225-3.595 10.9135-5.56 16.4775-1.965 5.566-4.07 11.0865-6.31 16.561-2.24 5.4785-4.48 10.602-6.71 15.371-1.98-3.642-4.115-8.057-6.385-13.2415-2.285-5.1815-4.53-10.6725-6.755-16.4735-2.22-5.798-4.3-11.644-6.22-17.5435-1.93-5.8915-3.545-11.38-4.83-16.4665h-12.05c4.18 14.582 8.735 27.919 13.69 40.003 4.945 12.0815 10.4 23.54 16.375 34.372zm211.095-5.312c-2.645 0-5.17-.23-7.58-.68-2.42-.453-4.665-1.036-6.735-1.744-2.075-.703-3.885-1.458-5.435-2.268-1.55-.807-2.845-1.565-3.88-2.273v-54.664c1.725-.5045 4.29-.9855 7.675-1.442 3.395-.4525 7.85-.6795 13.37-.6795 9.66 0 17.415 2.753 23.28 8.2545 5.875 5.5025 8.8 13.4 8.8 23.6975 0 4.339-.515 8.4575-1.55 12.3395-1.035 3.889-2.705 7.267-5.005 10.146-2.295 2.876-5.315 5.149-9.05 6.814-3.74 1.664-8.365 2.499-13.89 2.499zm-584.375 0c-2.65 0-5.175-.23-7.59-.68-2.417-.453-4.658-1.036-6.728-1.744-2.07-.703-3.882-1.458-5.432-2.268-1.55-.807-2.845-1.565-3.88-2.273v-54.664c1.72-.5045 4.285-.9855 7.675-1.442 3.392-.4525 7.848-.6795 13.363-.6795 9.662 0 17.425 2.753 23.285 8.2545 5.867 5.5025 8.802 13.4 8.802 23.6975 0 4.339-.518 8.4575-1.553 12.3395-1.035 3.889-2.702 7.267-5.002 10.146-2.305 2.876-5.32 5.149-9.057 6.814-3.74 1.664-8.368 2.499-13.883 2.499z"/></g></svg>