<svg id="Layer_1" data-name="Layer 1" xmlns="http://www.w3.org/2000/svg" viewBox="0 0 691.2238 83.22653"><defs><style>.cls-1{fill:#010101;}.cls-2{fill:#1d1d1b;}</style></defs><path class="cls-1" d="M330.64933,86.6414a13.877,13.877,0,0,1,1.00511-1.45668,8.14284,8.14284,0,0,0,1.96652-5.71019c0-4.58855,0-9.18437-.08012-13.77292A2.31613,2.31613,0,0,1,334.83,63.35635c.81575-.437,1.55865-1.01239,2.338-1.52223s.88129-.49527,1.35471.29134c1.19448,1.99565,2.37439,3.99859,3.56159,5.99424,1.027,1.72617,2.03936,3.45962,3.06632,5.17851a2.30871,2.30871,0,0,1,.335,1.45668c-.44429,3.72911-.86673,7.45092-1.30372,11.17274-.0874.72834-.24036.83031-.96142.8376H331.51605A7.84483,7.84483,0,0,1,330.64933,86.6414Z" transform="translate(-262.14632 -3.86429)"/><path class="cls-1" d="M304.83693,86.51759l1.45669-.72834c.72834-.37874.79388-.53169.5681-1.311-.80846-2.91336-1.60235-5.76846-2.46179-8.63084A3.03718,3.03718,0,0,1,304.633,73.422c1.19448-2.30156,2.30884-4.63953,3.4669-6.96294a2.185,2.185,0,0,1,1.55136-1.26731c1.362-.32047,2.70215-.72834,4.06414-1.01968.72835-.18937.88858-.10925,1.06338.72834.36417,1.76259.72834,3.53245,1.06338,5.295L318.923,85.76011a3.93142,3.93142,0,0,1,.09468.50984.437.437,0,0,1-.45157.51712,5.72732,5.72732,0,0,1-.6118,0H305.73279a5.475,5.475,0,0,1-.84488-.0437Z" transform="translate(-262.14632 -3.86429)"/><path class="cls-2" d="M393.85889,74.15723l9.92334-9.58887c5.352,6.24414,11.93017,9.58887,19.958,9.58887,9.03077,0,13.71387-4.34864,13.71387-10.92676,0-5.24024-2.45312-8.47363-10.59228-9.92285l-7.35889-1.11524c-15.7207-2.45312-23.30225-9.92285-23.30225-22.6333,0-13.937,10.81494-22.96826,28.2085-22.96826,11.707,0,20.40381,4.01367,26.64746,11.48389L441.022,27.55225c-3.791-4.79444-9.14258-8.02784-17.39355-8.02784-8.36231,0-12.71045,3.34473-12.71045,9.14258,0,5.90918,3.34473,8.36231,10.81494,9.7002l7.24756,1.33789c15.7207,2.7876,23.07959,9.81152,23.07959,22.63379,0,14.71777-10.59229,24.75195-29.21192,24.75195C409.58008,87.09082,400.4375,81.85059,393.85889,74.15723Z" transform="translate(-262.14632 -3.86429)"/><path class="cls-2" d="M492.31348,20.97363v64.7793H477.59619V20.97363H455.52V7.92871h58.86963V20.97363Z" transform="translate(-262.14632 -3.86429)"/><path class="cls-2" d="M564.56592,85.75293l-6.24414-19.84668H530.6709l-6.13233,19.84668H509.59814L535.68848,7.92871h18.28515l25.86719,77.82422ZM544.71924,21.30811h-.55713l-9.92334,31.99951h20.51514Z" transform="translate(-262.14632 -3.86429)"/><path class="cls-2" d="M613.62793,50.52051,603.25879,62.78516V85.75293H588.541V7.92871h14.71777V46.2832h.55762l11.03808-14.60595L634.14355,7.92871h16.94727L623.99707,40.374l29.32324,45.37891H635.81543Z" transform="translate(-262.14632 -3.86429)"/><path class="cls-2" d="M661.35156,85.75293V7.92871h51.28809V20.97363H676.06934V39.81641h32.333V52.86133h-32.333V72.708h36.57031V85.75293Z" transform="translate(-262.14632 -3.86429)"/><path class="cls-2" d="M748.99023,7.92871h28.32032c20.292,0,33.55957,13.04492,33.55957,38.91211s-13.26758,38.91211-33.55957,38.91211H748.99023ZM777.31055,72.708c10.92578,0,17.95019-6.4668,17.95019-19.73535V40.7085c0-13.26807-7.02441-19.73487-17.95019-19.73487H763.708V72.708Z" transform="translate(-262.14632 -3.86429)"/><path class="cls-2" d="M867.84863,85.75293l-6.24414-19.84668H833.95312l-6.13183,19.84668H812.88086L838.9707,7.92871h18.28516l25.86719,77.82422ZM848.002,21.30811h-.55761l-9.92286,31.99951h20.51465Z" transform="translate(-262.14632 -3.86429)"/><path class="cls-2" d="M885.58105,46.84082c0-26.313,13.49024-40.25,33.89454-40.25,20.51562,0,33.89453,13.937,33.89453,40.25,0,26.31348-13.37891,40.25-33.89453,40.25C899.07129,87.09082,885.58105,73.1543,885.58105,46.84082Zm52.17969,6.02051V40.81982c0-13.26757-7.13574-21.18408-18.28515-21.18408s-18.28516,7.91651-18.28516,21.18408V52.86133c0,13.26855,7.13574,21.18457,18.28516,21.18457S937.76074,66.12988,937.76074,52.86133Z" transform="translate(-262.14632 -3.86429)"/><g id="noun_Elephant_1201412_Image" data-name="noun Elephant 1201412 Image"><path class="cls-1" d="M262.14632,52.22929v-.21866a6.60446,6.60446,0,0,0,.24928-.93808q1.39728-12.21472,2.79674-24.425a2.87754,2.87754,0,0,1,.51168-1.3929q4.79316-6.1008,9.66068-12.13818a1.93742,1.93742,0,0,1,1.16112-.64506q5.36388-.6407,10.74308-1.16987a9.48563,9.48563,0,0,0,3.807-1.16549c3.64736-2.0489,7.34938-4.00378,11.01423-6.02426a1.53069,1.53069,0,0,1,1.605-.03936c5.35076,2.64149,10.71465,5.248,16.07635,7.872.34549.17056.67787.36736,1.312.70629l-4.37333,4.24651c.31051.08309.50731.15525.71066.18805,4.99434.79594,9.99962,1.53066,14.97865,2.40533,5.40107.94245,10.93333,1.51754,15.77241,4.41488,3.55552,2.12981,6.99734,4.452,10.52879,6.61684a4.39151,4.39151,0,0,1,2.18667,4.32741c-.1815,3.12037-.41329,6.24292-.7566,9.35236a14.72014,14.72014,0,0,1-2.84266,7.802,1.29285,1.29285,0,0,0-.11152.914q2.56275,14.46916,5.143,28.92957c.24928,1.417.36736,2.858.54447,4.288H349.75065c.656-.7544,1.253-1.56784,1.968-2.24571a1.26533,1.26533,0,0,0,.32144-1.76683Q346.475,70.68474,341.01273,59.20256a1.45425,1.45425,0,0,0-1.84336-.94027c-4.13717.60789-8.28745,1.12832-12.43336,1.67936q-9.13808,1.2158-18.27833,2.43157a1.732,1.732,0,0,0-1.51755,1.00587q-5.75529,11.37285-11.58713,22.7435H282.02747a6.44582,6.44582,0,0,1,.41765-1.09333c1.14362-1.90459,2.32443-3.78731,3.47024-5.68533a6.075,6.075,0,0,0,.63413-1.382q4.30116-14.67469,8.54767-29.36471a1.59849,1.59849,0,0,0-.328-1.312c-1.59189-1.65093-3.23627-3.25376-4.91344-4.81066a1.59843,1.59843,0,0,0-1.23109-.33675c-3.99066.82437-7.96383,1.72528-11.95449,2.54965a1.05519,1.05519,0,0,0-.95776,1.078c-.41984,3.36309-.87467,6.71963-1.28357,10.08271a1.41372,1.41372,0,0,0,.20117,1.00587c1.27264,1.441,2.59994,2.84266,3.98629,4.32522l4.72756-4.53733c.52262,3.538,1.00806,6.83114,1.51755,10.27732-2.56933.48981-5.05557.96869-7.54837,1.42789a1.68581,1.68581,0,0,1-.6385-.1137c-1.48475-.3608-2.987-.66912-4.44331-1.11738a2.75081,2.75081,0,0,1-1.40383-1.02992c-1.63344-2.54309-3.175-5.143-4.77349-7.71018C264.77031,56.31836,263.45831,54.27383,262.14632,52.22929Z" transform="translate(-262.14632 -3.86429)"/><path class="cls-1" d="M330.52549,86.12259c.66693-1.113,1.27482-2.26757,2.02267-3.32154a4.39965,4.39965,0,0,0,.82437-2.73552c-.03936-5.09493,0-10.192-.035-15.28916a1.62473,1.62473,0,0,1,.85717-1.59408c1.20486-.73471,2.36816-1.53066,3.62987-2.36378.24271.36736.43733.656.62757.96213,2.156,3.62768,4.32522,7.24879,6.43973,10.90052a2.82523,2.82523,0,0,1,.33456,1.62251c-.42422,3.936-.90966,7.872-1.37542,11.81892Z" transform="translate(-262.14632 -3.86429)"/><path class="cls-1" d="M304.74691,86.12259a16.5879,16.5879,0,0,1,1.83243-1.1305.98232.98232,0,0,0,.64288-1.41915q-1.312-4.33614-2.45563-8.71385a2.57812,2.57812,0,0,1,.11808-1.62907q1.7712-3.74793,3.70421-7.41717a2.29383,2.29383,0,0,1,1.22672-1.03211c1.62687-.49855,3.2953-.86373,5.11461-1.32292.199.87466.40453,1.70341.57071,2.53434q1.91334,9.57758,3.80918,19.15736a7.96278,7.96278,0,0,1,.07434.97307Z" transform="translate(-262.14632 -3.86429)"/></g></svg>