<?xml version="1.0" encoding="UTF-8"?><svg id="Layer_2" xmlns="http://www.w3.org/2000/svg" viewBox="0 0 480.74 151.39"><g id="Layer_1-2"><g><g><path d="M173.95,65.68h10.27l11.05,29.78,11.05-29.78h10.03l-17.1,42.59h-8.22l-17.1-42.59Z"/><path d="M220.89,63.87h9.67v8.16h-9.67v-8.16Zm.24,11.72h9.18v32.38h-9.18v-32.38Z"/><path d="M238.95,75.59h9.18v6.52c1.87-4.47,4.89-7.37,10.33-7.13v9.6h-.48c-6.1,0-9.85,3.69-9.85,11.42v11.96h-9.18v-32.38Z"/><path d="M265.72,98.79v-15.34h-3.87v-7.85h3.87v-8.28h9.18v8.28h7.61v7.85h-7.61v13.83c0,2.11,.91,3.14,2.96,3.14,1.69,0,3.2-.42,4.53-1.15v7.37c-1.93,1.15-4.17,1.87-7.25,1.87-5.62,0-9.42-2.24-9.42-9.73Z"/><path d="M289.04,96.55v-20.96h9.18v18.06c0,4.35,2.05,6.58,5.56,6.58s5.74-2.24,5.74-6.58v-18.06h9.18v32.38h-9.18v-4.59c-2.11,2.72-4.83,5.2-9.48,5.2-6.95,0-10.99-4.59-10.99-12.02Z"/><path d="M323.47,101.81l5.5-6.58c3.81,3.14,7.79,5.13,12.63,5.13,3.81,0,6.1-1.51,6.1-3.99v-.12c0-2.36-1.45-3.56-8.52-5.38-8.52-2.17-14.01-4.53-14.01-12.93v-.12c0-7.67,6.16-12.75,14.8-12.75,6.16,0,11.42,1.93,15.71,5.38l-4.83,7.01c-3.75-2.6-7.43-4.17-10.99-4.17s-5.44,1.63-5.44,3.68v.12c0,2.78,1.81,3.68,9.12,5.56,8.58,2.24,13.41,5.32,13.41,12.69v.12c0,8.4-6.4,13.11-15.53,13.11-6.4,0-12.87-2.24-17.94-6.77Z"/><path d="M359.89,75.97h9.2l5.13,19.4,6.03-19.52h7.82l6.09,19.58,5.25-19.46h9.02l-9.97,32.24h-8.18l-6.15-19.64-6.27,19.64h-8.12l-9.85-32.24Z"/><path d="M410.54,98.67v-.12c0-7.07,5.38-10.33,13.05-10.33,3.26,0,5.62,.54,7.91,1.33v-.54c0-3.81-2.36-5.92-6.95-5.92-3.5,0-5.98,.66-8.94,1.75l-2.3-7.01c3.56-1.57,7.07-2.6,12.57-2.6,5.01,0,8.64,1.33,10.93,3.62,2.42,2.42,3.5,5.98,3.5,10.33v18.79h-8.88v-3.5c-2.24,2.48-5.32,4.11-9.79,4.11-6.1,0-11.12-3.5-11.12-9.91Zm21.08-2.11v-1.63c-1.57-.72-3.62-1.21-5.86-1.21-3.93,0-6.34,1.57-6.34,4.47v.12c0,2.48,2.05,3.93,5.01,3.93,4.29,0,7.19-2.36,7.19-5.68Z"/><path d="M446.73,75.59h9.18v4.65c2.24-3.02,5.32-5.26,10.09-5.26,7.55,0,14.74,5.92,14.74,16.73v.12c0,10.81-7.07,16.73-14.74,16.73-4.89,0-7.91-2.24-10.09-4.83v13.89h-9.18v-42.05Zm24.83,16.25v-.12c0-5.38-3.62-8.94-7.91-8.94s-7.85,3.56-7.85,8.94v.12c0,5.38,3.56,8.94,7.85,8.94s7.91-3.5,7.91-8.94Z"/></g><path d="M189.46,.27c-1.04-.96-5.79,.85-8.67,1.79-2.38,.79-5.32,1.76-9.3,3.33-31.43,12.43-58.69,34.1-80.02,60.12-3.08,3.75-6.57,8.03-9.71,11.96-.84-.68-22.68-45.76-23.24-47.35-.04-.09-.09-.35-.13-.48-.41-1.48,.54-2.61,1.85-2.77h8.73V6.95H0V26.87H9.21c.91,.2,1.72,.39,2.55,1.92,.43,.78,18.07,30.04,33.21,61.61,4.77,9.94,11.14,24.12,13.8,30.21,1.73,3.95,2.82,5.87,2.95,8.14,.09,1.47-.97,2.32-1.53,2.55-.47,.19-.9,.21-1.26,.21h-12.75v19.88h58.34v-19.88h-12.41c-.54,0-1.03-.15-1.47-.4-.91-.51-1.6-1.3-1.56-2.57,.12-1.63,1-3.34,1.45-4.38,5.11-11.72,8.61-19.81,13.03-29.95,12.5-28.68,27.04-56.27,54.62-75.22,5.7-3.92,12.21-7.63,18.48-10.52,3.12-1.44,6.41-3.12,9.63-4.36,1.89-.72,4.95-2.13,3.16-3.83Z"/></g></g></svg>