<svg width="2102" height="332" viewBox="0 0 2102 332" fill="none" xmlns="http://www.w3.org/2000/svg">
<path d="M126.668 93.9842C189.318 32.6719 290.892 32.6719 353.542 93.9842L361.082 101.363C364.214 104.429 364.214 109.399 361.082 112.465L335.289 137.707C333.723 139.24 331.183 139.24 329.617 137.707L319.241 127.553C275.536 84.7796 204.674 84.7796 160.969 127.553L149.857 138.427C148.291 139.96 145.751 139.96 144.185 138.427L118.392 113.185C115.26 110.119 115.26 105.149 118.392 102.083L126.668 93.9842ZM406.884 146.188L429.839 168.653C432.972 171.719 432.972 176.689 429.839 179.755L326.331 281.056C323.199 284.121 318.12 284.121 314.987 281.056L241.523 209.16C240.74 208.393 239.471 208.393 238.688 209.16L165.225 281.056C162.093 284.121 157.014 284.121 153.882 281.056L50.3709 179.754C47.2384 176.688 47.2384 171.718 50.3709 168.652L73.3265 146.187C76.4589 143.121 81.5377 143.121 84.6702 146.187L158.135 218.083C158.918 218.85 160.187 218.85 160.97 218.083L234.432 146.187C237.564 143.121 242.643 143.121 245.775 146.186L319.24 218.083C320.024 218.85 321.293 218.85 322.076 218.083L395.54 146.188C398.672 143.122 403.751 143.122 406.884 146.188Z" fill="black"/>
<path d="M570.24 248.378L597.97 137.461C599.614 131.351 601.024 124.771 602.904 114.432C604.314 124.771 605.959 131.351 607.134 137.461L631.104 248.378H680.687L722.516 83.8826H684.447L661.418 184.93C659.068 194.799 657.658 202.554 656.013 214.069C654.133 203.024 652.253 194.799 650.138 185.165L627.814 83.8826H577.995L553.791 185.165C551.676 194.799 550.031 202.554 548.151 214.069C546.271 202.554 544.626 194.799 542.511 185.165L519.952 83.8826H480.238L521.832 248.378H570.24Z" fill="black"/>
<path d="M750.904 252.607C769.703 252.607 781.688 244.853 787.798 233.573C787.093 237.098 786.858 240.623 786.858 244.148V248.378H818.347V180.465C818.347 148.036 803.542 129.236 767.354 129.236C736.099 129.236 715.655 146.626 713.775 170.595H748.319C749.494 160.02 757.014 153.675 768.529 153.675C779.338 153.675 785.213 159.785 785.213 166.835C785.213 172.005 782.158 175.06 772.993 176.235L756.544 178.115C732.105 181.17 711.19 190.099 711.19 215.948C711.19 239.448 730.695 252.607 750.904 252.607ZM761.479 228.403C752.314 228.403 745.499 223.233 745.499 214.304C745.499 205.609 753.254 201.379 765.004 199.264L772.993 197.854C779.808 196.444 783.568 195.269 785.918 193.154V203.964C785.918 218.533 775.343 228.403 761.479 228.403Z" fill="black"/>
<path d="M834.717 83.8826V248.378H868.791V83.8826H834.717Z" fill="black"/>
<path d="M888.503 83.8826V248.378H922.577V83.8826H888.503Z" fill="black"/>
<path d="M996.952 252.607C1029.38 252.607 1050.3 234.278 1052.65 210.309H1018.34C1016.69 220.883 1007.76 226.758 996.952 226.758C982.382 226.758 971.808 215.009 971.573 198.794H1053.35V192.214C1053.35 154.145 1032.44 129.236 996.247 129.236C961.468 129.236 937.029 153.675 937.029 190.569C937.029 230.518 962.173 252.607 996.952 252.607ZM971.338 176.47C972.748 163.31 982.382 153.675 996.012 153.675C1009.17 153.675 1018.34 162.84 1018.57 176.47H971.338Z" fill="black"/>
<path d="M1125.47 250.728C1132.99 250.728 1140.28 249.553 1143.57 248.613V222.763C1140.98 223.233 1137.93 223.468 1135.34 223.468C1122.89 223.468 1118.42 216.419 1118.42 204.904V159.785H1146.15V133.231H1118.42V92.3423H1084.58V133.231H1059.67V159.785H1084.58V209.604C1084.58 236.863 1098.21 250.728 1125.47 250.728Z" fill="black"/>
<path d="M1240.49 252.607C1287.02 252.607 1315.22 225.348 1318.74 186.104H1281.85C1279.03 207.489 1263.99 222.058 1241.9 222.058C1215.82 222.058 1197.49 200.909 1197.49 165.19C1197.49 130.176 1216.52 110.202 1242.61 110.202C1264.93 110.202 1277.62 123.831 1280.2 143.806H1318.04C1314.28 102.917 1284.2 79.6526 1242.84 79.6526C1195.61 79.6526 1159.42 111.612 1159.42 165.19C1159.42 220.648 1191.14 252.607 1240.49 252.607Z" fill="black"/>
<path d="M1392.61 252.607C1428.1 252.607 1453.24 230.283 1453.24 191.274C1453.24 152.97 1428.1 129.236 1392.61 129.236C1357.37 129.236 1332.22 152.97 1332.22 191.274C1332.22 230.283 1357.13 252.607 1392.61 252.607ZM1392.61 226.288C1376.87 226.288 1366.76 213.364 1366.76 191.274C1366.76 168.715 1377.34 156.025 1392.61 156.025C1408.12 156.025 1418.7 168.715 1418.7 191.274C1418.7 213.364 1408.36 226.288 1392.61 226.288Z" fill="black"/>
<path d="M1500.75 248.378V180.935C1500.75 166.6 1509.67 156.025 1522.36 156.025C1534.35 156.025 1541.4 165.19 1541.4 180.465V248.378H1575.47V175.53C1575.47 147.801 1560.9 129.236 1534.82 129.236C1516.72 129.236 1505.68 137.931 1499.81 148.271C1500.51 144.041 1500.75 140.751 1500.75 137.696V133.231H1466.67V248.378H1500.75Z" fill="black"/>
<path d="M1629.93 248.378V180.935C1629.93 166.6 1638.86 156.025 1651.55 156.025C1663.53 156.025 1670.58 165.19 1670.58 180.465V248.378H1704.66V175.53C1704.66 147.801 1690.09 129.236 1664 129.236C1645.91 129.236 1634.86 137.931 1628.99 148.271C1629.69 144.041 1629.93 140.751 1629.93 137.696V133.231H1595.86V248.378H1629.93Z" fill="black"/>
<path d="M1777.97 252.607C1810.4 252.607 1831.31 234.278 1833.66 210.309H1799.36C1797.71 220.883 1788.78 226.758 1777.97 226.758C1763.4 226.758 1752.83 215.009 1752.59 198.794H1834.37V192.214C1834.37 154.145 1813.45 129.236 1777.27 129.236C1742.49 129.236 1718.05 153.675 1718.05 190.569C1718.05 230.518 1743.19 252.607 1777.97 252.607ZM1752.36 176.47C1753.77 163.31 1763.4 153.675 1777.03 153.675C1790.19 153.675 1799.36 162.84 1799.59 176.47H1752.36Z" fill="black"/>
<path d="M1907.53 252.607C1943.25 252.607 1962.76 233.103 1966.52 202.789H1932.44C1931.27 215.479 1923.98 226.288 1908.71 226.288C1893.2 226.288 1882.63 211.954 1882.63 190.804C1882.63 167.775 1894.85 156.025 1909.41 156.025C1923.75 156.025 1930.8 166.365 1931.74 178.35H1965.81C1963.23 150.385 1944.19 129.236 1909.18 129.236C1875.11 129.236 1848.08 151.795 1848.08 190.804C1848.08 229.343 1870.88 252.607 1907.53 252.607Z" fill="black"/>
<path d="M2040.22 250.728C2047.74 250.728 2055.03 249.553 2058.32 248.613V222.763C2055.73 223.233 2052.68 223.468 2050.09 223.468C2037.64 223.468 2033.17 216.419 2033.17 204.904V159.785H2060.9V133.231H2033.17V92.3423H1999.33V133.231H1974.42V159.785H1999.33V209.604C1999.33 236.863 2012.96 250.728 2040.22 250.728Z" fill="black"/>
</svg>
