<svg width="1000" height="264" viewBox="0 0 1000 264" fill="none" xmlns="http://www.w3.org/2000/svg">
<path d="M32.4529 98.9003C32.4529 101.759 31.6051 104.554 30.0168 106.931C28.4285 109.308 26.1709 111.161 23.5296 112.255C20.8883 113.349 17.9819 113.635 15.1779 113.077C12.3739 112.52 9.7983 111.143 7.77673 109.121C5.75517 107.1 4.37847 104.524 3.82072 101.72C3.26298 98.9163 3.54923 96.0099 4.64329 93.3686C5.73735 90.7273 7.59008 88.4697 9.96719 86.8814C12.3443 85.2931 15.139 84.4453 17.9979 84.4453C21.8316 84.4453 25.5083 85.9682 28.2191 88.6791C30.93 91.3899 32.4529 95.0666 32.4529 98.9003Z" fill="black"/>
<path d="M167.784 10.8637C164.504 10.8637 161.284 10.9837 158.074 11.2487C154.654 11.5187 151.254 11.9287 147.904 12.4887C144.289 13.0687 140.719 13.8237 137.224 14.7237H137.199C134.776 15.3537 132.374 16.0571 129.994 16.8337C121.992 19.4282 114.283 22.8535 106.995 27.0537C109.8 27.7921 112.5 28.8842 115.029 30.3037C115.858 30.7436 116.66 31.2293 117.434 31.7587C120.58 33.8043 123.382 36.3357 125.734 39.2587C129.119 37.7282 132.588 36.3927 136.124 35.2587C138.999 34.3087 141.999 33.5087 144.969 32.8287C145.794 32.6337 146.644 32.4637 147.469 32.2937C150.966 31.5884 154.498 31.0694 158.049 30.7387C159.549 30.5937 161.049 30.4987 162.549 30.4237C164.274 30.3287 166.019 30.2787 167.769 30.2787C195.104 30.2999 221.313 41.1669 240.643 60.494C259.973 79.8211 270.844 106.029 270.869 133.363C270.869 190.208 224.629 236.448 167.784 236.448C154.246 236.456 140.839 233.795 128.33 228.617C115.821 223.439 104.456 215.846 94.8837 206.271C85.3118 196.697 77.7213 185.33 72.5463 172.82C67.3714 160.309 64.7135 146.902 64.7246 133.363C64.7246 131.618 64.7746 129.893 64.8696 128.168C64.9196 126.638 65.0396 125.133 65.1846 123.628C65.5153 120.077 66.0344 116.545 66.7396 113.048C66.9546 111.908 67.2396 110.768 67.4896 109.623C68.1246 106.928 68.8496 104.283 69.6996 101.688C70.9264 97.8611 72.3943 94.1153 74.0946 90.4735C72.5073 89.1811 71.0443 87.7432 69.7246 86.1785C68.5157 84.8184 67.4266 83.3563 66.4696 81.8085C65.8358 80.8445 65.2614 79.8426 64.7496 78.8086C63.5929 76.5245 62.6812 74.1245 62.0296 71.6486C57.7752 78.8871 54.2848 86.5482 51.6147 94.5085C50.6947 97.2285 49.8947 99.9685 49.1647 102.758V102.783C48.2697 106.283 47.5147 109.873 46.9347 113.488C46.3747 116.813 45.9347 120.213 45.6947 123.633C45.4247 126.838 45.3047 130.068 45.3047 133.343C45.3047 200.893 100.26 255.843 167.804 255.843C235.349 255.843 290.304 200.888 290.304 133.343C290.304 65.7986 235.354 10.8438 167.804 10.8438" fill="#252525"/>
<path d="M233.39 53.8999C224.638 41.7967 213.38 31.7221 200.383 24.3622C187.386 17.0023 172.956 12.53 158.075 11.25C154.655 11.52 151.255 11.93 147.905 12.49C144.29 13.07 140.72 13.825 137.225 14.72H137.2C134.777 15.3567 132.375 16.0617 129.995 16.835C128.435 15.6906 126.806 14.6453 125.115 13.705C114.713 16.1757 104.761 20.253 95.6152 25.79C96.1952 25.765 96.7802 25.74 97.3852 25.74C100.636 25.728 103.872 26.1707 107 27.055C109.805 27.7933 112.505 28.8854 115.035 30.3049C115.864 30.743 116.667 31.2288 117.44 31.7599C118.9 32.7071 120.287 33.7617 121.59 34.9149C124.185 34.0089 126.825 33.2395 129.5 32.6099C132.843 31.801 136.233 31.2015 139.65 30.8149C140.91 30.6699 142.15 30.5699 143.435 30.4749C145.35 30.3549 147.27 30.2799 149.21 30.2799C152.161 30.2736 155.11 30.4272 158.045 30.7399C159.94 30.9349 161.81 31.2049 163.675 31.5199C183.272 34.9624 201.032 45.194 213.841 60.4207C226.65 75.6474 233.689 94.8972 233.725 114.795C233.725 161.4 195.815 199.294 149.225 199.294C129.344 199.256 110.11 192.223 94.8932 179.428C79.6768 166.632 69.4484 148.89 66.0003 129.31C65.6669 127.443 65.4002 125.55 65.2003 123.63C64.8874 120.695 64.7338 117.746 64.7403 114.795C64.7403 112.49 64.8353 110.21 65.0053 107.95C65.0803 107.055 65.1753 106.13 65.2753 105.235C65.6589 101.819 66.2584 98.4301 67.0702 95.0897C67.7951 92.0728 68.6865 89.0982 69.7402 86.1798C68.5313 84.8196 67.4423 83.3575 66.4853 81.8098C65.8514 80.8457 65.277 79.8439 64.7653 78.8098C63.6085 76.5258 62.6968 74.1258 62.0453 71.6498C61.2314 68.6103 60.8228 65.4765 60.8303 62.3298C60.8303 61.5998 60.8553 60.8748 60.9053 60.1448C55.251 69.2093 51.0486 79.1021 48.4503 89.4648C49.4182 91.1995 50.4746 92.8834 51.6153 94.5097C50.6953 97.2297 49.8953 99.9697 49.1653 102.76V102.785C48.2703 106.285 47.5153 109.875 46.9353 113.49C46.3753 116.815 45.9353 120.215 45.6953 123.635C47.928 149.556 59.7955 173.699 78.9558 191.3C98.1162 208.9 123.178 218.68 149.195 218.709C206.505 218.709 253.13 172.085 253.13 114.775C253.157 92.8962 246.238 71.5739 233.37 53.8799" fill="#616161"/>
<path d="M131.302 163.507C116.461 163.475 102.055 158.495 90.3613 149.356C78.6678 140.217 70.3549 127.441 66.7373 113.048C66.3254 111.546 66.0015 110.022 65.7673 108.483C65.5473 107.418 65.3773 106.323 65.2673 105.233C64.9043 102.464 64.7256 99.6747 64.7323 96.8826C64.7314 93.8715 64.9419 90.8641 65.3623 87.8826C65.623 85.8404 65.9952 83.8141 66.4773 81.8126C65.8435 80.8485 65.2691 79.8467 64.7573 78.8126C63.6006 76.5286 62.6888 74.1286 62.0373 71.6526C61.2234 68.6131 60.8149 65.4793 60.8223 62.3327C60.8223 61.6077 60.8473 60.8777 60.8973 60.1477C61.4429 51.1507 65.2887 42.6714 71.6981 36.334C78.1074 29.9966 86.6297 26.2467 95.6322 25.8028C96.2122 25.7778 96.7972 25.7528 97.4022 25.7528C100.645 25.7378 103.875 26.1754 106.997 27.0528C109.803 27.7889 112.503 28.8811 115.032 30.3028C115.86 30.7426 116.663 31.2284 117.437 31.7578C119.04 31.3903 120.66 31.1066 122.292 30.9078C125.274 30.4899 128.281 30.2794 131.292 30.2778C134.084 30.2711 136.874 30.4498 139.642 30.8128C141.167 30.9828 142.642 31.2278 144.142 31.5428C145.257 31.7328 146.372 32.0028 147.467 32.2927C161.859 35.917 174.633 44.2359 183.767 55.9338C192.901 67.6317 197.875 82.0409 197.902 96.8826C197.902 133.607 168.022 163.482 131.302 163.482M203.387 50.0077C199.089 43.4346 193.92 37.4738 188.022 32.2877C176.637 22.2571 162.791 15.431 147.902 12.5078C144.287 13.0878 140.717 13.8428 137.222 14.7378H137.197C134.774 15.3745 132.372 16.0795 129.992 16.8528C127.117 14.7983 124.061 13.0093 120.862 11.5078C82.3172 16.1778 51.5423 46.5077 46.1523 84.8176C46.8129 86.4104 47.5762 87.9586 48.4373 89.4526C49.4062 91.1932 50.4678 92.8806 51.6173 94.5076C50.6923 97.2276 49.8923 99.9675 49.1623 102.763C48.2673 106.263 47.5123 109.853 46.9273 113.468C50.785 133.016 61.3033 150.622 76.6892 163.284C92.0752 175.945 111.376 182.879 131.302 182.902C178.727 182.902 217.302 144.307 217.302 96.9025C217.329 80.2494 212.493 63.9506 203.387 50.0077Z" fill="#7D7D7D"/>
<path d="M114.457 129.774C105.117 129.744 95.9726 127.097 88.061 122.133C80.1493 117.169 73.7875 110.086 69.6975 101.689C68.6499 99.5593 67.7657 97.353 67.0525 95.0891C66.3004 92.7333 65.732 90.3228 65.3525 87.8791C64.9344 85.2867 64.7237 82.6651 64.7225 80.0392C64.7225 79.6242 64.7225 79.2142 64.7475 78.7992C62.1627 73.6829 60.8149 68.0314 60.8125 62.2992C60.8125 61.5742 60.8375 60.8442 60.8875 60.1142C61.4331 51.1173 65.2789 42.6379 71.6883 36.3005C78.0976 29.9631 86.6199 26.2133 95.6224 25.7693C96.2024 25.7443 96.7874 25.7193 97.3924 25.7193C100.641 25.7149 103.874 26.1642 106.997 27.0543C109.803 27.7904 112.504 28.8826 115.032 30.3043C117.466 30.3103 119.896 30.5126 122.297 30.9093C124.737 31.2915 127.144 31.8598 129.497 32.6093C131.765 33.3377 133.981 34.2215 136.127 35.2543C146.247 40.17 154.402 48.3708 159.261 58.5182C164.12 68.6656 165.396 80.1603 162.881 91.1263C160.366 102.092 154.208 111.882 145.412 118.897C136.617 125.913 125.703 129.74 114.452 129.754M175.062 46.7393C171.995 41.1573 168.163 36.0312 163.677 31.5093C163.326 31.1244 162.953 30.7588 162.562 30.4143C155.361 23.3954 146.712 18.0353 137.222 14.7094H137.197C134.774 15.346 132.371 16.051 129.987 16.8244C128.43 15.6789 126.802 14.6335 125.112 13.6944C123.727 12.8894 122.182 12.8444 120.722 12.1944C121.222 12.1444 116.832 13.0444 117.317 12.9944C116.567 12.8944 118.987 11.7494 118.212 11.6994C116.392 11.5294 116.322 10.8594 114.457 10.8594C76.3225 10.8594 45.3026 41.9043 45.3026 80.0342C45.3026 81.0342 45.3276 82.0342 45.3776 83.0342C45.4226 84.6592 45.1076 78.4442 45.3026 80.0342C45.4226 79.0342 46.0076 85.8342 46.1526 84.8142C46.8152 86.406 47.5784 87.9542 48.4376 89.4491C49.4063 91.1915 50.4678 92.8806 51.6176 94.5091C50.6926 97.2291 49.8926 99.9691 49.1626 102.764C52.4688 112.271 57.8312 120.932 64.8675 128.129C65.2325 128.519 65.5975 128.909 65.9825 129.269C78.8889 142.026 96.3104 149.171 114.457 149.149C152.587 149.149 183.607 118.149 183.607 79.9992C183.621 68.3552 180.681 56.8979 175.062 46.6993" fill="#ADADAD"/>
<path d="M151.059 46.3998C146.83 41.7789 141.766 37.9977 136.134 35.2548C132.599 36.3932 129.13 37.7286 125.744 39.2548C131.483 46.2899 134.398 55.2096 133.919 64.2759C133.441 73.3423 129.605 81.906 123.158 88.2986C116.711 94.6912 108.116 98.4548 99.0455 98.8562C89.9754 99.2575 81.0808 96.2678 74.0944 90.4697C72.395 94.1118 70.9271 97.8576 69.6995 101.685C72.1546 106.772 75.47 111.396 79.4994 115.355C85.2566 117.329 91.3029 118.33 97.3894 118.315C112.237 118.299 126.471 112.394 136.97 101.895C147.468 91.3965 153.373 77.1619 153.389 62.3147C153.401 56.9223 152.616 51.5577 151.059 46.3948M97.3944 98.8946C88.8803 98.9041 80.6335 95.9221 74.0944 90.4697C72.5071 89.1773 71.0441 87.7393 69.7245 86.1747C68.5155 84.8145 67.4265 83.3524 66.4695 81.8047C65.8356 80.8406 65.2612 79.8387 64.7495 78.8047C63.5927 76.5207 62.681 74.1206 62.0295 71.6447C61.2156 68.6052 60.807 65.4714 60.8145 62.3247C60.8145 61.5997 60.8395 60.8697 60.8895 60.1397C61.4349 51.1436 65.2801 42.6649 71.6884 36.3276C78.0967 29.9903 86.6177 26.24 95.6194 25.7948C96.2044 25.7698 96.7894 25.7448 97.3944 25.7448C100.641 25.7322 103.874 26.1732 106.999 27.0548C109.805 27.791 112.506 28.8832 115.034 30.3048C115.863 30.7429 116.667 31.2287 117.439 31.7598C118.899 32.707 120.286 33.7616 121.589 34.9148C123.093 36.2431 124.481 37.6966 125.739 39.2598C130.112 44.6185 132.873 51.108 133.703 57.974C134.533 64.84 133.398 71.8007 130.429 78.0469C127.46 84.2932 122.779 89.5685 116.93 93.2598C111.081 96.9512 104.305 98.9068 97.3894 98.8996M151.054 46.3998C149.649 41.6212 147.6 37.056 144.964 32.8298C144.694 32.3898 144.429 31.9548 144.139 31.5448C143.849 31.1348 143.674 30.8148 143.434 30.4748C139.764 25.1977 135.22 20.585 129.999 16.8349C127.122 14.787 124.064 13.0047 120.864 11.5099C120.574 11.3649 120.284 11.2399 119.994 11.1199C112.88 7.95696 105.18 6.32826 97.3944 6.33991C82.5472 6.35579 68.3126 12.2609 57.8141 22.7594C47.3155 33.258 41.4104 47.4925 41.3945 62.3397C41.3905 69.4338 42.7484 76.4626 45.3945 83.0447C45.6186 83.6572 45.8773 84.2565 46.1695 84.8397C46.8322 86.4315 47.5954 87.9797 48.4545 89.4747C52.5109 96.8066 58.1678 103.13 65.0045 107.975C65.2495 108.165 65.5045 108.335 65.7845 108.505C66.3395 108.92 66.9245 109.285 67.5045 109.645C76.4539 115.303 86.8211 118.316 97.4094 118.335C112.257 118.319 126.491 112.414 136.99 101.915C147.488 91.4165 153.393 77.1819 153.409 62.3347C153.421 56.9423 152.636 51.5777 151.079 46.4148M151.079 46.4148C146.85 41.7939 141.786 38.0127 136.154 35.2698C132.619 36.4082 129.15 37.7436 125.764 39.2698C131.503 46.3049 134.418 55.2246 133.939 64.2909C133.461 73.3573 129.625 81.921 123.178 88.3136C116.731 94.7062 108.136 98.4698 99.0655 98.8712C89.9954 99.2725 81.1008 96.2828 74.1144 90.4847C72.415 94.1268 70.9471 97.8726 69.7195 101.7C72.17 106.78 75.4785 111.399 79.4994 115.355C85.2566 117.329 91.3029 118.33 97.3894 118.315C112.237 118.299 126.471 112.394 136.97 101.895C147.468 91.3965 153.373 77.1619 153.389 62.3147C153.401 56.9223 152.616 51.5577 151.059 46.3948" fill="#DFDFDF"/>
<path d="M404.595 155.134V169.579H338V158.164L380.315 106.894H338.865V92.4492H403.44V103.859L361 155.134H404.595Z" fill="black"/>
<path d="M438.892 111.152C434.899 114.581 432.467 119.13 431.597 124.796H475.362C474.592 119.213 472.232 114.688 468.282 111.222C464.332 107.755 459.422 106.022 453.552 106.022C447.775 106.022 442.889 107.73 438.892 111.147M492.262 136.796H431.762C432.815 142.483 435.582 146.983 440.062 150.296C444.542 153.61 450.104 155.276 456.747 155.296C465.217 155.296 472.197 152.503 477.687 146.916L487.362 158.041C483.839 162.224 479.32 165.451 474.222 167.426C468.929 169.546 462.959 170.606 456.312 170.606C447.835 170.606 440.374 168.921 433.927 165.551C427.694 162.39 422.504 157.5 418.977 151.466C415.464 145.466 413.707 138.655 413.707 131.031C413.707 123.521 415.415 116.756 418.832 110.737C422.165 104.806 427.093 99.9284 433.057 96.6565C439.127 93.2866 445.96 91.6016 453.557 91.6016C461.067 91.6016 467.784 93.2682 473.707 96.6015C479.564 99.8574 484.373 104.713 487.572 110.602C490.905 116.601 492.572 123.558 492.572 131.471C492.572 132.721 492.477 134.501 492.287 136.811" fill="black"/>
<path d="M554.501 91.582V108.797C553.121 108.524 551.718 108.378 550.311 108.362C543.281 108.362 537.793 110.409 533.846 114.502C529.899 118.595 527.926 124.492 527.926 132.192V169.597H509.871V92.447H527.056V103.717C532.256 95.627 541.404 91.582 554.501 91.582Z" fill="black"/>
<path d="M620.231 148.489C624.565 144.062 626.731 138.237 626.731 131.014C626.731 123.79 624.565 117.957 620.231 113.514C615.898 109.084 610.41 106.869 603.766 106.869C597.123 106.869 591.658 109.084 587.372 113.514C583.088 117.944 580.947 123.777 580.947 131.014C580.947 138.25 583.088 144.075 587.372 148.489C591.655 152.919 597.12 155.134 603.766 155.134C610.413 155.134 615.901 152.919 620.231 148.489ZM582.677 165.534C576.56 162.309 571.474 157.428 568.002 151.449C564.482 145.449 562.723 138.637 562.727 131.014C562.73 123.39 564.488 116.602 568.002 110.649C571.488 104.709 576.564 99.8604 582.657 96.6487C588.917 93.2787 595.946 91.5938 603.746 91.5938C611.636 91.5938 618.713 93.2787 624.976 96.6487C631.071 99.8597 636.148 104.708 639.636 110.649C643.146 116.619 644.903 123.407 644.906 131.014C644.91 138.62 643.153 145.432 639.636 151.449C636.174 157.422 631.103 162.302 625.001 165.534C618.741 168.904 611.665 170.589 603.771 170.589C595.972 170.589 588.942 168.904 582.682 165.534" fill="black"/>
<path d="M782.71 100.031C788.377 105.661 791.21 114.109 791.21 125.376V169.571H773.155V127.691C773.155 120.951 771.663 115.871 768.68 112.451C765.697 109.031 761.412 107.323 755.825 107.326C749.758 107.326 744.895 109.326 741.235 113.326C737.575 117.326 735.742 123.029 735.735 130.436V169.576H717.68V127.691C717.68 120.951 716.18 115.871 713.18 112.451C710.18 109.031 705.895 107.323 700.325 107.326C694.162 107.326 689.275 109.299 685.665 113.246C682.055 117.193 680.25 122.921 680.25 130.431V169.571H662.195V92.4462H679.38V102.296C682.296 98.8105 686.014 96.0842 690.215 94.3512C694.795 92.473 699.706 91.5393 704.655 91.6062C710.435 91.6062 715.563 92.6895 720.04 94.8562C724.439 96.9547 728.129 100.293 730.655 104.461C733.931 100.336 738.17 97.0786 743 94.9762C748.23 92.668 753.894 91.5103 759.61 91.5812C769.333 91.5812 777.037 94.3979 782.72 100.031" fill="black"/>
<path d="M833.902 111.152C829.902 114.572 827.47 119.122 826.607 124.802H870.371C869.601 119.219 867.241 114.694 863.291 111.227C859.341 107.76 854.431 106.027 848.561 106.027C842.785 106.027 837.898 107.735 833.902 111.152ZM887.271 136.797H826.772C827.832 142.484 830.6 146.984 835.077 150.297C839.553 153.61 845.115 155.277 851.761 155.297C860.231 155.297 867.211 152.504 872.701 146.917L882.376 158.042C878.854 162.224 874.335 165.452 869.236 167.427C863.936 169.547 857.966 170.607 851.326 170.607C842.853 170.607 835.39 168.922 828.937 165.552C822.705 162.382 817.519 157.486 813.997 151.447C810.483 145.447 808.727 138.635 808.727 131.012C808.727 123.502 810.435 116.737 813.852 110.717C817.183 104.785 822.111 99.9074 828.077 96.637C834.147 93.267 840.98 91.582 848.576 91.582C856.086 91.582 862.803 93.2487 868.726 96.582C874.583 99.8378 879.392 104.694 882.591 110.582C885.925 116.582 887.591 123.539 887.591 131.452C887.591 132.702 887.496 134.482 887.306 136.792" fill="black"/>
<path d="M975.663 92.4492L942.588 169.574H923.958L890.883 92.4492H909.658L933.658 149.644L958.353 92.4492H975.663Z" fill="black"/>
</svg>
