<svg fill="none" height="320" viewBox="0 0 320 320" width="320" xmlns="http://www.w3.org/2000/svg"><path d="m319.005 159.998c0 87.816-71.189 159.005-159.005 159.005-87.8167 0-159.005859-71.189-159.005859-159.005 0-87.8166 71.189159-159.005812 159.005859-159.005812 87.816 0 159.005 71.189212 159.005 159.005812z" fill="#ffc9f0"/><g fill="#f35534"><path clip-rule="evenodd" d="m159.999 1.98757c-87.2672 0-158.01143 70.74423-158.01143 158.01143 0 87.268 70.74423 158.012 158.01143 158.012 87.268 0 158.012-70.744 158.012-158.012 0-87.2672-70.744-158.01143-158.012-158.01143zm-159.999 158.01143c0-88.3649 71.6341-159.999 159.999-159.999 88.365 0 160 71.6341 160 159.999 0 88.365-71.635 160-160 160-88.3649 0-159.999-71.635-159.999-160z" fill-rule="evenodd"/><path d="m88.6875 69.3125c35.8205-35.8207 92.9885-38.5805 132.0925-6.3767l97.337 80.1602c.587 5.553.888 11.193.888 16.902 0 81.628-61.509 148.889-140.706 157.964l-95.9882-116.557c-32.2038-39.104-29.444-96.272 6.3767-132.0925z"/><path clip-rule="evenodd" d="m87.9844 68.6114c36.1826-36.1826 93.9276-38.9702 133.4276-6.4411l97.337 80.1597c.201.166.329.404.356.663.591 5.588.893 11.262.893 17.007 0 82.138-61.893 149.819-141.587 158.951-.334.038-.666-.096-.88-.356l-95.9877-116.556c-32.5291-39.5-29.7415-97.245 6.4411-133.4276zm132.1636-4.9069c-38.709-31.8784-95.299-29.1465-130.7581 6.3123-35.4589 35.4592-38.1907 92.0492-6.3123 130.7582l95.6434 116.139c78.443-9.26 139.29-75.982 139.29-156.914 0-5.537-.285-11.006-.84-16.395z" fill-rule="evenodd"/></g><path d="m123.167 71.6953c-25.8954 0-47.2549 26.5754-47.2549 59.8657 0 44.808 36.3229 81.131 81.1309 81.131 4.419 0 8.755-.353 12.983-1.033 2.619-.422 5.051 1.637 4.891 4.286l-.702 11.59c-.164 2.716 1.995 5.01 4.716 5.01 2.684 0 4.829-2.233 4.721-4.915v-10.383c0-2.716 1.749-5.123 4.333-5.963 4.161-1.352 8.393 1.868 8.2 6.239l-2.237 50.775c-.087 2.182 1.658 3.998 3.842 3.998 2.163 0 3.901-1.784 3.843-3.947l-1.11-41.64c-.433-16.228 8.599-30.864 18.97-43.354 11.667-14.051 18.681-32.103 18.681-51.793 0-33.2912-21.359-59.8667-47.254-59.8667-12.958 0-24.512 6.62-33.097 17.4491-.189.2378-.476.3764-.779.3764s-.59-.1386-.779-.3764c-8.585-10.829-20.141-17.4491-33.098-17.4491z" fill="#fff"/><path clip-rule="evenodd" d="m139.733 122.444c-1.331-4.547-6.033-7.573-10.646-7.573-5.521 0-9.996 4.474-9.996 9.994s4.475 9.994 9.996 9.994h12.207l6.892 23.802c.005.022.01.044.016.065l7.881 27.22c.103.354.39.616.738.694.071.016.145.024.22.024.442 0 .831-.292.954-.717l14.792-51.086h12.207c5.521 0 9.996-4.475 9.996-9.994 0-5.52-4.475-9.994-9.996-9.994-4.613 0-9.315 3.025-10.646 7.573l-3.262 11.142v.001l-6.771 23.385c-4.569-2.32-9.98-2.32-14.549-.002l-6.771-23.386zm10.597 36.476c4.184-2.265 9.235-2.265 13.419.001l-6.71 23.172zm23.037-26.047 2.889-9.869c1.048-3.582 4.879-6.144 8.738-6.144 4.423 0 8.009 3.585 8.009 8.007 0 4.421-3.586 8.006-8.009 8.006zm-44.28-16.014c3.859 0 7.69 2.561 8.738 6.143l2.89 9.869h-11.628c-4.423 0-8.009-3.584-8.009-8.006s3.586-8.006 8.009-8.006z" fill="#f35534" fill-rule="evenodd"/><path d="m184.994 115.865c-4.236 0-8.502 2.793-9.692 6.858l-3.262 11.142h12.954c4.972 0 9.002-4.029 9.002-9s-4.03-9-9.002-9z" fill="#000"/><path d="m129.086 115.863c4.237 0 8.503 2.794 9.693 6.858l3.262 11.142h-12.955c-4.971 0-9.002-4.029-9.002-9 0-4.97 4.031-9 9.002-9z" fill="#000"/><path clip-rule="evenodd" d="m139.733 122.444c-1.331-4.547-6.033-7.573-10.646-7.573-5.521 0-9.996 4.474-9.996 9.994s4.475 9.994 9.996 9.994h12.954c.313 0 .608-.148.795-.398.188-.251.247-.575.159-.875zm-10.646-5.585c3.859 0 7.69 2.561 8.738 6.143l2.89 9.869h-11.628c-4.423 0-8.009-3.584-8.009-8.006s3.586-8.006 8.009-8.006zm65.903 8.008c0-5.52-4.475-9.994-9.996-9.994-4.613 0-9.315 3.025-10.646 7.573l-3.262 11.142c-.088.3-.029.624.159.875.188.25.482.398.795.398h12.954c5.521 0 9.996-4.475 9.996-9.994zm-9.996-8.007c4.423 0 8.009 3.585 8.009 8.007 0 4.421-3.586 8.006-8.009 8.006h-11.627l2.889-9.869c1.048-3.582 4.879-6.144 8.738-6.144z" fill="#f35534" fill-rule="evenodd"/><path d="m164.92 158.457c-4.836-2.963-10.927-2.963-15.763 0l7.881 27.22z" fill="#ffd338"/><path clip-rule="evenodd" d="m163.749 158.926-6.711 23.175-6.71-23.175c4.185-2.267 9.237-2.267 13.421 0zm1.69-1.319c-5.154-3.158-11.646-3.158-16.801 0-.382.234-.56.694-.435 1.124l7.881 27.22c.123.425.512.717.954.717.443 0 .832-.292.955-.717l7.882-27.22c.124-.43-.054-.89-.436-1.124z" fill="#f35534" fill-rule="evenodd"/><path d="m114.693 219.711c0-2.792-2.263-5.055-5.055-5.055h-20.2202c-2.7919 0-5.0551 2.264-5.0551 5.055v25.276h30.3303z" fill="#ffd338"/><path clip-rule="evenodd" d="m115.688 219.713c0-3.341-2.709-6.049-6.049-6.049h-20.2209c-3.3407 0-6.0488 2.708-6.0488 6.049v26.269h32.3187zm-6.049-4.061c2.243 0 4.061 1.818 4.061 4.061v24.282h-28.3432v-24.282c0-2.243 1.8183-4.061 4.0613-4.061z" fill="#f35534" fill-rule="evenodd"/><path d="m113.935 224.395h-3.745c-3.42 0-5.963 2.669-5.963 5.962s2.543 5.963 5.963 5.963h3.745c3.42 0 6.192-2.67 6.192-5.963s-2.772-5.962-6.192-5.962z" fill="#f35534"/><path d="m110.19 230.358c0 2.195 1.78 3.975 3.975 3.975 2.196 0 3.976-1.78 3.976-3.975s-1.78-3.975-3.976-3.975c-2.195 0-3.975 1.78-3.975 3.975z" fill="#fff"/><path clip-rule="evenodd" d="m137.442 316.414v-65.068c0-3.509-2.845-6.354-6.354-6.354h-63.1191c-3.509 0-6.3537 2.845-6.3537 6.354v32.307c21.4358 17.078 47.4118 28.699 75.8268 32.761z" fill="#fff" fill-rule="evenodd"/><path d="m138.435 317.554v-66.21c0-4.058-3.289-7.348-7.347-7.348h-63.1194c-4.0579 0-7.3475 3.29-7.3475 7.348v32.785c.6582.528 1.3208 1.05 1.9876 1.568v-34.353c0-2.961 2.3997-5.36 5.3599-5.36h63.1194c2.96 0 5.36 2.399 5.36 5.36v65.927c.661.098 1.324.193 1.987.283z" fill="#f35534"/><path d="m127.334 315.645c-15.238-3.181-29.6744-8.544-42.9688-15.747v-22.05h42.9688z" fill="#f35534"/></svg>