<svg fill="none" height="320" viewBox="0 0 320 320" width="320" xmlns="http://www.w3.org/2000/svg"><path d="m319.007 159.998c0 87.817-71.19 159.007-159.007 159.007-87.8164 0-159.005859-71.19-159.005859-159.007 0-87.8163 71.189459-159.005812 159.005859-159.005812 87.817 0 159.007 71.189512 159.007 159.005812z" fill="#ffd338"/><path clip-rule="evenodd" d="m160 1.98758c-87.2679 0-158.01242 70.74452-158.01242 158.01242 0 87.268 70.74452 158.012 158.01242 158.012 87.268 0 158.012-70.744 158.012-158.012 0-87.2679-70.744-158.01242-158.012-158.01242zm-160 158.01242c0-88.3656 71.6344-160 160-160 88.366 0 160 71.6344 160 160 0 88.366-71.634 160-160 160-88.3656 0-160-71.634-160-160z" fill="#f35534" fill-rule="evenodd"/><path d="m15.2207 225.837.7843-4.015c13.4425-68.808 73.8017-118.467 143.995-118.467 70.193 0 130.552 49.659 143.995 118.467l.784 4.015c-25.033 54.963-80.444 93.171-144.779 93.171s-119.7461-38.209-144.7793-93.171z" fill="#693f2d"/><path clip-rule="evenodd" d="m160.001 104.197c-69.7911 0-129.803 49.374-143.1682 117.786l-.7324 3.749c24.9544 54.541 80.0034 92.432 143.9006 92.432 63.897 0 118.946-37.891 143.9-92.432l-.732-3.749c-13.366-68.413-73.378-117.786-143.168-117.786zm-144.8222 117.463c13.52-69.205 74.2264-119.148 144.8222-119.148 70.595 0 131.301 49.943 144.822 119.147l.784 4.015c.034.173.013.351-.06.511-25.165 55.252-80.869 93.664-145.546 93.664-64.6774 0-120.3813-38.412-145.5463-93.664-.0728-.16-.0938-.339-.0602-.511z" fill="#f35534" fill-rule="evenodd"/><path d="m97.3906 117.268c0-29.0888 23.4934-52.6703 52.4734-52.6703h19.276c28.981 0 52.474 23.5815 52.474 52.6703z" fill="#ffc9f0"/><path clip-rule="evenodd" d="m96.5488 117.267c0-29.5513 23.8672-53.5131 53.3162-53.5131h19.276c29.449 0 53.317 23.9618 53.317 53.5131 0 .466-.378.843-.843.843h-124.2235c-.4654 0-.8427-.377-.8427-.843zm1.692-.842h122.5252c-.449-28.2384-23.393-50.9858-51.625-50.9858h-19.276c-28.232 0-51.1758 22.7474-51.6242 50.9858z" fill="#f35534" fill-rule="evenodd"/><path d="m125.217 98.9949c0-18.997 15.35-34.3972 34.286-34.3972 18.935 0 34.285 15.4001 34.285 34.3972v18.2731h-68.571z" fill="#fff"/><g fill="#f35534"><path clip-rule="evenodd" d="m124.375 98.9938c0-19.4598 15.725-35.2399 35.128-35.2399 19.404 0 35.129 15.78 35.129 35.2399v18.2732c0 .466-.378.843-.843.843h-68.571c-.466 0-.843-.377-.843-.843zm35.128-33.5546c-18.467 0-33.443 15.0203-33.443 33.5546v17.4312h66.886v-17.4312c0-18.5343-14.975-33.5546-33.443-33.5546z" fill-rule="evenodd"/><path d="m97.3906 117.266h124.2234l-7.002 24.196c-1.979 6.837-9.36 10.414-15.832 7.673l-10.446-4.423c-18.452-7.814-39.211-7.814-57.663 0l-10.446 4.423c-6.473 2.741-13.853-.836-15.832-7.673z"/><path clip-rule="evenodd" d="m96.7179 116.762c.1592-.212.4087-.336.6736-.336h124.2235c.265 0 .514.124.674.336.159.212.209.486.135.741l-7.002 24.196c-2.116 7.31-10.021 11.157-16.97 8.215l-10.446-4.424c-18.242-7.725-38.764-7.725-57.006 0l-10.446 4.424c-6.948 2.942-14.854-.905-16.97-8.215l-7.002-24.196c-.0736-.255-.0233-.529.1359-.741zm1.7947 1.349 6.6904 23.12c1.842 6.363 8.698 9.67 14.694 7.131l10.446-4.424c18.662-7.902 39.658-7.902 58.321 0l10.445 4.424c5.997 2.539 12.853-.768 14.694-7.131l6.691-23.12z" fill-rule="evenodd"/><path d="m153.043 64.5955c0-3.2931 2.892-5.9627 6.46-5.9627 3.567 0 6.459 2.6696 6.459 5.9627z"/><path clip-rule="evenodd" d="m152.201 64.5983c0-3.8207 3.334-6.8053 7.302-6.8053 3.969 0 7.303 2.9846 7.303 6.8053 0 .4654-.378.8427-.843.8427h-12.919c-.466 0-.843-.3773-.843-.8427zm1.762-.8426h11.081c-.438-2.3847-2.701-4.2774-5.541-4.2774-2.839 0-5.102 1.8927-5.54 4.2774z" fill-rule="evenodd"/></g><path d="m118.261 185.073c0 7.684-9.344 10.702-20.87 10.702-11.5259 0-20.8695-3.018-20.8695-10.702s9.3436-17.124 20.8695-17.124c11.526 0 20.87 9.44 20.87 17.124z" fill="#fff"/><path clip-rule="evenodd" d="m83.1913 174.265c-3.6626 3.22-5.8263 7.289-5.8263 10.811 0 3.403 2.0301 5.836 5.6183 7.465 3.6185 1.643 8.6973 2.394 14.4086 2.394 5.7111 0 10.7901-.751 14.4081-2.394 3.589-1.629 5.619-4.062 5.619-7.465 0-3.522-2.164-7.591-5.826-10.811-3.644-3.203-8.669-5.47-14.2011-5.47-5.5324 0-10.5573 2.267-14.2006 5.47zm-1.1128-1.265c3.91-3.438 9.3199-5.891 15.3134-5.891 5.9931 0 11.4031 2.453 15.3131 5.891 3.891 3.42 6.399 7.914 6.399 12.076 0 4.28-2.642 7.199-6.607 9-3.934 1.787-9.29 2.545-15.1051 2.545-5.8147 0-11.1706-.758-15.1054-2.545-3.9651-1.801-6.6068-4.72-6.6068-9 0-4.162 2.5081-8.656 6.3988-12.076z" fill="#f35534" fill-rule="evenodd"/><path d="m241.491 185.073c0 7.684-9.121 10.702-20.372 10.702-11.252 0-20.373-3.018-20.373-10.702s9.121-17.124 20.373-17.124c11.251 0 20.372 9.44 20.372 17.124z" fill="#fff"/><path clip-rule="evenodd" d="m207.276 174.259c-3.572 3.217-5.688 7.287-5.688 10.817 0 3.415 1.988 5.844 5.479 7.468 3.527 1.641 8.478 2.391 14.051 2.391 5.572 0 10.524-.75 14.05-2.391 3.492-1.624 5.48-4.053 5.48-7.468 0-3.53-2.116-7.6-5.689-10.817-3.554-3.202-8.452-5.464-13.841-5.464s-10.287 2.262-13.842 5.464zm-1.128-1.253c3.819-3.439 9.107-5.897 14.97-5.897 5.862 0 11.15 2.458 14.969 5.897 3.801 3.424 6.246 7.916 6.246 12.07 0 4.269-2.573 7.191-6.454 8.996-3.848 1.79-9.082 2.549-14.761 2.549s-10.914-.759-14.761-2.549c-3.882-1.805-6.455-4.727-6.455-8.996 0-4.154 2.445-8.646 6.246-12.07z" fill="#f35534" fill-rule="evenodd"/><path d="m217.897 195.775c3.518-3.531 5.706-8.483 5.706-13.965 0-5.429-2.145-10.337-5.602-13.861-9.729 1.294-17.255 9.949-17.255 17.097 0 7.123 7.472 10.269 17.151 10.729z" fill="#000"/><path clip-rule="evenodd" d="m217.889 167.117c.262-.035.526.056.712.245 3.609 3.678 5.844 8.797 5.844 14.451 0 5.709-2.279 10.874-5.952 14.56-.168.168-.399.258-.637.247-4.899-.233-9.337-1.147-12.579-2.974-3.284-1.85-5.375-4.669-5.375-8.597 0-3.852 2.014-8.002 5.215-11.328 3.212-3.338 7.694-5.929 12.772-6.604zm-11.558 7.773c-2.994 3.112-4.743 6.864-4.743 10.159 0 3.195 1.645 5.511 4.517 7.129 2.837 1.599 6.834 2.484 11.454 2.739 3.212-3.357 5.2-7.986 5.2-13.104 0-5.048-1.934-9.62-5.067-12.965-4.481.702-8.467 3.035-11.361 6.042z" fill="#f35534" fill-rule="evenodd"/><path d="m100.365 195.775c-3.6713-3.531-5.9542-8.483-5.9542-13.965 0-5.429 2.238-10.337 5.8462-13.861 10.152 1.294 18.005 9.949 18.005 17.097 0 7.123-7.797 10.269-17.897 10.729z" fill="#000"/><path clip-rule="evenodd" d="m100.362 167.116c-.255-.032-.5108.053-.6949.233-3.7631 3.676-6.0998 8.798-6.0998 14.464 0 5.721 2.3836 10.889 6.2128 14.572.1666.161.3919.245.6229.235 5.105-.233 9.725-1.146 13.097-2.967 3.411-1.842 5.604-4.658 5.604-8.604 0-3.865-2.108-8.018-5.444-11.341-3.349-3.335-8.017-5.919-13.298-6.592zm12.109 7.786c3.128 3.116 4.947 6.865 4.947 10.147 0 3.177-1.706 5.495-4.719 7.122-2.976 1.607-7.169 2.494-12.008 2.747-3.3624-3.36-5.4384-7.991-5.4384-13.105 0-5.045 2.0202-9.62 5.3024-12.969 4.707.699 8.887 3.042 11.916 6.058z" fill="#f35534" fill-rule="evenodd"/><path d="m132.517 247.209c14.904 0 26.987-11.904 26.987-26.588 0 14.684 12.082 26.588 26.986 26.588 1.47 0 2.912-.115 4.318-.338l-7.834 24.946c-1.761 5.604-7.021 9.425-12.975 9.425h-10.495-10.496c-5.954 0-11.214-3.821-12.974-9.425l-7.835-24.946c1.406.223 2.848.338 4.318.338z" fill="#fff"/><path clip-rule="evenodd" d="m159.502 219.777c.466 0 .843.378.843.843 0 14.207 11.693 25.746 26.144 25.746 1.425 0 2.823-.113 4.186-.329.288-.045.579.061.77.282.19.221.253.525.166.803l-7.835 24.946c-1.872 5.962-7.463 10.016-13.778 10.016h-20.991c-6.315 0-11.906-4.054-13.778-10.016l-7.835-24.946c-.087-.278-.024-.582.166-.803.191-.221.482-.327.77-.282 1.362.216 2.761.329 4.186.329 14.451 0 26.144-11.539 26.144-25.746 0-.465.377-.843.842-.843zm-.842 10.267c-3.901 10.512-14.141 18.007-26.144 18.007-1.054 0-2.094-.058-3.117-.17l7.437 23.682c1.648 5.247 6.578 8.835 12.171 8.835h9.653zm1.685 50.354h9.653c5.593 0 10.523-3.588 12.17-8.835l7.438-23.682c-1.023.112-2.064.17-3.117.17-12.003 0-22.243-7.495-26.144-18.007z" fill="#f35534" fill-rule="evenodd"/><path d="m106.336 220.447c0 14.915 12.013 27.005 26.832 27.005s26.833-12.09 26.833-27.005c0 14.915 12.013 27.005 26.832 27.005s26.832-12.09 26.832-27.005c0-26.25-21.143-47.529-47.225-47.529h-12.879c-26.082 0-47.225 21.279-47.225 47.529z" fill="#693f2d"/><path clip-rule="evenodd" d="m153.06 173.763c-25.611 0-46.383 20.898-46.383 46.687 0 14.454 11.642 26.162 25.99 26.162 14.349 0 25.99-11.708 25.99-26.162v-17.824h.842.843v17.824c0 14.454 11.641 26.162 25.99 26.162 14.348 0 25.989-11.708 25.989-26.162 0-25.789-20.771-46.687-46.382-46.687zm6.439 53.533c3.032 12.067 13.892 21.002 26.833 21.002 15.289 0 27.675-12.473 27.675-27.848 0-26.71-21.516-48.372-48.068-48.372h-12.879c-26.552 0-48.068 21.662-48.068 48.372 0 15.375 12.386 27.848 27.675 27.848 12.941 0 23.801-8.935 26.832-21.002z" fill="#f35534" fill-rule="evenodd"/><path d="m143.434 191.741c-2.165-2.82-.155-6.897 3.399-6.897h25.342c3.555 0 5.565 4.077 3.4 6.897l-16.071 20.929z" fill="#000"/><path clip-rule="evenodd" d="m142.766 192.256c-2.591-3.373-.186-8.252 4.068-8.252h25.342c4.253 0 6.658 4.879 4.068 8.252l-16.071 20.93c-.159.208-.406.329-.668.329s-.509-.121-.669-.329zm4.068-6.567c-2.856 0-4.471 3.276-2.732 5.541l15.403 20.059 15.402-20.059c1.739-2.265.125-5.541-2.731-5.541z" fill="#f35534" fill-rule="evenodd"/></svg>