<svg fill="none" height="320" viewBox="0 0 320 320" width="320" xmlns="http://www.w3.org/2000/svg"><path d="m319.007 159.998c0 87.817-71.19 159.007-159.007 159.007-87.8164 0-159.005859-71.19-159.005859-159.007 0-87.8163 71.189459-159.005812 159.005859-159.005812 87.817 0 159.007 71.189512 159.007 159.005812z" fill="#48bdff"/><path clip-rule="evenodd" d="m160 1.98758c-87.2679 0-158.01242 70.74452-158.01242 158.01242 0 87.268 70.74452 158.012 158.01242 158.012 87.268 0 158.012-70.744 158.012-158.012 0-87.2679-70.744-158.01242-158.012-158.01242zm-160 158.01242c0-88.3656 71.6344-160 160-160 88.366 0 160 71.6344 160 160 0 88.366-71.634 160-160 160-88.3656 0-160-71.634-160-160z" fill="#f35534" fill-rule="evenodd"/><path d="m223.82 63.1038-4.191-18.385h50.294c16.686 0 33.372 6.1283 46.103 18.385z" fill="#000"/><path clip-rule="evenodd" d="m218.852 44.1006c.188-.2364.474-.374.777-.374h50.294c16.927 0 33.865 6.2172 46.792 18.6629.292.2812.384.7115.233 1.0875-.152.376-.517.6222-.922.6222h-92.206c-.464 0-.866-.3207-.969-.7729l-4.191-18.3851c-.068-.2948.003-.6042.192-.8406zm2.022 1.6135 3.738 16.3976h88.878c-12.279-10.9285-27.918-16.3976-43.567-16.3976z" fill="#f35534" fill-rule="evenodd"/><path d="m316.026 63.1055c-25.522 25.176-66.901 25.176-92.422 0z" fill="#ffc9f0"/><path clip-rule="evenodd" d="m222.684 62.7299c.153-.373.516-.6166.919-.6166h92.423c.403 0 .766.2436.919.6166s.065.8015-.222 1.0847c-25.908 25.5577-67.909 25.5577-93.818 0-.287-.2832-.374-.7117-.221-1.0847zm90.852 1.371c-24.638 22.5258-62.805 22.5258-87.444 0z" fill="#f35534" fill-rule="evenodd"/><path d="m219.628 8.67928c0-4.24547-3.455-7.687092-7.717-7.687092-3.619 0-6.753 2.505632-7.535 6.025742l-8.599 38.69477h23.851z" fill="#fff"/><path clip-rule="evenodd" d="m203.406 6.80395c.884-3.97728 4.422-6.80395 8.505-6.80395 4.807 0 8.711 3.8829 8.711 8.68088v37.03342c0 .5488-.445.9938-.994.9938h-23.851c-.301 0-.587-.1368-.775-.372-.189-.2351-.261-.5431-.195-.8374zm8.505-4.81637c-3.157 0-5.884 2.1846-6.565 5.24753l-8.33 37.48539h21.618v-36.03962c0-3.69295-3.006-6.6933-6.723-6.6933z" fill="#f35534" fill-rule="evenodd"/><path d="m101.367 8.67928c0-4.24547 3.599-7.687092 8.039-7.687092 3.77 0 7.034 2.505632 7.849 6.025742l8.957 38.69477h-24.845z" fill="#fff"/><path clip-rule="evenodd" d="m100.373 8.68088c0-4.83575 4.086-8.68088 9.033-8.68088 4.203 0 7.891 2.79712 8.817 6.79541l8.957 38.69479c.068.2951-.002.6053-.191.8425-.188.2372-.474.3754-.777.3754h-24.845c-.549 0-.994-.445-.994-.9938zm9.033-6.6933c-3.934 0-7.045 3.03812-7.045 6.6933v36.03962h22.6l-8.675-37.47685c-.704-3.04192-3.544-5.25607-6.88-5.25607z" fill="#f35534" fill-rule="evenodd"/><path d="m150.386 12.918c-24.625 0-46.042 16.8929-51.8079 40.8625l-52.2832 217.3665c28.8692 29.529 69.1471 47.858 113.7061 47.858 45.383 0 86.326-19.013 115.297-49.509l-51.887-215.7154c-5.765-23.9697-27.183-40.8626-51.808-40.8626z" fill="#fff"/><path clip-rule="evenodd" d="m150.386 13.9134c-24.165 0-45.184 16.5773-50.842 40.1012l-52.1544 216.8314c28.6625 29.116 68.5274 47.167 112.6114 47.167 44.905 0 85.435-18.731 114.204-48.809l-51.76-215.1894c-5.658-23.5239-26.677-40.1012-50.842-40.1012zm-52.7744 39.6363c5.8724-24.4155 27.6894-41.6239 52.7744-41.6239h21.217c25.085 0 46.902 17.2084 52.774 41.624l51.887 215.7162c.078.327-.014.672-.246.917-29.151 30.684-70.35 49.817-116.017 49.817-44.838 0-85.3686-18.444-114.417-48.157-.2391-.244-.3356-.594-.2556-.927z" fill="#f35534" fill-rule="evenodd"/><path d="m97.176 63.1038 4.191-18.385h-50.2942c-16.686 0-33.3721 6.1283-46.10312 18.385z" fill="#fff"/><path clip-rule="evenodd" d="m102.144 44.1006c-.188-.2364-.474-.374-.776-.374h-50.2948c-16.9272 0-33.8651 6.2172-46.79244 18.6629-.29204.2812-.38402.7115-.23245 1.0875s.51632.6222.9217.6222h92.20629c.4638 0 .8659-.3207.969-.7729l4.1907-18.3851c.068-.2948-.003-.6042-.192-.8406zm-2.022 1.6135-3.7384 16.3976h-88.8775c12.2786-10.9285 27.918-16.3976 43.5671-16.3976z" fill="#f35534" fill-rule="evenodd"/><path d="m4.97022 63.1055c25.52168 25.176 66.90058 25.176 92.42238 0z" fill="#ffc9f0"/><path clip-rule="evenodd" d="m98.3123 62.7299c-.153-.373-.5162-.6166-.9194-.6166h-92.42236c-.40318 0-.76641.2436-.91943.6166s-.06551.8015.22152 1.0847c25.90867 25.5577 67.90947 25.5577 93.81817 0 .287-.2832.3746-.7117.2215-1.0847zm-90.85254 1.371c24.63854 22.5258 62.80534 22.5258 87.44394 0z" fill="#f35534" fill-rule="evenodd"/><path d="m263.217 280.956-32.15-4.86c-24.865-3.759-35.077-33.232-17.633-50.893 17.468-17.684 48.104-9.593 54.004 14.262l7.516 30.393c-3.722 3.893-7.639 7.598-11.737 11.098z" fill="#000"/><path clip-rule="evenodd" d="m212.727 224.505c17.994-18.217 49.583-9.914 55.675 14.722l7.517 30.393c.081.33-.012.679-.247.925-3.745 3.917-7.687 7.645-11.81 11.167-.219.187-.509.27-.794.227l-32.149-4.86c-25.632-3.875-36.233-34.309-18.192-52.574zm53.746 15.199c-5.706-23.075-35.39-30.954-52.332-13.802-16.847 17.056-7.025 45.568 17.075 49.211l31.7 4.793c3.809-3.273 7.461-6.724 10.942-10.341z" fill="#f35534" fill-rule="evenodd"/><path d="m110.087 311.014c-24.4474-8.076-46.2693-21.922-63.8526-39.926l13.7244-57.424c15.9848 10.856 47.1932 44.957 50.1282 97.35z" fill="#000"/><g fill="#f35534"><path clip-rule="evenodd" d="m59.5992 212.739c.3045-.118.6475-.079.9176.105 16.1914 10.995 47.6072 45.359 50.5622 98.116.018.329-.127.645-.388.845s-.604.258-.916.154c-24.6016-8.126-46.5597-22.06-64.2519-40.175-.2384-.245-.3349-.594-.2556-.926l13.7244-57.423c.0759-.318.3029-.578.6073-.696zm.9865 2.577-13.2574 55.47c17.0717 17.36 38.1238 30.793 61.6767 38.819-3.324-49.933-32.4811-82.846-48.4193-94.289z" fill-rule="evenodd"/><path d="m170.451 101.087 1.475 3.261v-14.9066h-22.858v14.9066l1.467-3.252c1.705-3.781 5.623-6.2333 9.96-6.2333 4.333 0 8.25 2.4484 9.956 6.2243z"/><path clip-rule="evenodd" d="m148.074 89.4391c0-.5489.445-.9938.994-.9938h22.857c.549 0 .994.4449.994.9938v14.9069c0 .468-.327.873-.784.971-.458.099-.923-.135-1.115-.562l-1.474-3.261c-1.537-3.3996-5.086-5.6398-9.051-5.6398-3.969 0-7.52 2.2437-9.054 5.6478l-1.467 3.252c-.193.427-.657.662-1.115.563-.458-.098-.785-.503-.785-.971zm1.988.9938v9.393c2.05-3.6614 6.061-5.9593 10.433-5.9593 4.374 0 8.387 2.3003 10.436 5.9658v-9.3995z" fill-rule="evenodd"/><path d="m154.655 82.1335-2.527-2.5453c-7.234-7.5482-18.515-11.2929-30.886-13.5023l32.014 23.3541h15.475l32.014-23.3541c-12.371 2.2093-24.646 5.9539-31.879 13.5023l-2.528 2.5453c-3.25 3.2729-8.433 3.2729-11.683 0z"/><path clip-rule="evenodd" d="m120.328 65.6974c.182-.4256.633-.6695 1.089-.5881 12.41 2.2164 23.959 6.0033 31.422 13.7866l2.521 2.539c2.862 2.8815 7.411 2.8815 10.273 0l2.521-2.539c7.474-7.7938 20.035-11.5754 32.416-13.7866.456-.0814.907.1625 1.089.5881.182.4257.046.9204-.328 1.1931l-32.015 23.354c-.17.1241-.375.1909-.586.1909h-15.474c-.211 0-.416-.0668-.586-.1909l-32.014-23.354c-.374-.2728-.51-.7675-.328-1.1931zm76.223 2.2195c-10.758 2.2844-20.802 5.9266-26.968 12.3606l-.012.0126-2.528 2.5453c-3.639 3.6643-9.454 3.6643-13.093 0l-2.527-2.5453-.013-.0126c-6.162-6.4302-15.425-10.0678-25.958-12.3488l28.128 20.5192h14.826z" fill-rule="evenodd"/></g><path d="m144.69 73.7778c-14.16-8.282-35.763-10.3537-52.1548-10.1647-7.9943.0923-14.0254 6.836-14.0254 14.8261v12.0167c0 20.2951 16.4625 36.7481 36.7702 36.7481 20.308 0 36.77-16.453 36.77-36.748v-1.801c0-5.9411-2.23-11.8762-7.36-14.8772z" fill="#000"/><path clip-rule="evenodd" d="m144.188 74.6372c-13.911-8.1367-35.279-10.2175-51.6416-10.0287-7.394.0853-13.0432 6.3287-13.0432 13.8323v12.0168c0 19.7464 16.0171 35.7544 35.7768 35.7544 19.759 0 35.776-16.008 35.776-35.7544v-1.801c0-5.7343-2.151-11.2598-6.868-14.0194zm-51.6646-12.0162c16.4196-.1894 38.2596 1.8732 52.6676 10.3006 5.543 3.2424 7.853 9.5871 7.853 15.735v1.801c0 20.8444-16.908 37.7414-37.764 37.7414-20.8563 0-37.7644-16.897-37.7644-37.7414v-12.0168c0-8.4767 6.4131-15.7206 15.0078-15.8198z" fill="#f35534" fill-rule="evenodd"/><path d="m176.304 73.7778c14.159-8.282 35.763-10.3537 52.154-10.1647 7.995.0923 14.026 6.836 14.026 14.8261v12.0167c0 20.2951-16.463 36.7481-36.77 36.7481-20.308 0-36.771-16.453-36.771-36.748v-1.801c0-5.9411 2.23-11.8762 7.361-14.8772z" fill="#000"/><path clip-rule="evenodd" d="m175.804 72.9216c14.407-8.4274 36.247-10.49 52.667-10.3006 8.595.0992 15.008 7.3431 15.008 15.8198v12.0168c0 20.8444-16.908 37.7414-37.764 37.7414s-37.764-16.897-37.764-37.7414v-1.801c0-6.1479 2.309-12.4926 7.853-15.735zm52.644-8.3131c-16.363-.1888-37.73 1.892-51.641 10.0287-4.718 2.7596-6.868 8.2851-6.868 14.0194v1.801c0 19.7464 16.017 35.7544 35.776 35.7544s35.777-16.008 35.777-35.7544v-12.0168c0-7.5036-5.65-13.747-13.044-13.8323z" fill="#f35534" fill-rule="evenodd"/><path d="m180.39 121.242c11.363 0 21.347 7.506 24.464 18.39l4.838 16.895c4.635 16.186-7.566 32.293-24.464 32.293h-48.468c-16.897 0-29.099-16.107-24.464-32.294l4.838-16.894c3.117-10.884 13.102-18.39 24.464-18.39z" fill="#ffc9f0"/><path clip-rule="evenodd" d="m116.179 139.36c3.24-11.313 13.616-19.11 25.419-19.11h38.793c11.803 0 22.18 7.797 25.419 19.11l4.838 16.895c4.819 16.826-7.867 33.56-25.419 33.56h-48.469c-17.552 0-30.238-16.734-25.419-33.561zm25.419-17.122c-10.921 0-20.514 7.213-23.508 17.669l-4.838 16.894c-4.452 15.547 7.266 31.027 23.508 31.027h48.469c16.242 0 27.96-15.48 23.508-31.026l-4.838-16.895c-2.994-10.455-12.587-17.669-23.508-17.669z" fill="#f35534" fill-rule="evenodd"/><path d="m195.776 154.533c0 8.507-6.007 15.403-13.416 15.403-7.41 0-13.417-6.896-13.417-15.403 0-8.508 6.007-15.404 13.417-15.404 7.409 0 13.416 6.896 13.416 15.404z" fill="#000"/><path clip-rule="evenodd" d="m182.361 140.124c-6.736 0-12.422 6.318-12.422 14.41s5.686 14.41 12.422 14.41 12.422-6.318 12.422-14.41-5.686-14.41-12.422-14.41zm-14.41 14.41c0-8.922 6.327-16.397 14.41-16.397s14.41 7.475 14.41 16.397c0 8.923-6.327 16.398-14.41 16.398s-14.41-7.475-14.41-16.398z" fill="#f35534" fill-rule="evenodd"/><path d="m152.049 154.533c0 8.507-5.784 15.403-12.919 15.403s-12.919-6.896-12.919-15.403c0-8.508 5.784-15.404 12.919-15.404s12.919 6.896 12.919 15.404z" fill="#000"/><path clip-rule="evenodd" d="m139.13 140.124c-6.43 0-11.926 6.281-11.926 14.41 0 8.13 5.496 14.41 11.926 14.41s11.925-6.28 11.925-14.41c0-8.129-5.495-14.41-11.925-14.41zm-13.913 14.41c0-8.885 6.072-16.397 13.913-16.397 7.84 0 13.913 7.512 13.913 16.397s-6.073 16.398-13.913 16.398c-7.841 0-13.913-7.513-13.913-16.398z" fill="#f35534" fill-rule="evenodd"/><path d="m160.993 208.696c10.977 0 19.876-8.899 19.876-19.876h-39.752c0 10.977 8.899 19.876 19.876 19.876z" fill="#ffc9f0"/><path clip-rule="evenodd" d="m140.125 188.818c0-.549.445-.994.994-.994h39.751c.549 0 .994.445.994.994 0 11.526-9.343 20.87-20.869 20.87s-20.87-9.344-20.87-20.87zm2.013.994c.517 9.966 8.762 17.888 18.857 17.888 10.094 0 18.339-7.922 18.856-17.888z" fill="#f35534" fill-rule="evenodd"/><path clip-rule="evenodd" d="m1.98758 160c0 87.268 70.74452 158.012 158.01242 158.012 87.268 0 158.012-70.744 158.012-158.012h1.988c0 88.366-71.634 160-160 160-88.3656 0-160-71.634-160-160z" fill="#f35534" fill-rule="evenodd"/></svg>