<svg fill="none" height="236" viewBox="0 0 236 236" width="236" xmlns="http://www.w3.org/2000/svg" xmlns:xlink="http://www.w3.org/1999/xlink"><linearGradient id="a" gradientUnits="userSpaceOnUse" x1="117.684" x2="117.684" y1="147.7" y2="58.6056"><stop offset="0" stop-color="#cae9ff"/><stop offset="1" stop-color="#eae9ff"/></linearGradient><linearGradient id="b" gradientUnits="userSpaceOnUse" x1="117.705" x2="117.705" y1="189.381" y2="134.37"><stop offset="0" stop-color="#eae9ff"/><stop offset="1" stop-color="#cae9ff"/></linearGradient><circle cx="118" cy="118" fill="#052b65" r="118"/><g clip-rule="evenodd" fill-rule="evenodd"><path d="m149.979 68.3843c7.79-1.4163 36.933-6.7365 38.222 2.3242 1.326 9.2786-10.677 22.098-23.242 27.854-.653.3087-1.253.7263-1.834 1.1439-.49.3446-.98.6896-1.507.9806-1.979 1.053-3.159 3.686-2.869 6.046v40.946c-9.914-6.809-24.458-11.058-40.964-11.058-16.505 0-31.0675 4.249-40.9634 11.058v-40.946c.2905-2.378-.8898-4.993-2.869-6.046-.5265-.291-1.0168-.636-1.5071-.9806-.581-.4176-1.1802-.8352-1.8339-1.1439-12.5833-5.756-24.6037-18.5572-23.2601-27.854 1.2892-9.0607 30.4324-3.7405 38.2221-2.3242.6174.109 1.1076.1998 1.4345.2542.2178.0364.4357-.1452.3994-.3631-.4539-2.1971-.7808-8.1347 3.5226-9.4057 2.7418-.8171 4.5576.69 5.6289 2.2152.4903.69 1.9248 3.6497 2.8145 5.7197.4902 1.1076 1.5975 2.7418 2.8325 2.7055 5.175-1.5797 10.368-2.3605 15.579-2.3605 5.212 0 10.405.7808 15.58 2.3605 1.235.0363 2.36-1.5979 2.832-2.7055.89-2.0518 2.343-5.0297 2.815-5.7197 1.071-1.5252 2.887-3.0505 5.629-2.2152 4.303 1.2892 3.976 7.2086 3.522 9.4057-.054.2179.164.3995.4.3631.327-.0544.817-.1452 1.434-.2542z" fill="#cbe8fb"/><path d="m151.885 68.0395c-.036.0063-.072.0127-.108.019-.54.0963-1.031.1853-1.467.2644-.095.0173-.187.0341-.277.0504l-.054.0098h.019c-.006.001-.012.002-.018.0031 0 0 0 0-.001.0001-.111.0197-.219.0388-.322.0572-.118.0211-.231.0413-.337.0604-.008.0015-.016.0029-.024.0043-.039.007-.077.0138-.114.0205-.245.044-.453.0809-.619.1086-.236.0363-.454-.1453-.399-.3632.06-.2917.118-.649.163-1.0524.003-.0228.005-.0457.008-.0688.067-.6305.103-1.3681.068-2.141 0-.0109-.001-.0218-.001-.0327-.118-2.462-.956-5.2703-3.761-6.1108-2.742-.8352-4.558.69-5.629 2.2153-.472.6899-1.925 3.6678-2.814 5.7196-.472 1.1077-1.598 2.7419-2.833 2.7055-5.175-1.5797-10.368-2.3605-15.579-2.3605-5.212 0-10.405.7808-15.58 2.3605-1.234.0364-2.342-1.5978-2.8323-2.7055-.8897-2.0699-2.3241-5.0297-2.8144-5.7196-1.0713-1.5253-2.8871-3.0324-5.6289-2.2153-2.8071.8291-3.6441 3.6438-3.7607 6.1107-.0005.0109-.001.0217-.0015.0325-.0359.8012.0038 1.5646.0761 2.2098.0452.4037.1033.7611.1635 1.0527.0363.2179-.1816.3995-.3995.3632-.191-.0319-.4379-.0761-.7333-.1291-.0078-.0014-.0157-.0028-.0235-.0043-.0351-.0063-.0708-.0127-.1072-.0192-.1753-.0314-.3659-.0655-.5704-.1016l-.0537-.0098c-.497-.0904-1.0784-.1961-1.7318-.3125-.0335-.006-.0671-.012-.101-.018-9.7668-1.7377-35.1347-5.7753-36.3356 2.6645-1.3437 9.2967 10.6768 22.0979 23.2601 27.8539.6537.3087 1.2529.7264 1.8339 1.144.4903.3448.9805.6898 1.5071.9808 1.9792 1.053 3.1595 3.668 2.8689 6.046v40.946c1.1491-.791 2.361-1.547 3.6316-2.266 9.6723-5.473 22.7436-8.792 37.3326-8.792 14.591 0 27.65 3.321 37.332 8.795 1.27.718 2.482 1.473 3.632 2.263v-40.946c-.291-2.36.889-4.993 2.868-6.046.527-.291 1.017-.636 1.508-.9808.581-.4176 1.18-.8353 1.834-1.144 12.565-5.756 24.567-18.5753 23.241-27.8539-1.2-8.4345-26.536-4.4073-36.316-2.6678zm39.912 2.1562c.892 6.2511-2.668 12.8347-7.263 18.1377-4.737 5.4669-11.288 10.422-18.039 13.5186-.317.152-.674.388-1.25.802l-.015.011-.065.046c-.46.323-1.09.767-1.792 1.154l-.024.014-.025.013c-.435.231-1.109 1.269-.97 2.397l.027.221v48.068l-5.687-3.907c-9.183-6.306-22.967-10.42-38.908-10.42-15.943 0-29.7433 4.114-38.9056 10.419l-5.6901 3.915v-48.074l.0268-.219c.1398-1.145-.5321-2.167-.9701-2.4l-.0243-.013-.0241-.014c-.7026-.387-1.3322-.831-1.7918-1.154l-.0658-.046-.0147-.011c-.5758-.414-.9322-.65-1.2493-.801-6.7575-3.0962-13.3179-8.0456-18.0606-13.5108-4.6006-5.3015-8.1628-11.8872-7.2593-18.1507.6608-4.6281 4.829-6.5718 8.1406-7.3937 3.551-.8812 7.9776-1.0012 12.2888-.8095 7.1073.3161 14.7233 1.5288 19.385 2.3461.0464-.6066.1288-1.2292.2583-1.8509.5353-2.5696 2.1002-5.9229 6.068-7.0968 2.2559-.671 4.345-.4135 6.0976.4628 1.6488.8244 2.79 2.0867 3.531 3.1403.4512.6384 1.0626 1.8393 1.5516 2.8395.55 1.1237 1.153 2.4257 1.623 3.518.028.0625.062.1331.102.2081 4.965-1.361 9.962-2.0386 14.983-2.0386 5.022 0 10.021.678 14.987 2.0399.034-.0666.062-.1269.084-.1773l.004-.0104.005-.0104c.471-1.0873 1.082-2.397 1.635-3.5253.499-1.0174 1.1-2.1947 1.514-2.8003l.013-.0184.012-.0182c.736-1.0477 1.876-2.3199 3.53-3.1505 1.757-.8829 3.856-1.1419 6.121-.4539 3.951 1.1876 5.514 4.5274 6.05 7.0975.129.6188.212 1.2382.258 1.8418 4.664-.8173 12.269-2.0273 19.368-2.343 4.311-.1917 8.738-.0717 12.289.8095 3.312.8221 7.482 2.7668 8.141 7.3979z" fill="#052b65"/><path d="m149.979 68.3843c7.79-1.4163 36.933-6.7365 38.222 2.3242 1.326 9.2786-10.677 22.098-23.242 27.854-.653.3087-1.253.7263-1.834 1.1439-.49.3446-.98.6896-1.507.9806-1.979 1.053-3.159 3.686-2.869 6.046v40.946c-9.914-6.809-24.458-11.058-40.964-11.058-16.505 0-31.0675 4.249-40.9634 11.058v-40.946c.2905-2.378-.8898-4.993-2.869-6.046-.5265-.291-1.0168-.636-1.507-.9806-.5811-.4176-1.1803-.8352-1.834-1.1439-12.5833-5.756-24.6037-18.5572-23.2601-27.854 1.2892-9.0607 30.4324-3.7405 38.2221-2.3242.6174.109 1.1076.1998 1.4345.2542.2178.0364.4357-.1452.3994-.3631-.4539-2.1971-.7808-8.1347 3.5226-9.4057 2.7418-.8171 4.5576.69 5.6289 2.2152.4903.69 1.9247 3.6497 2.8145 5.7197.4902 1.1076 1.5975 2.7418 2.8325 2.7055 5.175-1.5797 10.368-2.3605 15.579-2.3605 5.212 0 10.405.7808 15.58 2.3605 1.235.0363 2.36-1.5979 2.832-2.7055.89-2.0518 2.343-5.0297 2.815-5.7197 1.071-1.5252 2.887-3.0505 5.629-2.2152 4.303 1.2892 3.976 7.2086 3.522 9.4057-.054.2179.164.3995.4.3631.327-.0544.817-.1452 1.434-.2542z" fill="url(#a)"/><path d="m68.9604 161.878c0-15.18 21.8438-27.491 48.8076-27.491 26.965 0 48.809 12.311 48.809 27.491 0 15.179-21.844 27.49-48.809 27.49-26.9638 0-48.8076-12.311-48.8076-27.49z" fill="#cbe8fb"/><path d="m81.4701 139.276c9.47-5.335 22.3099-8.52 36.2979-8.52 13.989 0 26.828 3.185 36.298 8.52 9.357 5.272 16.142 13.12 16.142 22.602s-6.785 17.331-16.142 22.602c-9.47 5.335-22.309 8.521-36.298 8.521-13.988 0-26.8279-3.186-36.2979-8.521-9.3572-5.271-16.1415-13.12-16.1415-22.602s6.7843-17.33 16.1415-22.602zm36.2979-4.889c-26.9641 0-48.8078 12.311-48.8078 27.491s21.8437 27.491 48.8078 27.491c26.964 0 48.808-12.311 48.808-27.491s-21.844-27.491-48.808-27.491z" fill="#052b65"/><path d="m68.9604 161.878c0-15.18 21.8438-27.491 48.8076-27.491 26.965 0 48.809 12.311 48.809 27.491 0 15.179-21.844 27.49-48.809 27.49-26.9638 0-48.8076-12.311-48.8076-27.49z" fill="url(#b)"/><g fill="#052b65"><path d="m100.092 155.261.009-.007c.384-.272.786-.557 1.161-.781.355-.213.793-.44 1.243-.501.241-.033.527-.025.815.093.297.122.523.332.683.583.288.454.364 1.055.364 1.674v.024l-.001.024c-.255 4.735-3.148 8.951-7.512 10.96-2.2939 1.095-4.6094 1.136-6.4905.169-1.884-.967-3.186-2.87-3.597-5.363-.24-1.422.0747-3.213.6261-4.888.5586-1.698 1.4034-3.407 2.3473-4.693.4709-.642.9902-1.212 1.5395-1.619.5387-.399 1.2021-.712 1.9267-.653.7708.064 1.3796.527 1.8145 1.2.4216.652.7227 1.558.9255 2.701l.0004.002c.2065 1.179.4971 1.822.7597 2.153.2232.281.4256.344.6518.339.2923-.006.6866-.135 1.1948-.413.4978-.272 1.009-.631 1.5392-1.004z"/><path d="m135.425 155.261-.009-.006-.002-.002-.018-.013c-.377-.267-.771-.547-1.138-.767-.353-.213-.791-.44-1.24-.501-.242-.033-.527-.025-.815.094-.296.122-.521.331-.68.58-.288.452-.368 1.05-.373 1.668v.028l.001.028c.254 4.733 3.128 8.95 7.513 10.96 2.293 1.095 4.608 1.135 6.489.169 1.884-.967 3.186-2.869 3.597-5.362.24-1.426-.074-3.221-.626-4.899-.558-1.7-1.403-3.41-2.347-4.697-.471-.642-.99-1.211-1.54-1.618-.539-.399-1.203-.711-1.929-.65-.77.066-1.378.531-1.812 1.205-.422.654-.723 1.561-.925 2.706-.207 1.179-.498 1.824-.76 2.155-.223.281-.426.344-.652.339-.292-.006-.687-.135-1.195-.413-.498-.272-1.009-.631-1.539-1.004z"/></g></g><path d="m146.896 95.1004 11.115 5.6586v13.436l-12.857 9.818c-3.946 3.014-9.581 2.298-12.649-1.606l-8.73-11.111c-2.908-3.701-8.514-3.701-11.422 0l-8.731 11.111c-3.067 3.904-8.7023 4.62-12.6485 1.606l-12.8568-9.818v-13.436l11.1145-5.6586c18.1158-9.2224 39.5498-9.2224 57.6648 0z" fill="#ffd338"/><path clip-rule="evenodd" d="m146.072 96.7179c-17.598-8.9589-38.419-8.9589-56.0171 0l-10.1226 5.1531v11.426l12.1431 9.273c3.157 2.41 7.665 1.838 10.1196-1.286l8.73-11.111c3.635-4.626 10.643-4.626 14.277 0l8.731 11.111c2.454 3.124 6.962 3.696 10.119 1.286l12.143-9.273v-11.426zm-57.6647-3.2363c18.6327-9.4859 40.6797-9.4859 59.3127 0l11.114 5.6583c.609.3099.992.9351.992 1.6181v13.437c0 .566-.264 1.099-.713 1.443l-12.857 9.818c-4.736 3.616-11.498 2.757-15.179-1.928l-8.73-11.111c-2.181-2.776-6.386-2.776-8.567 0l-8.73 11.111c-3.681 4.685-10.4432 5.544-15.1787 1.928l-12.8568-9.818c-.4498-.344-.7137-.877-.7137-1.443v-13.437c0-.683.3833-1.3082.992-1.6181z" fill="#052b65" fill-rule="evenodd"/><path d="m146.896 95.1004 11.115 5.6586v13.436l-12.857 9.818c-3.946 3.014-9.581 2.298-12.649-1.606l-8.73-11.111c-2.908-3.701-8.514-3.701-11.422 0l-8.731 11.111c-3.067 3.904-8.7023 4.62-12.6485 1.606l-12.8568-9.818v-13.436l11.1145-5.6586c18.1158-9.2224 39.5498-9.2224 57.6648 0z" fill="#ffd338"/><path clip-rule="evenodd" d="m146.072 96.7179c-17.598-8.9589-38.419-8.9589-56.0171 0l-10.1226 5.1531v11.426l12.1431 9.273c3.157 2.41 7.665 1.838 10.1196-1.286l8.73-11.111c3.635-4.626 10.643-4.626 14.277 0l8.731 11.111c2.454 3.124 6.962 3.696 10.119 1.286l12.143-9.273v-11.426zm-57.6647-3.2363c18.6327-9.4859 40.6797-9.4859 59.3127 0l11.114 5.6583c.609.3099.992.9351.992 1.6181v13.437c0 .566-.264 1.099-.713 1.443l-12.857 9.818c-4.736 3.616-11.498 2.757-15.179-1.928l-8.73-11.111c-2.181-2.776-6.386-2.776-8.567 0l-8.73 11.111c-3.681 4.685-10.4432 5.544-15.1787 1.928l-12.8568-9.818c-.4498-.344-.7137-.877-.7137-1.443v-13.437c0-.683.3833-1.3082.992-1.6181z" fill="#052b65" fill-rule="evenodd"/><path d="m72.6699 100.395h5.4473v14.526h-5.4473z" fill="#ffd338"/><path clip-rule="evenodd" d="m70.8535 100.394c0-1.0029.813-1.8159 1.8158-1.8159h5.4473c1.0028 0 1.8158.813 1.8158 1.8159v14.526c0 1.003-.813 1.816-1.8158 1.816h-5.4473c-1.0028 0-1.8158-.813-1.8158-1.816zm3.6316 1.816v10.894h1.8157v-10.894z" fill="#052b65" fill-rule="evenodd"/><path d="m158.011 100.395h5.447v14.526h-5.447z" fill="#ffd338"/><path clip-rule="evenodd" d="m156.195 100.394c0-1.0029.813-1.8159 1.816-1.8159h5.447c1.003 0 1.816.813 1.816 1.8159v14.526c0 1.003-.813 1.816-1.816 1.816h-5.447c-1.003 0-1.816-.813-1.816-1.816zm3.631 1.816v10.894h1.816v-10.894z" fill="#052b65" fill-rule="evenodd"/><g fill="#fff"><path d="m120.451 88.2033c-8.955-.2443-17.95 1.4037-26.3675 4.9441l-7.2822 27.1776 4.8248 3.684c3.9463 3.014 9.5809 2.298 12.6489-1.606l8.73-11.111c.491-.625 1.058-1.144 1.677-1.557z"/><path d="m123.252 110.102c-1.061-.851-2.31-1.36-3.597-1.526l5.381-20.0816c1.294.1292 2.584.2983 3.87.507z"/><path d="m141.974 125.718c-3.151.59-6.506-.515-8.673-3.137l8.096-30.2168c2.086.797 4.139 1.7077 6.152 2.7323l2.314 1.1782z"/></g><path clip-rule="evenodd" d="m146.341 96.716c-17.598-8.9589-38.42-8.9589-56.0176 0l-10.1225 5.153v11.426l12.143 9.273c3.157 2.41 7.6651 1.838 10.1191-1.286l8.73-11.111c3.635-4.626 10.643-4.626 14.278 0l8.73 11.111c2.454 3.124 6.962 3.696 10.119 1.286l12.143-9.273v-11.426zm-57.6652-3.2363c18.6332-9.4859 40.6792-9.4859 59.3122 0l11.115 5.6583c.609.3099.992.935.992 1.618v13.437c0 .566-.264 1.099-.714 1.443l-12.857 9.818c-4.735 3.616-11.497 2.757-15.178-1.928l-8.731-11.111c-2.18-2.776-6.385-2.776-8.566 0l-8.73 11.111c-3.682 4.685-10.4436 5.544-15.1791 1.928l-12.8568-9.818c-.4498-.344-.7138-.877-.7138-1.443v-13.437c0-.683.3833-1.3081.992-1.618z" fill="#052b65" fill-rule="evenodd"/></svg>