<svg fill="none" height="220" viewBox="0 0 238 220" width="238" xmlns="http://www.w3.org/2000/svg" xmlns:xlink="http://www.w3.org/1999/xlink"><linearGradient id="a" gradientUnits="userSpaceOnUse" x1="118.987" x2="118.987" y1="147.782" y2="5.74759"><stop offset="0" stop-color="#cae9ff"/><stop offset="1" stop-color="#eae9ff"/></linearGradient><linearGradient id="b" gradientUnits="userSpaceOnUse" x1="119.021" x2="119.021" y1="214.233" y2="126.534"><stop offset="0" stop-color="#eae9ff"/><stop offset="1" stop-color="#cae9ff"/></linearGradient><g clip-rule="evenodd" fill-rule="evenodd"><path d="m170.473 21.3369c12.418-2.2579 58.878-10.7394 60.933 3.7052 2.113 14.792-17.021 35.2287-37.052 44.4049-1.042.4921-1.997 1.1579-2.924 1.8237-.781.55-1.563 1.1-2.402 1.5632-3.156 1.6789-5.037 5.8762-4.574 9.6393v65.2758c-15.805-10.855-38.992-17.629-65.305-17.629-26.3126 0-49.5282 6.774-65.3044 17.629v-65.2758c.4632-3.792-1.4184-7.9604-4.5736-9.6393-.8395-.4632-1.6211-1.0132-2.4026-1.5632-.9263-.6658-1.8816-1.3316-2.9237-1.8237-20.0604-9.1762-39.22335-29.5839-37.08126-44.4049 2.05525-14.4446 48.51536-5.9631 60.93366-3.7052.9842.1737 1.7658.3184 2.2869.4053.3473.0579.6947-.2316.6368-.579-.7237-3.5026-1.2447-12.96828 5.6157-14.99458 4.371-1.30262 7.2658 1.09999 8.9736 3.53155.7816 1.10003 3.0684 5.81833 4.4868 9.11833.7816 1.7658 2.5474 4.371 4.5158 4.3131 8.2503-2.5184 16.5293-3.7631 24.8363-3.7631 8.308 0 16.587 1.2447 24.837 3.7631 1.968.0579 3.763-2.5473 4.516-4.3131 1.418-3.271 3.734-8.0183 4.487-9.11833 1.707-2.43156 4.602-4.86312 8.973-3.53155 6.861 2.05525 6.34 11.49198 5.616 14.99458-.087.3474.26.6369.637.579.521-.0869 1.302-.2316 2.287-.4053z" fill="#cbe8fb"/><path d="m173.51 20.7875c-.057.0102-.114.0203-.171.0304-.861.1536-1.645.2955-2.339.4215-.151.0276-.299.0544-.442.0804l-.085.0155h.029c-.01.0017-.019.0033-.028.005-.001 0-.001.0001-.001.0001-.178.0315-.349.0619-.514.0912-.188.0338-.368.066-.538.0964-.012.0023-.025.0045-.037.0068-.062.0111-.123.022-.183.0327-.39.0701-.722.129-.986.1731-.377.0579-.724-.2316-.637-.579.096-.465.189-1.0346.261-1.6777.004-.0364.008-.073.012-.1098.107-1.0051.164-2.181.109-3.413-.001-.0175-.002-.0349-.003-.0523-.187-3.9248-1.522-8.4019-5.995-9.74177-4.371-1.33157-7.265 1.09999-8.973 3.53155-.753 1.10002-3.069 5.84732-4.487 9.11832-.753 1.7658-2.548 4.371-4.516 4.3131-8.25-2.5184-16.529-3.7631-24.837-3.7631-8.307 0-16.586 1.2447-24.8362 3.7631-1.9684.0579-3.7342-2.5473-4.5158-4.3131-1.4184-3.2999-3.7052-8.0183-4.4868-9.11832-1.7079-2.43156-4.6026-4.83417-8.9736-3.53155-4.4751 1.32176-5.8094 5.80897-5.9953 9.74167-.0009.0173-.0016.0346-.0024.0519-.0572 1.2772.0061 2.4942.1213 3.5228.0722.6435.1646 1.2134.2607 1.6782.0579.3474-.2895.6369-.6369.579-.3045-.0508-.698-.1213-1.169-.2058-.0125-.0023-.025-.0045-.0376-.0068-.0559-.01-.1128-.0202-.1708-.0306-.2795-.0502-.5833-.1045-.9094-.1621l-.0856-.0155c-.7923-.1441-1.7191-.3126-2.7607-.4983-.0534-.0095-.1071-.0191-.1611-.0287-15.5702-2.7702-56.01188-9.207-57.92629 4.2478-2.14208 14.8209 17.02089 35.2286 37.08129 44.4049 1.0421.4921 1.9973 1.1578 2.9236 1.8236.7816.55 1.5632 1.1 2.4027 1.5632 3.1552 1.6789 5.0368 5.8473 4.5736 9.6394v65.2753c1.8318-1.26 3.7639-2.465 5.7894-3.611 15.4197-8.725 36.2576-14.017 59.5149-14.017 23.262 0 44.081 5.293 59.516 14.021 2.024 1.145 3.956 2.349 5.789 3.607v-65.2753c-.463-3.7632 1.419-7.9605 4.574-9.6394.839-.4632 1.621-1.0132 2.402-1.5632.927-.6658 1.882-1.3315 2.924-1.8236 20.032-9.1763 39.166-29.613 37.052-44.4049-1.913-13.4462-42.304-7.0261-57.896-4.2531zm63.628 3.4375c1.422 9.9656-4.253 20.4611-11.578 28.9152-7.552 8.7153-17.996 16.6149-28.758 21.5518-.506.2421-1.074.6179-1.993 1.2782l-.023.0169-.105.0738c-.733.5158-1.736 1.2225-2.856 1.8405l-.039.0212-.039.0206c-.693.3692-1.768 2.0234-1.547 3.8213l.044.3522v76.6303l-9.068-6.227c-14.639-10.055-36.613-16.612-62.027-16.612-25.4156 0-47.416 6.559-62.0226 16.609l-9.0711 6.242v-76.6396l.0427-.3496c.2229-1.8251-.8482-3.4551-1.5465-3.8266l-.0388-.0206-.0384-.0212c-1.12-.618-2.1238-1.3247-2.8565-1.8405l-.1048-.0738-.0235-.0169c-.918-.6598-1.4862-1.0355-1.9916-1.2777-10.7729-4.9352-21.2315-12.8257-28.7922-21.5382-7.33442-8.4518-13.013249-18.9507-11.57294-28.9359 1.05353-7.3782 7.69847-10.4769 12.97784-11.7871 5.661-1.4049 12.718-1.5962 19.5908-1.2905 11.3305.5039 23.472 2.4371 30.9036 3.7401.074-.967.2055-1.9595.4119-2.9507.8532-4.09649 3.3481-9.44236 9.6736-11.313652 3.5964-1.069845 6.9268-.6592204 9.7207.737722 2.6286 1.31429 4.4478 3.32661 5.6292 5.00622.7193 1.01775 1.6937 2.93235 2.4742 4.52681.877 1.7913 1.8369 3.867 2.5863 5.6084.0447.0996.0998.2122.1636.3318 7.9145-2.1698 15.8805-3.25 23.8845-3.25 8.007 0 15.976 1.0809 23.893 3.252.055-.1061.1-.2023.134-.2826l.007-.0166.007-.0166c.752-1.7333 1.725-3.8212 2.607-5.6201.796-1.62189 1.753-3.49878 2.414-4.46422l.02-.02931.02-.02907c1.173-1.67022 2.991-3.69827 5.627-5.02253 2.801-1.4074229 6.147-1.820358 9.759-.723474 6.298 1.893154 8.79 7.217484 9.645 11.314704.205.9865.337 1.974.411 2.9363 7.434-1.3029 19.559-3.2319 30.875-3.7352 6.873-.3057 13.93-.1144 19.591 1.2905 5.281 1.3106 11.929 4.4108 12.979 11.7937z" fill="#052b65"/><path d="m170.473 21.3369c12.418-2.2579 58.878-10.7394 60.933 3.7052 2.113 14.792-17.021 35.2287-37.052 44.4049-1.042.4921-1.997 1.1579-2.924 1.8237-.781.55-1.563 1.1-2.402 1.5632-3.156 1.6789-5.037 5.8762-4.574 9.6394v65.2757c-15.805-10.855-38.992-17.629-65.305-17.629-26.3126 0-49.5282 6.774-65.3044 17.629v-65.2757c.4632-3.7921-1.4184-7.9605-4.5736-9.6394-.8395-.4632-1.6211-1.0132-2.4026-1.5632-.9263-.6658-1.8816-1.3316-2.9237-1.8237-20.0603-9.1762-39.22335-29.5839-37.08126-44.4049 2.05525-14.4446 48.51536-5.9631 60.93366-3.7052.9842.1737 1.7658.3184 2.2869.4053.3473.0579.6947-.2316.6368-.579-.7237-3.5026-1.2447-12.96828 5.6157-14.99458 4.3711-1.30262 7.2658 1.09999 8.9737 3.53155.7815 1.10003 3.0683 5.81833 4.4867 9.11833.7816 1.7658 2.5474 4.371 4.5158 4.3131 8.2503-2.5184 16.5293-3.7631 24.8363-3.7631 8.308 0 16.587 1.2447 24.837 3.7631 1.968.0579 3.763-2.5473 4.516-4.3131 1.418-3.271 3.734-8.0183 4.487-9.11833 1.707-2.43156 4.602-4.86312 8.973-3.53155 6.861 2.05525 6.34 11.49198 5.616 14.99458-.087.3474.26.6369.637.579.521-.0869 1.302-.2316 2.287-.4053z" fill="url(#a)"/><path d="m41.3115 170.386c0-24.199 34.8234-43.825 77.8095-43.825 42.987 0 77.81 19.626 77.81 43.825 0 24.2-34.823 43.826-77.81 43.826-42.9861 0-77.8095-19.626-77.8095-43.826z" fill="#cbe8fb"/><path d="m61.2548 134.353c15.097-8.505 35.566-13.583 57.8662-13.583 22.301 0 42.77 5.078 57.867 13.583 14.917 8.404 25.733 20.916 25.733 36.032s-10.816 27.628-25.733 36.032c-15.097 8.505-35.566 13.583-57.867 13.583-22.3002 0-42.7692-5.078-57.8662-13.583-14.9173-8.404-25.7328-20.916-25.7328-36.032s10.8155-27.628 25.7328-36.032zm57.8662-7.794c-42.9862 0-77.8096 19.626-77.8096 43.826s34.8234 43.826 77.8096 43.826c42.987 0 77.81-19.626 77.81-43.826s-34.823-43.826-77.81-43.826z" fill="#052b65"/><path d="m41.3115 170.386c0-24.199 34.8234-43.825 77.8095-43.825 42.987 0 77.81 19.626 77.81 43.825 0 24.2-34.823 43.826-77.81 43.826-42.9861 0-77.8095-19.626-77.8095-43.826z" fill="url(#b)"/><g fill="#052b65"><path d="m90.943 159.836.0146-.01c.611-.434 1.2523-.888 1.8496-1.246.5663-.339 1.2656-.7 1.9825-.799.3846-.052.8403-.039 1.2988.149.4731.194.8347.529 1.0886.929.4596.724.581 1.682.581 2.668v.039l-.0021.039c-.4055 7.548-5.0178 14.269-11.9754 17.472-3.6568 1.746-7.3482 1.81-10.347.27-3.0035-1.542-5.0791-4.575-5.7344-8.55-.3826-2.267.1191-5.122.998-7.793.8907-2.706 2.2374-5.431 3.7421-7.482.7508-1.023 1.5786-1.931 2.4544-2.58.8587-.637 1.9164-1.136 3.0714-1.041 1.2289.102 2.1995.84 2.8927 1.913.6722 1.04 1.1523 2.484 1.4755 4.305l.0006.003c.3293 1.88.7925 2.906 1.2112 3.433.3557.449.6784.549 1.0391.541.466-.01 1.0945-.216 1.9047-.659.7936-.433 1.6085-1.005 2.4541-1.601z"/><path d="m147.27 159.836-.013-.009-.004-.003-.029-.021c-.601-.426-1.229-.872-1.814-1.223-.563-.338-1.26-.701-1.977-.799-.385-.053-.84-.039-1.298.15-.472.195-.832.528-1.085.926-.459.719-.587 1.673-.595 2.659v.045l.002.044c.406 7.545 4.986 14.268 11.977 17.473 3.656 1.745 7.347 1.809 10.346.269 3.003-1.542 5.079-4.575 5.734-8.549.383-2.273-.119-5.134-.998-7.81-.89-2.71-2.237-5.436-3.742-7.487-.751-1.024-1.579-1.931-2.455-2.58-.86-.636-1.919-1.134-3.075-1.035-1.229.104-2.198.845-2.89 1.92-.671 1.043-1.151 2.489-1.474 4.314-.329 1.88-.793 2.908-1.212 3.435-.356.449-.678.549-1.039.541-.466-.01-1.094-.216-1.905-.659-.793-.433-1.608-1.005-2.454-1.601z"/></g></g><path d="m165.557 63.9291 17.719 9.0205v21.4209l-20.496 15.6515c-6.291 4.804-15.275 3.663-20.165-2.561l-13.918-17.7131c-4.636-5.9003-13.573-5.9003-18.209 0l-13.9179 17.7131c-4.8905 6.224-13.874 7.365-20.1651 2.561l-20.4963-15.6515v-21.4209l17.7188-9.0205c28.8795-14.7024 63.0505-14.7024 91.9295 0z" fill="#ffd338"/><path clip-rule="evenodd" d="m164.244 66.507c-28.054-14.2823-61.248-14.2823-89.303 0l-16.1374 8.2154v18.2146l19.3585 14.783c5.0329 3.843 12.2196 2.93 16.132-2.049l13.9179-17.7133c5.795-7.3753 16.967-7.3753 22.761 0l13.918 17.7133c3.912 4.979 11.099 5.892 16.132 2.049l19.359-14.783v-18.2146zm-91.9296-5.1593c29.7046-15.1225 64.8516-15.1225 94.5566 0l17.719 9.0205c.97.494 1.581 1.4908 1.581 2.5797v21.4208c0 .9023-.421 1.753-1.138 2.3007l-20.496 15.6516c-7.55 5.765-18.33 4.396-24.198-3.073l-13.918-17.7135c-3.477-4.4252-10.18-4.4252-13.657 0l-13.9176 17.7135c-5.8685 7.469-16.6487 8.838-24.198 3.073l-20.4964-15.6516c-.7171-.5477-1.1378-1.3984-1.1378-2.3007v-21.4208c0-1.0889.611-2.0857 1.5814-2.5797z" fill="#052b65" fill-rule="evenodd"/><path d="m165.557 63.9291 17.719 9.0205v21.4209l-20.496 15.6515c-6.291 4.804-15.275 3.663-20.165-2.561l-13.918-17.7131c-4.636-5.9003-13.573-5.9003-18.209 0l-13.9179 17.7131c-4.8905 6.224-13.874 7.365-20.1651 2.561l-20.4963-15.6515v-21.4209l17.7188-9.0205c28.8795-14.7024 63.0505-14.7024 91.9295 0z" fill="#ffd338"/><path clip-rule="evenodd" d="m164.244 66.507c-28.054-14.2823-61.248-14.2823-89.303 0l-16.1374 8.2154v18.2146l19.3585 14.783c5.0329 3.843 12.2196 2.93 16.132-2.049l13.9179-17.7133c5.795-7.3753 16.967-7.3753 22.761 0l13.918 17.7133c3.912 4.979 11.099 5.892 16.132 2.049l19.359-14.783v-18.2146zm-91.9296-5.1593c29.7046-15.1225 64.8516-15.1225 94.5566 0l17.719 9.0205c.97.494 1.581 1.4908 1.581 2.5797v21.4208c0 .9023-.421 1.753-1.138 2.3007l-20.496 15.6516c-7.55 5.765-18.33 4.396-24.198-3.073l-13.918-17.7135c-3.477-4.4252-10.18-4.4252-13.657 0l-13.9176 17.7135c-5.8685 7.469-16.6487 8.838-24.198 3.073l-20.4964-15.6516c-.7171-.5477-1.1378-1.3984-1.1378-2.3007v-21.4208c0-1.0889.611-2.0857 1.5814-2.5797z" fill="#052b65" fill-rule="evenodd"/><path d="m47.2256 72.3691h8.6841v23.1577h-8.6841z" fill="#ffd338"/><path clip-rule="evenodd" d="m44.3301 72.3693c0-1.5987 1.296-2.8947 2.8947-2.8947h8.6841c1.5987 0 2.8947 1.296 2.8947 2.8947v23.1577c0 1.5987-1.296 2.8947-2.8947 2.8947h-8.6841c-1.5987 0-2.8947-1.296-2.8947-2.8947zm5.7894 2.8947v17.3683h2.8947v-17.3683z" fill="#052b65" fill-rule="evenodd"/><path d="m183.276 72.3691h8.685v23.1577h-8.685z" fill="#ffd338"/><path clip-rule="evenodd" d="m180.382 72.3693c0-1.5987 1.296-2.8947 2.895-2.8947h8.684c1.598 0 2.894 1.296 2.894 2.8947v23.1577c0 1.5987-1.296 2.8947-2.894 2.8947h-8.684c-1.599 0-2.895-1.296-2.895-2.8947zm5.789 2.8947v17.3683h2.895v-17.3683z" fill="#052b65" fill-rule="evenodd"/><g fill="#fff"><path d="m123.398 52.9342c-14.276-.3895-28.6152 2.2378-42.0348 7.8818l-11.6093 43.327 7.6918 5.873c6.2911 4.805 15.2746 3.664 20.165-2.561l13.9173-17.713c.783-.9955 1.687-1.8231 2.673-2.4827z"/><path d="m127.864 87.8458c-1.691-1.3574-3.684-2.1684-5.735-2.433l8.578-32.0145c2.063.2059 4.121.4754 6.171.8082z"/><path d="m157.71 112.741c-5.023.94-10.371-.822-13.826-5.002l12.907-48.1715c3.325 1.2705 6.598 2.7224 9.807 4.3558l3.689 1.8783z"/></g><path clip-rule="evenodd" d="m164.672 66.5031c-28.054-14.2823-61.248-14.2823-89.3028 0l-16.1374 8.2154v18.2146l19.3585 14.7829c5.0329 3.843 12.2197 2.93 16.132-2.049l13.9177-17.7132c5.795-7.3753 16.967-7.3753 22.762 0l13.917 17.7132c3.913 4.979 11.099 5.892 16.132 2.049l19.359-14.7829v-18.2146zm-91.9294-5.1593c29.7044-15.1225 64.8514-15.1225 94.5564 0l17.719 9.0205c.97.494 1.581 1.4908 1.581 2.5797v21.4208c0 .9023-.421 1.753-1.138 2.3007l-20.496 15.6515c-7.549 5.765-18.33 4.396-24.198-3.073l-13.918-17.7134c-3.477-4.4252-10.18-4.4252-13.657 0l-13.9173 17.7134c-5.8686 7.469-16.6488 8.838-24.1981 3.073l-20.4963-15.6515c-.7172-.5477-1.1379-1.3984-1.1379-2.3007v-21.4208c0-1.0889.611-2.0857 1.5814-2.5797z" fill="#052b65" fill-rule="evenodd"/></svg>