<svg fill="none" height="170" viewBox="0 0 177 170" width="177" xmlns="http://www.w3.org/2000/svg"><g fill="#f35034"><path clip-rule="evenodd" d="m116.992 0 3.227 29.1216 26.798-11.7624 28.989 50.2816-23.571 17.3592 23.571 17.359-28.989 50.282-26.798-11.763-3.227 29.122h-57.9781l-3.2268-29.122-26.798 11.763-28.9891-50.282 23.5712-17.359-23.57115578-17.3592 28.98905578-50.2816 26.798 11.7624 3.2268-29.1216zm-56.48 37.317h54.982l27.491 47.683-27.491 47.683h-54.982l-27.4909-47.683z" fill-rule="evenodd"/><path d="m114.989 84.9979c0 14.9229-12.08 27.0201-26.9823 27.0201-14.9019 0-26.9823-12.0972-26.9823-27.0201 0-14.923 12.0804-27.0204 26.9823-27.0204 14.9023 0 26.9823 12.0974 26.9823 27.0204z"/></g></svg>