<svg fill="none" height="256" viewBox="0 0 256 256" width="256" xmlns="http://www.w3.org/2000/svg" xmlns:xlink="http://www.w3.org/1999/xlink"><clipPath id="a"><path d="m0 0h256v256h-256z"/></clipPath><g clip-path="url(#a)"><rect fill="#fff" height="256" rx="54" width="256"/><g fill="#f35034"><path clip-rule="evenodd" d="m156.992 43 3.227 29.1216 26.798-11.7624 28.989 50.2818-23.571 17.359 23.571 17.359-28.989 50.282-26.798-11.763-3.227 29.122h-57.9781l-3.2268-29.122-26.798 11.763-28.9891-50.282 23.5712-17.359-23.5712-17.359 28.9891-50.2818 26.798 11.7624 3.2268-29.1216zm-56.48 37.317h54.982l27.491 47.683-27.491 47.683h-54.982l-27.4909-47.683z" fill-rule="evenodd"/><path d="m154.989 127.998c0 14.923-12.08 27.02-26.982 27.02s-26.983-12.097-26.983-27.02 12.081-27.02 26.983-27.02 26.982 12.097 26.982 27.02z"/></g></g></svg>