<svg fill="none" height="1805" viewBox="0 0 1805 1805" width="1805" xmlns="http://www.w3.org/2000/svg" xmlns:xlink="http://www.w3.org/1999/xlink"><linearGradient id="a"><stop offset="0" stop-color="#fff" stop-opacity="0"/><stop offset="1" stop-color="#fff"/></linearGradient><linearGradient id="b" gradientUnits="userSpaceOnUse" x1="1499.93" x2="1499.93" xlink:href="#a" y1="215.505" y2="1216.83"/><linearGradient id="c" gradientUnits="userSpaceOnUse" x1="578.928" x2="578.928" xlink:href="#a" y1="-12.957" y2="315.543"/><clipPath id="d"><path d="m0 0h1805v1805h-1805z"/></clipPath><g clip-path="url(#d)"><path d="m0 0h1805v1805h-1805z" fill="#f3c1e7"/><rect fill="#fff" height="378.507" opacity=".25" rx="58.1901" width="151" x="214" y="979.652"/><g stroke-width="6"><path d="m1481.45 255c0 19.543 3.65 39.086 10.95 57.589l15.06 38.196c14.59 37.005 14.59 78.172 0 115.177l-15.06 38.196c-7.3 18.503-10.95 38.046-10.95 57.589s3.65 39.086 10.95 57.589l15.06 38.196c14.59 37.005 14.59 78.172 0 115.177l-15.06 38.196c-7.3 18.503-10.95 38.046-10.95 57.589s3.65 39.086 10.95 57.589l15.06 38.196c14.59 37.001 14.59 78.171 0 115.181l-15.06 38.19c-7.3 18.51-10.95 38.05-10.95 57.59s3.65 39.09 10.95 57.59l15.06 38.2c14.59 37 14.59 78.17 0 115.17l-15.06 38.2c-7.3 18.5-10.95 38.05-10.95 57.59m0-1226.99h61.57m-61.57 0h-61.56m123.13 0h61.56c0 19.543 3.65 39.086 10.95 57.589l15.06 38.196c14.59 37.005 14.59 78.172 0 115.177l-15.06 38.196c-7.3 18.503-10.95 38.046-10.95 57.589s3.65 39.086 10.95 57.589l15.06 38.196c14.59 37.005 14.59 78.172 0 115.177l-15.06 38.196c-7.3 18.503-10.95 38.046-10.95 57.589s3.65 39.086 10.95 57.589l15.06 38.196c14.59 37.001 14.59 78.171 0 115.181l-15.06 38.19c-7.3 18.51-10.95 38.05-10.95 57.59s3.65 39.09 10.95 57.59l15.06 38.2c14.59 37 14.59 78.17 0 115.17l-15.06 38.2c-7.3 18.5-10.95 38.05-10.95 57.59h-246.26c0-19.54 3.65-39.09 10.95-57.59l15.06-38.2c14.59-37 14.59-78.17 0-115.17l-15.06-38.2c-7.3-18.5-10.95-38.05-10.95-57.59s3.65-39.08 10.95-57.59l15.06-38.19c14.59-37.01 14.59-78.18 0-115.181l-15.06-38.196c-7.3-18.503-10.95-38.046-10.95-57.589s3.65-39.086 10.95-57.589l15.06-38.196c14.59-37.005 14.59-78.172 0-115.177l-15.06-38.196c-7.3-18.503-10.95-38.046-10.95-57.589s3.65-39.086 10.95-57.589l15.06-38.196c14.59-37.005 14.59-78.172 0-115.177l-15.06-38.196c-7.3-18.503-10.95-38.046-10.95-57.589h61.57m123.13 0c0 19.543 3.65 39.086 10.94 57.589l15.07 38.196c14.59 37.005 14.59 78.172-.01 115.177l-15.06 38.196c-7.3 18.503-10.94 38.046-10.94 57.589s3.65 39.086 10.94 57.589l15.07 38.196c14.59 37.005 14.59 78.172-.01 115.177l-15.06 38.196c-7.3 18.503-10.94 38.046-10.94 57.589s3.65 39.086 10.94 57.589l15.07 38.196c14.59 37.001 14.59 78.171-.01 115.181l-15.06 38.19c-7.3 18.51-10.94 38.05-10.94 57.59s3.65 39.09 10.94 57.59l15.07 38.2c14.59 37 14.59 78.17-.01 115.17l-15.06 38.2c-7.3 18.5-10.94 38.05-10.94 57.59m-123.13-1226.99c0 19.543 3.64 39.086 10.94 57.589l15.06 38.196c14.6 37.005 14.6 78.172 0 115.177l-15.06 38.196c-7.3 18.503-10.94 38.046-10.94 57.589s3.64 39.086 10.94 57.589l15.06 38.196c14.6 37.005 14.6 78.172 0 115.177l-15.06 38.196c-7.3 18.503-10.94 38.046-10.94 57.589s3.64 39.086 10.94 57.589l15.06 38.196c14.6 37.001 14.6 78.171 0 115.181l-15.06 38.19c-7.3 18.51-10.94 38.05-10.94 57.59s3.64 39.09 10.94 57.59l15.06 38.2c14.6 37 14.6 78.17 0 115.17l-15.06 38.2c-7.3 18.5-10.94 38.05-10.94 57.59" stroke="url(#b)" stroke-linejoin="round"/><path d="m1453.53 1932.7h520.01v55.7415h-520.01z" fill="#d18c64" stroke="#0b4d9d" stroke-linejoin="round" transform="matrix(0 -1 1 0 -479.17 3386.23)"/><path d="m1604.58 1859.3v-372.99c0-52.5-42.55-95.05-95.04-95.05v468.04z" fill="#fbc641" stroke="#0b4d9d" stroke-linejoin="round"/><path d="m1509.54 1954.35c52.49 0 95.04-42.56 95.04-95.05s-42.55-95.05-95.04-95.05z" fill="#fff" stroke="#0b4d9d" stroke-linejoin="round"/><path d="m1509.54 1932.75c38.4-37.38 38.4-97.99 0-135.37z" fill="#8ed6d1" stroke="#0b4d9d" stroke-linejoin="round"/><path d="m1509.54 1797.38c38.4-37.38 38.4-97.99 0-135.37z" fill="#8ed6d1" stroke="#0b4d9d" stroke-linejoin="round"/><path d="m1509.54 1662c38.4-37.38 38.4-97.99 0-135.37z" fill="#8ed6d1" stroke="#0b4d9d" stroke-linejoin="round"/><path d="m1509.54 1526.63c38.4-37.38 38.4-97.99 0-135.37z" fill="#8ed6d1" stroke="#0b4d9d" stroke-linejoin="round"/><path d="m1358.32 1859.3v-372.99c0-52.5 42.56-95.05 95.05-95.05v468.04z" fill="#fbc641" stroke="#0b4d9d" stroke-linejoin="round"/><path d="m1453.37 1954.35c-52.49 0-95.05-42.56-95.05-95.05s42.56-95.05 95.05-95.05z" fill="#fff" stroke="#0b4d9d" stroke-linejoin="round"/><path d="m1453.37 1932.75c38.4-37.38 38.4-97.99 0-135.37z" fill="#8ed6d1" stroke="#0b4d9d" stroke-linejoin="round"/><path d="m1453.37 1797.38c38.4-37.38 38.4-97.99 0-135.37z" fill="#8ed6d1" stroke="#0b4d9d" stroke-linejoin="round"/><path d="m1453.37 1662c38.4-37.38 38.4-97.99 0-135.37z" fill="#8ed6d1" stroke="#0b4d9d" stroke-linejoin="round"/><path d="m1453.37 1526.63c38.4-37.38 38.4-97.99 0-135.37z" fill="#8ed6d1" stroke="#0b4d9d" stroke-linejoin="round"/><path d="m1453.37 1865.06c38.4-37.38 38.4-97.99 0-135.37z" fill="#f35534" stroke="#0b4d9d" stroke-linejoin="round"/><path d="m1453.37 1729.69c38.4-37.38 38.4-97.99 0-135.37z" fill="#f35534" stroke="#0b4d9d" stroke-linejoin="round"/><path d="m1453.37 1594.32c38.4-37.38 38.4-97.99 0-135.37z" fill="#f35534" stroke="#0b4d9d" stroke-linejoin="round"/><path d="m1509.54 1865.06c38.4-37.38 38.4-97.99 0-135.37z" fill="#f35534" stroke="#0b4d9d" stroke-linejoin="round"/><path d="m1509.54 1729.69c38.4-37.38 38.4-97.99 0-135.37z" fill="#f35534" stroke="#0b4d9d" stroke-linejoin="round"/><path d="m1509.54 1594.32c38.4-37.38 38.4-97.99 0-135.37z" fill="#f35534" stroke="#0b4d9d" stroke-linejoin="round"/><ellipse cx="1358.32" cy="1721.05" fill="#fff" rx="8.64076" ry="4.32038" stroke="#0b4d9d" stroke-linejoin="round" transform="matrix(0 -1 1 0 -362.73 3079.37)"/><ellipse cx="1417.37" cy="1581.36" fill="#fff" rx="8.64076" ry="4.32038" stroke="#0b4d9d" stroke-linejoin="round" transform="matrix(0 -1 1 0 -163.99 2998.73)"/><ellipse cx="1358.32" cy="1551.11" fill="#fff" rx="8.64076" ry="4.32038" stroke="#0b4d9d" stroke-linejoin="round" transform="matrix(0 -1 1 0 -192.79 2909.43)"/><ellipse cx="1358.32" cy="1581.36" fill="#fff" rx="8.64076" ry="4.32038" stroke="#0b4d9d" stroke-linejoin="round" transform="matrix(0 -1 1 0 -223.04 2939.68)"/><ellipse cx="1405.84" cy="1744.09" fill="#fff" rx="8.64076" ry="4.32038" stroke="#0b4d9d" stroke-linejoin="round" transform="matrix(0 -1 1 0 -338.25 3149.93)"/><ellipse cx="1379.92" cy="1671.36" fill="#fff" rx="13.6812" ry="7.20063" stroke="#0b4d9d" stroke-linejoin="round" transform="matrix(0 -1 1 0 -291.44 3051.28)"/><ellipse cx="1401.52" cy="1526.63" fill="#fff" rx="8.64076" ry="4.32038" stroke="#0b4d9d" stroke-linejoin="round" transform="matrix(0 -1 1 0 -125.11 2928.15)"/><path d="m463.329 0-15.064 38.196c-7.296 18.5028-10.945 38.0458-10.945 57.5888 0 19.5432 3.649 39.0862 10.946 57.5892l15.063 38.196c14.594 37.005 14.593 78.171 0 115.177l-15.064 38.196c-7.296 18.503-10.945 38.046-10.945 57.589h246.262c0-19.543 3.648-39.086 10.945-57.589l15.063-38.196c14.594-37.006 14.594-78.172 0-115.177l-15.063-38.196c-7.297-18.503-10.945-38.046-10.945-57.5892 0-19.543 3.648-39.086 10.945-57.5888l15.063-38.196m-123.13 0-15.064 38.196c-7.296 18.5027-10.945 38.0458-10.945 57.5888 0 19.5432 3.649 39.0862 10.945 57.5892l15.064 38.196c14.593 37.005 14.593 78.171 0 115.177l-15.064 38.196c-7.296 18.503-10.945 38.046-10.945 57.589m-35.557-402.532-15.063 38.196c-7.297 18.5027-10.945 38.0458-10.945 57.5888 0 19.5432 3.648 39.0862 10.945 57.5892l15.063 38.196c14.594 37.005 14.594 78.171 0 115.177l-15.063 38.196c-7.297 18.503-10.945 38.046-10.945 57.589m149.139-402.532-15.063 38.196c-7.297 18.5027-10.945 38.0458-10.945 57.5888 0 19.5432 3.648 39.0862 10.945 57.5892l15.063 38.196c14.594 37.005 14.594 78.171 0 115.177l-15.063 38.196c-7.297 18.503-10.945 38.046-10.945 57.589" stroke="url(#c)" stroke-linejoin="round"/><path d="m532.59 853.031h519.276v55.7415h-519.276z" fill="#d18c64" stroke="#0b4d9d" stroke-linejoin="round" transform="matrix(0 -1 1 0 -320.441 1385.621)"/><path d="m683.582 779.844v-372.993c0-52.494-42.555-95.048-95.048-95.048v468.041z" fill="#fbc641" stroke="#0b4d9d" stroke-linejoin="round"/><path d="m588.534 874.893c52.493 0 95.048-42.555 95.048-95.049s-42.555-95.048-95.048-95.048z" fill="#fff" stroke="#0b4d9d" stroke-linejoin="round"/><path d="m588.533 853.291c38.404-37.382 38.404-97.99 0-135.372z" fill="#8ed6d1" stroke="#0b4d9d" stroke-linejoin="round"/><path d="m588.533 717.92c38.404-37.382 38.404-97.99 0-135.372z" fill="#8ed6d1" stroke="#0b4d9d" stroke-linejoin="round"/><path d="m588.533 582.547c38.404-37.382 38.404-97.99 0-135.372z" fill="#8ed6d1" stroke="#0b4d9d" stroke-linejoin="round"/><path d="m588.533 447.176c38.404-37.382 38.404-97.99 0-135.372z" fill="#8ed6d1" stroke="#0b4d9d" stroke-linejoin="round"/><path d="m437.32 779.844v-372.993c0-52.494 42.555-95.048 95.049-95.048v468.041z" fill="#fbc641" stroke="#0b4d9d" stroke-linejoin="round"/><path d="m532.369 874.893c-52.494 0-95.049-42.555-95.049-95.049s42.555-95.048 95.049-95.048z" fill="#fff" stroke="#0b4d9d" stroke-linejoin="round"/><path d="m532.369 853.291c38.404-37.382 38.404-97.99 0-135.372z" fill="#8ed6d1" stroke="#0b4d9d" stroke-linejoin="round"/><path d="m532.369 717.92c38.404-37.382 38.404-97.99 0-135.372z" fill="#8ed6d1" stroke="#0b4d9d" stroke-linejoin="round"/><path d="m532.369 582.547c38.404-37.382 38.404-97.99 0-135.372z" fill="#8ed6d1" stroke="#0b4d9d" stroke-linejoin="round"/><path d="m532.369 447.176c38.404-37.382 38.404-97.99 0-135.372z" fill="#8ed6d1" stroke="#0b4d9d" stroke-linejoin="round"/><path d="m532.369 785.605c38.404-37.381 38.404-97.99 0-135.371z" fill="#f35534" stroke="#0b4d9d" stroke-linejoin="round"/><path d="m532.369 650.234c38.404-37.382 38.404-97.99 0-135.372z" fill="#f35534" stroke="#0b4d9d" stroke-linejoin="round"/><path d="m532.369 514.861c38.404-37.382 38.404-97.99 0-135.372z" fill="#f35534" stroke="#0b4d9d" stroke-linejoin="round"/><path d="m588.533 785.605c38.404-37.381 38.404-97.99 0-135.371z" fill="#f35534" stroke="#0b4d9d" stroke-linejoin="round"/><path d="m588.533 650.234c38.404-37.382 38.404-97.99 0-135.372z" fill="#f35534" stroke="#0b4d9d" stroke-linejoin="round"/><path d="m588.533 514.861c38.404-37.382 38.404-97.99 0-135.372z" fill="#f35534" stroke="#0b4d9d" stroke-linejoin="round"/><ellipse cx="437.32" cy="641.592" fill="#fff" rx="8.64076" ry="4.32038" stroke="#0b4d9d" stroke-linejoin="round" transform="matrix(0 -1 1 0 -204.272 1078.912)"/><ellipse cx="496.365" cy="501.9" fill="#fff" rx="8.64076" ry="4.32038" stroke="#0b4d9d" stroke-linejoin="round" transform="matrix(0 -1 1 0 -5.535 998.265)"/><ellipse cx="437.32" cy="471.658" fill="#fff" rx="8.64076" ry="4.32038" stroke="#0b4d9d" stroke-linejoin="round" transform="matrix(0 -1 1 0 -34.338 908.978)"/><ellipse cx="437.32" cy="501.9" fill="#fff" rx="8.64076" ry="4.32038" stroke="#0b4d9d" stroke-linejoin="round" transform="matrix(0 -1 1 0 -64.58 939.22)"/><ellipse cx="484.844" cy="664.635" fill="#fff" rx="8.64076" ry="4.32038" stroke="#0b4d9d" stroke-linejoin="round" transform="matrix(0 -1 1 0 -179.791 1149.479)"/><ellipse cx="458.921" cy="591.909" fill="#fff" rx="13.6812" ry="7.20063" stroke="#0b4d9d" stroke-linejoin="round" transform="matrix(0 -1 1 0 -132.988 1050.83)"/><ellipse cx="480.523" cy="447.176" fill="#fff" rx="8.64076" ry="4.32038" stroke="#0b4d9d" stroke-linejoin="round" transform="matrix(0 -1 1 0 33.347 927.699)"/></g><path d="m1310 1693h446v112h-446z" fill="#f3c1e7"/><path d="m577.26 1487.93c0-176.17 142.816-318.98 318.988-318.98s318.992 142.81 318.992 318.98v205.22h-637.98z" fill="#fff" stroke="#0b4d9d" stroke-linejoin="round" stroke-width="6"/><path d="m1094.27 1599.54c0 33.88-8.54 65.76-23.58 93.61m-371.018-93.61c0 33.88 8.537 65.76 23.577 93.61" stroke="#0b4d9d" stroke-linejoin="round" stroke-width="6"/><path d="m115 1693.08h1576.9" stroke="#0b4d9d" stroke-width="6"/><path d="m957.454 1734.91v-283.7h-122.411v283.7c0 49.5 27.403 70.57 61.205 70.57 33.803 0 61.206-21.07 61.206-70.57z" fill="#fff"/><path d="m835.043 1480.01v264.26c0 33.81 27.403 61.21 61.205 61.21 33.803 0 61.206-27.4 61.206-61.21v-264.26" stroke="#0b4d9d" stroke-linejoin="round" stroke-width="6"/><path d="m610.459 1346.08h108.655l52.565-52.56v52.56h61.205 349.156c-52.21-104.99-160.58-177.13-285.79-177.13-125.215 0-233.579 72.14-285.791 177.13z" fill="#f35534"/><path d="m832.884 1346.08h-61.205v-52.56l-52.565 52.56h-108.655c52.212-104.99 160.576-177.13 285.791-177.13 125.21 0 233.58 72.14 285.79 177.13zm0 0v-52.56" stroke="#0b4d9d" stroke-linejoin="round" stroke-width="6"/><path d="m525.416 1488.65c0-14.31 11.606-25.92 25.922-25.92 14.317 0 25.923 11.61 25.923 25.92v204.5h-51.845z" fill="#fff" stroke="#0b4d9d" stroke-linejoin="round" stroke-width="6"/><path d="m1215.24 1488.65c0-14.31 11.6-25.92 25.92-25.92s25.92 11.61 25.92 25.92v204.5h-51.84z" fill="#fff" stroke="#0b4d9d" stroke-linejoin="round" stroke-width="6"/><ellipse cx="766.739" cy="1479.39" fill="#fff" rx="84.2474" ry="68.5089" stroke="#0b4d9d" stroke-linejoin="round" stroke-width="6" transform="matrix(0 1 -1 0 2246.129 712.651)"/><path d="m707.615 1436.81c11.898 24.92 33.922 41.66 59.124 41.66s47.226-16.74 59.124-41.66c-11.898-24.93-33.922-41.66-59.124-41.66s-47.226 16.73-59.124 41.66z" fill="#0b4d9d" stroke="#0b4d9d" stroke-linejoin="round" stroke-width="6"/><ellipse cx="84.2474" cy="68.5089" fill="#fff" rx="84.2474" ry="68.5089" stroke="#0b4d9d" stroke-linejoin="round" stroke-width="6" transform="matrix(.00000004 1 1 -.00000004 957.248 1395.15)"/><path d="m1084.88 1436.81c-11.9 24.92-33.92 41.66-59.12 41.66-25.21 0-47.229-16.74-59.127-41.66 11.898-24.93 33.917-41.66 59.127-41.66 25.2 0 47.22 16.73 59.12 41.66z" fill="#0b4d9d" stroke="#0b4d9d" stroke-linejoin="round" stroke-width="6"/><path d="m653.588 1225.11h483.883v54.7248h-483.883z" fill="#0b4d9d" stroke="#0b4d9d" stroke-linejoin="round" stroke-width="6"/><path d="m673.883 1168.67h19.8029v56.475h-19.8029z" fill="#fff" stroke="#0b4d9d" stroke-linejoin="round" stroke-width="6"/><path d="m1097.08 1168.67h20.5363v56.475h-20.5363z" fill="#fff" stroke="#0b4d9d" stroke-linejoin="round" stroke-width="6"/><path d="m294.996 1168.94c332.063-330.265 870.444-330.265 1202.504 0z" fill="#fbc641" stroke="#0b4d9d" stroke-linejoin="round" stroke-width="6"/><path d="m525.416 1168.94c204.805-330.265 536.864-330.265 741.664 0z" fill="#8ed6d1" stroke="#0b4d9d" stroke-linejoin="round" stroke-width="6"/><path d="m896.969 922.684v246.266" stroke="#0b4d9d" stroke-linejoin="round" stroke-width="6"/><path d="m853.766 921.243c0-16.703 13.54-30.243 30.242-30.243h25.923c16.702 0 30.242 13.54 30.242 30.243z" fill="#0b4d9d" stroke="#0b4d9d" stroke-linejoin="round" stroke-width="6"/><rect fill="#fff" height="275.774" opacity=".25" rx="42.3963" width="110.016" x="1082" y="143"/></g></svg>