<svg fill="none" height="348" viewBox="0 0 1993 348" width="1993" xmlns="http://www.w3.org/2000/svg"><path d="m126.867 187.957c1.259 4.702 3.125 9.157 5.51 13.274 2.367 4.105 5.28 7.932 8.708 11.361 3.451 3.461 7.307 6.4 11.445 8.783 4.121 2.384 8.579 4.249 13.285 5.506 4.702 1.262 9.492 1.875 14.249 1.87 4.758.005 9.55-.608 14.252-1.871 4.703-1.257 9.158-3.12 13.276-5.502 4.143-2.385 8.003-5.327 11.457-8.791 3.424-3.427 6.335-7.251 8.7-11.352 2.385-4.117 4.252-8.572 5.511-13.274 1.274-4.731 1.89-9.552 1.881-14.339 0-4.727-.61-9.487-1.861-14.16-1.256-4.714-3.121-9.18-5.507-13.307-2.385-4.143-5.326-8.003-8.79-11.458-3.432-3.431-7.263-6.347-11.372-8.716-4.122-2.385-8.581-4.252-13.289-5.51-4.705-1.264-9.499-1.878-14.26-1.873-4.76-.004-9.553.609-14.257 1.873-4.708 1.259-9.167 3.126-13.289 5.511-4.106 2.367-7.935 5.281-11.365 8.71-3.466 3.455-6.408 7.316-8.794 11.459-2.385 4.126-4.251 8.59-5.507 13.303-1.253 4.678-1.863 9.444-1.863 14.177-.008 4.783.608 9.599 1.88 14.326z" fill="#f35534"/><path clip-rule="evenodd" d="m239.379 0 6.603 59.5023 54.831-24.0333 59.315 102.737-48.229 35.469 48.229 35.469-59.315 102.736-54.831-24.033-6.603 59.502h-118.63l-6.602-59.502-54.832 24.033-59.315-102.736 48.2293-35.469-48.22920951-35.469 59.31500951-102.737 54.8319 24.0333 6.602-59.5023zm-115.564 76.2474h112.499l56.249 97.4276-56.249 97.427h-112.5l-56.2491-97.427z" fill="#f35534" fill-rule="evenodd"/><g fill="#1f0e09"><path d="m664.692 271.115v-194.8807h-51.675l-57.172 140.7317-58.546-140.7317h-50.026v194.8807h36.282v-135.51l56.073 135.51h31.61l56.072-136.609v136.609z"/><path d="m831.296 271.115v-35.733h-84.109v-45.078h76.138v-33.809h-76.138v-44.528h84.109v-35.7327h-122.041v194.8807z"/><path d="m942.881 221.089-50.851-144.8547h-41.504l72.015 194.8807h39.031l72.288-194.8807h-40.129z"/><path d="m1058.74 76.2343v194.8807h75.32c36.55 0 60.19-22.814 60.19-54.424 0-24.188-15.39-41.505-34.36-46.178 16.22-5.497 28.32-21.714 28.32-41.779 0-30.2355-21.44-52.4997-59.38-52.4997zm37.39 80.5357v-48.651h26.66c18.41 0 28.03 9.345 28.03 24.188s-10.44 24.463-27.76 24.463zm0 82.735v-51.4h31.33c18.97 0 28.86 10.72 28.86 26.112 0 15.668-10.99 25.288-29.41 25.288z"/><path d="m1260.32 271.115v-199.0037h-36.56v199.0037z"/><path d="m1360.2 241.979c-17.87 0-34.36-13.194-34.36-38.482 0-25.562 16.49-38.481 34.36-38.481s34.36 12.919 34.36 38.481c0 25.563-16.49 38.482-34.36 38.482zm0-110.222c-40.4 0-70.91 29.961-70.91 71.74 0 41.505 30.51 71.741 70.91 71.741 40.41 0 70.92-30.236 70.92-71.741 0-41.779-30.51-71.74-70.92-71.74z"/><path d="m1520.72 165.566c18.14 0 26.66 11.544 29.96 22.814l32.71-10.995c-5.77-22.814-26.66-45.628-63.5-45.628-39.3 0-70.09 29.961-70.09 71.74 0 41.505 31.34 71.741 71.19 71.741 36.01 0 57.18-23.089 63.22-45.628l-32.16-10.72c-3.02 10.445-12.37 22.814-31.06 22.814s-34.63-13.743-34.63-38.207c0-24.463 15.67-37.931 34.36-37.931z"/><path d="m1742.21 135.88h-47.83l-46.73 50.301v-114.0697h-36.55v199.0037h36.55v-35.733l15.12-15.942 35.73 51.675h44.81l-55.25-78.337z"/><path d="m1785.12 188.105c.83-12.369 11.27-26.662 30.24-26.662 20.89 0 29.68 13.193 30.23 26.662zm64.05 35.183c-4.4 12.094-13.75 20.615-30.79 20.615-18.14 0-33.26-12.919-34.08-30.785h96.75c0-.55.55-6.047.55-11.27 0-43.429-25.01-70.091-66.79-70.091-34.63 0-66.52 28.037-66.52 71.191 0 45.628 32.71 72.29 69.82 72.29 33.26 0 54.7-19.516 61.57-42.88z"/><path d="m1992.85 135.331c-2.75-.275-5.5-.55-8.52-.55-11.55 0-30.24 3.298-38.48 21.165v-20.066h-35.46v135.235h36.56v-61.845c0-29.136 16.21-38.207 34.9-38.207 3.3 0 6.88.275 11 1.1z"/></g></svg>