<svg fill="none" height="160" viewBox="0 0 988 160" width="988" xmlns="http://www.w3.org/2000/svg"><g fill="#000"><path d="m305.908 124.445-5.508-59.2589-14.976 59.2589h-26.239l-14.914-60.4366-4.394 60.4366h-23.764l6.313-88.8884h37.935l12.872 52.6265 13.491-52.6265h37.13l7.736 88.8884z"/><path d="m408.327 102.254v22.191h-63.184v-88.8884h62.813v22.1912h-36.76v11.4674h33.851v19.4638h-33.851v13.575z"/><path d="m507.775 35.5566-30.571 88.8884h-31.437l-31.066-88.8884h28.405l18.256 59.0731 17.761-59.0731z"/><path d="m574.92 77.5214c5.529 1.3224 9.737 3.8432 12.625 7.5624 2.929 3.6778 4.393 8.2235 4.393 13.637 0 5.0412-1.237 9.5042-3.713 13.3892-2.475 3.843-6.147 6.86-11.015 9.05-4.827 2.19-10.665 3.285-17.513 3.285h-42.886v-88.8884h42.886c6.477 0 11.902 1.0125 16.275 3.0374 4.415 1.9835 7.695 4.7523 9.84 8.3061 2.187 3.5539 3.28 7.6657 3.28 12.3353 0 4.9176-1.217 8.9054-3.651 11.9634-2.393 3.058-5.9 5.1655-10.521 6.3226zm-32.056-21.3233v16.0545h10.706c3.177 0 5.528-.7025 7.055-2.1076 1.568-1.4463 2.352-3.4092 2.352-5.8887 0-2.5621-.805-4.5456-2.414-5.9507-1.568-1.405-3.857-2.1075-6.869-2.1075zm11.572 48.3489c3.301 0 5.818-.764 7.55-2.293 1.774-1.57 2.661-3.6985 2.661-6.3846 0-2.6034-.866-4.6696-2.599-6.1986-1.691-1.5704-4.167-2.3555-7.426-2.3555h-11.758v17.2317z"/><path d="m602.645 35.5566h25.434v88.8884h-25.434z"/><path d="m674.864 126.367c-6.684 0-12.831-1.364-18.442-4.091-5.569-2.728-10.004-6.633-13.305-11.716-3.259-5.124-4.889-11.1161-4.889-17.9759 0-7.0664 1.609-13.2031 4.827-18.4099 3.218-5.2482 7.612-9.2567 13.182-12.0254 5.569-2.7687 11.778-4.1531 18.627-4.1531 6.89 0 13.119 1.3844 18.689 4.1531 5.611 2.7687 10.025 6.7772 13.243 12.0254 3.26 5.2068 4.889 11.3435 4.889 18.4099 0 6.8598-1.65 12.8519-4.951 17.9759-3.3 5.083-7.756 8.988-13.367 11.716-5.611 2.727-11.778 4.091-18.503 4.091zm0-21.014c3.3 0 5.92-1.157 7.859-3.471 1.981-2.3554 2.971-5.5167 2.971-9.4838 0-4.0911-.97-7.3351-2.909-9.7319-1.939-2.4381-4.579-3.6572-7.921-3.6572-3.301 0-5.9 1.1984-7.798 3.5952-1.856 2.3968-2.784 5.6614-2.784 9.7939 0 3.9671.949 7.1284 2.846 9.4838 1.939 2.314 4.518 3.471 7.736 3.471z"/><path d="m756.242 126.553c-7.715 0-14.419-1.447-20.112-4.339-5.652-2.893-9.984-6.922-12.996-12.088-3.012-5.207-4.518-11.178-4.518-17.9138 0-6.7772 1.527-12.7692 4.58-17.9761 3.053-5.2068 7.467-9.2566 13.243-12.1493s12.625-4.339 20.546-4.339c4.208 0 8.127.4132 11.758 1.2397 3.63.7852 6.869 1.8596 9.716 3.2233v21.1993c-4.992-2.7274-10.5-4.0911-16.523-4.0911-5.446 0-9.696 1.1571-12.749 3.4713-3.011 2.2728-4.517 5.3721-4.517 9.2979s1.526 7.0665 4.579 9.4218c3.053 2.314 7.303 3.471 12.748 3.471 3.425 0 6.56-.475 9.407-1.425 2.847-.951 5.343-2.128 7.488-3.534v20.704c-3.136 1.901-6.663 3.347-10.582 4.339-3.92.992-7.942 1.488-12.068 1.488z"/><path d="m833.041 124.445-17.575-29.5674v29.5674h-25.373v-88.8884h25.373v47.8535l16.028-23.4928h29.086l-22.403 28.6997 23.331 35.828z"/><path d="m927.601 98.8447h-41.834c1.444 2.7273 3.816 4.8553 7.116 6.3843 3.342 1.488 7.633 2.232 12.872 2.232 6.973 0 13.285-1.632 18.937-4.897v16.86c-2.723 2.025-6.312 3.699-10.768 5.021-4.414 1.281-9.468 1.922-15.162 1.922-7.962 0-14.893-1.405-20.793-4.215-5.899-2.81-10.438-6.819-13.614-12.026-3.136-5.207-4.704-11.3226-4.704-18.3477 0-6.6532 1.465-12.5213 4.394-17.6041 2.971-5.1243 7.138-9.0914 12.501-11.9014 5.404-2.8514 11.675-4.2771 18.813-4.2771 10.479 0 18.462 2.7687 23.949 8.3062 5.528 5.5374 8.293 13.6163 8.293 24.2367zm-31.376-22.687c-3.135 0-5.652.8678-7.55 2.6035-1.856 1.6942-2.95 4.0704-3.28 7.1284h21.165c-.165-3.182-1.135-5.5995-2.909-7.2524-1.774-1.653-4.249-2.4795-7.426-2.4795z"/><path d="m979.831 58.7395c2.971 0 5.694.7232 8.169 2.1696v23.3069c-1.114-.7026-2.558-1.2811-4.332-1.7357-1.733-.4545-3.713-.6818-5.941-.6818-4.703 0-8.272 1.3843-10.706 4.1531-2.393 2.7687-3.589 6.8805-3.589 12.3353v26.1581h-25.435v-64.5277h25.435v13.637c1.361-5.2895 3.424-9.0707 6.188-11.3435 2.764-2.3142 6.168-3.4713 10.211-3.4713z"/></g><g fill="#f35034"><path clip-rule="evenodd" d="m110.11 0 3.037 27.4086 25.222-11.0705 27.284 47.3238-22.185 16.3381 22.185 16.3381-27.284 47.3239-25.222-11.071-3.037 27.409h-54.5675l-3.037-27.409-25.2216 11.071-27.2839-47.3239 22.1847-16.3381-22.18465838-16.3381 27.28385838-47.3238 25.2216 11.0705 3.037-27.4086zm-53.1575 35.1219h51.7475l25.874 44.8781-25.874 44.878h-51.7475l-25.8738-44.878z" fill-rule="evenodd"/><path d="m108.221 80.0004c0 14.0451-11.37 25.4306-25.3953 25.4306s-25.3951-11.3855-25.3951-25.4306 11.3698-25.4309 25.3951-25.4309 25.3953 11.3858 25.3953 25.4309z"/></g></svg>