<svg fill="none" height="320" viewBox="0 0 320 320" width="320" xmlns="http://www.w3.org/2000/svg" xmlns:xlink="http://www.w3.org/1999/xlink"><mask id="a" height="320" maskUnits="userSpaceOnUse" width="320" x="0" y="0"><path d="m320 160c0-88.3656-71.634-160-160-160-88.3656 0-160 71.6344-160 160 0 88.366 71.6344 160 160 160 88.366 0 160-71.634 160-160z" fill="#fff"/></mask><g mask="url(#a)"><path d="m320 160c0-88.3656-71.634-160-160-160-88.3656 0-160 71.6344-160 160 0 88.366 71.6344 160 160 160 88.366 0 160-71.634 160-160z" fill="#58a4ff"/><path d="m0 196h320v135h-320z" fill="#fff"/><path d="m67.5 204.104v-35.682c0-16.766 12.8904-29.853 29.014-38.244 16.54-8.608 38.8-13.678 62.922-13.678s46.382 5.07 62.923 13.678c16.123 8.391 29.014 21.478 29.014 38.244v35.682c0 16.767-12.891 29.853-29.014 38.244-16.541 8.608-38.801 13.678-62.923 13.678s-46.382-5.07-62.922-13.678c-16.1236-8.391-29.014-21.477-29.014-38.244z" fill="#58a4ff"/><path clip-rule="evenodd" d="m96.0523 129.291c16.7097-8.696 39.1347-13.791 63.3837-13.791 24.25 0 46.675 5.095 63.384 13.791 16.241 8.452 29.553 21.8 29.553 39.131v35.682c0 17.331-13.312 30.679-29.553 39.131-16.709 8.696-39.134 13.791-63.384 13.791-24.249 0-46.674-5.095-63.3837-13.791-16.2404-8.452-29.5523-21.8-29.5523-39.131v-35.682c0-17.331 13.3119-30.679 29.5523-39.131zm63.3837-11.791c-23.995 0-46.09 5.045-62.4604 13.565-16.0067 8.33-28.4756 21.155-28.4756 37.357v35.682c0 16.202 12.4689 29.027 28.4756 37.357 16.3704 8.52 38.4654 13.565 62.4604 13.565s46.09-5.045 62.461-13.565c16.007-8.33 28.476-21.155 28.476-37.357v-35.682c0-16.202-12.469-29.027-28.476-37.357-16.371-8.52-38.466-13.565-62.461-13.565z" fill="#fff" fill-rule="evenodd"/><path d="m158.749 247.526c-46.081 0-83.4365-19.441-83.4365-43.422v-35.682c0-23.982 37.3555-43.422 83.4365-43.422 46.08 0 83.436 19.44 83.436 43.422v35.682c0 23.981-37.356 43.422-83.436 43.422z" fill="#fbc641"/><path clip-rule="evenodd" d="m99.289 136.831c15.268-7.946 36.292-12.831 59.46-12.831 23.167 0 44.191 4.885 59.46 12.831 15.219 7.92 24.976 19.038 24.976 31.591v35.682c0 12.552-9.757 23.67-24.976 31.591-15.269 7.946-36.293 12.831-59.46 12.831-23.168 0-44.192-4.885-59.46-12.831-15.2198-7.921-24.9765-19.039-24.9765-31.591v-35.682c0-12.553 9.7567-23.671 24.9765-31.591zm-22.9765 41.293v25.98c0 11.429 8.9211 22.022 23.8995 29.817 14.93 7.769 35.624 12.605 58.537 12.605s43.607-4.836 58.537-12.605c14.978-7.795 23.899-18.388 23.899-29.817v-25.98c-3.592 8.552-11.815 16.08-22.976 21.888-15.269 7.946-36.293 12.831-59.46 12.831-23.168 0-44.192-4.885-59.46-12.831-11.1612-5.808-19.3845-13.336-22.9765-21.888zm164.8725-9.702c0 11.428-8.921 22.021-23.899 29.816-14.93 7.77-35.624 12.605-58.537 12.605s-43.607-4.835-58.537-12.605c-14.9784-7.795-23.8995-18.388-23.8995-29.816 0-11.429 8.9211-22.022 23.8995-29.817 14.93-7.77 35.624-12.605 58.537-12.605s43.607 4.835 58.537 12.605c14.978 7.795 23.899 18.388 23.899 29.817z" fill="#f35534" fill-rule="evenodd"/><path d="m158.749 247.526c-46.081 0-83.4365-19.441-83.4365-43.422v-35.682c0-23.982 37.3555-43.422 83.4365-43.422 46.08 0 83.436 19.44 83.436 43.422v35.682c0 23.981-37.356 43.422-83.436 43.422z" fill="#fbc641"/><path clip-rule="evenodd" d="m99.289 136.831c15.268-7.946 36.292-12.831 59.46-12.831 23.167 0 44.191 4.885 59.46 12.831 15.219 7.92 24.976 19.038 24.976 31.591v35.682c0 12.552-9.757 23.67-24.976 31.591-15.269 7.946-36.293 12.831-59.46 12.831-23.168 0-44.192-4.885-59.46-12.831-15.2198-7.921-24.9765-19.039-24.9765-31.591v-35.682c0-12.553 9.7567-23.671 24.9765-31.591zm-22.9765 41.293v25.98c0 11.429 8.9211 22.022 23.8995 29.817 14.93 7.769 35.624 12.605 58.537 12.605s43.607-4.836 58.537-12.605c14.978-7.795 23.899-18.388 23.899-29.817v-25.98c-3.592 8.552-11.815 16.08-22.976 21.888-15.269 7.946-36.293 12.831-59.46 12.831-23.168 0-44.192-4.885-59.46-12.831-11.1612-5.808-19.3845-13.336-22.9765-21.888zm164.8725-9.702c0 11.428-8.921 22.021-23.899 29.816-14.93 7.77-35.624 12.605-58.537 12.605s-43.607-4.835-58.537-12.605c-14.9784-7.795-23.8995-18.388-23.8995-29.816 0-11.429 8.9211-22.022 23.8995-29.817 14.93-7.77 35.624-12.605 58.537-12.605s43.607 4.835 58.537 12.605c14.978 7.795 23.899 18.388 23.899 29.817z" fill="#f35534" fill-rule="evenodd"/><path clip-rule="evenodd" d="m96.0523 129.291c16.7097-8.696 39.1347-13.791 63.3837-13.791 24.25 0 46.675 5.095 63.384 13.791 16.241 8.451 29.553 21.8 29.553 39.131 0 17.33-13.312 30.679-29.553 39.13-16.709 8.696-39.134 13.791-63.384 13.791-24.249 0-46.674-5.095-63.3837-13.791-16.2404-8.451-29.5523-21.8-29.5523-39.13 0-17.331 13.3119-30.68 29.5523-39.131zm63.3837-11.791c-23.995 0-46.09 5.045-62.4604 13.565-16.0067 8.33-28.4756 21.155-28.4756 37.357 0 16.201 12.4689 29.026 28.4756 37.356 16.3704 8.52 38.4654 13.565 62.4604 13.565s46.09-5.045 62.461-13.565c16.007-8.33 28.476-21.155 28.476-37.356 0-16.202-12.469-29.027-28.476-37.357-16.371-8.52-38.466-13.565-62.461-13.565z" fill="#fff" fill-rule="evenodd"/><g fill="#f35534"><path d="m25.6875-39.9999 113.3425 202.3249h43.687l33.707-60.171 14.718 6.824-16.412-45.9845-50.543 14.9424 14.718 6.8234-18.031 32.1877-87.923-156.947z"/><path clip-rule="evenodd" d="m27.3939-38.9999 112.2221 200.3249h42.515l33.421-59.659c.255-.456.818-.639 1.293-.419l12.553 5.82-15.292-42.8463-47.094 13.9228 12.313 5.7086c.253.1171.445.3343.531.5993s.057.5537-.079.7967l-18.031 32.1879c-.177.315-.511.511-.872.511-.362 0-.696-.195-.873-.511l-87.636-156.436zm-1.7064-2 47.2635-.0001c.3619 0 .6955.1955.8724.5113l87.0506 155.3897 16.631-29.6885-13.739-6.3693c-.377-.175-.607-.5655-.576-.9805.03-.415.314-.7678.713-.8857l50.543-14.9425c.509-.1505 1.047.1229 1.226.6228l16.412 45.9847c.135.379.03.803-.268 1.074-.297.272-.729.339-1.095.169l-13.877-6.434-33.255 59.363c-.176.316-.51.511-.872.511h-43.687c-.362 0-.695-.195-.872-.511l-113.3429-202.3251c-.1735-.3097-.1698-.6881.0096-.9944.1795-.3062.5078-.4944.8628-.4944z" fill-rule="evenodd"/></g></g></svg>