<svg fill="none" height="322" viewBox="0 0 322 322" width="322" xmlns="http://www.w3.org/2000/svg" xmlns:xlink="http://www.w3.org/1999/xlink"><clipPath id="a"><rect height="320" rx="160" width="320" x="1" y="1"/></clipPath><g clip-path="url(#a)"><rect fill="#48bdff" height="320" rx="160" width="320" x="1" y="1"/><path d="m253.5 210c-21.815 0-39.5 8.247-39.5 18.42v16.16c0 10.173 17.685 18.42 39.5 18.42s39.5-8.247 39.5-18.42v-16.16c0-10.173-17.685-18.42-39.5-18.42z" fill="#ffd338"/><path clip-rule="evenodd" d="m225.147 258.511c7.308 3.408 17.333 5.489 28.353 5.489s21.045-2.081 28.353-5.489c7.227-3.37 12.147-8.224 12.147-13.931v-16.16c0-5.707-4.92-10.561-12.147-13.931-7.308-3.408-17.333-5.489-28.353-5.489s-21.045 2.081-28.353 5.489c-7.227 3.37-12.147 8.224-12.147 13.931v16.16c0 5.707 4.92 10.561 12.147 13.931zm-10.081-12.931h76.869c-.539 4.113-4.386 8.069-10.927 11.119-6.988 3.258-16.713 5.301-27.508 5.301s-20.52-2.043-27.508-5.301c-6.541-3.05-10.388-7.006-10.926-11.119zm76.934-2h-77v-15.16c0-4.467 3.922-8.822 10.992-12.119 6.988-3.258 16.713-5.301 27.508-5.301s20.52 2.043 27.508 5.301c7.07 3.297 10.992 7.652 10.992 12.119z" fill="#f35534" fill-rule="evenodd"/><path d="m214 244.636c0 10.142 17.685 18.364 39.5 18.364s39.5-8.222 39.5-18.364-17.685-18.364-39.5-18.364-39.5 8.222-39.5 18.364z" fill="#ffd338"/><path clip-rule="evenodd" d="m225.148 258.528c7.307 3.398 17.332 5.472 28.352 5.472s21.045-2.074 28.352-5.472c7.225-3.359 12.148-8.2 12.148-13.892s-4.923-10.533-12.148-13.892c-7.307-3.397-17.332-5.472-28.352-5.472s-21.045 2.075-28.352 5.472c-7.225 3.359-12.148 8.2-12.148 13.892s4.923 10.533 12.148 13.892zm.843-1.813c-7.071-3.288-10.991-7.629-10.991-12.079s3.92-8.791 10.991-12.078c6.988-3.249 16.713-5.286 27.509-5.286s20.521 2.037 27.509 5.286c7.071 3.287 10.991 7.628 10.991 12.078s-3.92 8.791-10.991 12.079c-6.988 3.249-16.713 5.285-27.509 5.285s-20.521-2.036-27.509-5.285z" fill="#f35534" fill-rule="evenodd"/><path clip-rule="evenodd" d="m225.148 258.528c7.307 3.398 17.332 5.472 28.352 5.472s21.045-2.074 28.352-5.472c7.225-3.359 12.148-8.2 12.148-13.892s-4.923-10.533-12.148-13.892c-7.307-3.397-17.332-5.472-28.352-5.472s-21.045 2.075-28.352 5.472c-7.225 3.359-12.148 8.2-12.148 13.892s4.923 10.533 12.148 13.892zm.843-1.813c-7.071-3.288-10.991-7.629-10.991-12.079s3.92-8.791 10.991-12.078c6.988-3.249 16.713-5.286 27.509-5.286s20.521 2.037 27.509 5.286c7.071 3.287 10.991 7.628 10.991 12.078s-3.92 8.791-10.991 12.079c-6.988 3.249-16.713 5.285-27.509 5.285s-20.521-2.036-27.509-5.285z" fill="#f35534" fill-rule="evenodd"/><path d="m253.5 226c-21.815 0-39.5 8.247-39.5 18.42v16.16c0 10.173 17.685 18.42 39.5 18.42s39.5-8.247 39.5-18.42v-16.16c0-10.173-17.685-18.42-39.5-18.42z" fill="#ffd338"/><path clip-rule="evenodd" d="m225.147 274.511c7.308 3.408 17.333 5.489 28.353 5.489s21.045-2.081 28.353-5.489c7.227-3.37 12.147-8.224 12.147-13.931v-16.16c0-5.707-4.92-10.561-12.147-13.931-7.308-3.408-17.333-5.489-28.353-5.489s-21.045 2.081-28.353 5.489c-7.227 3.37-12.147 8.224-12.147 13.931v16.16c0 5.707 4.92 10.561 12.147 13.931zm-10.081-12.931h76.869c-.539 4.113-4.386 8.069-10.927 11.119-6.988 3.258-16.713 5.301-27.508 5.301s-20.52-2.043-27.508-5.301c-6.541-3.05-10.388-7.006-10.926-11.119zm76.934-2h-77v-15.16c0-4.467 3.922-8.822 10.992-12.119 6.988-3.258 16.713-5.301 27.508-5.301s20.52 2.043 27.508 5.301c7.07 3.297 10.992 7.652 10.992 12.119z" fill="#f35534" fill-rule="evenodd"/><path d="m214 260.636c0 10.142 17.685 18.364 39.5 18.364s39.5-8.222 39.5-18.364-17.685-18.364-39.5-18.364-39.5 8.222-39.5 18.364z" fill="#ffd338"/><path clip-rule="evenodd" d="m225.148 274.528c7.307 3.398 17.332 5.472 28.352 5.472s21.045-2.074 28.352-5.472c7.225-3.359 12.148-8.2 12.148-13.892s-4.923-10.533-12.148-13.892c-7.307-3.397-17.332-5.472-28.352-5.472s-21.045 2.075-28.352 5.472c-7.225 3.359-12.148 8.2-12.148 13.892s4.923 10.533 12.148 13.892zm.843-1.813c-7.071-3.288-10.991-7.629-10.991-12.079s3.92-8.791 10.991-12.078c6.988-3.249 16.713-5.286 27.509-5.286s20.521 2.037 27.509 5.286c7.071 3.287 10.991 7.628 10.991 12.078s-3.92 8.791-10.991 12.079c-6.988 3.249-16.713 5.285-27.509 5.285s-20.521-2.036-27.509-5.285z" fill="#f35534" fill-rule="evenodd"/><path clip-rule="evenodd" d="m225.148 274.528c7.307 3.398 17.332 5.472 28.352 5.472s21.045-2.074 28.352-5.472c7.225-3.359 12.148-8.2 12.148-13.892s-4.923-10.533-12.148-13.892c-7.307-3.397-17.332-5.472-28.352-5.472s-21.045 2.075-28.352 5.472c-7.225 3.359-12.148 8.2-12.148 13.892s4.923 10.533 12.148 13.892zm.843-1.813c-7.071-3.288-10.991-7.629-10.991-12.079s3.92-8.791 10.991-12.078c6.988-3.249 16.713-5.286 27.509-5.286s20.521 2.037 27.509 5.286c7.071 3.287 10.991 7.628 10.991 12.078s-3.92 8.791-10.991 12.079c-6.988 3.249-16.713 5.285-27.509 5.285s-20.521-2.036-27.509-5.285z" fill="#f35534" fill-rule="evenodd"/><path d="m253.5 242c-21.815 0-39.5 8.247-39.5 18.42v16.16c0 10.173 17.685 18.42 39.5 18.42s39.5-8.247 39.5-18.42v-16.16c0-10.173-17.685-18.42-39.5-18.42z" fill="#ffd338"/><path clip-rule="evenodd" d="m225.147 290.511c7.308 3.408 17.333 5.489 28.353 5.489s21.045-2.081 28.353-5.489c7.227-3.37 12.147-8.224 12.147-13.931v-16.16c0-5.707-4.92-10.561-12.147-13.931-7.308-3.408-17.333-5.489-28.353-5.489s-21.045 2.081-28.353 5.489c-7.227 3.37-12.147 8.224-12.147 13.931v16.16c0 5.707 4.92 10.561 12.147 13.931zm-10.081-12.931h76.869c-.539 4.113-4.386 8.069-10.927 11.119-6.988 3.258-16.713 5.301-27.508 5.301s-20.52-2.043-27.508-5.301c-6.541-3.05-10.388-7.006-10.926-11.119zm76.934-2h-77v-15.16c0-4.467 3.922-8.822 10.992-12.119 6.988-3.258 16.713-5.301 27.508-5.301s20.52 2.043 27.508 5.301c7.07 3.297 10.992 7.652 10.992 12.119z" fill="#f35534" fill-rule="evenodd"/><path d="m214 276.636c0 10.142 17.685 18.364 39.5 18.364s39.5-8.222 39.5-18.364-17.685-18.364-39.5-18.364-39.5 8.222-39.5 18.364z" fill="#ffd338"/><path clip-rule="evenodd" d="m225.148 290.528c7.307 3.398 17.332 5.472 28.352 5.472s21.045-2.074 28.352-5.472c7.225-3.359 12.148-8.2 12.148-13.892s-4.923-10.533-12.148-13.892c-7.307-3.397-17.332-5.472-28.352-5.472s-21.045 2.075-28.352 5.472c-7.225 3.359-12.148 8.2-12.148 13.892s4.923 10.533 12.148 13.892zm.843-1.813c-7.071-3.288-10.991-7.629-10.991-12.079s3.92-8.791 10.991-12.078c6.988-3.249 16.713-5.286 27.509-5.286s20.521 2.037 27.509 5.286c7.071 3.287 10.991 7.628 10.991 12.078s-3.92 8.791-10.991 12.079c-6.988 3.249-16.713 5.285-27.509 5.285s-20.521-2.036-27.509-5.285z" fill="#f35534" fill-rule="evenodd"/><path clip-rule="evenodd" d="m225.148 290.528c7.307 3.398 17.332 5.472 28.352 5.472s21.045-2.074 28.352-5.472c7.225-3.359 12.148-8.2 12.148-13.892s-4.923-10.533-12.148-13.892c-7.307-3.397-17.332-5.472-28.352-5.472s-21.045 2.075-28.352 5.472c-7.225 3.359-12.148 8.2-12.148 13.892s4.923 10.533 12.148 13.892zm.843-1.813c-7.071-3.288-10.991-7.629-10.991-12.079s3.92-8.791 10.991-12.078c6.988-3.249 16.713-5.286 27.509-5.286s20.521 2.037 27.509 5.286c7.071 3.287 10.991 7.628 10.991 12.078s-3.92 8.791-10.991 12.079c-6.988 3.249-16.713 5.285-27.509 5.285s-20.521-2.036-27.509-5.285z" fill="#f35534" fill-rule="evenodd"/><path d="m253.5 258c-21.815 0-39.5 8.247-39.5 18.42v16.16c0 10.173 17.685 18.42 39.5 18.42s39.5-8.247 39.5-18.42v-16.16c0-10.173-17.685-18.42-39.5-18.42z" fill="#ffd338"/><path clip-rule="evenodd" d="m225.147 306.511c7.308 3.408 17.333 5.489 28.353 5.489s21.045-2.081 28.353-5.489c7.227-3.37 12.147-8.224 12.147-13.931v-16.16c0-5.707-4.92-10.561-12.147-13.931-7.308-3.408-17.333-5.489-28.353-5.489s-21.045 2.081-28.353 5.489c-7.227 3.37-12.147 8.224-12.147 13.931v16.16c0 5.707 4.92 10.561 12.147 13.931zm-10.081-12.931h76.869c-.539 4.113-4.386 8.069-10.927 11.119-6.988 3.258-16.713 5.301-27.508 5.301s-20.52-2.043-27.508-5.301c-6.541-3.05-10.388-7.006-10.926-11.119zm76.934-2h-77v-15.16c0-4.467 3.922-8.822 10.992-12.119 6.988-3.258 16.713-5.301 27.508-5.301s20.52 2.043 27.508 5.301c7.07 3.297 10.992 7.652 10.992 12.119z" fill="#f35534" fill-rule="evenodd"/><path d="m214 292.636c0 10.142 17.685 18.364 39.5 18.364s39.5-8.222 39.5-18.364-17.685-18.364-39.5-18.364-39.5 8.222-39.5 18.364z" fill="#ffd338"/><path clip-rule="evenodd" d="m225.148 306.528c7.307 3.398 17.332 5.472 28.352 5.472s21.045-2.074 28.352-5.472c7.225-3.359 12.148-8.2 12.148-13.892s-4.923-10.533-12.148-13.892c-7.307-3.397-17.332-5.472-28.352-5.472s-21.045 2.075-28.352 5.472c-7.225 3.359-12.148 8.2-12.148 13.892s4.923 10.533 12.148 13.892zm.843-1.813c-7.071-3.288-10.991-7.629-10.991-12.079s3.92-8.791 10.991-12.078c6.988-3.249 16.713-5.286 27.509-5.286s20.521 2.037 27.509 5.286c7.071 3.287 10.991 7.628 10.991 12.078s-3.92 8.791-10.991 12.079c-6.988 3.249-16.713 5.285-27.509 5.285s-20.521-2.036-27.509-5.285z" fill="#f35534" fill-rule="evenodd"/><path clip-rule="evenodd" d="m225.148 306.528c7.307 3.398 17.332 5.472 28.352 5.472s21.045-2.074 28.352-5.472c7.225-3.359 12.148-8.2 12.148-13.892s-4.923-10.533-12.148-13.892c-7.307-3.397-17.332-5.472-28.352-5.472s-21.045 2.075-28.352 5.472c-7.225 3.359-12.148 8.2-12.148 13.892s4.923 10.533 12.148 13.892zm.843-1.813c-7.071-3.288-10.991-7.629-10.991-12.079s3.92-8.791 10.991-12.078c6.988-3.249 16.713-5.286 27.509-5.286s20.521 2.037 27.509 5.286c7.071 3.287 10.991 7.628 10.991 12.078s-3.92 8.791-10.991 12.079c-6.988 3.249-16.713 5.285-27.509 5.285s-20.521-2.036-27.509-5.285z" fill="#f35534" fill-rule="evenodd"/><path d="m253.5 274c-21.815 0-39.5 8.247-39.5 18.42v16.16c0 10.173 17.685 18.42 39.5 18.42s39.5-8.247 39.5-18.42v-16.16c0-10.173-17.685-18.42-39.5-18.42z" fill="#ffd338"/><path clip-rule="evenodd" d="m225.147 322.511c7.308 3.408 17.333 5.489 28.353 5.489s21.045-2.081 28.353-5.489c7.227-3.37 12.147-8.224 12.147-13.931v-16.16c0-5.707-4.92-10.561-12.147-13.931-7.308-3.408-17.333-5.489-28.353-5.489s-21.045 2.081-28.353 5.489c-7.227 3.37-12.147 8.224-12.147 13.931v16.16c0 5.707 4.92 10.561 12.147 13.931zm-10.081-12.931h76.869c-.539 4.113-4.386 8.069-10.927 11.119-6.988 3.258-16.713 5.301-27.508 5.301s-20.52-2.043-27.508-5.301c-6.541-3.05-10.388-7.006-10.926-11.119zm76.934-2h-77v-15.16c0-4.467 3.922-8.822 10.992-12.119 6.988-3.258 16.713-5.301 27.508-5.301s20.52 2.043 27.508 5.301c7.07 3.297 10.992 7.652 10.992 12.119z" fill="#f35534" fill-rule="evenodd"/><path d="m214 308.636c0 10.142 17.685 18.364 39.5 18.364s39.5-8.222 39.5-18.364-17.685-18.364-39.5-18.364-39.5 8.222-39.5 18.364z" fill="#ffd338"/><path clip-rule="evenodd" d="m225.148 322.528c7.307 3.398 17.332 5.472 28.352 5.472s21.045-2.074 28.352-5.472c7.225-3.359 12.148-8.2 12.148-13.892s-4.923-10.533-12.148-13.892c-7.307-3.397-17.332-5.472-28.352-5.472s-21.045 2.075-28.352 5.472c-7.225 3.359-12.148 8.2-12.148 13.892s4.923 10.533 12.148 13.892zm.843-1.813c-7.071-3.288-10.991-7.629-10.991-12.079s3.92-8.791 10.991-12.078c6.988-3.249 16.713-5.286 27.509-5.286s20.521 2.037 27.509 5.286c7.071 3.287 10.991 7.628 10.991 12.078s-3.92 8.791-10.991 12.079c-6.988 3.249-16.713 5.285-27.509 5.285s-20.521-2.036-27.509-5.285z" fill="#f35534" fill-rule="evenodd"/><path clip-rule="evenodd" d="m225.148 322.528c7.307 3.398 17.332 5.472 28.352 5.472s21.045-2.074 28.352-5.472c7.225-3.359 12.148-8.2 12.148-13.892s-4.923-10.533-12.148-13.892c-7.307-3.397-17.332-5.472-28.352-5.472s-21.045 2.075-28.352 5.472c-7.225 3.359-12.148 8.2-12.148 13.892s4.923 10.533 12.148 13.892zm.843-1.813c-7.071-3.288-10.991-7.629-10.991-12.079s3.92-8.791 10.991-12.078c6.988-3.249 16.713-5.286 27.509-5.286s20.521 2.037 27.509 5.286c7.071 3.287 10.991 7.628 10.991 12.078s-3.92 8.791-10.991 12.079c-6.988 3.249-16.713 5.285-27.509 5.285s-20.521-2.036-27.509-5.285z" fill="#f35534" fill-rule="evenodd"/><path d="m253.5 290c-21.815 0-39.5 8.247-39.5 18.42v16.16c0 10.173 17.685 18.42 39.5 18.42s39.5-8.247 39.5-18.42v-16.16c0-10.173-17.685-18.42-39.5-18.42z" fill="#ffd338"/><path clip-rule="evenodd" d="m225.147 338.511c7.308 3.408 17.333 5.489 28.353 5.489s21.045-2.081 28.353-5.489c7.227-3.37 12.147-8.224 12.147-13.931v-16.16c0-5.707-4.92-10.561-12.147-13.931-7.308-3.408-17.333-5.489-28.353-5.489s-21.045 2.081-28.353 5.489c-7.227 3.37-12.147 8.224-12.147 13.931v16.16c0 5.707 4.92 10.561 12.147 13.931zm-10.081-12.931h76.869c-.539 4.113-4.386 8.069-10.927 11.119-6.988 3.258-16.713 5.301-27.508 5.301s-20.52-2.043-27.508-5.301c-6.541-3.05-10.388-7.006-10.926-11.119zm76.934-2h-77v-15.16c0-4.467 3.922-8.822 10.992-12.119 6.988-3.258 16.713-5.301 27.508-5.301s20.52 2.043 27.508 5.301c7.07 3.297 10.992 7.652 10.992 12.119z" fill="#f35534" fill-rule="evenodd"/><path d="m214 324.636c0 10.142 17.685 18.364 39.5 18.364s39.5-8.222 39.5-18.364-17.685-18.364-39.5-18.364-39.5 8.222-39.5 18.364z" fill="#ffd338"/><path clip-rule="evenodd" d="m225.148 338.528c7.307 3.398 17.332 5.472 28.352 5.472s21.045-2.074 28.352-5.472c7.225-3.359 12.148-8.2 12.148-13.892s-4.923-10.533-12.148-13.892c-7.307-3.397-17.332-5.472-28.352-5.472s-21.045 2.075-28.352 5.472c-7.225 3.359-12.148 8.2-12.148 13.892s4.923 10.533 12.148 13.892zm.843-1.813c-7.071-3.288-10.991-7.629-10.991-12.079s3.92-8.791 10.991-12.078c6.988-3.249 16.713-5.286 27.509-5.286s20.521 2.037 27.509 5.286c7.071 3.287 10.991 7.628 10.991 12.078s-3.92 8.791-10.991 12.079c-6.988 3.249-16.713 5.285-27.509 5.285s-20.521-2.036-27.509-5.285z" fill="#f35534" fill-rule="evenodd"/><path clip-rule="evenodd" d="m225.148 338.528c7.307 3.398 17.332 5.472 28.352 5.472s21.045-2.074 28.352-5.472c7.225-3.359 12.148-8.2 12.148-13.892s-4.923-10.533-12.148-13.892c-7.307-3.397-17.332-5.472-28.352-5.472s-21.045 2.075-28.352 5.472c-7.225 3.359-12.148 8.2-12.148 13.892s4.923 10.533 12.148 13.892zm.843-1.813c-7.071-3.288-10.991-7.629-10.991-12.079s3.92-8.791 10.991-12.078c6.988-3.249 16.713-5.286 27.509-5.286s20.521 2.037 27.509 5.286c7.071 3.287 10.991 7.628 10.991 12.078s-3.92 8.791-10.991 12.079c-6.988 3.249-16.713 5.285-27.509 5.285s-20.521-2.036-27.509-5.285z" fill="#f35534" fill-rule="evenodd"/><path d="m213.5 50c-21.815 0-39.5 8.2467-39.5 18.4196v16.1608c0 10.1729 17.685 18.4196 39.5 18.4196s39.5-8.2467 39.5-18.4196v-16.1608c0-10.1729-17.685-18.4196-39.5-18.4196z" fill="#ffd338"/><path clip-rule="evenodd" d="m185.147 98.5113c7.308 3.4077 17.333 5.4887 28.353 5.4887s21.045-2.081 28.353-5.4887c7.227-3.3698 12.147-8.2248 12.147-13.9309v-16.1608c0-5.7061-4.92-10.5611-12.147-13.9309-7.308-3.4078-17.333-5.4887-28.353-5.4887s-21.045 2.0809-28.353 5.4887c-7.227 3.3698-12.147 8.2248-12.147 13.9309v16.1608c0 5.7061 4.92 10.5611 12.147 13.9309zm-10.081-12.9309h76.869c-.539 4.1122-4.386 8.0681-10.927 11.1183-6.988 3.2588-16.713 5.3013-27.508 5.3013s-20.52-2.0425-27.508-5.3013c-6.541-3.0502-10.388-7.0061-10.926-11.1183zm76.934-2h-77v-15.1608c0-4.4667 3.922-8.8216 10.992-12.1183 6.988-3.2588 16.713-5.3013 27.508-5.3013s20.52 2.0425 27.508 5.3013c7.07 3.2967 10.992 7.6516 10.992 12.1183z" fill="#f35534" fill-rule="evenodd"/><path d="m174 84.6361c0 10.1421 17.685 18.3639 39.5 18.3639s39.5-8.2218 39.5-18.3639-17.685-18.3639-39.5-18.3639-39.5 8.2218-39.5 18.3639z" fill="#ffd338"/><path clip-rule="evenodd" d="m185.148 98.5281c7.307 3.3979 17.332 5.4719 28.352 5.4719s21.045-2.074 28.352-5.4719c7.225-3.359 12.148-8.1996 12.148-13.892s-4.923-10.533-12.148-13.892c-7.307-3.3974-17.332-5.4719-28.352-5.4719s-21.045 2.0745-28.352 5.4719c-7.225 3.359-12.148 8.1996-12.148 13.892s4.923 10.533 12.148 13.892zm.843-1.8136c-7.071-3.2873-10.991-7.6287-10.991-12.0784 0-4.4498 3.92-8.7911 10.991-12.0785 6.988-3.249 16.713-5.2854 27.509-5.2854s20.521 2.0364 27.509 5.2854c7.071 3.2874 10.991 7.6287 10.991 12.0785 0 4.4497-3.92 8.7911-10.991 12.0784-6.988 3.2491-16.713 5.2855-27.509 5.2855s-20.521-2.0364-27.509-5.2855z" fill="#f35534" fill-rule="evenodd"/><path clip-rule="evenodd" d="m185.148 98.5281c7.307 3.3979 17.332 5.4719 28.352 5.4719s21.045-2.074 28.352-5.4719c7.225-3.359 12.148-8.1996 12.148-13.892s-4.923-10.533-12.148-13.892c-7.307-3.3974-17.332-5.4719-28.352-5.4719s-21.045 2.0745-28.352 5.4719c-7.225 3.359-12.148 8.1996-12.148 13.892s4.923 10.533 12.148 13.892zm.843-1.8136c-7.071-3.2873-10.991-7.6287-10.991-12.0784 0-4.4498 3.92-8.7911 10.991-12.0785 6.988-3.249 16.713-5.2854 27.509-5.2854s20.521 2.0364 27.509 5.2854c7.071 3.2874 10.991 7.6287 10.991 12.0785 0 4.4497-3.92 8.7911-10.991 12.0784-6.988 3.2491-16.713 5.2855-27.509 5.2855s-20.521-2.0364-27.509-5.2855z" fill="#f35534" fill-rule="evenodd"/><path d="m213.5 66c-21.815 0-39.5 8.2467-39.5 18.4196v16.1604c0 10.173 17.685 18.42 39.5 18.42s39.5-8.247 39.5-18.42v-16.1604c0-10.1729-17.685-18.4196-39.5-18.4196z" fill="#ffd338"/><path clip-rule="evenodd" d="m185.147 114.511c7.308 3.408 17.333 5.489 28.353 5.489s21.045-2.081 28.353-5.489c7.227-3.37 12.147-8.224 12.147-13.931v-16.1604c0-5.7061-4.92-10.5611-12.147-13.9309-7.308-3.4078-17.333-5.4887-28.353-5.4887s-21.045 2.0809-28.353 5.4887c-7.227 3.3698-12.147 8.2248-12.147 13.9309v16.1604c0 5.707 4.92 10.561 12.147 13.931zm-10.081-12.931h76.869c-.539 4.113-4.386 8.069-10.927 11.119-6.988 3.258-16.713 5.301-27.508 5.301s-20.52-2.043-27.508-5.301c-6.541-3.05-10.388-7.006-10.926-11.119zm76.934-1.9996h-77v-15.1608c0-4.4667 3.922-8.8216 10.992-12.1183 6.988-3.2588 16.713-5.3013 27.508-5.3013s20.52 2.0425 27.508 5.3013c7.07 3.2967 10.992 7.6516 10.992 12.1183z" fill="#f35534" fill-rule="evenodd"/><path d="m174 100.636c0 10.142 17.685 18.364 39.5 18.364s39.5-8.222 39.5-18.364-17.685-18.3638-39.5-18.3638-39.5 8.2218-39.5 18.3638z" fill="#ffd338"/><path clip-rule="evenodd" d="m185.148 114.528c7.307 3.398 17.332 5.472 28.352 5.472s21.045-2.074 28.352-5.472c7.225-3.359 12.148-8.2 12.148-13.892 0-5.6923-4.923-10.5329-12.148-13.8919-7.307-3.3974-17.332-5.4719-28.352-5.4719s-21.045 2.0745-28.352 5.4719c-7.225 3.359-12.148 8.1996-12.148 13.8919 0 5.692 4.923 10.533 12.148 13.892zm.843-1.813c-7.071-3.288-10.991-7.629-10.991-12.079 0-4.4497 3.92-8.791 10.991-12.0784 6.988-3.249 16.713-5.2854 27.509-5.2854s20.521 2.0364 27.509 5.2854c7.071 3.2874 10.991 7.6287 10.991 12.0784 0 4.45-3.92 8.791-10.991 12.079-6.988 3.249-16.713 5.285-27.509 5.285s-20.521-2.036-27.509-5.285z" fill="#f35534" fill-rule="evenodd"/><path clip-rule="evenodd" d="m185.148 114.528c7.307 3.398 17.332 5.472 28.352 5.472s21.045-2.074 28.352-5.472c7.225-3.359 12.148-8.2 12.148-13.892 0-5.6923-4.923-10.5329-12.148-13.8919-7.307-3.3974-17.332-5.4719-28.352-5.4719s-21.045 2.0745-28.352 5.4719c-7.225 3.359-12.148 8.1996-12.148 13.8919 0 5.692 4.923 10.533 12.148 13.892zm.843-1.813c-7.071-3.288-10.991-7.629-10.991-12.079 0-4.4497 3.92-8.791 10.991-12.0784 6.988-3.249 16.713-5.2854 27.509-5.2854s20.521 2.0364 27.509 5.2854c7.071 3.2874 10.991 7.6287 10.991 12.0784 0 4.45-3.92 8.791-10.991 12.079-6.988 3.249-16.713 5.285-27.509 5.285s-20.521-2.036-27.509-5.285z" fill="#f35534" fill-rule="evenodd"/><path d="m213.5 82c-21.815 0-39.5 8.2467-39.5 18.42v16.16c0 10.173 17.685 18.42 39.5 18.42s39.5-8.247 39.5-18.42v-16.16c0-10.1733-17.685-18.42-39.5-18.42z" fill="#ffd338"/><path clip-rule="evenodd" d="m185.147 130.511c7.308 3.408 17.333 5.489 28.353 5.489s21.045-2.081 28.353-5.489c7.227-3.37 12.147-8.224 12.147-13.931v-16.16c0-5.7065-4.92-10.5615-12.147-13.9313-7.308-3.4078-17.333-5.4887-28.353-5.4887s-21.045 2.0809-28.353 5.4887c-7.227 3.3698-12.147 8.2248-12.147 13.9313v16.16c0 5.707 4.92 10.561 12.147 13.931zm-10.081-12.931h76.869c-.539 4.113-4.386 8.069-10.927 11.119-6.988 3.258-16.713 5.301-27.508 5.301s-20.52-2.043-27.508-5.301c-6.541-3.05-10.388-7.006-10.926-11.119zm76.934-2h-77v-15.16c0-4.4671 3.922-8.822 10.992-12.1187 6.988-3.2588 16.713-5.3013 27.508-5.3013s20.52 2.0425 27.508 5.3013c7.07 3.2967 10.992 7.6516 10.992 12.1187z" fill="#f35534" fill-rule="evenodd"/><path d="m174 116.636c0 10.142 17.685 18.364 39.5 18.364s39.5-8.222 39.5-18.364-17.685-18.3638-39.5-18.3638-39.5 8.2218-39.5 18.3638z" fill="#ffd338"/><path clip-rule="evenodd" d="m185.148 130.528c7.307 3.398 17.332 5.472 28.352 5.472s21.045-2.074 28.352-5.472c7.225-3.359 12.148-8.2 12.148-13.892s-4.923-10.533-12.148-13.892c-7.307-3.3973-17.332-5.4718-28.352-5.4718s-21.045 2.0745-28.352 5.4718c-7.225 3.359-12.148 8.2-12.148 13.892s4.923 10.533 12.148 13.892zm.843-1.813c-7.071-3.288-10.991-7.629-10.991-12.079s3.92-8.791 10.991-12.078c6.988-3.249 16.713-5.2858 27.509-5.2858s20.521 2.0368 27.509 5.2858c7.071 3.287 10.991 7.628 10.991 12.078s-3.92 8.791-10.991 12.079c-6.988 3.249-16.713 5.285-27.509 5.285s-20.521-2.036-27.509-5.285z" fill="#f35534" fill-rule="evenodd"/><path clip-rule="evenodd" d="m185.148 130.528c7.307 3.398 17.332 5.472 28.352 5.472s21.045-2.074 28.352-5.472c7.225-3.359 12.148-8.2 12.148-13.892s-4.923-10.533-12.148-13.892c-7.307-3.3973-17.332-5.4718-28.352-5.4718s-21.045 2.0745-28.352 5.4718c-7.225 3.359-12.148 8.2-12.148 13.892s4.923 10.533 12.148 13.892zm.843-1.813c-7.071-3.288-10.991-7.629-10.991-12.079s3.92-8.791 10.991-12.078c6.988-3.249 16.713-5.2858 27.509-5.2858s20.521 2.0368 27.509 5.2858c7.071 3.287 10.991 7.628 10.991 12.078s-3.92 8.791-10.991 12.079c-6.988 3.249-16.713 5.285-27.509 5.285s-20.521-2.036-27.509-5.285z" fill="#f35534" fill-rule="evenodd"/><path d="m213.5 98c-21.815 0-39.5 8.247-39.5 18.42v16.16c0 10.173 17.685 18.42 39.5 18.42s39.5-8.247 39.5-18.42v-16.16c0-10.173-17.685-18.42-39.5-18.42z" fill="#ffd338"/><path clip-rule="evenodd" d="m185.147 146.511c7.308 3.408 17.333 5.489 28.353 5.489s21.045-2.081 28.353-5.489c7.227-3.37 12.147-8.224 12.147-13.931v-16.16c0-5.707-4.92-10.561-12.147-13.931-7.308-3.4081-17.333-5.489-28.353-5.489s-21.045 2.0809-28.353 5.489c-7.227 3.37-12.147 8.224-12.147 13.931v16.16c0 5.707 4.92 10.561 12.147 13.931zm-10.081-12.931h76.869c-.539 4.113-4.386 8.069-10.927 11.119-6.988 3.258-16.713 5.301-27.508 5.301s-20.52-2.043-27.508-5.301c-6.541-3.05-10.388-7.006-10.926-11.119zm76.934-2h-77v-15.16c0-4.467 3.922-8.822 10.992-12.119 6.988-3.258 16.713-5.301 27.508-5.301s20.52 2.043 27.508 5.301c7.07 3.297 10.992 7.652 10.992 12.119z" fill="#f35534" fill-rule="evenodd"/><path d="m174 132.636c0 10.142 17.685 18.364 39.5 18.364s39.5-8.222 39.5-18.364-17.685-18.364-39.5-18.364-39.5 8.222-39.5 18.364z" fill="#ffd338"/><path clip-rule="evenodd" d="m185.148 146.528c7.307 3.398 17.332 5.472 28.352 5.472s21.045-2.074 28.352-5.472c7.225-3.359 12.148-8.2 12.148-13.892s-4.923-10.533-12.148-13.892c-7.307-3.397-17.332-5.472-28.352-5.472s-21.045 2.075-28.352 5.472c-7.225 3.359-12.148 8.2-12.148 13.892s4.923 10.533 12.148 13.892zm.843-1.813c-7.071-3.288-10.991-7.629-10.991-12.079s3.92-8.791 10.991-12.078c6.988-3.249 16.713-5.286 27.509-5.286s20.521 2.037 27.509 5.286c7.071 3.287 10.991 7.628 10.991 12.078s-3.92 8.791-10.991 12.079c-6.988 3.249-16.713 5.285-27.509 5.285s-20.521-2.036-27.509-5.285z" fill="#f35534" fill-rule="evenodd"/><path clip-rule="evenodd" d="m185.148 146.528c7.307 3.398 17.332 5.472 28.352 5.472s21.045-2.074 28.352-5.472c7.225-3.359 12.148-8.2 12.148-13.892s-4.923-10.533-12.148-13.892c-7.307-3.397-17.332-5.472-28.352-5.472s-21.045 2.075-28.352 5.472c-7.225 3.359-12.148 8.2-12.148 13.892s4.923 10.533 12.148 13.892zm.843-1.813c-7.071-3.288-10.991-7.629-10.991-12.079s3.92-8.791 10.991-12.078c6.988-3.249 16.713-5.286 27.509-5.286s20.521 2.037 27.509 5.286c7.071 3.287 10.991 7.628 10.991 12.078s-3.92 8.791-10.991 12.079c-6.988 3.249-16.713 5.285-27.509 5.285s-20.521-2.036-27.509-5.285z" fill="#f35534" fill-rule="evenodd"/><path d="m213.5 114c-21.815 0-39.5 8.247-39.5 18.42v16.16c0 10.173 17.685 18.42 39.5 18.42s39.5-8.247 39.5-18.42v-16.16c0-10.173-17.685-18.42-39.5-18.42z" fill="#ffd338"/><path clip-rule="evenodd" d="m185.147 162.511c7.308 3.408 17.333 5.489 28.353 5.489s21.045-2.081 28.353-5.489c7.227-3.37 12.147-8.224 12.147-13.931v-16.16c0-5.707-4.92-10.561-12.147-13.931-7.308-3.408-17.333-5.489-28.353-5.489s-21.045 2.081-28.353 5.489c-7.227 3.37-12.147 8.224-12.147 13.931v16.16c0 5.707 4.92 10.561 12.147 13.931zm-10.081-12.931h76.869c-.539 4.113-4.386 8.069-10.927 11.119-6.988 3.258-16.713 5.301-27.508 5.301s-20.52-2.043-27.508-5.301c-6.541-3.05-10.388-7.006-10.926-11.119zm76.934-2h-77v-15.16c0-4.467 3.922-8.822 10.992-12.119 6.988-3.258 16.713-5.301 27.508-5.301s20.52 2.043 27.508 5.301c7.07 3.297 10.992 7.652 10.992 12.119z" fill="#f35534" fill-rule="evenodd"/><path d="m174 148.636c0 10.142 17.685 18.364 39.5 18.364s39.5-8.222 39.5-18.364-17.685-18.364-39.5-18.364-39.5 8.222-39.5 18.364z" fill="#ffd338"/><path clip-rule="evenodd" d="m185.148 162.528c7.307 3.398 17.332 5.472 28.352 5.472s21.045-2.074 28.352-5.472c7.225-3.359 12.148-8.2 12.148-13.892s-4.923-10.533-12.148-13.892c-7.307-3.397-17.332-5.472-28.352-5.472s-21.045 2.075-28.352 5.472c-7.225 3.359-12.148 8.2-12.148 13.892s4.923 10.533 12.148 13.892zm.843-1.813c-7.071-3.288-10.991-7.629-10.991-12.079s3.92-8.791 10.991-12.078c6.988-3.249 16.713-5.286 27.509-5.286s20.521 2.037 27.509 5.286c7.071 3.287 10.991 7.628 10.991 12.078s-3.92 8.791-10.991 12.079c-6.988 3.249-16.713 5.285-27.509 5.285s-20.521-2.036-27.509-5.285z" fill="#f35534" fill-rule="evenodd"/><path clip-rule="evenodd" d="m185.148 162.528c7.307 3.398 17.332 5.472 28.352 5.472s21.045-2.074 28.352-5.472c7.225-3.359 12.148-8.2 12.148-13.892s-4.923-10.533-12.148-13.892c-7.307-3.397-17.332-5.472-28.352-5.472s-21.045 2.075-28.352 5.472c-7.225 3.359-12.148 8.2-12.148 13.892s4.923 10.533 12.148 13.892zm.843-1.813c-7.071-3.288-10.991-7.629-10.991-12.079s3.92-8.791 10.991-12.078c6.988-3.249 16.713-5.286 27.509-5.286s20.521 2.037 27.509 5.286c7.071 3.287 10.991 7.628 10.991 12.078s-3.92 8.791-10.991 12.079c-6.988 3.249-16.713 5.285-27.509 5.285s-20.521-2.036-27.509-5.285z" fill="#f35534" fill-rule="evenodd"/><path d="m213.5 130c-21.815 0-39.5 8.247-39.5 18.42v16.16c0 10.173 17.685 18.42 39.5 18.42s39.5-8.247 39.5-18.42v-16.16c0-10.173-17.685-18.42-39.5-18.42z" fill="#ffd338"/><path clip-rule="evenodd" d="m185.147 178.511c7.308 3.408 17.333 5.489 28.353 5.489s21.045-2.081 28.353-5.489c7.227-3.37 12.147-8.224 12.147-13.931v-16.16c0-5.707-4.92-10.561-12.147-13.931-7.308-3.408-17.333-5.489-28.353-5.489s-21.045 2.081-28.353 5.489c-7.227 3.37-12.147 8.224-12.147 13.931v16.16c0 5.707 4.92 10.561 12.147 13.931zm-10.081-12.931h76.869c-.539 4.113-4.386 8.069-10.927 11.119-6.988 3.258-16.713 5.301-27.508 5.301s-20.52-2.043-27.508-5.301c-6.541-3.05-10.388-7.006-10.926-11.119zm76.934-2h-77v-15.16c0-4.467 3.922-8.822 10.992-12.119 6.988-3.258 16.713-5.301 27.508-5.301s20.52 2.043 27.508 5.301c7.07 3.297 10.992 7.652 10.992 12.119z" fill="#f35534" fill-rule="evenodd"/><path d="m174 164.636c0 10.142 17.685 18.364 39.5 18.364s39.5-8.222 39.5-18.364-17.685-18.364-39.5-18.364-39.5 8.222-39.5 18.364z" fill="#ffd338"/><path clip-rule="evenodd" d="m185.148 178.528c7.307 3.398 17.332 5.472 28.352 5.472s21.045-2.074 28.352-5.472c7.225-3.359 12.148-8.2 12.148-13.892s-4.923-10.533-12.148-13.892c-7.307-3.397-17.332-5.472-28.352-5.472s-21.045 2.075-28.352 5.472c-7.225 3.359-12.148 8.2-12.148 13.892s4.923 10.533 12.148 13.892zm.843-1.813c-7.071-3.288-10.991-7.629-10.991-12.079s3.92-8.791 10.991-12.078c6.988-3.249 16.713-5.286 27.509-5.286s20.521 2.037 27.509 5.286c7.071 3.287 10.991 7.628 10.991 12.078s-3.92 8.791-10.991 12.079c-6.988 3.249-16.713 5.285-27.509 5.285s-20.521-2.036-27.509-5.285z" fill="#f35534" fill-rule="evenodd"/><path clip-rule="evenodd" d="m185.148 178.528c7.307 3.398 17.332 5.472 28.352 5.472s21.045-2.074 28.352-5.472c7.225-3.359 12.148-8.2 12.148-13.892s-4.923-10.533-12.148-13.892c-7.307-3.397-17.332-5.472-28.352-5.472s-21.045 2.075-28.352 5.472c-7.225 3.359-12.148 8.2-12.148 13.892s4.923 10.533 12.148 13.892zm.843-1.813c-7.071-3.288-10.991-7.629-10.991-12.079s3.92-8.791 10.991-12.078c6.988-3.249 16.713-5.286 27.509-5.286s20.521 2.037 27.509 5.286c7.071 3.287 10.991 7.628 10.991 12.078s-3.92 8.791-10.991 12.079c-6.988 3.249-16.713 5.285-27.509 5.285s-20.521-2.036-27.509-5.285z" fill="#f35534" fill-rule="evenodd"/><path d="m213.5 146c-21.815 0-39.5 8.247-39.5 18.42v16.16c0 10.173 17.685 18.42 39.5 18.42s39.5-8.247 39.5-18.42v-16.16c0-10.173-17.685-18.42-39.5-18.42z" fill="#ffd338"/><path clip-rule="evenodd" d="m185.147 194.511c7.308 3.408 17.333 5.489 28.353 5.489s21.045-2.081 28.353-5.489c7.227-3.37 12.147-8.224 12.147-13.931v-16.16c0-5.707-4.92-10.561-12.147-13.931-7.308-3.408-17.333-5.489-28.353-5.489s-21.045 2.081-28.353 5.489c-7.227 3.37-12.147 8.224-12.147 13.931v16.16c0 5.707 4.92 10.561 12.147 13.931zm-10.081-12.931h76.869c-.539 4.113-4.386 8.069-10.927 11.119-6.988 3.258-16.713 5.301-27.508 5.301s-20.52-2.043-27.508-5.301c-6.541-3.05-10.388-7.006-10.926-11.119zm76.934-2h-77v-15.16c0-4.467 3.922-8.822 10.992-12.119 6.988-3.258 16.713-5.301 27.508-5.301s20.52 2.043 27.508 5.301c7.07 3.297 10.992 7.652 10.992 12.119z" fill="#f35534" fill-rule="evenodd"/><path d="m174 180.636c0 10.142 17.685 18.364 39.5 18.364s39.5-8.222 39.5-18.364-17.685-18.364-39.5-18.364-39.5 8.222-39.5 18.364z" fill="#ffd338"/><path clip-rule="evenodd" d="m185.148 194.528c7.307 3.398 17.332 5.472 28.352 5.472s21.045-2.074 28.352-5.472c7.225-3.359 12.148-8.2 12.148-13.892s-4.923-10.533-12.148-13.892c-7.307-3.397-17.332-5.472-28.352-5.472s-21.045 2.075-28.352 5.472c-7.225 3.359-12.148 8.2-12.148 13.892s4.923 10.533 12.148 13.892zm.843-1.813c-7.071-3.288-10.991-7.629-10.991-12.079s3.92-8.791 10.991-12.078c6.988-3.249 16.713-5.286 27.509-5.286s20.521 2.037 27.509 5.286c7.071 3.287 10.991 7.628 10.991 12.078s-3.92 8.791-10.991 12.079c-6.988 3.249-16.713 5.285-27.509 5.285s-20.521-2.036-27.509-5.285z" fill="#f35534" fill-rule="evenodd"/><path clip-rule="evenodd" d="m185.148 194.528c7.307 3.398 17.332 5.472 28.352 5.472s21.045-2.074 28.352-5.472c7.225-3.359 12.148-8.2 12.148-13.892s-4.923-10.533-12.148-13.892c-7.307-3.397-17.332-5.472-28.352-5.472s-21.045 2.075-28.352 5.472c-7.225 3.359-12.148 8.2-12.148 13.892s4.923 10.533 12.148 13.892zm.843-1.813c-7.071-3.288-10.991-7.629-10.991-12.079s3.92-8.791 10.991-12.078c6.988-3.249 16.713-5.286 27.509-5.286s20.521 2.037 27.509 5.286c7.071 3.287 10.991 7.628 10.991 12.078s-3.92 8.791-10.991 12.079c-6.988 3.249-16.713 5.285-27.509 5.285s-20.521-2.036-27.509-5.285z" fill="#f35534" fill-rule="evenodd"/><path d="m213.5 162c-21.815 0-39.5 8.247-39.5 18.42v16.16c0 10.173 17.685 18.42 39.5 18.42s39.5-8.247 39.5-18.42v-16.16c0-10.173-17.685-18.42-39.5-18.42z" fill="#ffd338"/><path clip-rule="evenodd" d="m185.147 210.511c7.308 3.408 17.333 5.489 28.353 5.489s21.045-2.081 28.353-5.489c7.227-3.37 12.147-8.224 12.147-13.931v-16.16c0-5.707-4.92-10.561-12.147-13.931-7.308-3.408-17.333-5.489-28.353-5.489s-21.045 2.081-28.353 5.489c-7.227 3.37-12.147 8.224-12.147 13.931v16.16c0 5.707 4.92 10.561 12.147 13.931zm-10.081-12.931h76.869c-.539 4.113-4.386 8.069-10.927 11.119-6.988 3.258-16.713 5.301-27.508 5.301s-20.52-2.043-27.508-5.301c-6.541-3.05-10.388-7.006-10.926-11.119zm76.934-2h-77v-15.16c0-4.467 3.922-8.822 10.992-12.119 6.988-3.258 16.713-5.301 27.508-5.301s20.52 2.043 27.508 5.301c7.07 3.297 10.992 7.652 10.992 12.119z" fill="#f35534" fill-rule="evenodd"/><path d="m174 196.636c0 10.142 17.685 18.364 39.5 18.364s39.5-8.222 39.5-18.364-17.685-18.364-39.5-18.364-39.5 8.222-39.5 18.364z" fill="#ffd338"/><path clip-rule="evenodd" d="m185.148 210.528c7.307 3.398 17.332 5.472 28.352 5.472s21.045-2.074 28.352-5.472c7.225-3.359 12.148-8.2 12.148-13.892s-4.923-10.533-12.148-13.892c-7.307-3.397-17.332-5.472-28.352-5.472s-21.045 2.075-28.352 5.472c-7.225 3.359-12.148 8.2-12.148 13.892s4.923 10.533 12.148 13.892zm.843-1.813c-7.071-3.288-10.991-7.629-10.991-12.079s3.92-8.791 10.991-12.078c6.988-3.249 16.713-5.286 27.509-5.286s20.521 2.037 27.509 5.286c7.071 3.287 10.991 7.628 10.991 12.078s-3.92 8.791-10.991 12.079c-6.988 3.249-16.713 5.285-27.509 5.285s-20.521-2.036-27.509-5.285z" fill="#f35534" fill-rule="evenodd"/><path clip-rule="evenodd" d="m185.148 210.528c7.307 3.398 17.332 5.472 28.352 5.472s21.045-2.074 28.352-5.472c7.225-3.359 12.148-8.2 12.148-13.892s-4.923-10.533-12.148-13.892c-7.307-3.397-17.332-5.472-28.352-5.472s-21.045 2.075-28.352 5.472c-7.225 3.359-12.148 8.2-12.148 13.892s4.923 10.533 12.148 13.892zm.843-1.813c-7.071-3.288-10.991-7.629-10.991-12.079s3.92-8.791 10.991-12.078c6.988-3.249 16.713-5.286 27.509-5.286s20.521 2.037 27.509 5.286c7.071 3.287 10.991 7.628 10.991 12.078s-3.92 8.791-10.991 12.079c-6.988 3.249-16.713 5.285-27.509 5.285s-20.521-2.036-27.509-5.285z" fill="#f35534" fill-rule="evenodd"/><path d="m213.5 178c-21.815 0-39.5 8.247-39.5 18.42v16.16c0 10.173 17.685 18.42 39.5 18.42s39.5-8.247 39.5-18.42v-16.16c0-10.173-17.685-18.42-39.5-18.42z" fill="#ffd338"/><path clip-rule="evenodd" d="m185.147 226.511c7.308 3.408 17.333 5.489 28.353 5.489s21.045-2.081 28.353-5.489c7.227-3.37 12.147-8.224 12.147-13.931v-16.16c0-5.707-4.92-10.561-12.147-13.931-7.308-3.408-17.333-5.489-28.353-5.489s-21.045 2.081-28.353 5.489c-7.227 3.37-12.147 8.224-12.147 13.931v16.16c0 5.707 4.92 10.561 12.147 13.931zm-10.081-12.931h76.869c-.539 4.113-4.386 8.069-10.927 11.119-6.988 3.258-16.713 5.301-27.508 5.301s-20.52-2.043-27.508-5.301c-6.541-3.05-10.388-7.006-10.926-11.119zm76.934-2h-77v-15.16c0-4.467 3.922-8.822 10.992-12.119 6.988-3.258 16.713-5.301 27.508-5.301s20.52 2.043 27.508 5.301c7.07 3.297 10.992 7.652 10.992 12.119z" fill="#f35534" fill-rule="evenodd"/><path d="m174 212.636c0 10.142 17.685 18.364 39.5 18.364s39.5-8.222 39.5-18.364-17.685-18.364-39.5-18.364-39.5 8.222-39.5 18.364z" fill="#ffd338"/><path clip-rule="evenodd" d="m185.148 226.528c7.307 3.398 17.332 5.472 28.352 5.472s21.045-2.074 28.352-5.472c7.225-3.359 12.148-8.2 12.148-13.892s-4.923-10.533-12.148-13.892c-7.307-3.397-17.332-5.472-28.352-5.472s-21.045 2.075-28.352 5.472c-7.225 3.359-12.148 8.2-12.148 13.892s4.923 10.533 12.148 13.892zm.843-1.813c-7.071-3.288-10.991-7.629-10.991-12.079s3.92-8.791 10.991-12.078c6.988-3.249 16.713-5.286 27.509-5.286s20.521 2.037 27.509 5.286c7.071 3.287 10.991 7.628 10.991 12.078s-3.92 8.791-10.991 12.079c-6.988 3.249-16.713 5.285-27.509 5.285s-20.521-2.036-27.509-5.285z" fill="#f35534" fill-rule="evenodd"/><path clip-rule="evenodd" d="m185.148 226.528c7.307 3.398 17.332 5.472 28.352 5.472s21.045-2.074 28.352-5.472c7.225-3.359 12.148-8.2 12.148-13.892s-4.923-10.533-12.148-13.892c-7.307-3.397-17.332-5.472-28.352-5.472s-21.045 2.075-28.352 5.472c-7.225 3.359-12.148 8.2-12.148 13.892s4.923 10.533 12.148 13.892zm.843-1.813c-7.071-3.288-10.991-7.629-10.991-12.079s3.92-8.791 10.991-12.078c6.988-3.249 16.713-5.286 27.509-5.286s20.521 2.037 27.509 5.286c7.071 3.287 10.991 7.628 10.991 12.078s-3.92 8.791-10.991 12.079c-6.988 3.249-16.713 5.285-27.509 5.285s-20.521-2.036-27.509-5.285z" fill="#f35534" fill-rule="evenodd"/><path d="m213.5 194c-21.815 0-39.5 8.247-39.5 18.42v16.16c0 10.173 17.685 18.42 39.5 18.42s39.5-8.247 39.5-18.42v-16.16c0-10.173-17.685-18.42-39.5-18.42z" fill="#ffd338"/><path clip-rule="evenodd" d="m185.147 242.511c7.308 3.408 17.333 5.489 28.353 5.489s21.045-2.081 28.353-5.489c7.227-3.37 12.147-8.224 12.147-13.931v-16.16c0-5.707-4.92-10.561-12.147-13.931-7.308-3.408-17.333-5.489-28.353-5.489s-21.045 2.081-28.353 5.489c-7.227 3.37-12.147 8.224-12.147 13.931v16.16c0 5.707 4.92 10.561 12.147 13.931zm-10.081-12.931h76.869c-.539 4.113-4.386 8.069-10.927 11.119-6.988 3.258-16.713 5.301-27.508 5.301s-20.52-2.043-27.508-5.301c-6.541-3.05-10.388-7.006-10.926-11.119zm76.934-2h-77v-15.16c0-4.467 3.922-8.822 10.992-12.119 6.988-3.258 16.713-5.301 27.508-5.301s20.52 2.043 27.508 5.301c7.07 3.297 10.992 7.652 10.992 12.119z" fill="#f35534" fill-rule="evenodd"/><path d="m174 228.636c0 10.142 17.685 18.364 39.5 18.364s39.5-8.222 39.5-18.364-17.685-18.364-39.5-18.364-39.5 8.222-39.5 18.364z" fill="#ffd338"/><path clip-rule="evenodd" d="m185.148 242.528c7.307 3.398 17.332 5.472 28.352 5.472s21.045-2.074 28.352-5.472c7.225-3.359 12.148-8.2 12.148-13.892s-4.923-10.533-12.148-13.892c-7.307-3.397-17.332-5.472-28.352-5.472s-21.045 2.075-28.352 5.472c-7.225 3.359-12.148 8.2-12.148 13.892s4.923 10.533 12.148 13.892zm.843-1.813c-7.071-3.288-10.991-7.629-10.991-12.079s3.92-8.791 10.991-12.078c6.988-3.249 16.713-5.286 27.509-5.286s20.521 2.037 27.509 5.286c7.071 3.287 10.991 7.628 10.991 12.078s-3.92 8.791-10.991 12.079c-6.988 3.249-16.713 5.285-27.509 5.285s-20.521-2.036-27.509-5.285z" fill="#f35534" fill-rule="evenodd"/><path clip-rule="evenodd" d="m185.148 242.528c7.307 3.398 17.332 5.472 28.352 5.472s21.045-2.074 28.352-5.472c7.225-3.359 12.148-8.2 12.148-13.892s-4.923-10.533-12.148-13.892c-7.307-3.397-17.332-5.472-28.352-5.472s-21.045 2.075-28.352 5.472c-7.225 3.359-12.148 8.2-12.148 13.892s4.923 10.533 12.148 13.892zm.843-1.813c-7.071-3.288-10.991-7.629-10.991-12.079s3.92-8.791 10.991-12.078c6.988-3.249 16.713-5.286 27.509-5.286s20.521 2.037 27.509 5.286c7.071 3.287 10.991 7.628 10.991 12.078s-3.92 8.791-10.991 12.079c-6.988 3.249-16.713 5.285-27.509 5.285s-20.521-2.036-27.509-5.285z" fill="#f35534" fill-rule="evenodd"/><path d="m213.5 210c-21.815 0-39.5 8.247-39.5 18.42v16.16c0 10.173 17.685 18.42 39.5 18.42s39.5-8.247 39.5-18.42v-16.16c0-10.173-17.685-18.42-39.5-18.42z" fill="#ffd338"/><path clip-rule="evenodd" d="m185.147 258.511c7.308 3.408 17.333 5.489 28.353 5.489s21.045-2.081 28.353-5.489c7.227-3.37 12.147-8.224 12.147-13.931v-16.16c0-5.707-4.92-10.561-12.147-13.931-7.308-3.408-17.333-5.489-28.353-5.489s-21.045 2.081-28.353 5.489c-7.227 3.37-12.147 8.224-12.147 13.931v16.16c0 5.707 4.92 10.561 12.147 13.931zm-10.081-12.931h76.869c-.539 4.113-4.386 8.069-10.927 11.119-6.988 3.258-16.713 5.301-27.508 5.301s-20.52-2.043-27.508-5.301c-6.541-3.05-10.388-7.006-10.926-11.119zm76.934-2h-77v-15.16c0-4.467 3.922-8.822 10.992-12.119 6.988-3.258 16.713-5.301 27.508-5.301s20.52 2.043 27.508 5.301c7.07 3.297 10.992 7.652 10.992 12.119z" fill="#f35534" fill-rule="evenodd"/><path d="m174 244.636c0 10.142 17.685 18.364 39.5 18.364s39.5-8.222 39.5-18.364-17.685-18.364-39.5-18.364-39.5 8.222-39.5 18.364z" fill="#ffd338"/><path clip-rule="evenodd" d="m185.148 258.528c7.307 3.398 17.332 5.472 28.352 5.472s21.045-2.074 28.352-5.472c7.225-3.359 12.148-8.2 12.148-13.892s-4.923-10.533-12.148-13.892c-7.307-3.397-17.332-5.472-28.352-5.472s-21.045 2.075-28.352 5.472c-7.225 3.359-12.148 8.2-12.148 13.892s4.923 10.533 12.148 13.892zm.843-1.813c-7.071-3.288-10.991-7.629-10.991-12.079s3.92-8.791 10.991-12.078c6.988-3.249 16.713-5.286 27.509-5.286s20.521 2.037 27.509 5.286c7.071 3.287 10.991 7.628 10.991 12.078s-3.92 8.791-10.991 12.079c-6.988 3.249-16.713 5.285-27.509 5.285s-20.521-2.036-27.509-5.285z" fill="#f35534" fill-rule="evenodd"/><path clip-rule="evenodd" d="m185.148 258.528c7.307 3.398 17.332 5.472 28.352 5.472s21.045-2.074 28.352-5.472c7.225-3.359 12.148-8.2 12.148-13.892s-4.923-10.533-12.148-13.892c-7.307-3.397-17.332-5.472-28.352-5.472s-21.045 2.075-28.352 5.472c-7.225 3.359-12.148 8.2-12.148 13.892s4.923 10.533 12.148 13.892zm.843-1.813c-7.071-3.288-10.991-7.629-10.991-12.079s3.92-8.791 10.991-12.078c6.988-3.249 16.713-5.286 27.509-5.286s20.521 2.037 27.509 5.286c7.071 3.287 10.991 7.628 10.991 12.078s-3.92 8.791-10.991 12.079c-6.988 3.249-16.713 5.285-27.509 5.285s-20.521-2.036-27.509-5.285z" fill="#f35534" fill-rule="evenodd"/><path d="m213.5 226c-21.815 0-39.5 8.247-39.5 18.42v16.16c0 10.173 17.685 18.42 39.5 18.42s39.5-8.247 39.5-18.42v-16.16c0-10.173-17.685-18.42-39.5-18.42z" fill="#ffd338"/><path clip-rule="evenodd" d="m185.147 274.511c7.308 3.408 17.333 5.489 28.353 5.489s21.045-2.081 28.353-5.489c7.227-3.37 12.147-8.224 12.147-13.931v-16.16c0-5.707-4.92-10.561-12.147-13.931-7.308-3.408-17.333-5.489-28.353-5.489s-21.045 2.081-28.353 5.489c-7.227 3.37-12.147 8.224-12.147 13.931v16.16c0 5.707 4.92 10.561 12.147 13.931zm-10.081-12.931h76.869c-.539 4.113-4.386 8.069-10.927 11.119-6.988 3.258-16.713 5.301-27.508 5.301s-20.52-2.043-27.508-5.301c-6.541-3.05-10.388-7.006-10.926-11.119zm76.934-2h-77v-15.16c0-4.467 3.922-8.822 10.992-12.119 6.988-3.258 16.713-5.301 27.508-5.301s20.52 2.043 27.508 5.301c7.07 3.297 10.992 7.652 10.992 12.119z" fill="#f35534" fill-rule="evenodd"/><path d="m174 260.636c0 10.142 17.685 18.364 39.5 18.364s39.5-8.222 39.5-18.364-17.685-18.364-39.5-18.364-39.5 8.222-39.5 18.364z" fill="#ffd338"/><path clip-rule="evenodd" d="m185.148 274.528c7.307 3.398 17.332 5.472 28.352 5.472s21.045-2.074 28.352-5.472c7.225-3.359 12.148-8.2 12.148-13.892s-4.923-10.533-12.148-13.892c-7.307-3.397-17.332-5.472-28.352-5.472s-21.045 2.075-28.352 5.472c-7.225 3.359-12.148 8.2-12.148 13.892s4.923 10.533 12.148 13.892zm.843-1.813c-7.071-3.288-10.991-7.629-10.991-12.079s3.92-8.791 10.991-12.078c6.988-3.249 16.713-5.286 27.509-5.286s20.521 2.037 27.509 5.286c7.071 3.287 10.991 7.628 10.991 12.078s-3.92 8.791-10.991 12.079c-6.988 3.249-16.713 5.285-27.509 5.285s-20.521-2.036-27.509-5.285z" fill="#f35534" fill-rule="evenodd"/><path clip-rule="evenodd" d="m185.148 274.528c7.307 3.398 17.332 5.472 28.352 5.472s21.045-2.074 28.352-5.472c7.225-3.359 12.148-8.2 12.148-13.892s-4.923-10.533-12.148-13.892c-7.307-3.397-17.332-5.472-28.352-5.472s-21.045 2.075-28.352 5.472c-7.225 3.359-12.148 8.2-12.148 13.892s4.923 10.533 12.148 13.892zm.843-1.813c-7.071-3.288-10.991-7.629-10.991-12.079s3.92-8.791 10.991-12.078c6.988-3.249 16.713-5.286 27.509-5.286s20.521 2.037 27.509 5.286c7.071 3.287 10.991 7.628 10.991 12.078s-3.92 8.791-10.991 12.079c-6.988 3.249-16.713 5.285-27.509 5.285s-20.521-2.036-27.509-5.285z" fill="#f35534" fill-rule="evenodd"/><path d="m213.5 242c-21.815 0-39.5 8.247-39.5 18.42v16.16c0 10.173 17.685 18.42 39.5 18.42s39.5-8.247 39.5-18.42v-16.16c0-10.173-17.685-18.42-39.5-18.42z" fill="#ffd338"/><path clip-rule="evenodd" d="m185.147 290.511c7.308 3.408 17.333 5.489 28.353 5.489s21.045-2.081 28.353-5.489c7.227-3.37 12.147-8.224 12.147-13.931v-16.16c0-5.707-4.92-10.561-12.147-13.931-7.308-3.408-17.333-5.489-28.353-5.489s-21.045 2.081-28.353 5.489c-7.227 3.37-12.147 8.224-12.147 13.931v16.16c0 5.707 4.92 10.561 12.147 13.931zm-10.081-12.931h76.869c-.539 4.113-4.386 8.069-10.927 11.119-6.988 3.258-16.713 5.301-27.508 5.301s-20.52-2.043-27.508-5.301c-6.541-3.05-10.388-7.006-10.926-11.119zm76.934-2h-77v-15.16c0-4.467 3.922-8.822 10.992-12.119 6.988-3.258 16.713-5.301 27.508-5.301s20.52 2.043 27.508 5.301c7.07 3.297 10.992 7.652 10.992 12.119z" fill="#f35534" fill-rule="evenodd"/><path d="m174 276.636c0 10.142 17.685 18.364 39.5 18.364s39.5-8.222 39.5-18.364-17.685-18.364-39.5-18.364-39.5 8.222-39.5 18.364z" fill="#ffd338"/><path clip-rule="evenodd" d="m185.148 290.528c7.307 3.398 17.332 5.472 28.352 5.472s21.045-2.074 28.352-5.472c7.225-3.359 12.148-8.2 12.148-13.892s-4.923-10.533-12.148-13.892c-7.307-3.397-17.332-5.472-28.352-5.472s-21.045 2.075-28.352 5.472c-7.225 3.359-12.148 8.2-12.148 13.892s4.923 10.533 12.148 13.892zm.843-1.813c-7.071-3.288-10.991-7.629-10.991-12.079s3.92-8.791 10.991-12.078c6.988-3.249 16.713-5.286 27.509-5.286s20.521 2.037 27.509 5.286c7.071 3.287 10.991 7.628 10.991 12.078s-3.92 8.791-10.991 12.079c-6.988 3.249-16.713 5.285-27.509 5.285s-20.521-2.036-27.509-5.285z" fill="#f35534" fill-rule="evenodd"/><path clip-rule="evenodd" d="m185.148 290.528c7.307 3.398 17.332 5.472 28.352 5.472s21.045-2.074 28.352-5.472c7.225-3.359 12.148-8.2 12.148-13.892s-4.923-10.533-12.148-13.892c-7.307-3.397-17.332-5.472-28.352-5.472s-21.045 2.075-28.352 5.472c-7.225 3.359-12.148 8.2-12.148 13.892s4.923 10.533 12.148 13.892zm.843-1.813c-7.071-3.288-10.991-7.629-10.991-12.079s3.92-8.791 10.991-12.078c6.988-3.249 16.713-5.286 27.509-5.286s20.521 2.037 27.509 5.286c7.071 3.287 10.991 7.628 10.991 12.078s-3.92 8.791-10.991 12.079c-6.988 3.249-16.713 5.285-27.509 5.285s-20.521-2.036-27.509-5.285z" fill="#f35534" fill-rule="evenodd"/><path d="m213.5 258c-21.815 0-39.5 8.247-39.5 18.42v16.16c0 10.173 17.685 18.42 39.5 18.42s39.5-8.247 39.5-18.42v-16.16c0-10.173-17.685-18.42-39.5-18.42z" fill="#ffd338"/><path clip-rule="evenodd" d="m185.147 306.511c7.308 3.408 17.333 5.489 28.353 5.489s21.045-2.081 28.353-5.489c7.227-3.37 12.147-8.224 12.147-13.931v-16.16c0-5.707-4.92-10.561-12.147-13.931-7.308-3.408-17.333-5.489-28.353-5.489s-21.045 2.081-28.353 5.489c-7.227 3.37-12.147 8.224-12.147 13.931v16.16c0 5.707 4.92 10.561 12.147 13.931zm-10.081-12.931h76.869c-.539 4.113-4.386 8.069-10.927 11.119-6.988 3.258-16.713 5.301-27.508 5.301s-20.52-2.043-27.508-5.301c-6.541-3.05-10.388-7.006-10.926-11.119zm76.934-2h-77v-15.16c0-4.467 3.922-8.822 10.992-12.119 6.988-3.258 16.713-5.301 27.508-5.301s20.52 2.043 27.508 5.301c7.07 3.297 10.992 7.652 10.992 12.119z" fill="#f35534" fill-rule="evenodd"/><path d="m174 292.636c0 10.142 17.685 18.364 39.5 18.364s39.5-8.222 39.5-18.364-17.685-18.364-39.5-18.364-39.5 8.222-39.5 18.364z" fill="#ffd338"/><path clip-rule="evenodd" d="m185.148 306.528c7.307 3.398 17.332 5.472 28.352 5.472s21.045-2.074 28.352-5.472c7.225-3.359 12.148-8.2 12.148-13.892s-4.923-10.533-12.148-13.892c-7.307-3.397-17.332-5.472-28.352-5.472s-21.045 2.075-28.352 5.472c-7.225 3.359-12.148 8.2-12.148 13.892s4.923 10.533 12.148 13.892zm.843-1.813c-7.071-3.288-10.991-7.629-10.991-12.079s3.92-8.791 10.991-12.078c6.988-3.249 16.713-5.286 27.509-5.286s20.521 2.037 27.509 5.286c7.071 3.287 10.991 7.628 10.991 12.078s-3.92 8.791-10.991 12.079c-6.988 3.249-16.713 5.285-27.509 5.285s-20.521-2.036-27.509-5.285z" fill="#f35534" fill-rule="evenodd"/><path clip-rule="evenodd" d="m185.148 306.528c7.307 3.398 17.332 5.472 28.352 5.472s21.045-2.074 28.352-5.472c7.225-3.359 12.148-8.2 12.148-13.892s-4.923-10.533-12.148-13.892c-7.307-3.397-17.332-5.472-28.352-5.472s-21.045 2.075-28.352 5.472c-7.225 3.359-12.148 8.2-12.148 13.892s4.923 10.533 12.148 13.892zm.843-1.813c-7.071-3.288-10.991-7.629-10.991-12.079s3.92-8.791 10.991-12.078c6.988-3.249 16.713-5.286 27.509-5.286s20.521 2.037 27.509 5.286c7.071 3.287 10.991 7.628 10.991 12.078s-3.92 8.791-10.991 12.079c-6.988 3.249-16.713 5.285-27.509 5.285s-20.521-2.036-27.509-5.285z" fill="#f35534" fill-rule="evenodd"/><path d="m213.5 274c-21.815 0-39.5 8.247-39.5 18.42v16.16c0 10.173 17.685 18.42 39.5 18.42s39.5-8.247 39.5-18.42v-16.16c0-10.173-17.685-18.42-39.5-18.42z" fill="#ffd338"/><path clip-rule="evenodd" d="m185.147 322.511c7.308 3.408 17.333 5.489 28.353 5.489s21.045-2.081 28.353-5.489c7.227-3.37 12.147-8.224 12.147-13.931v-16.16c0-5.707-4.92-10.561-12.147-13.931-7.308-3.408-17.333-5.489-28.353-5.489s-21.045 2.081-28.353 5.489c-7.227 3.37-12.147 8.224-12.147 13.931v16.16c0 5.707 4.92 10.561 12.147 13.931zm-10.081-12.931h76.869c-.539 4.113-4.386 8.069-10.927 11.119-6.988 3.258-16.713 5.301-27.508 5.301s-20.52-2.043-27.508-5.301c-6.541-3.05-10.388-7.006-10.926-11.119zm76.934-2h-77v-15.16c0-4.467 3.922-8.822 10.992-12.119 6.988-3.258 16.713-5.301 27.508-5.301s20.52 2.043 27.508 5.301c7.07 3.297 10.992 7.652 10.992 12.119z" fill="#f35534" fill-rule="evenodd"/><path d="m174 308.636c0 10.142 17.685 18.364 39.5 18.364s39.5-8.222 39.5-18.364-17.685-18.364-39.5-18.364-39.5 8.222-39.5 18.364z" fill="#ffd338"/><path clip-rule="evenodd" d="m185.148 322.528c7.307 3.398 17.332 5.472 28.352 5.472s21.045-2.074 28.352-5.472c7.225-3.359 12.148-8.2 12.148-13.892s-4.923-10.533-12.148-13.892c-7.307-3.397-17.332-5.472-28.352-5.472s-21.045 2.075-28.352 5.472c-7.225 3.359-12.148 8.2-12.148 13.892s4.923 10.533 12.148 13.892zm.843-1.813c-7.071-3.288-10.991-7.629-10.991-12.079s3.92-8.791 10.991-12.078c6.988-3.249 16.713-5.286 27.509-5.286s20.521 2.037 27.509 5.286c7.071 3.287 10.991 7.628 10.991 12.078s-3.92 8.791-10.991 12.079c-6.988 3.249-16.713 5.285-27.509 5.285s-20.521-2.036-27.509-5.285z" fill="#f35534" fill-rule="evenodd"/><path clip-rule="evenodd" d="m185.148 322.528c7.307 3.398 17.332 5.472 28.352 5.472s21.045-2.074 28.352-5.472c7.225-3.359 12.148-8.2 12.148-13.892s-4.923-10.533-12.148-13.892c-7.307-3.397-17.332-5.472-28.352-5.472s-21.045 2.075-28.352 5.472c-7.225 3.359-12.148 8.2-12.148 13.892s4.923 10.533 12.148 13.892zm.843-1.813c-7.071-3.288-10.991-7.629-10.991-12.079s3.92-8.791 10.991-12.078c6.988-3.249 16.713-5.286 27.509-5.286s20.521 2.037 27.509 5.286c7.071 3.287 10.991 7.628 10.991 12.078s-3.92 8.791-10.991 12.079c-6.988 3.249-16.713 5.285-27.509 5.285s-20.521-2.036-27.509-5.285z" fill="#f35534" fill-rule="evenodd"/><path d="m213.5 290c-21.815 0-39.5 8.247-39.5 18.42v16.16c0 10.173 17.685 18.42 39.5 18.42s39.5-8.247 39.5-18.42v-16.16c0-10.173-17.685-18.42-39.5-18.42z" fill="#ffd338"/><path clip-rule="evenodd" d="m185.147 338.511c7.308 3.408 17.333 5.489 28.353 5.489s21.045-2.081 28.353-5.489c7.227-3.37 12.147-8.224 12.147-13.931v-16.16c0-5.707-4.92-10.561-12.147-13.931-7.308-3.408-17.333-5.489-28.353-5.489s-21.045 2.081-28.353 5.489c-7.227 3.37-12.147 8.224-12.147 13.931v16.16c0 5.707 4.92 10.561 12.147 13.931zm-10.081-12.931h76.869c-.539 4.113-4.386 8.069-10.927 11.119-6.988 3.258-16.713 5.301-27.508 5.301s-20.52-2.043-27.508-5.301c-6.541-3.05-10.388-7.006-10.926-11.119zm76.934-2h-77v-15.16c0-4.467 3.922-8.822 10.992-12.119 6.988-3.258 16.713-5.301 27.508-5.301s20.52 2.043 27.508 5.301c7.07 3.297 10.992 7.652 10.992 12.119z" fill="#f35534" fill-rule="evenodd"/><path d="m174 324.636c0 10.142 17.685 18.364 39.5 18.364s39.5-8.222 39.5-18.364-17.685-18.364-39.5-18.364-39.5 8.222-39.5 18.364z" fill="#ffd338"/><path clip-rule="evenodd" d="m185.148 338.528c7.307 3.398 17.332 5.472 28.352 5.472s21.045-2.074 28.352-5.472c7.225-3.359 12.148-8.2 12.148-13.892s-4.923-10.533-12.148-13.892c-7.307-3.397-17.332-5.472-28.352-5.472s-21.045 2.075-28.352 5.472c-7.225 3.359-12.148 8.2-12.148 13.892s4.923 10.533 12.148 13.892zm.843-1.813c-7.071-3.288-10.991-7.629-10.991-12.079s3.92-8.791 10.991-12.078c6.988-3.249 16.713-5.286 27.509-5.286s20.521 2.037 27.509 5.286c7.071 3.287 10.991 7.628 10.991 12.078s-3.92 8.791-10.991 12.079c-6.988 3.249-16.713 5.285-27.509 5.285s-20.521-2.036-27.509-5.285z" fill="#f35534" fill-rule="evenodd"/><path clip-rule="evenodd" d="m185.148 338.528c7.307 3.398 17.332 5.472 28.352 5.472s21.045-2.074 28.352-5.472c7.225-3.359 12.148-8.2 12.148-13.892s-4.923-10.533-12.148-13.892c-7.307-3.397-17.332-5.472-28.352-5.472s-21.045 2.075-28.352 5.472c-7.225 3.359-12.148 8.2-12.148 13.892s4.923 10.533 12.148 13.892zm.843-1.813c-7.071-3.288-10.991-7.629-10.991-12.079s3.92-8.791 10.991-12.078c6.988-3.249 16.713-5.286 27.509-5.286s20.521 2.037 27.509 5.286c7.071 3.287 10.991 7.628 10.991 12.078s-3.92 8.791-10.991 12.079c-6.988 3.249-16.713 5.285-27.509 5.285s-20.521-2.036-27.509-5.285z" fill="#f35534" fill-rule="evenodd"/><path d="m156.5 263c-21.815 0-39.5 8.247-39.5 18.42v16.16c0 10.173 17.685 18.42 39.5 18.42s39.5-8.247 39.5-18.42v-16.16c0-10.173-17.685-18.42-39.5-18.42z" fill="#ffd338"/><path clip-rule="evenodd" d="m128.147 311.511c7.308 3.408 17.333 5.489 28.353 5.489s21.045-2.081 28.353-5.489c7.227-3.37 12.147-8.224 12.147-13.931v-16.16c0-5.707-4.92-10.561-12.147-13.931-7.308-3.408-17.333-5.489-28.353-5.489s-21.045 2.081-28.353 5.489c-7.227 3.37-12.147 8.224-12.147 13.931v16.16c0 5.707 4.92 10.561 12.147 13.931zm-10.081-12.931h76.869c-.539 4.113-4.386 8.069-10.927 11.119-6.988 3.258-16.713 5.301-27.508 5.301s-20.52-2.043-27.508-5.301c-6.541-3.05-10.388-7.006-10.926-11.119zm76.934-2h-77v-15.16c0-4.467 3.922-8.822 10.992-12.119 6.988-3.258 16.713-5.301 27.508-5.301s20.52 2.043 27.508 5.301c7.07 3.297 10.992 7.652 10.992 12.119z" fill="#f35534" fill-rule="evenodd"/><path d="m117 297.636c0 10.142 17.685 18.364 39.5 18.364s39.5-8.222 39.5-18.364-17.685-18.364-39.5-18.364-39.5 8.222-39.5 18.364z" fill="#ffd338"/><path clip-rule="evenodd" d="m128.148 311.528c7.307 3.398 17.332 5.472 28.352 5.472s21.045-2.074 28.352-5.472c7.225-3.359 12.148-8.2 12.148-13.892s-4.923-10.533-12.148-13.892c-7.307-3.397-17.332-5.472-28.352-5.472s-21.045 2.075-28.352 5.472c-7.225 3.359-12.148 8.2-12.148 13.892s4.923 10.533 12.148 13.892zm.843-1.813c-7.071-3.288-10.991-7.629-10.991-12.079s3.92-8.791 10.991-12.078c6.988-3.249 16.713-5.286 27.509-5.286s20.521 2.037 27.509 5.286c7.071 3.287 10.991 7.628 10.991 12.078s-3.92 8.791-10.991 12.079c-6.988 3.249-16.713 5.285-27.509 5.285s-20.521-2.036-27.509-5.285z" fill="#f35534" fill-rule="evenodd"/><path clip-rule="evenodd" d="m128.148 311.528c7.307 3.398 17.332 5.472 28.352 5.472s21.045-2.074 28.352-5.472c7.225-3.359 12.148-8.2 12.148-13.892s-4.923-10.533-12.148-13.892c-7.307-3.397-17.332-5.472-28.352-5.472s-21.045 2.075-28.352 5.472c-7.225 3.359-12.148 8.2-12.148 13.892s4.923 10.533 12.148 13.892zm.843-1.813c-7.071-3.288-10.991-7.629-10.991-12.079s3.92-8.791 10.991-12.078c6.988-3.249 16.713-5.286 27.509-5.286s20.521 2.037 27.509 5.286c7.071 3.287 10.991 7.628 10.991 12.078s-3.92 8.791-10.991 12.079c-6.988 3.249-16.713 5.285-27.509 5.285s-20.521-2.036-27.509-5.285z" fill="#f35534" fill-rule="evenodd"/><path d="m156.5 279c-21.815 0-39.5 8.247-39.5 18.42v16.16c0 10.173 17.685 18.42 39.5 18.42s39.5-8.247 39.5-18.42v-16.16c0-10.173-17.685-18.42-39.5-18.42z" fill="#ffd338"/><path clip-rule="evenodd" d="m128.147 327.511c7.308 3.408 17.333 5.489 28.353 5.489s21.045-2.081 28.353-5.489c7.227-3.37 12.147-8.224 12.147-13.931v-16.16c0-5.707-4.92-10.561-12.147-13.931-7.308-3.408-17.333-5.489-28.353-5.489s-21.045 2.081-28.353 5.489c-7.227 3.37-12.147 8.224-12.147 13.931v16.16c0 5.707 4.92 10.561 12.147 13.931zm-10.081-12.931h76.869c-.539 4.113-4.386 8.069-10.927 11.119-6.988 3.258-16.713 5.301-27.508 5.301s-20.52-2.043-27.508-5.301c-6.541-3.05-10.388-7.006-10.926-11.119zm76.934-2h-77v-15.16c0-4.467 3.922-8.822 10.992-12.119 6.988-3.258 16.713-5.301 27.508-5.301s20.52 2.043 27.508 5.301c7.07 3.297 10.992 7.652 10.992 12.119z" fill="#f35534" fill-rule="evenodd"/><path d="m117 313.636c0 10.142 17.685 18.364 39.5 18.364s39.5-8.222 39.5-18.364-17.685-18.364-39.5-18.364-39.5 8.222-39.5 18.364z" fill="#ffd338"/><path clip-rule="evenodd" d="m128.148 327.528c7.307 3.398 17.332 5.472 28.352 5.472s21.045-2.074 28.352-5.472c7.225-3.359 12.148-8.2 12.148-13.892s-4.923-10.533-12.148-13.892c-7.307-3.397-17.332-5.472-28.352-5.472s-21.045 2.075-28.352 5.472c-7.225 3.359-12.148 8.2-12.148 13.892s4.923 10.533 12.148 13.892zm.843-1.813c-7.071-3.288-10.991-7.629-10.991-12.079s3.92-8.791 10.991-12.078c6.988-3.249 16.713-5.286 27.509-5.286s20.521 2.037 27.509 5.286c7.071 3.287 10.991 7.628 10.991 12.078s-3.92 8.791-10.991 12.079c-6.988 3.249-16.713 5.285-27.509 5.285s-20.521-2.036-27.509-5.285z" fill="#f35534" fill-rule="evenodd"/><path clip-rule="evenodd" d="m128.148 327.528c7.307 3.398 17.332 5.472 28.352 5.472s21.045-2.074 28.352-5.472c7.225-3.359 12.148-8.2 12.148-13.892s-4.923-10.533-12.148-13.892c-7.307-3.397-17.332-5.472-28.352-5.472s-21.045 2.075-28.352 5.472c-7.225 3.359-12.148 8.2-12.148 13.892s4.923 10.533 12.148 13.892zm.843-1.813c-7.071-3.288-10.991-7.629-10.991-12.079s3.92-8.791 10.991-12.078c6.988-3.249 16.713-5.286 27.509-5.286s20.521 2.037 27.509 5.286c7.071 3.287 10.991 7.628 10.991 12.078s-3.92 8.791-10.991 12.079c-6.988 3.249-16.713 5.285-27.509 5.285s-20.521-2.036-27.509-5.285z" fill="#f35534" fill-rule="evenodd"/><path d="m156.5 295c-21.815 0-39.5 8.247-39.5 18.42v16.16c0 10.173 17.685 18.42 39.5 18.42s39.5-8.247 39.5-18.42v-16.16c0-10.173-17.685-18.42-39.5-18.42z" fill="#ffd338"/><path clip-rule="evenodd" d="m128.147 343.511c7.308 3.408 17.333 5.489 28.353 5.489s21.045-2.081 28.353-5.489c7.227-3.37 12.147-8.224 12.147-13.931v-16.16c0-5.707-4.92-10.561-12.147-13.931-7.308-3.408-17.333-5.489-28.353-5.489s-21.045 2.081-28.353 5.489c-7.227 3.37-12.147 8.224-12.147 13.931v16.16c0 5.707 4.92 10.561 12.147 13.931zm-10.081-12.931h76.869c-.539 4.113-4.386 8.069-10.927 11.119-6.988 3.258-16.713 5.301-27.508 5.301s-20.52-2.043-27.508-5.301c-6.541-3.05-10.388-7.006-10.926-11.119zm76.934-2h-77v-15.16c0-4.467 3.922-8.822 10.992-12.119 6.988-3.258 16.713-5.301 27.508-5.301s20.52 2.043 27.508 5.301c7.07 3.297 10.992 7.652 10.992 12.119z" fill="#f35534" fill-rule="evenodd"/><path d="m117 329.636c0 10.142 17.685 18.364 39.5 18.364s39.5-8.222 39.5-18.364-17.685-18.364-39.5-18.364-39.5 8.222-39.5 18.364z" fill="#ffd338"/><path clip-rule="evenodd" d="m128.148 343.528c7.307 3.398 17.332 5.472 28.352 5.472s21.045-2.074 28.352-5.472c7.225-3.359 12.148-8.2 12.148-13.892s-4.923-10.533-12.148-13.892c-7.307-3.397-17.332-5.472-28.352-5.472s-21.045 2.075-28.352 5.472c-7.225 3.359-12.148 8.2-12.148 13.892s4.923 10.533 12.148 13.892zm.843-1.813c-7.071-3.288-10.991-7.629-10.991-12.079s3.92-8.791 10.991-12.078c6.988-3.249 16.713-5.286 27.509-5.286s20.521 2.037 27.509 5.286c7.071 3.287 10.991 7.628 10.991 12.078s-3.92 8.791-10.991 12.079c-6.988 3.249-16.713 5.285-27.509 5.285s-20.521-2.036-27.509-5.285z" fill="#f35534" fill-rule="evenodd"/><path clip-rule="evenodd" d="m128.148 343.528c7.307 3.398 17.332 5.472 28.352 5.472s21.045-2.074 28.352-5.472c7.225-3.359 12.148-8.2 12.148-13.892s-4.923-10.533-12.148-13.892c-7.307-3.397-17.332-5.472-28.352-5.472s-21.045 2.075-28.352 5.472c-7.225 3.359-12.148 8.2-12.148 13.892s4.923 10.533 12.148 13.892zm.843-1.813c-7.071-3.288-10.991-7.629-10.991-12.079s3.92-8.791 10.991-12.078c6.988-3.249 16.713-5.286 27.509-5.286s20.521 2.037 27.509 5.286c7.071 3.287 10.991 7.628 10.991 12.078s-3.92 8.791-10.991 12.079c-6.988 3.249-16.713 5.285-27.509 5.285s-20.521-2.036-27.509-5.285z" fill="#f35534" fill-rule="evenodd"/><path d="m156.5 311c-21.815 0-39.5 8.247-39.5 18.42v16.16c0 10.173 17.685 18.42 39.5 18.42s39.5-8.247 39.5-18.42v-16.16c0-10.173-17.685-18.42-39.5-18.42z" fill="#ffd338"/><path clip-rule="evenodd" d="m128.147 359.511c7.308 3.408 17.333 5.489 28.353 5.489s21.045-2.081 28.353-5.489c7.227-3.37 12.147-8.224 12.147-13.931v-16.16c0-5.707-4.92-10.561-12.147-13.931-7.308-3.408-17.333-5.489-28.353-5.489s-21.045 2.081-28.353 5.489c-7.227 3.37-12.147 8.224-12.147 13.931v16.16c0 5.707 4.92 10.561 12.147 13.931zm-10.081-12.931h76.869c-.539 4.113-4.386 8.069-10.927 11.119-6.988 3.258-16.713 5.301-27.508 5.301s-20.52-2.043-27.508-5.301c-6.541-3.05-10.388-7.006-10.926-11.119zm76.934-2h-77v-15.16c0-4.467 3.922-8.822 10.992-12.119 6.988-3.258 16.713-5.301 27.508-5.301s20.52 2.043 27.508 5.301c7.07 3.297 10.992 7.652 10.992 12.119z" fill="#f35534" fill-rule="evenodd"/><path clip-rule="evenodd" d="m73.9092 189.591c0 70.09-56.8189 96.909-126.9086 96.909v51c76.1648 0 137.9086-71.744 137.9086-147.909z" fill="#f35534" fill-rule="evenodd"/><path d="m135.001 134c-30.702 0-55.5914 24.889-55.5914 55.591z" fill="#00d462"/><path clip-rule="evenodd" d="m137.415 133h-2.414c-31.255 0-56.5916 25.337-56.5916 56.591v2.415zm-56.9507 54.122 52.0677-52.067c-28.186 1.254-50.8131 23.882-52.0677 52.067z" fill="#f35534" fill-rule="evenodd"/><path d="m79.4097 189.591c30.7023 0 55.5913 24.89 55.5913 55.592z" fill="#00d462"/><path clip-rule="evenodd" d="m76.9951 188.591h2.4142c31.2547 0 56.5917 25.337 56.5917 56.592v2.414zm56.9509 54.123-52.0676-52.068c28.1856 1.255 50.8126 23.882 52.0676 52.068z" fill="#f35534" fill-rule="evenodd"/><path d="m79.4097 189.591c0-30.702-24.8891-55.591-55.5914-55.591z" fill="#00d462"/><path clip-rule="evenodd" d="m80.4097 192.006v-2.415c0-31.254-25.3369-56.591-56.5914-56.591h-2.4142zm-54.1224-56.951 52.0675 52.067c-1.2546-28.185-23.8818-50.813-52.0675-52.067z" fill="#f35534" fill-rule="evenodd"/><path d="m23.8184 245.183c0-30.702 24.8891-55.592 55.5914-55.592z" fill="#00d462"/><path clip-rule="evenodd" d="m22.8184 247.597v-2.414c0-31.255 25.3368-56.592 56.5914-56.592h2.4142zm54.1223-56.951-52.0675 52.068c1.2546-28.186 23.8819-50.813 52.0675-52.068z" fill="#f35534" fill-rule="evenodd"/><path d="m79.4097 189.591c-20.6543-21.562-54.1415-21.562-74.79573 0z" fill="#00d462"/><path clip-rule="evenodd" d="m7.02975 188.591h69.96345c-19.7832-18.896-50.1802-18.896-69.96345 0zm73.10175.309c-21.048-21.974-55.192-21.974-76.24001 0l-1.62046 1.691h79.48097z" fill="#f35534" fill-rule="evenodd"/><path d="m154.205 189.591c-20.654-21.562-54.141-21.562-74.7956 0z" fill="#00d462"/><path clip-rule="evenodd" d="m81.8256 188.591h69.9634c-19.783-18.896-50.18-18.896-69.9634 0zm73.1014.309c-21.048-21.974-55.1916-21.974-76.2396 0l-1.6205 1.691h79.4811z" fill="#f35534" fill-rule="evenodd"/><path d="m290 134c30.376 0 55 24.624 55 55z" fill="#00d462"/><path clip-rule="evenodd" d="m287.586 133h2.414c30.928 0 56 25.072 56 56v2.414zm56.359 53.53-51.475-51.475c27.858 1.254 50.221 23.617 51.475 51.475z" fill="#f35534" fill-rule="evenodd"/><path d="m271 189c20.435-21.333 53.565-21.333 74 0z" fill="#00d462"/><path clip-rule="evenodd" d="m342.583 188h-69.166c19.563-18.667 49.604-18.667 69.166 0zm-72.305.308c20.828-21.744 54.616-21.744 75.444 0l1.621 1.692h-78.685z" fill="#f35534" fill-rule="evenodd"/></g><rect height="320" rx="160" stroke="#f35534" stroke-width="2" width="320" x="1" y="1"/></svg>