<svg fill="none" height="320" viewBox="0 0 320 320" width="320" xmlns="http://www.w3.org/2000/svg" xmlns:xlink="http://www.w3.org/1999/xlink"><mask id="a" height="320" maskUnits="userSpaceOnUse" width="320" x="0" y="0"><path d="m0 160c0-88.3656 71.6344-160 160-160 88.366 0 160 71.6344 160 160 0 88.366-71.634 160-160 160-88.3656 0-160-71.634-160-160z" fill="#fff"/></mask><g mask="url(#a)"><path d="m0 160c0-88.3656 71.6344-160 160-160 88.366 0 160 71.6344 160 160 0 88.366-71.634 160-160 160-88.3656 0-160-71.634-160-160z" fill="#58a4ff"/><path clip-rule="evenodd" d="m-31.5306 302.413c2.1753-9.7 11.8024-15.8 21.5026-13.625 13.99621 3.139 38.0588 1.799 61.1886-14.92 15.7153-11.359 31.9652-30.545 44.1189-62.213-13.0389-12.005-25.506-24.789-35.273-37.17-10.415-11.535-16.5883-23.128-19.805-33.739-8.1119-26.759 13.0785-46.3246 32.6027-50.8831.0595-.0139.1189-.0274.1783-.0407 12.7503-2.8594 33.3835-3.4972 50.2055 8.108 18.811 12.9768 26.558 36.5148 21.147 68.6058l-.003.016-.003.017c-2.053 12.035-4.561 23.255-7.471 33.705 8.835 7.427 17.596 14.32 25.548 20.229l.55.408.517.449c26.017 22.597 42.819 29.401 52.39 29.995 4.235.263 6.974-.679 9.072-2.038 2.317-1.499 4.914-4.221 7.443-8.954 5.262-9.851 8.5-25.147 9.529-43.665 1.006-18.109-.185-37.504-2.435-54.244l-.004-.026-.003-.025c-2.554-19.421-1.79-38.818-.686-54.9742.329-4.8036.666-9.1585.972-13.1089.306-3.9432.58-7.4833.783-10.6644-4.949 4.0656-11.008 9.5091-18.386 16.5982-17.9 17.1988-37.197 25.6143-57.08 24.5763-19.373-1.012-35.855-10.8377-48.934-22.9024-25.8001-23.7986-44.2283-61.6519-53.5445-88.33233-3.2772-9.38537 1.6745-19.65047 11.0599-22.92767 9.3854-3.2771 19.6505 1.6745 22.9277 11.06 8.5159 24.38853 24.4959 55.7793 43.9659 73.7386 9.555 8.8142 18.423 12.9958 26.402 13.4124 7.467.39 17.523-2.3455 30.261-14.5845 9.793-9.4091 18.121-16.7886 25.187-22.1993 6.695-5.1264 13.716-9.6477 20.736-11.6796 3.721-1.0767 8.515-1.7762 13.705-.5837 5.572 1.2802 10.066 4.3936 13.24 8.3966 5.377 6.7796 6.322 15.3039 6.639 20.321.529 8.3482-.364 19.7684-1.252 31.1224-.269 3.4393-.537 6.8725-.766 10.2124-1.064 15.5761-1.608 32.0541.459 47.8001 2.482 18.474 3.855 40.182 2.697 61.012-1.135 20.431-4.793 41.919-13.72 58.63-4.566 8.547-10.886 16.55-19.632 22.211-8.964 5.803-19.431 8.459-30.866 7.749-21.633-1.342-45.859-14.605-73.246-38.295-5.133-3.825-10.658-8.089-16.382-12.686-13.793 30.806-31.8853 52.377-51.7554 66.739-32.0919 23.197-66.84832 26.098-90.1554 20.872-9.7002-2.176-15.8002-11.803-13.6248-21.503zm138.0886-129.842c.812-3.885 1.574-7.896 2.281-12.037 4.023-23.877-2.824-30.716-6.093-32.971-5.2253-3.605-14.091-4.347-21.8206-2.628-2.9805.711-4.9581 2.255-5.8354 3.442-.4009.543-.5054.906-.5348 1.056-.0203.104-.0606.346.0982.869 1.617 5.335 5.1125 12.445 12.3944 20.412l.4616.504.422.539c5.2836 6.745 11.6544 13.782 18.6266 20.814z" fill="#fff" fill-rule="evenodd"/><path d="m34.2495 169.767 22.4889 32.145c4.5541 6.51 13.523 8.095 20.0325 3.541l32.1451-22.489c6.509-4.554 8.095-13.523 3.54-20.032l-22.4885-32.145c-4.5541-6.51-13.523-8.095-20.0325-3.541l-32.145 22.489c-6.5095 4.554-8.0946 13.523-3.5405 20.032z" fill="#fbc641"/><path clip-rule="evenodd" d="m71.0557 188.336c-.5918.414-1.4071.27-1.8212-.322l-17.6451-25.221c-.4141-.592-.27-1.407.3218-1.821l25.2215-17.645c.5917-.414 1.4071-.27 1.8211.322l17.6452 25.221c.414.592.2699 1.407-.3219 1.821zm-1.4879-4.408 3.011-17.036-17.0367-3.011zm-13.5705-22.623 17.0367 3.011 3.0111-17.037zm22.6233-13.57-3.0111 17.036 17.0367 3.011zm13.5704 22.623-17.0367-3.011-3.0111 17.037z" fill="#f35534" fill-rule="evenodd"/><path d="m64.8895 181.106c3.6872-2.58 8.7674-1.682 11.347 2.005s1.6818 8.768-2.0054 11.347c-3.6872 2.58-8.7675 1.682-11.3471-2.005-2.5796-3.688-1.6817-8.768 2.0055-11.347z" fill="#fff"/><path clip-rule="evenodd" d="m63.9567 191.702c2.1655 3.096 6.4304 3.849 9.5259 1.684 3.0954-2.166 3.8492-6.431 1.6836-9.526-2.1656-3.096-6.4305-3.849-9.5259-1.684-3.0955 2.166-3.8492 6.431-1.6836 9.526zm11.0251 3.827c-4.2789 2.993-10.1745 1.951-13.1681-2.328-2.9937-4.279-1.9517-10.174 2.3273-13.168 4.279-2.993 10.1746-1.951 13.1682 2.328s1.9516 10.174-2.3274 13.168z" fill="#f35534" fill-rule="evenodd"/><path d="m90.116 163.461c3.6872-2.58 8.7675-1.682 11.347 2.006 2.58 3.687 1.682 8.767-2.0049 11.347-3.6877 2.579-8.7679 1.681-11.3475-2.006s-1.6818-8.767 2.0054-11.347z" fill="#fff"/><path clip-rule="evenodd" d="m89.1754 174.058c2.1656 3.095 6.4305 3.849 9.5259 1.683 3.0957-2.165 3.8497-6.43 1.6837-9.526-2.1657-3.095-6.4306-3.849-9.526-1.683-3.0954 2.165-3.8492 6.43-1.6836 9.526zm11.0256 3.826c-4.2794 2.994-10.175 1.952-13.1686-2.327s-1.9516-10.175 2.3274-13.168c4.2789-2.994 10.1749-1.952 13.1682 2.327 2.994 4.279 1.952 10.175-2.327 13.168z" fill="#f35534" fill-rule="evenodd"/><path d="m47.2489 155.883c3.6872-2.58 8.7674-1.682 11.347 2.005 2.5796 3.688 1.6817 8.768-2.0055 11.347-3.6872 2.58-8.7674 1.682-11.347-2.005s-1.6817-8.767 2.0055-11.347z" fill="#fff"/><path clip-rule="evenodd" d="m46.3082 166.48c2.1656 3.095 6.4305 3.849 9.5259 1.683 3.0955-2.165 3.8492-6.43 1.6836-9.526-2.1655-3.095-6.4304-3.849-9.5259-1.683-3.0954 2.165-3.8492 6.43-1.6836 9.526zm11.0252 3.826c-4.279 2.994-10.1746 1.952-13.1682-2.327s-1.9516-10.175 2.3274-13.168c4.2789-2.994 10.1745-1.952 13.1681 2.327 2.9937 4.279 1.9517 10.175-2.3273 13.168z" fill="#f35534" fill-rule="evenodd"/><path d="m72.4671 138.238c3.6872-2.579 8.7675-1.681 11.3471 2.006s1.6817 8.767-2.0055 11.347-8.7675 1.682-11.3471-2.006c-2.5796-3.687-1.6817-8.767 2.0055-11.347z" fill="#fff"/><path clip-rule="evenodd" d="m71.5348 148.835c2.1656 3.095 6.4305 3.849 9.5259 1.684 3.0954-2.166 3.8492-6.431 1.6836-9.526-2.1656-3.096-6.4305-3.85-9.5259-1.684s-3.8492 6.431-1.6836 9.526zm11.0252 3.827c-4.279 2.993-10.1746 1.951-13.1682-2.328s-1.9516-10.174 2.3273-13.168c4.279-2.994 10.1746-1.952 13.1682 2.327s1.9516 10.175-2.3273 13.169z" fill="#f35534" fill-rule="evenodd"/><path d="m34.2495 169.767 22.4889 32.145c4.5541 6.51 13.523 8.095 20.0325 3.541l32.1451-22.489c6.509-4.554 8.095-13.523 3.54-20.032l-22.4885-32.145c-4.5541-6.51-13.523-8.095-20.0325-3.541l-32.145 22.489c-6.5095 4.554-8.0946 13.523-3.5405 20.032z" stroke="#f35534" stroke-width="2"/><path d="m132 115.68 17.866-66.6787 66.679 17.8665-17.866 66.6782z" fill="#f35534"/><g fill="#fbc641"><path d="m147.982 82.2766-.976 3.6436 7.287 1.9526.977-3.6436z"/><path clip-rule="evenodd" d="m156.961 92.493 3.643.9763-1.952 7.2867 7.287 1.953-.976 3.644 10.931 2.929.976-3.644 7.287 1.953 1.953-7.288 3.643.977 2.929-10.9311-3.643-.9764 1.952-7.2872-7.287-1.9527.976-3.6436-10.931-2.9289-.976 3.6436-7.287-1.9526-1.953 7.2873-3.643-.9763zm6.572-9.9546 3.644.9763.976-3.6437 3.644.9764.976-3.6437 10.931 2.9289-.976 3.6437 3.643.9763-.976 3.6436 3.644.9763-2.929 10.9305-3.644-.9759-.976 3.6439-3.644-.977-.976 3.644-10.931-2.929.976-3.6439-3.643-.9759.976-3.6436-3.644-.9763z" fill-rule="evenodd"/><path d="m194.373 98.6124.977-3.6436 7.287 1.9526-.976 3.6436z"/><path d="m182.013 71.8691 1.953-7.2873-3.644-.9763-1.953 7.2872z"/><path d="m167.63 110.973 3.644.976-1.953 7.287-3.644-.976z"/><path d="m160.151 66.0112-.976 3.6436 3.644.9763.976-3.6436z"/><path d="m161.127 62.3675-.976 3.6436-3.643-.9763.976-3.6437z"/><path d="m190.468 113.187-.976 3.644-3.644-.977.976-3.643z"/><path d="m189.492 116.831-.977 3.643 3.644.976.976-3.643z"/><path d="m200.231 76.7505-3.643-.9763-.977 3.6436 3.644.9764z"/><path d="m200.231 76.7505.977-3.6436 3.643.9763-.976 3.6436z"/><path d="m153.055 107.067-3.643-.976.976-3.644 3.644.977z"/><path d="m149.412 106.091-3.644-.976-.976 3.643 3.643.977z"/></g><path clip-rule="evenodd" d="m163.53 82.5358 3.644.9763.976-3.6436 3.644.9763.976-3.6436 10.931 2.9289-.977 3.6436 3.644.9763-.976 3.6437 3.643.9763-2.928 10.931-3.644-.9769-.976 3.6439-3.644-.976-.976 3.643-10.931-2.928.976-3.6439-3.644-.9764.977-3.6437-3.644-.9763z" fill="#fff" fill-rule="evenodd"/><path clip-rule="evenodd" d="m-31.5306 302.413c2.1753-9.7 11.8024-15.8 21.5026-13.625 13.99621 3.139 38.0588 1.799 61.1886-14.92 22.8302-16.502 46.7885-49.52 57.6784-113.334 2.975-17.658-.156-25.93-2.666-29.549-5.663-8.17-3.632-19.384 4.538-25.048s19.385-3.632 25.048 4.538c9.726 14.029 12.473 32.948 8.576 56.061l-.003.016-.003.017c-12.026 70.5-39.69 113.064-72.0794 136.475-32.0919 23.197-66.84832 26.098-90.1554 20.872-9.7002-2.176-15.8002-11.803-13.6248-21.503z" fill="#fff" fill-rule="evenodd"/><path d="m211.896 237.076c28.365-16.376 44.45-41.619 35.927-56.38l-12.681-21.964c-8.522-14.762-38.425-13.452-66.79 2.924s-44.45 41.618-35.927 56.38l12.681 21.964c8.522 14.762 38.425 13.452 66.79-2.924z" fill="#fbc641"/><path clip-rule="evenodd" d="m209.145 147.517c-12.277.538-26.999 5.02-41.292 13.272-14.292 8.252-25.535 18.76-32.139 29.124-6.575 10.317-8.696 20.754-4.154 28.622l12.681 21.964c4.542 7.867 14.642 11.249 26.864 10.714 12.278-.538 27-5.02 41.292-13.272 14.293-8.252 25.536-18.76 32.14-29.124 6.574-10.318 8.696-20.755 4.154-28.622l-12.682-21.964c-4.542-7.868-14.641-11.249-26.864-10.714zm29.243 18.833 8.571 14.845c3.98 6.894 2.32 16.459-4.109 26.547-6.399 10.041-17.381 20.342-31.453 28.467-14.072 8.124-28.484 12.485-40.38 13.006-11.95.523-21.064-2.822-25.044-9.716l-8.571-14.845c5.276 3.49 12.651 4.961 21.022 4.594 12.277-.537 26.999-5.02 41.292-13.271 14.293-8.252 25.535-18.761 32.14-29.125 4.503-7.066 6.916-14.188 6.532-20.502zm-105.096 51.185c3.98 6.894 13.093 10.239 25.044 9.715 11.896-.521 26.308-4.881 40.38-13.005 14.072-8.125 25.054-18.426 31.453-28.467 6.429-10.089 8.089-19.653 4.108-26.547-3.98-6.894-13.093-10.239-25.044-9.716-11.896.521-26.308 4.881-40.38 13.006-14.072 8.124-25.054 18.425-31.453 28.467-6.428 10.088-8.088 19.653-4.108 26.547z" fill="#f35534" fill-rule="evenodd"/><path d="m247.822 180.695c8.522 14.761-7.563 40.003-35.928 56.38-28.364 16.376-58.267 17.685-66.79 2.924l-12.681-21.964c8.523 14.761 38.425 13.452 66.79-2.925 28.365-16.376 44.45-41.618 35.928-56.38z" fill="#f35534"/><path clip-rule="evenodd" d="m238.386 166.349 8.571 14.846c3.98 6.894 2.32 16.459-4.109 26.547-6.398 10.041-17.38 20.342-31.453 28.467-14.072 8.124-28.484 12.485-40.379 13.005-11.951.524-21.064-2.821-25.045-9.715l-8.571-14.845c5.276 3.49 12.651 4.961 21.022 4.594 12.278-.537 27-5.02 41.292-13.272 14.293-8.251 25.536-18.76 32.14-29.124 4.503-7.066 6.917-14.188 6.532-20.503zm-2.378-8.119 12.681 21.965c4.542 7.867 2.421 18.304-4.154 28.621-6.604 10.364-17.847 20.873-32.14 29.125-14.292 8.251-29.014 12.734-41.292 13.271-12.222.536-22.322-2.846-26.864-10.713l-12.681-21.964 1.732-1c3.981 6.894 13.094 10.238 25.045 9.715 11.895-.521 26.307-4.881 40.379-13.006 14.072-8.124 25.055-18.425 31.453-28.467 6.429-10.088 8.089-19.652 4.109-26.547z" fill="#f35534" fill-rule="evenodd"/><path d="m220.718 166.992-25.552 14.752-22.331 12.893 20.771 7.081z" fill="#fff"/><path d="m185.677 206.296-20.771-7.081-17.58 10.149z" fill="#fff"/><path d="m220.718 166.992-25.552 14.752-22.331 12.893 4.253-21.529z" fill="#fff"/><path d="m169.158 177.686-4.252 21.529-17.58 10.149z" fill="#fff"/><path clip-rule="evenodd" d="m221.845 166.34c-.267-.462-.786-.716-1.314-.642l-43.63 6.117c-.551.077-.993.495-1.101 1.041l-4.253 21.529c-.127.642.241 1.28.861 1.491l20.771 7.082c.527.179 1.11.006 1.453-.433l27.111-34.727c.328-.42.368-.997.102-1.458zm-26.602 31.152 1.168-14.958 19.134-11.047zm18.995-28.27-19.135 11.047-13.538-6.467zm-36.199 5.794 14.317 6.839-17.685 10.21zm-2.06 19.314 17.685-10.21-1.236 15.819zm10.99 12.13c.077-.615-.289-1.2-.876-1.4l-19.688-6.712 4.031-20.407c.12-.608-.203-1.217-.774-1.458-.572-.241-1.234-.048-1.585.463l-21.833 31.678c-.286.416-.308.959-.056 1.396.253.437.734.69 1.237.65l38.351-3.069c.618-.049 1.116-.526 1.193-1.141zm-21.929-5.814 14.233 4.852-26.278 2.102zm-13.353 4.689 12.046-6.954 2.914-14.752z" fill="#f35534" fill-rule="evenodd"/><path clip-rule="evenodd" d="m254.917 122.219c9.852-1.325 18.913 5.589 20.237 15.441 2.338 17.388 3.689 37.615 2.883 57.269-.795 19.377-3.734 39.571-10.861 56.072-3.942 9.126-14.535 13.329-23.662 9.387-9.126-3.942-13.329-14.536-9.387-23.662 4.606-10.663 7.224-25.816 7.94-43.273.705-17.179-.478-35.273-2.592-50.997-1.324-9.852 5.589-18.913 15.442-20.237z" fill="#fff" fill-rule="evenodd"/></g></svg>