<svg fill="none" height="322" viewBox="0 0 322 322" width="322" xmlns="http://www.w3.org/2000/svg" xmlns:xlink="http://www.w3.org/1999/xlink"><clipPath id="a"><rect height="320" rx="160" width="320" x="1" y="1"/></clipPath><g clip-path="url(#a)"><rect fill="#f35534" height="320" rx="160" width="320" x="1" y="1"/><path d="m188.479 150c-23.748 0-43-19.476-43-43.5 0-24.0244 19.252-43.5 43-43.5v-12c-59.094 0-106.9995 47.6817-106.9995 106.5 0 58.818 47.9055 106.5 106.9995 106.5h149v-114z" fill="#48bdff"/><path d="m-14 150h320v171h-320z" fill="#48bdff"/><path clip-rule="evenodd" d="m-15 149h322v173h-322zm2 2v169h318v-169z" fill="#f35534" fill-rule="evenodd"/><path d="m188.479 150c-23.748 0-43-19.476-43-43.5 0-24.0244 19.252-43.5 43-43.5v-12c-59.094 0-160.479 47.6817-160.479 106.5 0 58.818 101.385 231 160.479 231l149-124.5v-114z" fill="#48bdff"/><path clip-rule="evenodd" d="m189.479 50h-1c-29.761 0-70.055 11.9886-102.9071 31.3314-16.4347 9.6765-31.057 21.2216-41.581 34.0806-10.5247 12.859-16.9909 27.085-16.9909 42.088 0 14.919 6.4081 36.866 16.8452 61.301 10.4528 24.471 25.0007 51.558 41.3955 76.801 16.3923 25.238 34.6523 48.666 52.5413 65.798 8.945 8.566 17.818 15.579 26.339 20.455 8.514 4.872 16.735 7.645 24.358 7.645h.363l149.637-125.032v-115.468h-150c-23.185 0-42-19.017-42-42.5s18.815-42.5 42-42.5h1zm-2 2.0045v10.0068c-23.849.5377-43 20.2607-43 44.4887 0 24.566 19.689 44.5 44 44.5h148v112.532l-148.36 123.966c-7.054-.086-14.803-2.686-23.005-7.379-8.335-4.77-17.078-11.669-25.948-20.164-17.741-16.99-35.907-40.283-52.248-65.443-16.3383-25.155-30.8301-52.142-41.2336-76.497-10.4194-24.393-16.6844-46.025-16.6844-60.515 0-14.406 6.2069-28.198 16.5386-40.821 10.3324-12.625 24.7498-24.028 41.0481-33.6241 32.2453-18.9853 71.6573-30.7857 100.8923-31.0504z" fill="#f35534" fill-rule="evenodd"/><path clip-rule="evenodd" d="m114.479 132c0-40.8691 33.131-74 74-74v-2c-41.973 0-76 34.0264-76 76 0 41.974 34.027 76 76 76v-2c-40.869 0-74-33.131-74-74z" fill="#f35534" fill-rule="evenodd"/><path d="m145 151c0 24.301 19.699 44 44 44h59l-25.539-3.25c-19.098-2.431-36.848-11.137-50.461-24.75 0 5.976 1.872 11.515 5.062 16.062z" fill="#fff"/><g clip-rule="evenodd" fill="#f35534" fill-rule="evenodd"><path d="m144.617 150.076c.374-.155.804-.069 1.09.217l27.282 27.281c-1.284-3.276-1.989-6.843-1.989-10.574 0-.404.244-.769.617-.924.374-.155.804-.069 1.09.217 13.457 13.456 31.002 22.062 49.88 24.465l25.539 3.25c.524.067.905.529.872 1.055-.033.527-.47.937-.998.937h-59c-24.853 0-45-20.147-45-45 0-.404.244-.769.617-.924zm1.454 3.409c1.287 22.592 20.015 40.515 42.929 40.515h43.222l-9.887-1.258c-18.479-2.352-35.709-10.511-49.223-23.268.437 4.816 2.138 9.264 4.769 13.014.298.425.222 1.007-.175 1.34-.398.334-.984.308-1.351-.058z"/><path d="m146.479 106.5c0-23.483 18.815-42.5 42-42.5v-2c-24.311 0-44 19.9343-44 44.5 0 24.566 19.689 44.5 44 44.5v-2c-23.185 0-42-19.017-42-42.5z"/><path d="m61.4795 192c0-70.7 56.8675-128 126.9995-128v-2c-71.252 0-128.9995 58.21-128.9995 130s57.7475 130 128.9995 130v-2c-70.132 0-126.9995-57.3-126.9995-128z"/><path d="m82.4795 157.5c0-58.2616 47.4535-105.5 105.9995-105.5v-2c-59.642 0-107.9995 48.125-107.9995 107.5s48.3575 107.5 107.9995 107.5v-2c-58.546 0-105.9995-47.238-105.9995-105.5z"/><path d="m51.4795 183c0-75.663 61.3365-137 136.9995-137v-2c-76.767 0-138.9995 62.232-138.9995 139s62.2325 139 138.9995 139v-2c-75.663 0-136.9995-61.337-136.9995-137z"/><path d="m187.479 208h150v-2h-150z"/><path d="m188 194h105v2h-105z"/><path d="m187.479 265h150v-2h-150z"/></g><path d="m188.479 321c-70.692 0-127.9995-57.755-127.9995-129s57.3075-129 127.9995-129h5c4.971 0 9-4.0294 9-9s-4.029-9-9-9h-5c-53.772 0-102.4616 21.877-137.7379 57.259l-218.7411 218.741z" fill="#fff"/><path clip-rule="evenodd" d="m193.479 46c4.419 0 8 3.5817 8 8s-3.581 8-8 8h-5c-71.252 0-128.9995 58.21-128.9995 130 0 63.998 45.8935 117.205 106.3345 128h-331.4l217.0342-217.034.001-.001c35.097-35.202 83.5348-56.965 137.0298-56.965zm-5 276v-2c-70.132 0-126.9995-57.3-126.9995-128s56.8675-128 126.9995-128h5c5.523 0 10-4.4772 10-10s-4.477-10-10-10h-5c-54.049 0-102.9894 21.9906-138.445 57.552m-.0011.001-220.4469 220.447h358.893" fill="#f35534" fill-rule="evenodd"/><path d="m122.02 288.634c18.784 12.848 41.512 20.366 65.98 20.366h75c3.866 0 7-3.134 7-7s-3.134-7-7-7h-75c-21.252 0-40.987-6.43-57.385-17.453-3.208-2.157-7.593-1.622-9.962 1.433s-1.824 7.471 1.367 9.654z" fill="#fff"/><path clip-rule="evenodd" d="m121.443 279.593c2.021-2.606 5.806-3.103 8.614-1.216 16.558 11.131 36.486 17.623 57.943 17.623h75c3.314 0 6 2.686 6 6s-2.686 6-6 6h-75c-24.26 0-46.792-7.453-65.415-20.191-2.683-1.836-3.183-5.584-1.142-8.216zm9.73-2.876c-3.609-2.426-8.593-1.854-11.31 1.65-2.697 3.478-2.106 8.562 1.593 11.092 18.945 12.959 41.868 20.541 66.544 20.541h75c4.418 0 8-3.582 8-8s-3.582-8-8-8h-75c-21.047 0-40.589-6.367-56.827-17.283z" fill="#f35534" fill-rule="evenodd"/><path clip-rule="evenodd" d="m190 84c0 3.3137-2.69 5.9816-5.998 6.1733-23.653 1.3708-45.137 10.7967-61.763 25.5857-2.476 2.202-6.263 2.217-8.606-.127-2.344-2.343-2.354-6.155.109-8.372 18.809-16.9365 43.299-27.7066 70.26-29.1048 3.309-.1717 5.998 2.5311 5.998 5.8448z" fill="#fff" fill-rule="evenodd"/><path clip-rule="evenodd" d="m189 84c0-2.7759-2.243-4.9864-4.946-4.8462-26.724 1.386-50.998 12.0607-69.643 28.8492-2.011 1.811-2.034 4.959-.071 6.922 1.942 1.943 5.126 1.962 7.235.087 16.788-14.933 38.484-24.4527 62.369-25.837 2.817-.1632 5.056-2.4278 5.056-5.175zm-5.05-6.8435c3.916-.2031 7.05 2.992 7.05 6.8435 0 3.8802-3.141 6.9514-6.94 7.1717-23.42 1.3573-44.692 10.6903-61.156 25.3343-2.844 2.529-7.235 2.577-9.979-.166-2.723-2.724-2.767-7.199.147-9.823 18.974-17.0844 43.68-27.9499 70.878-29.3605z" fill="#f35534" fill-rule="evenodd"/><path d="m96 48c0 6.0751-4.9249 11-11 11s-11-4.9249-11-11 4.9249-11 11-11 11 4.9249 11 11z" fill="#fff"/><path clip-rule="evenodd" d="m85 38c-5.5228 0-10 4.4772-10 10s4.4772 10 10 10 10-4.4772 10-10-4.4772-10-10-10zm-12 10c0-6.6274 5.3726-12 12-12s12 5.3726 12 12-5.3726 12-12 12-12-5.3726-12-12z" fill="#f35534" fill-rule="evenodd"/><path d="m105 28c0 2.2091-1.791 4-4 4-2.2091 0-4-1.7909-4-4s1.7909-4 4-4c2.209 0 4 1.7909 4 4z" fill="#fff"/><path clip-rule="evenodd" d="m101 25c-1.6569 0-3 1.3431-3 3s1.3431 3 3 3c1.657 0 3-1.3431 3-3s-1.343-3-3-3zm-5 3c0-2.7614 2.2386-5 5-5 2.761 0 5 2.2386 5 5s-2.239 5-5 5c-2.7614 0-5-2.2386-5-5z" fill="#f35534" fill-rule="evenodd"/><path d="m166 107c0 2.761-2.239 5-5 5s-5-2.239-5-5 2.239-5 5-5 5 2.239 5 5z" fill="#fff"/><path clip-rule="evenodd" d="m161 103c-2.209 0-4 1.791-4 4s1.791 4 4 4 4-1.791 4-4-1.791-4-4-4zm-6 4c0-3.314 2.686-6 6-6s6 2.686 6 6-2.686 6-6 6-6-2.686-6-6z" fill="#f35534" fill-rule="evenodd"/><path d="m64 93.5c0 3.5899-2.9101 6.5-6.5 6.5s-6.5-2.9101-6.5-6.5 2.9101-6.5 6.5-6.5 6.5 2.9101 6.5 6.5z" fill="#48bdff"/><path clip-rule="evenodd" d="m57.5 88c-3.0376 0-5.5 2.4624-5.5 5.5s2.4624 5.5 5.5 5.5 5.5-2.4624 5.5-5.5-2.4624-5.5-5.5-5.5zm-7.5 5.5c0-4.1421 3.3579-7.5 7.5-7.5s7.5 3.3579 7.5 7.5-3.3579 7.5-7.5 7.5-7.5-3.3579-7.5-7.5z" fill="#f35534" fill-rule="evenodd"/><path d="m248 269c0 6.075-4.925 11-11 11s-11-4.925-11-11 4.925-11 11-11 11 4.925 11 11z" fill="#48bdff"/><path clip-rule="evenodd" d="m237 259c-5.523 0-10 4.477-10 10s4.477 10 10 10 10-4.477 10-10-4.477-10-10-10zm-12 10c0-6.627 5.373-12 12-12s12 5.373 12 12-5.373 12-12 12-12-5.373-12-12z" fill="#f35534" fill-rule="evenodd"/><path d="m273 230.5c0 3.038-2.462 5.5-5.5 5.5s-5.5-2.462-5.5-5.5 2.462-5.5 5.5-5.5 5.5 2.462 5.5 5.5z" fill="#48bdff"/><path clip-rule="evenodd" d="m267.5 226c-2.485 0-4.5 2.015-4.5 4.5s2.015 4.5 4.5 4.5 4.5-2.015 4.5-4.5-2.015-4.5-4.5-4.5zm-6.5 4.5c0-3.59 2.91-6.5 6.5-6.5s6.5 2.91 6.5 6.5-2.91 6.5-6.5 6.5-6.5-2.91-6.5-6.5z" fill="#f35534" fill-rule="evenodd"/><path d="m304 246.5c0 4.694-3.806 8.5-8.5 8.5s-8.5-3.806-8.5-8.5 3.806-8.5 8.5-8.5 8.5 3.806 8.5 8.5z" fill="#48bdff"/><path clip-rule="evenodd" d="m295.5 239c-4.142 0-7.5 3.358-7.5 7.5s3.358 7.5 7.5 7.5 7.5-3.358 7.5-7.5-3.358-7.5-7.5-7.5zm-9.5 7.5c0-5.247 4.253-9.5 9.5-9.5s9.5 4.253 9.5 9.5-4.253 9.5-9.5 9.5-9.5-4.253-9.5-9.5z" fill="#f35534" fill-rule="evenodd"/><path d="m153 70c0 3.3137-2.686 6-6 6s-6-2.6863-6-6 2.686-6 6-6 6 2.6863 6 6z" fill="#48bdff"/><path clip-rule="evenodd" d="m147 65c-2.761 0-5 2.2386-5 5s2.239 5 5 5 5-2.2386 5-5-2.239-5-5-5zm-7 5c0-3.866 3.134-7 7-7s7 3.134 7 7-3.134 7-7 7-7-3.134-7-7z" fill="#f35534" fill-rule="evenodd"/><path d="m109 172c0 4.418-3.582 8-8 8-4.4183 0-8-3.582-8-8s3.5817-8 8-8c4.418 0 8 3.582 8 8z" fill="#fff"/><path clip-rule="evenodd" d="m101 165c-3.866 0-7 3.134-7 7s3.134 7 7 7 7-3.134 7-7-3.134-7-7-7zm-9 7c0-4.971 4.0294-9 9-9 4.971 0 9 4.029 9 9s-4.029 9-9 9c-4.9706 0-9-4.029-9-9z" fill="#f35534" fill-rule="evenodd"/><path d="m202.75 175.708c-10.908-18.893-12.608-38.331-3.798-43.418l13.996-8.08c8.81-5.087 24.794 6.105 35.701 24.998 10.908 18.893 12.609 38.331 3.799 43.418l-13.996 8.08c-8.81 5.087-24.794-6.105-35.702-24.998z" fill="#ffd338"/><path clip-rule="evenodd" d="m230.586 126.898c6.605 4.625 13.42 12.266 18.93 21.81s8.72 19.266 9.423 27.299c.695 7.943-1.05 14.632-5.991 17.485l-13.996 8.08c-4.942 2.853-11.606 1.02-18.138-3.554-6.605-4.625-13.42-12.266-18.93-21.81s-8.72-19.266-9.423-27.299c-.695-7.943 1.049-14.632 5.991-17.485l13.996-8.08c4.941-2.853 11.606-1.02 18.138 3.554zm-16.239-2.265 38.434 66.57c3.292-2.523 4.795-7.832 4.166-15.022-.672-7.681-3.766-17.124-9.163-26.473-5.398-9.349-12.029-16.749-18.346-21.172-5.912-4.14-11.261-5.493-15.091-3.903zm36.735 67.627-38.5-66.684-13.13 7.58c-3.868 2.234-5.679 7.808-4.999 15.579.672 7.681 3.766 17.124 9.163 26.473 5.398 9.349 12.029 16.749 18.345 21.172 6.39 4.474 12.123 5.694 15.991 3.46z" fill="#f35534" fill-rule="evenodd"/><path d="m212.996 124.182c8.783-5.071 24.746 6.133 35.653 25.026 10.908 18.893 12.63 38.319 3.847 43.39-8.784 5.071-24.746-6.134-35.654-25.026-10.907-18.893-12.63-38.319-3.846-43.39z" fill="#ffd338"/><g fill="#f35534"><path clip-rule="evenodd" d="m230.601 126.89c6.596 4.63 13.405 12.275 18.915 21.818 5.509 9.543 8.725 19.262 9.437 27.29.704 7.936-1.027 14.62-5.957 17.466s-11.583 1.003-18.105-3.574c-6.596-4.63-13.405-12.275-18.915-21.818-5.509-9.543-8.725-19.263-9.437-27.29-.704-7.937 1.027-14.62 5.957-17.466s11.583-1.004 18.105 3.574zm-1.149 1.637c-6.383-4.48-12.102-5.704-15.956-3.479s-5.653 7.79-4.965 15.558c.681 7.676 3.78 17.117 9.177 26.466 5.398 9.349 12.024 16.753 18.332 21.181 6.383 4.48 12.102 5.704 15.956 3.479s5.653-7.79 4.965-15.558c-.681-7.676-3.78-17.117-9.177-26.466-5.398-9.349-12.024-16.753-18.332-21.181z" fill-rule="evenodd"/><path clip-rule="evenodd" d="m230.601 126.89c6.596 4.63 13.405 12.275 18.915 21.818 5.509 9.543 8.725 19.262 9.437 27.29.704 7.936-1.027 14.62-5.957 17.466s-11.583 1.003-18.105-3.574c-6.596-4.63-13.405-12.275-18.915-21.818-5.509-9.543-8.725-19.263-9.437-27.29-.704-7.937 1.027-14.62 5.957-17.466s11.583-1.004 18.105 3.574zm-1.149 1.637c-6.383-4.48-12.102-5.704-15.956-3.479s-5.653 7.79-4.965 15.558c.681 7.676 3.78 17.117 9.177 26.466 5.398 9.349 12.024 16.753 18.332 21.181 6.383 4.48 12.102 5.704 15.956 3.479s5.653-7.79 4.965-15.558c-.681-7.676-3.78-17.117-9.177-26.466-5.398-9.349-12.024-16.753-18.332-21.181z" fill-rule="evenodd"/><path d="m218.51 195c7.467 6.183 14.886 8.625 19.942 5.706l9.883-5.706z"/><path clip-rule="evenodd" d="m215.735 194h36.333l-13.116 7.572c-2.838 1.639-6.26 1.723-9.852.653-3.589-1.069-7.428-3.308-11.227-6.455zm5.693 2c2.872 2.082 5.668 3.541 8.243 4.308 3.248.967 6.063.813 8.281-.468l6.651-3.84z" fill-rule="evenodd"/></g></g><rect height="320" rx="160" stroke="#f35534" stroke-width="2" width="320" x="1" y="1"/></svg>