<svg fill="none" height="322" viewBox="0 0 322 322" width="322" xmlns="http://www.w3.org/2000/svg" xmlns:xlink="http://www.w3.org/1999/xlink"><clipPath id="a"><rect height="320" rx="160" width="320" x="1" y="1"/></clipPath><g clip-path="url(#a)"><rect fill="#48bdff" height="320" rx="160" width="320" x="1" y="1"/><path d="m1 209h320v123h-320z" fill="#ffc9f0"/><path clip-rule="evenodd" d="m0 208h322v125h-322zm2 2v121h318v-121z" fill="#f35534" fill-rule="evenodd"/><path d="m53 212.361v-42.721c0-19.582 15.0726-34.866 33.9257-44.666 19.3403-10.053 45.3683-15.974 73.5743-15.974s54.234 5.921 73.574 15.974c18.853 9.8 33.926 25.084 33.926 44.666v42.721c0 19.581-15.073 34.865-33.926 44.665-19.34 10.053-45.368 15.974-73.574 15.974s-54.234-5.921-73.5743-15.974c-18.8531-9.8-33.9257-25.084-33.9257-44.665z" fill="#48bdff"/><path clip-rule="evenodd" d="m86.4645 124.087c19.5095-10.141 45.7025-16.087 74.0355-16.087s54.526 5.946 74.036 16.087c18.969 9.86 34.464 25.406 34.464 45.553v42.721c0 20.146-15.495 35.692-34.464 45.552-19.51 10.141-45.703 16.087-74.036 16.087s-54.526-5.946-74.0355-16.087c-18.9695-9.86-34.4645-25.406-34.4645-45.552v-42.721c0-20.147 15.4949-35.693 34.4645-45.553zm74.0355-14.087c-28.079 0-53.942 5.897-73.1131 15.862-18.7366 9.739-33.3869 24.761-33.3869 43.778v42.721c0 19.016 14.6503 34.038 33.3869 43.777 19.1711 9.965 45.0341 15.862 73.1131 15.862s53.942-5.897 73.113-15.862c18.737-9.739 33.387-24.761 33.387-43.777v-42.721c0-19.017-14.65-34.039-33.387-43.778-19.171-9.965-45.034-15.862-73.113-15.862z" fill="#fff" fill-rule="evenodd"/><path d="m159.747 248.526c-46.081 0-83.4365-19.441-83.4365-43.422v-35.682c0-23.982 37.3555-43.422 83.4365-43.422 46.08 0 83.436 19.44 83.436 43.422v35.682c0 23.981-37.356 43.422-83.436 43.422z" fill="#ffd338"/><path clip-rule="evenodd" d="m100.287 137.831c15.268-7.946 36.292-12.831 59.46-12.831 23.167 0 44.191 4.885 59.46 12.831 15.219 7.92 24.976 19.038 24.976 31.591v35.682c0 12.552-9.757 23.67-24.976 31.591-15.269 7.946-36.293 12.831-59.46 12.831-23.168 0-44.192-4.885-59.46-12.831-15.2197-7.921-24.9765-19.039-24.9765-31.591v-35.682c0-12.553 9.7568-23.671 24.9765-31.591zm-22.9765 41.293v25.98c0 11.429 8.9211 22.022 23.8995 29.817 14.93 7.769 35.624 12.605 58.537 12.605s43.607-4.836 58.537-12.605c14.978-7.795 23.899-18.388 23.899-29.817v-25.98c-3.592 8.552-11.815 16.08-22.976 21.888-15.269 7.946-36.293 12.831-59.46 12.831-23.168 0-44.192-4.885-59.46-12.831-11.1612-5.808-19.3844-13.336-22.9765-21.888zm164.8725-9.702c0 11.428-8.921 22.021-23.899 29.816-14.93 7.77-35.624 12.605-58.537 12.605s-43.607-4.835-58.537-12.605c-14.9784-7.795-23.8995-18.388-23.8995-29.816 0-11.429 8.9211-22.022 23.8995-29.817 14.93-7.77 35.624-12.605 58.537-12.605s43.607 4.835 58.537 12.605c14.978 7.795 23.899 18.388 23.899 29.817z" fill="#f35534" fill-rule="evenodd"/><path d="m159.747 248.526c-46.081 0-83.4365-19.441-83.4365-43.422v-35.682c0-23.982 37.3555-43.422 83.4365-43.422 46.08 0 83.436 19.44 83.436 43.422v35.682c0 23.981-37.356 43.422-83.436 43.422z" fill="#ffd338"/><path clip-rule="evenodd" d="m100.287 137.831c15.268-7.946 36.292-12.831 59.46-12.831 23.167 0 44.191 4.885 59.46 12.831 15.219 7.92 24.976 19.038 24.976 31.591v35.682c0 12.552-9.757 23.67-24.976 31.591-15.269 7.946-36.293 12.831-59.46 12.831-23.168 0-44.192-4.885-59.46-12.831-15.2197-7.921-24.9765-19.039-24.9765-31.591v-35.682c0-12.553 9.7568-23.671 24.9765-31.591zm-22.9765 41.293v25.98c0 11.429 8.9211 22.022 23.8995 29.817 14.93 7.769 35.624 12.605 58.537 12.605s43.607-4.836 58.537-12.605c14.978-7.795 23.899-18.388 23.899-29.817v-25.98c-3.592 8.552-11.815 16.08-22.976 21.888-15.269 7.946-36.293 12.831-59.46 12.831-23.168 0-44.192-4.885-59.46-12.831-11.1612-5.808-19.3844-13.336-22.9765-21.888zm164.8725-9.702c0 11.428-8.921 22.021-23.899 29.816-14.93 7.77-35.624 12.605-58.537 12.605s-43.607-4.835-58.537-12.605c-14.9784-7.795-23.8995-18.388-23.8995-29.816 0-11.429 8.9211-22.022 23.8995-29.817 14.93-7.77 35.624-12.605 58.537-12.605s43.607 4.835 58.537 12.605c14.978 7.795 23.899 18.388 23.899 29.817z" fill="#f35534" fill-rule="evenodd"/><path clip-rule="evenodd" d="m86.4653 124.05c19.5097-10.118 45.7027-16.05 74.0347-16.05s54.525 5.932 74.035 16.05c18.968 9.837 34.465 25.347 34.465 45.45s-15.497 35.613-34.465 45.45c-19.51 10.118-45.703 16.05-74.035 16.05s-54.525-5.932-74.0347-16.05c-18.9687-9.837-34.4653-25.347-34.4653-45.45s15.4966-35.613 34.4653-45.45zm74.0347-14.05c-28.079 0-53.943 5.883-73.1139 15.825-18.7374 9.718-33.3861 24.705-33.3861 43.675s14.6487 33.957 33.3861 43.675c19.1709 9.942 45.0349 15.825 73.1139 15.825s53.943-5.883 73.114-15.825c18.737-9.718 33.386-24.705 33.386-43.675s-14.649-33.957-33.386-43.675c-19.171-9.942-45.035-15.825-73.114-15.825z" fill="#fff" fill-rule="evenodd"/><g fill="#f35534"><path d="m25.6855-38.9999 113.3425 202.3249h43.687l33.707-60.171 14.718 6.824-16.412-45.9845-50.543 14.9424 14.718 6.8234-18.031 32.1877-87.923-156.947z"/><path clip-rule="evenodd" d="m27.392-37.9999 112.222 200.3249h42.515l33.421-59.659c.255-.456.819-.639 1.293-.419l12.553 5.82-15.292-42.8463-47.094 13.9228 12.313 5.7086c.253.1171.446.3343.531.5993.086.265.057.5537-.079.7967l-18.031 32.1879c-.177.315-.511.511-.872.511-.362 0-.696-.195-.873-.511l-87.636-156.436zm-1.7065-2 47.2635-.0001c.3619 0 .6956.1955.8725.5113l87.0505 155.3897 16.631-29.6885-13.739-6.3693c-.377-.175-.607-.5655-.576-.9805.03-.415.314-.7678.713-.8857l50.543-14.9425c.509-.1505 1.047.1229 1.226.6228l16.412 45.9847c.135.379.03.803-.268 1.074-.297.272-.729.339-1.095.169l-13.877-6.434-33.255 59.363c-.176.316-.51.511-.872.511h-43.687c-.362 0-.695-.195-.872-.511l-113.3429-202.3251c-.1735-.3097-.1698-.6881.0097-.9944.1794-.3062.5078-.4944.8627-.4944z" fill-rule="evenodd"/></g></g><rect height="320" rx="160" stroke="#f35534" stroke-linejoin="round" stroke-width="2" width="320" x="1" y="1"/></svg>