<svg fill="none" height="320" viewBox="0 0 320 320" width="320" xmlns="http://www.w3.org/2000/svg" xmlns:xlink="http://www.w3.org/1999/xlink"><mask id="a" height="320" maskUnits="userSpaceOnUse" width="320" x="0" y="0"><path d="m160 0c-88.3656 0-160 71.6344-160 160 0 88.366 71.6344 160 160 160 88.366 0 160-71.634 160-160 0-88.3656-71.634-160-160-160z" fill="#fff"/></mask><g mask="url(#a)"><path d="m160 0c-88.3656 0-160 71.6344-160 160 0 88.366 71.6344 160 160 160 88.366 0 160-71.634 160-160 0-88.3656-71.634-160-160-160z" fill="#58a4ff"/><path d="m179.367 93.9961c-9.565-5.5229-12.843-17.7547-7.32-27.3205l18-31.1769c5.523-9.5659 17.755-12.8434 27.32-7.3205l121.244 70c9.566 5.5228 12.843 17.7548 7.32 27.3208l-18 31.177c-5.522 9.565-17.754 12.843-27.32 7.32z" fill="#f35534"/><path clip-rule="evenodd" d="m178.866 94.8633c-10.044-5.799-13.485-18.6424-7.686-28.6866l18-31.1769c5.799-10.0441 18.642-13.4855 28.686-7.6865l121.244 70c10.044 5.7987 13.485 18.6427 7.686 28.6867l-18 31.177c-5.799 10.044-18.642 13.485-28.686 7.686zm-5.954-27.6866c-5.247 9.0876-2.133 20.7078 6.954 25.9545l121.244 69.9998c9.087 5.247 20.708 2.133 25.954-6.954l18-31.177c5.247-9.088 2.133-20.708-6.954-25.955l-121.244-69.9996c-9.087-5.2468-20.708-2.1331-25.954 6.9544z" fill="#f35534" fill-rule="evenodd"/><path d="m140.867 48.6757 18-31.1769 31.177 18-18 31.1769z" fill="#fbc641"/><path clip-rule="evenodd" d="m139.5 49.043 19-32.909 32.909 19-19 32.909zm2.732-.7321 29.445 17 17-29.4448-29.445-17z" fill="#f35534" fill-rule="evenodd"/><path d="m199.688 98.8008 20.999-36.3731 86.603 50.0003-21 36.373z" fill="#fff"/><g fill="#f35534"><path clip-rule="evenodd" d="m199.187 99.668c-.478-.276-.642-.8878-.366-1.3661l21-36.373c.276-.4783.888-.6422 1.366-.366l86.603 50.0001c.478.276.642.888.366 1.366l-21 36.373c-.276.478-.888.642-1.366.366zm1.866-1.2321 84.871 49.0001 20-34.641-84.871-49.0001z" fill-rule="evenodd"/><path d="m153.021 62.6211c-3.109-1.7949-4.174-5.7703-2.379-8.8792l1.5-2.598c1.795-3.1089 5.77-4.1741 8.879-2.3792s4.174 5.7703 2.379 8.8792l-1.5 2.598c-1.795 3.1089-5.77 4.1741-8.879 2.3792z"/><path clip-rule="evenodd" d="m152.526 63.4883c-3.587-2.0711-4.816-6.658-2.745-10.2452l1.5-2.5981c2.071-3.5872 6.658-4.8162 10.245-2.7452 3.588 2.0711 4.817 6.658 2.746 10.2452l-1.5 2.5981c-2.071 3.5872-6.658 4.8162-10.246 2.7452zm-1.013-9.2452c-1.518 2.6306-.617 5.9943 2.013 7.5131 2.631 1.5188 5.995.6175 7.514-2.0131l1.5-2.5981c1.518-2.6306.617-5.9943-2.014-7.5131-2.63-1.5188-5.994-.6175-7.513 2.0131z" fill-rule="evenodd"/></g><path d="m159.52 51.3627c3.109 1.7949 4.174 5.7702 2.379 8.8791s-5.77 4.1741-8.879 2.3792-4.174-5.7703-2.379-8.8792 5.77-4.1741 8.879-2.3791z" fill="#fff"/><path clip-rule="evenodd" d="m151.513 54.2432c-1.518 2.6306-.617 5.9943 2.013 7.5131 2.631 1.5188 5.995.6175 7.514-2.0131 1.518-2.6306.617-5.9944-2.014-7.5131-2.63-1.5188-5.994-.6175-7.513 2.0131zm1.013 9.2452c-3.587-2.0711-4.816-6.658-2.745-10.2452s6.658-4.8163 10.245-2.7452c3.588 2.0711 4.817 6.658 2.746 10.2452s-6.658 4.8162-10.246 2.7452z" fill="#f35534" fill-rule="evenodd"/><path clip-rule="evenodd" d="m43.8753 116.47c-.5167-.977-.1442-2.187.8321-2.704l76.6166-40.5515c.976-.5168 2.186-.1442 2.703.832.517.9763.144 2.1866-.832 2.7033l-76.6164 40.5522c-.9763.516-2.1866.144-2.7033-.832zm20.9471 15.723c-.7021-.853-.5799-2.113.2729-2.815l23.7188-19.527c.8527-.702 2.1132-.579 2.8152.273.702.853.5798 2.113-.2729 2.816l-23.7188 19.526c-.8528.702-2.1132.58-2.8152-.273zm36.6886 10.119c-.931-.595-1.203-1.832-.607-2.762l20.039-31.319c.595-.931 1.832-1.202 2.762-.607.931.595 1.202 1.832.607 2.763l-20.039 31.319c-.595.93-1.832 1.202-2.762.606zm31.621-66.3551c-.702-.8527-.58-2.1131.273-2.8152l21.349-17.5753 2.956 2.6219-26.719 41.7588c-.595.9299-1.832 1.2019-2.762.6069-.931-.5959-1.202-1.8324-.607-2.7628l19.884-31.0767-11.558 9.5154c-.853.702-2.114.5798-2.816-.273zm-1.048 70.5031c-1.067-.286-1.7-1.382-1.414-2.449l11.711-43.709c.286-1.0669 1.383-1.7002 2.45-1.4143 1.067.2854 1.7 1.3823 1.414 2.4493l-11.712 43.709c-.286 1.067-1.382 1.7-2.449 1.414zm25.979-74.6621c1.094-.1518 2.104.6121 2.256 1.7062l6.34 45.6979c.152 1.094-.612 2.104-1.706 2.256s-2.104-.612-2.256-1.706l-6.34-45.6982c-.152-1.0941.612-2.1041 1.706-2.2559z" fill="#fff" fill-rule="evenodd"/><path clip-rule="evenodd" d="m128.904 232.752c-.002.001-.004.002-6.902-12.752s-6.9-12.753-6.9-12.753l.012-.007.08-.043c.076-.042.197-.108.361-.198.327-.181.825-.457 1.476-.824 1.3-.732 3.206-1.822 5.566-3.218 4.73-2.798 11.242-6.799 18.354-11.6 14.624-9.872 30.285-22.144 39.003-33.626 3.476-4.577 8.291-9.185 14.808-11.147 7.352-2.213 14.263-.304 19.46 3.499 4.677 3.422 7.862 8.214 10.066 12.616 2.291 4.578 4.059 9.82 5.391 15.301 5.228 21.505 5.179 52.786-3.921 80.085-3.269 9.807-2.323 15.562-.778 18.962 1.616 3.556 4.976 6.924 10.894 9.797 12.39 6.017 30.956 7.364 44.931 6.205l2.395 28.901c-16.192 1.342-40.827.289-59.994-9.019-9.862-4.789-19.371-12.316-24.628-23.887-5.33-11.729-5.263-25.336-.332-40.129 7.301-21.902 7.251-47.62 3.254-64.065-.519-2.136-1.079-4.002-1.648-5.599-11.841 13.996-28.964 26.885-42.674 36.141-7.701 5.199-14.72 9.511-19.818 12.526-2.553 1.51-4.636 2.702-6.095 3.524-.73.411-1.305.73-1.705.951-.2.11-.357.196-.468.257l-.131.071-.039.022z" fill="#fff" fill-rule="evenodd"/><path d="m129.312 232.289-14.327-24.816 11.678-6.743 14.328 24.817z" fill="#fbc641"/><path clip-rule="evenodd" d="m128.945 233.656-15.327-26.548 13.41-7.743 15.328 26.549zm.732-2.732 9.947-5.742-13.328-23.084-9.946 5.742z" fill="#f35534" fill-rule="evenodd"/><path d="m131.234 262.906-41.8165-72.429 11.7535-6.786 41.817 72.43z" fill="#f35534"/><path clip-rule="evenodd" d="m131.733 263.773c-.478.277-1.09.113-1.366-.366l-41.8164-72.429c-.2761-.478-.1122-1.09.366-1.366l11.7524-6.785c.479-.277 1.09-.113 1.366.366l41.817 72.429c.277.478.113 1.09-.366 1.366zm-.134-2.232 10.021-5.785-40.817-70.697-10.0203 5.785z" fill="#f35534" fill-rule="evenodd"/><path d="m17.7812 348-58.7812-101.812 130.4216-55.71 41.8174 72.429z" fill="#fff"/><path clip-rule="evenodd" d="m17.5798 348.981c-.2802-.057-.5225-.232-.6655-.48l-58.7813-101.812c-.143-.248-.1731-.545-.0827-.816.0905-.272.2929-.491.5559-.604l130.4216-55.71c.4653-.199 1.0058-.018 1.2589.42l41.8163 72.429c.253.438.139.996-.266 1.3l-113.4567 85.093c-.2289.172-.5202.237-.8005.18zm.5027-2.456 111.8455-83.885-40.93-70.893-128.5691 54.919z" fill="#f35534" fill-rule="evenodd"/><path d="m31.3907 305.078-28.41511-49.216 78.74641-45.465 28.415 49.217z" fill="#f35534"/><path clip-rule="evenodd" d="m31.8895 305.941c-.4783.277-1.0899.113-1.3661-.366l-28.41514-49.216c-.27614-.478-.11227-1.09.36602-1.366l78.74642-45.464c.4783-.277 1.0899-.113 1.3661.366l28.4152 49.216c.276.478.112 1.09-.366 1.366zm-.134-2.232 77.0145-44.464-27.4153-47.484-77.01439 44.464z" fill="#f35534" fill-rule="evenodd"/><path d="m-25.6065 239.6 7.0987 12.296 7.0987 12.295 7.0987 12.295 7.09869 12.295 7.09871 12.296 7.0987 12.295 7.0987 12.295 7.0987 12.296-13.4019 10.037-7.3476-12.727-7.34766-12.726-7.34766-12.727-7.34768-12.726-7.3476-12.727-7.3477-12.726-7.3476-12.727-7.3477-12.726z" fill="#fff"/><path clip-rule="evenodd" d="m17.5795 348.981c-.2801-.058-.5223-.232-.6652-.48l-58.7813-101.812c-.143-.248-.1731-.545-.0828-.816.0904-.271.2925-.491.5554-.603l15.3935-6.588c.4655-.199 1.0063-.019 1.2595.419l56.7895 98.363c.2532.438.1387.997-.2665 1.3l-13.4019 10.038c-.2288.171-.5201.236-.8002.179zm.5033-2.456 11.7896-8.83-6.1081-10.579-12.0086 8.45zm-7.3311-12.698 12.0086-8.45-6.1108-10.584-12.22754 8.071zm-7.33153-12.698 12.22753-8.071-6.11248-10.588-12.44661 7.692zm-7.33201-12.7 12.44661-7.692-6.11345-10.588-12.66562 7.312zm-7.33246-12.7 12.66562-7.312-6.11345-10.589-12.88467 6.933zm-7.3329-12.701 12.88463-6.933-6.11253-10.587-13.1037 6.554zm-7.3334-12.702 13.1037-6.553-6.1108-10.585-13.3226 6.175zm-7.3338-12.702 13.3227-6.175-6.1081-10.579-13.5417 5.795z" fill="#f35534" fill-rule="evenodd"/></g></svg>