<svg fill="none" height="231" viewBox="0 0 150 231" width="150" xmlns="http://www.w3.org/2000/svg"><g stroke="#f35534" stroke-linejoin="round" stroke-width="2"><path d="m0 0h195.504v20.9863h-195.504z" fill="#85543c" transform="matrix(.273873 .961766 .961766 -.273873 38.6533 24.1514)"/><path d="m100.878 35.0825 38.46 135.0605c5.412 19.008-5.609 38.804-24.617 44.217l-48.26-169.4769z" fill="#fbc641"/><path d="m56.6583 10.4612c19.0079-5.41269 38.8048 5.6084 44.2177 24.6163 5.412 19.008-5.6086 38.8048-24.6166 44.2175z" fill="#fff"/><path d="m58.8867 18.293c17.7603 9.5761 24.0097 31.5222 13.9584 49.0179z" fill="#00b152"/><path d="m72.8457 67.3091c17.7603 9.5761 24.0097 31.5222 13.9584 49.0179z" fill="#00b152"/><path d="m86.8057 116.325c17.7603 9.576 24.0093 31.522 13.9583 49.018z" fill="#00b152"/><path d="m100.765 165.349c17.76 9.576 24.009 31.522 13.958 49.018z" fill="#00b152"/><path d="m11.7061 60.4722 38.4597 135.0598c5.4127 19.008 25.2096 30.029 44.2175 24.617l-48.2604-169.4774z" fill="#fbc641"/><path d="m36.3212 16.2541c-19.0079 5.4127-30.02904 25.2095-24.6163 44.2175 5.4127 19.0079 25.2095 30.029 44.2174 24.6163z" fill="#fff"/><path d="m38.5498 24.0752c17.7603 9.5761 24.0097 31.5222 13.9584 49.018z" fill="#00b152"/><path d="m52.5107 73.0913c17.7604 9.5761 24.0097 31.5227 13.9584 49.0177z" fill="#00b152"/><path d="m66.4688 122.107c17.7603 9.577 24.0096 31.523 13.9583 49.018z" fill="#00b152"/><path d="m80.4258 171.132c17.7603 9.576 24.0092 31.522 13.9584 49.018z" fill="#00b152"/><path d="m45.5273 48.5801c17.7604 9.5761 24.0097 31.5222 13.9584 49.018z" fill="#f35534"/><path d="m59.4863 97.5962c17.7603 9.5758 24.0097 31.5218 13.9584 49.0178z" fill="#f35534"/><path d="m73.4453 146.612c17.7603 9.576 24.0097 31.523 13.9584 49.018z" fill="#f35534"/><path d="m65.8623 42.8027c17.7603 9.5762 24.0097 31.5222 13.9584 49.018z" fill="#f35534"/><path d="m79.8213 91.8188c17.7603 9.5762 24.0097 31.5222 13.9584 49.0182z" fill="#f35534"/><path d="m93.7803 140.835c17.7607 9.576 24.0097 31.522 13.9587 49.018z" fill="#f35534"/><g fill="#fff"><ellipse cx="3.25319" cy="1.6266" rx="3.25319" ry="1.6266" transform="matrix(.273873 .961766 .961766 -.273873 23.5039 107.854)"/><ellipse cx="3.25319" cy="1.6266" rx="3.25319" ry="1.6266" transform="matrix(.273873 .961766 .961766 -.273873 59.2891 152.353)"/><ellipse cx="3.25319" cy="1.6266" rx="3.25319" ry="1.6266" transform="matrix(.273873 .961766 .961766 -.273873 41.0264 169.388)"/><ellipse cx="3.25319" cy="1.6266" rx="3.25319" ry="1.6266" transform="matrix(.273873 .961766 .961766 -.273873 37.9092 158.442)"/><ellipse cx="3.25319" cy="1.6266" rx="3.25319" ry="1.6266" transform="matrix(.273873 .961766 .961766 -.273873 38.335 94.6152)"/><ellipse cx="5.15089" cy="2.71099" rx="5.15089" ry="2.71099" transform="matrix(.273873 .961766 .961766 -.273873 34.8867 122.094)"/><ellipse cx="3.25319" cy="1.6266" rx="3.25319" ry="1.6266" transform="matrix(.273873 .961766 .961766 -.273873 59.1973 173.804)"/></g></g></svg>