<svg fill="none" height="287" viewBox="0 0 202 287" width="202" xmlns="http://www.w3.org/2000/svg"><path d="m100.792 83.0902c7.151 12.3871 22.991 16.6313 35.378 9.4795l-25.899-44.8577c-9.6 5.5429-15.367 17.7944-13.6703 28.1226 0 0 2.582 4.469 4.1913 7.2556z" fill="#f35534"/><g stroke="#f35534" stroke-linejoin="round" stroke-width="2"><path d="m100.792 83.0902c7.151 12.3871 22.991 16.6313 35.378 9.4795l-25.899-44.8577c-9.6 5.5429-15.367 17.7944-13.6703 28.1226 0 0 2.582 4.469 4.1913 7.2556zm0 0-4.19-7.2564"/><path d="m96.9796 76.4953c7.1514 12.3871 22.9914 16.6312 35.3784 9.4795l-25.899-44.8577c-12.387 7.1517-16.6311 22.9911-9.4794 35.3782z" fill="#f35534"/><path d="m102.937 73.0557c5.252 9.0968 16.884 12.2136 25.981 6.9615l-19.019-32.9424c-9.097 5.2521-12.2136 16.8841-6.962 25.9809z" fill="#fdc4ed"/><path d="m113.307 67.0689c1.893 3.2789 6.086 4.4024 9.364 2.5093l-6.855-11.8741c-3.279 1.8931-4.402 6.0858-2.509 9.3648z" fill="#fbc641"/><path d="m109.616 69.2005-2.527 1.4592" stroke-linecap="round"/><path d="m108.124 63.6367h-2.918" stroke-linecap="round"/><path d="m113.689 73.274-1.46 2.5273" stroke-linecap="round"/><path d="m119.252 74.7644v2.9182" stroke-linecap="round"/><path d="m107.089 56.6146 2.527 1.4591" stroke-linecap="round"/><rect fill="#85543c" height="15.2686" rx="7.63431" transform="matrix(-.60059 -.799557 -.799557 .60059 148.802 234.925)" width="148.038"/><path d="m109.234 251.118-61.3616-81.69c-8.6359-11.497-6.3167-27.818 5.1801-36.454l76.9985 102.508z" fill="#fbc641"/><path d="m145.689 256.3c-11.497 8.636-27.818 6.317-36.454-5.18-8.635-11.497-6.316-27.818 5.181-36.454z" fill="#fff"/><path d="m142.133 251.564c-14.561-1.869-24.532-15.143-22.271-29.648z" fill="#00b152"/><path d="m119.864 221.917c-14.56-1.869-24.5312-15.143-22.2701-29.648z" fill="#00b152"/><path d="m97.5918 192.271c-14.5606-1.869-24.5314-15.143-22.2704-29.648z" fill="#00b152"/><path d="m75.3203 162.62c-14.5606-1.87-24.5314-15.144-22.2704-29.649z" fill="#00b152"/><path d="m177.619 223.024-34.028-54.324-20.208-32.261c-7.633-12.186-23.6996-15.876-35.8853-8.243l68.0573 108.649z" fill="#fbc641"/><path d="m169.378 258.909c12.186-7.633 15.877-23.699 8.244-35.885-7.634-12.186-23.7-15.876-35.886-8.243z" fill="#fff"/><path d="m130.998 236.739c-14.561-1.869-24.531-15.143-22.27-29.648z" fill="#f35534"/><path d="m108.729 207.092c-14.5601-1.869-24.5309-15.143-22.2699-29.648z" fill="#f35534"/><path d="m86.458 177.445c-14.5606-1.869-24.5314-15.143-22.2704-29.648z" fill="#f35534"/><path d="m1 1.50439c6.35719 1.0507 10.1676 7.65059 7.89897 13.68141-2.26866 6.0309 1.54183 12.6307 7.89893 13.6814 6.3572 1.0507 10.1677 7.6506 7.899 13.6815-2.2686 6.0308 1.5418 12.6307 7.899 13.6814s10.1676 7.6506 7.899 13.6814c-2.2687 6.0309 1.5417 12.6307 7.8989 13.6814s10.1677 7.6506 7.899 13.6815"/></g></svg>