<svg fill="none" height="334" viewBox="0 0 269 334" width="269" xmlns="http://www.w3.org/2000/svg"><g stroke="#f35534" stroke-linejoin="round" stroke-width="2"><path d="m92.9492 294.92h281.882v30.2586h-281.882z" fill="#85543c" transform="matrix(.3353299 -.94210077 .94210077 .3353299 -216.063805 283.59202)"/><path d="m183.49 284.976 67.896-190.7515c9.555-26.8456-4.461-56.3546-31.307-65.91l-85.197 239.3595z" fill="#fbc641"/><path d="m117.579 316.287c26.846 9.555 56.355-4.461 65.91-31.307 9.556-26.846-4.461-56.355-31.307-65.91z" fill="#fff"/><path d="m121.51 305.232c26.444-12.126 37.477-43.122 24.641-69.23z" fill="#00b152"/><path d="m146.152 236.005c26.445-12.126 37.477-43.122 24.642-69.23z" fill="#00b152"/><path d="m170.797 166.775c26.444-12.127 37.477-43.122 24.642-69.2302z" fill="#00b152"/><path d="m195.436 97.5415c26.444-12.1268 37.476-43.1222 24.641-69.2301z" fill="#00b152"/><path d="m57.5508 240.15 67.8962-190.7512c9.555-26.8456 39.064-40.86213 65.91-31.3067l-85.198 239.3599z" fill="#fbc641"/><path d="m88.8584 306.058c-26.8457-9.555-40.8622-39.064-31.3068-65.91 9.5555-26.846 39.0644-40.862 65.9104-31.307z" fill="#fff"/><path d="m92.7871 295.014c26.4439-12.127 37.4769-43.122 24.6419-69.23z" fill="#00b152"/><path d="m117.43 225.787c26.444-12.127 37.477-43.122 24.641-69.23z" fill="#00b152"/><path d="m142.074 156.557c26.445-12.127 37.477-43.123 24.642-69.2305z" fill="#00b152"/><path d="m166.713 87.3232c26.444-12.1268 37.477-43.1221 24.642-69.2301z" fill="#00b152"/><path d="m105.113 260.39c26.445-12.127 37.477-43.122 24.642-69.23z" fill="#f35534"/><path d="m129.754 191.164c26.444-12.127 37.477-43.123 24.642-69.231z" fill="#f35534"/><path d="m154.398 121.929c26.445-12.127 37.477-43.122 24.642-69.2299z" fill="#f35534"/><path d="m133.832 270.615c26.444-12.127 37.477-43.122 24.642-69.23z" fill="#f35534"/><path d="m158.475 201.389c26.444-12.127 37.476-43.123 24.641-69.23z" fill="#f35534"/><path d="m183.115 132.155c26.445-12.127 37.477-43.1224 24.642-69.2303z" fill="#f35534"/><g fill="#fff"><ellipse cx="82.7198" cy="169.451" rx="4.69052" ry="2.34526" transform="matrix(.3353299 -.94210077 .94210077 .3353299 -104.65854 190.559401)"/><ellipse cx="138.343" cy="108.756" rx="4.69052" ry="2.34526" transform="matrix(.3353299 -.94210077 .94210077 .3353299 -10.506655 202.619909)"/><ellipse cx="113.651" cy="82.5418" rx="4.69052" ry="2.34526" transform="matrix(.3353299 -.94210077 .94210077 .3353299 -2.222271 161.933761)"/><ellipse cx="108.144" cy="98.0037" rx="4.69052" ry="2.34526" transform="matrix(.3353299 -.94210077 .94210077 .3353299 -20.449278 167.022675)"/><ellipse cx="102.825" cy="189.882" rx="4.69052" ry="2.34526" transform="matrix(.3353299 -.94210077 .94210077 .3353299 -110.543275 223.0804)"/><ellipse cx="102.812" cy="147.97" rx="7.42666" ry="3.90877" transform="matrix(.3353299 -.94210077 .94210077 .3353299 -71.066588 195.2105)"/><ellipse cx="140.2" cy="77.8836" rx="4.69052" ry="2.34526" transform="matrix(.3353299 -.94210077 .94210077 .3353299 19.812549 183.849428)"/></g><path d="m7.13508 284.686c5.91012-2.567 7.99932-9.896 4.33072-15.193-3.66853-5.297-1.57938-12.626 4.3308-15.192 5.9101-2.567 7.9993-9.896 4.3307-15.193-3.6685-5.297-1.5794-12.626 4.3308-15.193 5.9101-2.567 7.9993-9.896 4.3307-15.193-3.6685-5.297-1.5794-12.626 4.3308-15.192 5.9101-2.567 7.9993-9.896 4.3307-15.193"/></g></svg>